<svg viewBox="0 0 330 200" xmlns="http://www.w3.org/2000/svg"><g><g><g><g><g><line x1="30.766000747680664" y1="169.92707798884987" x2="25.766000747680664" y2="169.92707798884987" style="visibility: inherit;" fill="rgb(0, 0, 0)" stroke="rgb(204, 204, 204)" stroke-width="1px"></line><line x1="30.766000747680664" y1="151.09022194241334" x2="25.766000747680664" y2="151.09022194241334" style="visibility: inherit;" fill="rgb(0, 0, 0)" stroke="rgb(204, 204, 204)" stroke-width="1px"></line><line x1="30.766000747680664" y1="132.25336589597683" x2="25.766000747680664" y2="132.25336589597683" style="visibility: inherit;" fill="rgb(0, 0, 0)" stroke="rgb(204, 204, 204)" stroke-width="1px"></line><line x1="30.766000747680664" y1="113.41650984954026" x2="25.766000747680664" y2="113.41650984954026" style="visibility: inherit;" fill="rgb(0, 0, 0)" stroke="rgb(204, 204, 204)" stroke-width="1px"></line><line x1="30.766000747680664" y1="94.57965380310375" x2="25.766000747680664" y2="94.57965380310375" style="visibility: inherit;" fill="rgb(0, 0, 0)" stroke="rgb(204, 204, 204)" stroke-width="1px"></line><line x1="30.766000747680664" y1="75.7427977566672" x2="25.766000747680664" y2="75.7427977566672" style="visibility: inherit;" fill="rgb(0, 0, 0)" stroke="rgb(204, 204, 204)" stroke-width="1px"></line><line x1="30.766000747680664" y1="56.90594171023065" x2="25.766000747680664" y2="56.90594171023065" style="visibility: inherit;" fill="rgb(0, 0, 0)" stroke="rgb(204, 204, 204)" stroke-width="1px"></line><line x1="30.766000747680664" y1="38.06908566379412" x2="25.766000747680664" y2="38.06908566379412" style="visibility: inherit;" fill="rgb(0, 0, 0)" stroke="rgb(204, 204, 204)" stroke-width="1px"></line><line x1="30.766000747680664" y1="19.23222961735759" x2="25.766000747680664" y2="19.23222961735759" style="visibility: inherit;" fill="rgb(0, 0, 0)" stroke="rgb(204, 204, 204)" stroke-width="1px"></line><line x1="30.766000747680664" y1="0.39537357092106024" x2="25.766000747680664" y2="0.39537357092106024" style="visibility: inherit;" fill="rgb(0, 0, 0)" stroke="rgb(204, 204, 204)" stroke-width="1px"></line></g><g transform="translate(20.766000747680664, 0)"><text style="text-anchor: end; visibility: inherit; font-family: Roboto, sans-serif; font-size: 12px; font-weight: 200;" x="0" y="169.92707798884987" dx="0em" dy="0.3em" fill="rgb(50, 49, 63)" stroke="none" stroke-width="1px">0</text><text style="text-anchor: end; visibility: hidden; font-family: Roboto, sans-serif; font-size: 12px; font-weight: 200;" x="0" y="151.09022194241334" dx="0em" dy="0.3em" fill="rgb(50, 49, 63)" stroke="none" stroke-width="1px">10</text><text style="text-anchor: end; visibility: inherit; font-family: Roboto, sans-serif; font-size: 12px; font-weight: 200;" x="0" y="132.25336589597683" dx="0em" dy="0.3em" fill="rgb(50, 49, 63)" stroke="none" stroke-width="1px">20</text><text style="text-anchor: end; visibility: hidden; font-family: Roboto, sans-serif; font-size: 12px; font-weight: 200;" x="0" y="113.41650984954026" dx="0em" dy="0.3em" fill="rgb(50, 49, 63)" stroke="none" stroke-width="1px">30</text><text style="text-anchor: end; visibility: inherit; font-family: Roboto, sans-serif; font-size: 12px; font-weight: 200;" x="0" y="94.57965380310375" dx="0em" dy="0.3em" fill="rgb(50, 49, 63)" stroke="none" stroke-width="1px">40</text><text style="text-anchor: end; visibility: hidden; font-family: Roboto, sans-serif; font-size: 12px; font-weight: 200;" x="0" y="75.7427977566672" dx="0em" dy="0.3em" fill="rgb(50, 49, 63)" stroke="none" stroke-width="1px">50</text><text style="text-anchor: end; visibility: inherit; font-family: Roboto, sans-serif; font-size: 12px; font-weight: 200;" x="0" y="56.90594171023065" dx="0em" dy="0.3em" fill="rgb(50, 49, 63)" stroke="none" stroke-width="1px">60</text><text style="text-anchor: end; visibility: hidden; font-family: Roboto, sans-serif; font-size: 12px; font-weight: 200;" x="0" y="38.06908566379412" dx="0em" dy="0.3em" fill="rgb(50, 49, 63)" stroke="none" stroke-width="1px">70</text><text style="text-anchor: end; visibility: inherit; font-family: Roboto, sans-serif; font-size: 12px; font-weight: 200;" x="0" y="19.23222961735759" dx="0em" dy="0.3em" fill="rgb(50, 49, 63)" stroke="none" stroke-width="1px">80</text><text style="text-anchor: end; visibility: hidden; font-family: Roboto, sans-serif; font-size: 12px; font-weight: 200;" x="0" y="0.39537357092106024" dx="0em" dy="0.3em" fill="rgb(50, 49, 63)" stroke="none" stroke-width="1px">90</text></g><line x1="30.766000747680664" y1="0" x2="30.766000747680664" y2="177.5999994277954" fill="rgb(0, 0, 0)" stroke="rgb(204, 204, 204)" stroke-width="1px"></line></g></g><g transform="translate(30, 0)" clip-path="url(#clip_0)"><clipPath id="clip_0"><rect width="299" height="177"></rect></clipPath><g><g><g><line x1="6.469368259153049" y1="0" x2="6.469368259153049" y2="177.5999994277954" fill="rgb(0, 0, 0)" stroke="rgb(60, 60, 60)" stroke-width="1px" opacity="0.25"></line><line x1="35.06616874599764" y1="0" x2="35.06616874599764" y2="177.5999994277954" fill="rgb(0, 0, 0)" stroke="rgb(60, 60, 60)" stroke-width="1px" opacity="0.25"></line><line x1="63.66296923284224" y1="0" x2="63.66296923284224" y2="177.5999994277954" fill="rgb(0, 0, 0)" stroke="rgb(60, 60, 60)" stroke-width="1px" opacity="0.25"></line><line x1="92.25976971968683" y1="0" x2="92.25976971968683" y2="177.5999994277954" fill="rgb(0, 0, 0)" stroke="rgb(60, 60, 60)" stroke-width="1px" opacity="0.25"></line><line x1="120.85657020653142" y1="0" x2="120.85657020653142" y2="177.5999994277954" fill="rgb(0, 0, 0)" stroke="rgb(60, 60, 60)" stroke-width="1px" opacity="0.25"></line><line x1="149.45337069337603" y1="0" x2="149.45337069337603" y2="177.5999994277954" fill="rgb(0, 0, 0)" stroke="rgb(60, 60, 60)" stroke-width="1px" opacity="0.25"></line><line x1="178.05017118022062" y1="0" x2="178.05017118022062" y2="177.5999994277954" fill="rgb(0, 0, 0)" stroke="rgb(60, 60, 60)" stroke-width="1px" opacity="0.25"></line><line x1="206.6469716670652" y1="0" x2="206.6469716670652" y2="177.5999994277954" fill="rgb(0, 0, 0)" stroke="rgb(60, 60, 60)" stroke-width="1px" opacity="0.25"></line><line x1="235.24377215390982" y1="0" x2="235.24377215390982" y2="177.5999994277954" fill="rgb(0, 0, 0)" stroke="rgb(60, 60, 60)" stroke-width="1px" opacity="0.25"></line><line x1="263.8405726407544" y1="0" x2="263.8405726407544" y2="177.5999994277954" fill="rgb(0, 0, 0)" stroke="rgb(60, 60, 60)" stroke-width="1px" opacity="0.25"></line><line x1="292.43737312759896" y1="0" x2="292.43737312759896" y2="177.5999994277954" fill="rgb(0, 0, 0)" stroke="rgb(60, 60, 60)" stroke-width="1px" opacity="0.25"></line></g><g><line x1="0" y1="169.92707798884987" x2="299.23399925231934" y2="169.92707798884987" fill="rgb(0, 0, 0)" stroke="rgb(60, 60, 60)" stroke-width="1px" opacity="0.25"></line><line x1="0" y1="151.09022194241334" x2="299.23399925231934" y2="151.09022194241334" fill="rgb(0, 0, 0)" stroke="rgb(60, 60, 60)" stroke-width="1px" opacity="0.25"></line><line x1="0" y1="132.25336589597683" x2="299.23399925231934" y2="132.25336589597683" fill="rgb(0, 0, 0)" stroke="rgb(60, 60, 60)" stroke-width="1px" opacity="0.25"></line><line x1="0" y1="113.41650984954026" x2="299.23399925231934" y2="113.41650984954026" fill="rgb(0, 0, 0)" stroke="rgb(60, 60, 60)" stroke-width="1px" opacity="0.25"></line><line x1="0" y1="94.57965380310375" x2="299.23399925231934" y2="94.57965380310375" fill="rgb(0, 0, 0)" stroke="rgb(60, 60, 60)" stroke-width="1px" opacity="0.25"></line><line x1="0" y1="75.7427977566672" x2="299.23399925231934" y2="75.7427977566672" fill="rgb(0, 0, 0)" stroke="rgb(60, 60, 60)" stroke-width="1px" opacity="0.25"></line><line x1="0" y1="56.90594171023065" x2="299.23399925231934" y2="56.90594171023065" fill="rgb(0, 0, 0)" stroke="rgb(60, 60, 60)" stroke-width="1px" opacity="0.25"></line><line x1="0" y1="38.06908566379412" x2="299.23399925231934" y2="38.06908566379412" fill="rgb(0, 0, 0)" stroke="rgb(60, 60, 60)" stroke-width="1px" opacity="0.25"></line><line x1="0" y1="19.23222961735759" x2="299.23399925231934" y2="19.23222961735759" fill="rgb(0, 0, 0)" stroke="rgb(60, 60, 60)" stroke-width="1px" opacity="0.25"></line><line x1="0" y1="0.39537357092106024" x2="299.23399925231934" y2="0.39537357092106024" fill="rgb(0, 0, 0)" stroke="rgb(60, 60, 60)" stroke-width="1px" opacity="0.25"></line></g></g></g><g><g><line x1="0" y1="169.92707798884987" x2="299.23399925231934" y2="169.92707798884987" fill="rgb(0, 0, 0)" stroke="rgb(153, 153, 153)" stroke-width="1.5px"></line></g></g><g><g><line x1="6.469368259153049" y1="0" x2="6.469368259153049" y2="177.5999994277954" fill="rgb(0, 0, 0)" stroke="rgb(153, 153, 153)" stroke-width="1.5px"></line></g></g><g><g><g><g><g><path style="fill: none;" stroke="rgb(0, 119, 187)" stroke-width="2px" d="M6.469368259153049,163.04772756436242L12.188728356521967,163.8827231934974L17.908088453890887,164.83080272591596L23.627448551259803,164.38097896065585L29.346808648628723,163.26444798457442L35.06616874599764,163.3980573631667L40.78552884336656,163.6489780764821L46.504888940735476,162.71308502574965L52.224249038104404,162.01763056257053L57.94360913547332,41.21097127302265L63.66296923284224,159.73917660462254L69.38232933021116,162.42802958875507L75.10168942758007,152.13563569223933L80.82104952494899,159.47917138231333L86.54040962231791,161.67248389201905L92.25976971968683,143.33710459842933L97.97912981705574,159.09754475840273L103.69848991442467,152.65330539823427L109.41785001179359,151.4720048550885L115.13721010916251,142.2205381430019L120.85657020653142,153.09695351176538L126.57593030390034,141.80250881190318L132.29529040126926,141.76950313981635L138.0146504986382,150.38286617963288L143.7340105960071,147.1249190966922L149.45337069337603,125.55994925060813L155.1727307907449,144.12593171811838L160.89209088811387,140.92432763301863L166.61145098548278,139.14230517509776L172.3308110828517,142.9005487612493L178.05017118022062,150.81632678070525L183.76953127758952,152.509058054221L189.48889137495846,143.9921647034446L195.20825147232736,93.61246707100446L200.92761156969627,119.48801577578702L206.6469716670652,129.4173715310525L212.3663317644341,120.65206886572939L218.08569186180304,123.04587740510381L223.80505195917195,127.90058368157509L229.52441205654085,97.41502660581493L235.24377215390982,124.42395268854102L240.96313225127872,101.15724789896358L246.68249234864766,115.04468308475063L252.40185244601656,121.78810854193846L258.12121254338547,121.37333612497969L263.8405726407544,120.05597273910121L269.55993273812334,6.196884368883803L275.27929283549224,114.4116668812309L280.99865293286115,126.35996449013372L286.71801303023005,101.62673934774973" fill="none"></path></g><g><path style="fill: none;" stroke="rgb(255, 112, 67)" stroke-width="2px" d="M6.469368259153049,162.1946563312141L12.188728356521967,163.62150583505144L17.908088453890887,164.66426267587963L23.627448551259803,164.89673098554522L29.346808648628723,163.66746865411176L35.06616874599764,162.4947024655443L40.78552884336656,161.09844603826707L46.504888940735476,160.1318359578164L52.224249038104404,158.62284997160972L57.94360913547332,157.6905650356319L63.66296923284224,155.5303902350727L69.38232933021116,154.49267146137387L75.10168942758007,152.877132466178L80.82104952494899,150.92549538097288L86.54040962231791,149.76703994379392L92.25976971968683,148.47393904129893L97.97912981705574,145.726114893089L103.69848991442467,144.82740599336756L109.41785001179359,142.55442483681358L115.13721010916251,140.60386021588948L120.85657020653142,137.9180072574678L126.57593030390034,136.22003581928234L132.29529040126926,133.98405378221352L138.0146504986382,131.45324287109634L143.7340105960071,130.25997276429115L149.45337069337603,127.58119771083992L155.1727307907449,125.00910860164889L160.89209088811387,122.15351167351704L166.61145098548278,121.17537754220713L172.3308110828517,116.56128410627959L178.05017118022062,115.46270343373646L183.76953127758952,113.14189072953192L189.48889137495846,110.9205746864171L195.20825147232736,106.92875125412775L200.92761156969627,106.34528757109148L206.6469716670652,101.18317386965737L212.3663317644341,101.36398020962335L218.08569186180304,98.66639301890041L223.80505195917195,96.58938360174403L229.52441205654085,94.70006441588532L235.24377215390982,91.25699059667053L240.96313225127872,88.21536692455138L246.68249234864766,84.34300559392064L252.40185244601656,84.05434922786175L258.12121254338547,80.90469588739157L263.8405726407544,79.93669717228552L269.55993273812334,77.4204911767546L275.27929283549224,74.17253759263386L280.99865293286115,73.5473466058784L286.71801303023005,68.08120634677951" fill="none"></path></g></g></g></g></g></g><g transform="translate(30, 177)" clip-path="url(#clip_1)"><clipPath id="clip_1"><rect width="299" height="22"></rect></clipPath><g><g><line x1="6.469368259153049" y1="0" x2="6.469368259153049" y2="5" style="visibility: inherit;" fill="rgb(0, 0, 0)" stroke="rgb(204, 204, 204)" stroke-width="1px"></line><line x1="35.06616874599764" y1="0" x2="35.06616874599764" y2="5" style="visibility: inherit;" fill="rgb(0, 0, 0)" stroke="rgb(204, 204, 204)" stroke-width="1px"></line><line x1="63.66296923284224" y1="0" x2="63.66296923284224" y2="5" style="visibility: inherit;" fill="rgb(0, 0, 0)" stroke="rgb(204, 204, 204)" stroke-width="1px"></line><line x1="92.25976971968683" y1="0" x2="92.25976971968683" y2="5" style="visibility: inherit;" fill="rgb(0, 0, 0)" stroke="rgb(204, 204, 204)" stroke-width="1px"></line><line x1="120.85657020653142" y1="0" x2="120.85657020653142" y2="5" style="visibility: inherit;" fill="rgb(0, 0, 0)" stroke="rgb(204, 204, 204)" stroke-width="1px"></line><line x1="149.45337069337603" y1="0" x2="149.45337069337603" y2="5" style="visibility: inherit;" fill="rgb(0, 0, 0)" stroke="rgb(204, 204, 204)" stroke-width="1px"></line><line x1="178.05017118022062" y1="0" x2="178.05017118022062" y2="5" style="visibility: inherit;" fill="rgb(0, 0, 0)" stroke="rgb(204, 204, 204)" stroke-width="1px"></line><line x1="206.6469716670652" y1="0" x2="206.6469716670652" y2="5" style="visibility: inherit;" fill="rgb(0, 0, 0)" stroke="rgb(204, 204, 204)" stroke-width="1px"></line><line x1="235.24377215390982" y1="0" x2="235.24377215390982" y2="5" style="visibility: inherit;" fill="rgb(0, 0, 0)" stroke="rgb(204, 204, 204)" stroke-width="1px"></line><line x1="263.8405726407544" y1="0" x2="263.8405726407544" y2="5" style="visibility: inherit;" fill="rgb(0, 0, 0)" stroke="rgb(204, 204, 204)" stroke-width="1px"></line><line x1="292.43737312759896" y1="0" x2="292.43737312759896" y2="5" style="visibility: inherit;" fill="rgb(0, 0, 0)" stroke="rgb(204, 204, 204)" stroke-width="1px"></line></g><g transform="translate(0, 8)"><text style="text-anchor: middle; visibility: inherit; font-family: Roboto, sans-serif; font-size: 12px; font-weight: 200;" x="6.469368259153049" y="0" dx="0em" dy="0.95em" fill="rgb(50, 49, 63)" stroke="none" stroke-width="1px">0</text><text style="text-anchor: middle; visibility: inherit; font-family: Roboto, sans-serif; font-size: 12px; font-weight: 200;" x="35.06616874599764" y="0" dx="0em" dy="0.95em" fill="rgb(50, 49, 63)" stroke="none" stroke-width="1px">5</text><text style="text-anchor: middle; visibility: inherit; font-family: Roboto, sans-serif; font-size: 12px; font-weight: 200;" x="63.66296923284224" y="0" dx="0em" dy="0.95em" fill="rgb(50, 49, 63)" stroke="none" stroke-width="1px">10</text><text style="text-anchor: middle; visibility: inherit; font-family: Roboto, sans-serif; font-size: 12px; font-weight: 200;" x="92.25976971968683" y="0" dx="0em" dy="0.95em" fill="rgb(50, 49, 63)" stroke="none" stroke-width="1px">15</text><text style="text-anchor: middle; visibility: inherit; font-family: Roboto, sans-serif; font-size: 12px; font-weight: 200;" x="120.85657020653142" y="0" dx="0em" dy="0.95em" fill="rgb(50, 49, 63)" stroke="none" stroke-width="1px">20</text><text style="text-anchor: middle; visibility: inherit; font-family: Roboto, sans-serif; font-size: 12px; font-weight: 200;" x="149.45337069337603" y="0" dx="0em" dy="0.95em" fill="rgb(50, 49, 63)" stroke="none" stroke-width="1px">25</text><text style="text-anchor: middle; visibility: inherit; font-family: Roboto, sans-serif; font-size: 12px; font-weight: 200;" x="178.05017118022062" y="0" dx="0em" dy="0.95em" fill="rgb(50, 49, 63)" stroke="none" stroke-width="1px">30</text><text style="text-anchor: middle; visibility: inherit; font-family: Roboto, sans-serif; font-size: 12px; font-weight: 200;" x="206.6469716670652" y="0" dx="0em" dy="0.95em" fill="rgb(50, 49, 63)" stroke="none" stroke-width="1px">35</text><text style="text-anchor: middle; visibility: inherit; font-family: Roboto, sans-serif; font-size: 12px; font-weight: 200;" x="235.24377215390982" y="0" dx="0em" dy="0.95em" fill="rgb(50, 49, 63)" stroke="none" stroke-width="1px">40</text><text style="text-anchor: middle; visibility: inherit; font-family: Roboto, sans-serif; font-size: 12px; font-weight: 200;" x="263.8405726407544" y="0" dx="0em" dy="0.95em" fill="rgb(50, 49, 63)" stroke="none" stroke-width="1px">45</text><text style="text-anchor: middle; visibility: inherit; font-family: Roboto, sans-serif; font-size: 12px; font-weight: 200;" x="292.43737312759896" y="0" dx="0em" dy="0.95em" fill="rgb(50, 49, 63)" stroke="none" stroke-width="1px">50</text></g><line x1="0" y1="0" x2="299.23399925231934" y2="0" fill="rgb(0, 0, 0)" stroke="rgb(204, 204, 204)" stroke-width="1px"></line></g></g></g></g></svg>