<svg viewBox="0 0 330 200" xmlns="http://www.w3.org/2000/svg"><g><g><g><g><g><line x1="41.149001121520996" y1="177.5999994277954" x2="36.149001121520996" y2="177.5999994277954" style="visibility: inherit;" fill="rgb(0, 0, 0)" stroke="rgb(204, 204, 204)" stroke-width="1px"></line><line x1="41.149001121520996" y1="162.79999947547913" x2="36.149001121520996" y2="162.79999947547913" style="visibility: inherit;" fill="rgb(0, 0, 0)" stroke="rgb(204, 204, 204)" stroke-width="1px"></line><line x1="41.149001121520996" y1="147.99999952316284" x2="36.149001121520996" y2="147.99999952316284" style="visibility: inherit;" fill="rgb(0, 0, 0)" stroke="rgb(204, 204, 204)" stroke-width="1px"></line><line x1="41.149001121520996" y1="133.19999957084656" x2="36.149001121520996" y2="133.19999957084656" style="visibility: inherit;" fill="rgb(0, 0, 0)" stroke="rgb(204, 204, 204)" stroke-width="1px"></line><line x1="41.149001121520996" y1="118.39999961853025" x2="36.149001121520996" y2="118.39999961853025" style="visibility: inherit;" fill="rgb(0, 0, 0)" stroke="rgb(204, 204, 204)" stroke-width="1px"></line><line x1="41.149001121520996" y1="103.59999966621398" x2="36.149001121520996" y2="103.59999966621398" style="visibility: inherit;" fill="rgb(0, 0, 0)" stroke="rgb(204, 204, 204)" stroke-width="1px"></line><line x1="41.149001121520996" y1="88.79999971389769" x2="36.149001121520996" y2="88.79999971389769" style="visibility: inherit;" fill="rgb(0, 0, 0)" stroke="rgb(204, 204, 204)" stroke-width="1px"></line><line x1="41.149001121520996" y1="73.99999976158142" x2="36.149001121520996" y2="73.99999976158142" style="visibility: inherit;" fill="rgb(0, 0, 0)" stroke="rgb(204, 204, 204)" stroke-width="1px"></line><line x1="41.149001121520996" y1="59.19999980926512" x2="36.149001121520996" y2="59.19999980926512" style="visibility: inherit;" fill="rgb(0, 0, 0)" stroke="rgb(204, 204, 204)" stroke-width="1px"></line><line x1="41.149001121520996" y1="44.39999985694883" x2="36.149001121520996" y2="44.39999985694883" style="visibility: inherit;" fill="rgb(0, 0, 0)" stroke="rgb(204, 204, 204)" stroke-width="1px"></line><line x1="41.149001121520996" y1="29.59999990463256" x2="36.149001121520996" y2="29.59999990463256" style="visibility: inherit;" fill="rgb(0, 0, 0)" stroke="rgb(204, 204, 204)" stroke-width="1px"></line><line x1="41.149001121520996" y1="14.799999952316272" x2="36.149001121520996" y2="14.799999952316272" style="visibility: inherit;" fill="rgb(0, 0, 0)" stroke="rgb(204, 204, 204)" stroke-width="1px"></line><line x1="41.149001121520996" y1="0" x2="36.149001121520996" y2="0" style="visibility: inherit;" fill="rgb(0, 0, 0)" stroke="rgb(204, 204, 204)" stroke-width="1px"></line></g><g transform="translate(31.149001121520996, 0)"><text style="text-anchor: end; visibility: hidden; font-family: Roboto, sans-serif; font-size: 12px; font-weight: 200;" x="0" y="177.5999994277954" dx="0em" dy="0.3em" fill="rgb(50, 49, 63)" stroke="none" stroke-width="1px">0.7</text><text style="text-anchor: end; visibility: inherit; font-family: Roboto, sans-serif; font-size: 12px; font-weight: 200;" x="0" y="162.79999947547913" dx="0em" dy="0.3em" fill="rgb(50, 49, 63)" stroke="none" stroke-width="1px">0.8</text><text style="text-anchor: end; visibility: hidden; font-family: Roboto, sans-serif; font-size: 12px; font-weight: 200;" x="0" y="147.99999952316284" dx="0em" dy="0.3em" fill="rgb(50, 49, 63)" stroke="none" stroke-width="1px">0.9</text><text style="text-anchor: end; visibility: inherit; font-family: Roboto, sans-serif; font-size: 12px; font-weight: 200;" x="0" y="133.19999957084656" dx="0em" dy="0.3em" fill="rgb(50, 49, 63)" stroke="none" stroke-width="1px">1</text><text style="text-anchor: end; visibility: hidden; font-family: Roboto, sans-serif; font-size: 12px; font-weight: 200;" x="0" y="118.39999961853025" dx="0em" dy="0.3em" fill="rgb(50, 49, 63)" stroke="none" stroke-width="1px">1.1</text><text style="text-anchor: end; visibility: inherit; font-family: Roboto, sans-serif; font-size: 12px; font-weight: 200;" x="0" y="103.59999966621398" dx="0em" dy="0.3em" fill="rgb(50, 49, 63)" stroke="none" stroke-width="1px">1.2</text><text style="text-anchor: end; visibility: hidden; font-family: Roboto, sans-serif; font-size: 12px; font-weight: 200;" x="0" y="88.79999971389769" dx="0em" dy="0.3em" fill="rgb(50, 49, 63)" stroke="none" stroke-width="1px">1.3</text><text style="text-anchor: end; visibility: inherit; font-family: Roboto, sans-serif; font-size: 12px; font-weight: 200;" x="0" y="73.99999976158142" dx="0em" dy="0.3em" fill="rgb(50, 49, 63)" stroke="none" stroke-width="1px">1.4</text><text style="text-anchor: end; visibility: hidden; font-family: Roboto, sans-serif; font-size: 12px; font-weight: 200;" x="0" y="59.19999980926512" dx="0em" dy="0.3em" fill="rgb(50, 49, 63)" stroke="none" stroke-width="1px">1.5</text><text style="text-anchor: end; visibility: inherit; font-family: Roboto, sans-serif; font-size: 12px; font-weight: 200;" x="0" y="44.39999985694883" dx="0em" dy="0.3em" fill="rgb(50, 49, 63)" stroke="none" stroke-width="1px">1.6</text><text style="text-anchor: end; visibility: hidden; font-family: Roboto, sans-serif; font-size: 12px; font-weight: 200;" x="0" y="29.59999990463256" dx="0em" dy="0.3em" fill="rgb(50, 49, 63)" stroke="none" stroke-width="1px">1.7</text><text style="text-anchor: end; visibility: inherit; font-family: Roboto, sans-serif; font-size: 12px; font-weight: 200;" x="0" y="14.799999952316272" dx="0em" dy="0.3em" fill="rgb(50, 49, 63)" stroke="none" stroke-width="1px">1.8</text><text style="text-anchor: end; visibility: hidden; font-family: Roboto, sans-serif; font-size: 12px; font-weight: 200;" x="0" y="0" dx="0em" dy="0.3em" fill="rgb(50, 49, 63)" stroke="none" stroke-width="1px">1.9</text></g><line x1="41.149001121520996" y1="0" x2="41.149001121520996" y2="177.5999994277954" fill="rgb(0, 0, 0)" stroke="rgb(204, 204, 204)" stroke-width="1px"></line></g></g><g transform="translate(41, 0)" clip-path="url(#clip_0)"><clipPath id="clip_0"><rect width="288" height="177"></rect></clipPath><g><g><g><line x1="0" y1="0" x2="0" y2="177.5999994277954" fill="rgb(0, 0, 0)" stroke="rgb(60, 60, 60)" stroke-width="1px" opacity="0.25"></line><line x1="24.07091657320658" y1="0" x2="24.07091657320658" y2="177.5999994277954" fill="rgb(0, 0, 0)" stroke="rgb(60, 60, 60)" stroke-width="1px" opacity="0.25"></line><line x1="48.14183314641316" y1="0" x2="48.14183314641316" y2="177.5999994277954" fill="rgb(0, 0, 0)" stroke="rgb(60, 60, 60)" stroke-width="1px" opacity="0.25"></line><line x1="72.21274971961975" y1="0" x2="72.21274971961975" y2="177.5999994277954" fill="rgb(0, 0, 0)" stroke="rgb(60, 60, 60)" stroke-width="1px" opacity="0.25"></line><line x1="96.28366629282633" y1="0" x2="96.28366629282633" y2="177.5999994277954" fill="rgb(0, 0, 0)" stroke="rgb(60, 60, 60)" stroke-width="1px" opacity="0.25"></line><line x1="120.35458286603293" y1="0" x2="120.35458286603293" y2="177.5999994277954" fill="rgb(0, 0, 0)" stroke="rgb(60, 60, 60)" stroke-width="1px" opacity="0.25"></line><line x1="144.4254994392395" y1="0" x2="144.4254994392395" y2="177.5999994277954" fill="rgb(0, 0, 0)" stroke="rgb(60, 60, 60)" stroke-width="1px" opacity="0.25"></line><line x1="168.4964160124461" y1="0" x2="168.4964160124461" y2="177.5999994277954" fill="rgb(0, 0, 0)" stroke="rgb(60, 60, 60)" stroke-width="1px" opacity="0.25"></line><line x1="192.56733258565265" y1="0" x2="192.56733258565265" y2="177.5999994277954" fill="rgb(0, 0, 0)" stroke="rgb(60, 60, 60)" stroke-width="1px" opacity="0.25"></line><line x1="216.63824915885925" y1="0" x2="216.63824915885925" y2="177.5999994277954" fill="rgb(0, 0, 0)" stroke="rgb(60, 60, 60)" stroke-width="1px" opacity="0.25"></line><line x1="240.70916573206586" y1="0" x2="240.70916573206586" y2="177.5999994277954" fill="rgb(0, 0, 0)" stroke="rgb(60, 60, 60)" stroke-width="1px" opacity="0.25"></line><line x1="264.7800823052724" y1="0" x2="264.7800823052724" y2="177.5999994277954" fill="rgb(0, 0, 0)" stroke="rgb(60, 60, 60)" stroke-width="1px" opacity="0.25"></line><line x1="288.850998878479" y1="0" x2="288.850998878479" y2="177.5999994277954" fill="rgb(0, 0, 0)" stroke="rgb(60, 60, 60)" stroke-width="1px" opacity="0.25"></line></g><g><line x1="0" y1="177.5999994277954" x2="288.850998878479" y2="177.5999994277954" fill="rgb(0, 0, 0)" stroke="rgb(60, 60, 60)" stroke-width="1px" opacity="0.25"></line><line x1="0" y1="162.79999947547913" x2="288.850998878479" y2="162.79999947547913" fill="rgb(0, 0, 0)" stroke="rgb(60, 60, 60)" stroke-width="1px" opacity="0.25"></line><line x1="0" y1="147.99999952316284" x2="288.850998878479" y2="147.99999952316284" fill="rgb(0, 0, 0)" stroke="rgb(60, 60, 60)" stroke-width="1px" opacity="0.25"></line><line x1="0" y1="133.19999957084656" x2="288.850998878479" y2="133.19999957084656" fill="rgb(0, 0, 0)" stroke="rgb(60, 60, 60)" stroke-width="1px" opacity="0.25"></line><line x1="0" y1="118.39999961853025" x2="288.850998878479" y2="118.39999961853025" fill="rgb(0, 0, 0)" stroke="rgb(60, 60, 60)" stroke-width="1px" opacity="0.25"></line><line x1="0" y1="103.59999966621398" x2="288.850998878479" y2="103.59999966621398" fill="rgb(0, 0, 0)" stroke="rgb(60, 60, 60)" stroke-width="1px" opacity="0.25"></line><line x1="0" y1="88.79999971389769" x2="288.850998878479" y2="88.79999971389769" fill="rgb(0, 0, 0)" stroke="rgb(60, 60, 60)" stroke-width="1px" opacity="0.25"></line><line x1="0" y1="73.99999976158142" x2="288.850998878479" y2="73.99999976158142" fill="rgb(0, 0, 0)" stroke="rgb(60, 60, 60)" stroke-width="1px" opacity="0.25"></line><line x1="0" y1="59.19999980926512" x2="288.850998878479" y2="59.19999980926512" fill="rgb(0, 0, 0)" stroke="rgb(60, 60, 60)" stroke-width="1px" opacity="0.25"></line><line x1="0" y1="44.39999985694883" x2="288.850998878479" y2="44.39999985694883" fill="rgb(0, 0, 0)" stroke="rgb(60, 60, 60)" stroke-width="1px" opacity="0.25"></line><line x1="0" y1="29.59999990463256" x2="288.850998878479" y2="29.59999990463256" fill="rgb(0, 0, 0)" stroke="rgb(60, 60, 60)" stroke-width="1px" opacity="0.25"></line><line x1="0" y1="14.799999952316272" x2="288.850998878479" y2="14.799999952316272" fill="rgb(0, 0, 0)" stroke="rgb(60, 60, 60)" stroke-width="1px" opacity="0.25"></line><line x1="0" y1="0" x2="288.850998878479" y2="0" fill="rgb(0, 0, 0)" stroke="rgb(60, 60, 60)" stroke-width="1px" opacity="0.25"></line></g></g></g><g><g><line x1="0" y1="281.1999990940094" x2="288.850998878479" y2="281.1999990940094" fill="rgb(0, 0, 0)" stroke="rgb(153, 153, 153)" stroke-width="1.5px"></line></g></g><g><g><line x1="24.07091657320658" y1="0" x2="24.07091657320658" y2="177.5999994277954" fill="rgb(0, 0, 0)" stroke="rgb(153, 153, 153)" stroke-width="1.5px"></line></g></g><g><g><g><g><g><path style="fill: none;" stroke="rgb(0, 119, 187)" stroke-width="2px" d="M24.07091657320658,-60.14050445253625L28.8850998878479,6.107913188328874L33.69928320248922,32.88326224222935L38.51346651713053,47.75787786355572L43.32764983177185,57.51266098566099L48.14183314641316,64.44322727421417L52.95601646105448,69.82426401529999L57.7701997756958,74.00367302893409L62.58438309033712,77.44571155391604L67.39856640497844,80.36040156222548L72.21274971961975,82.85164253244L77.02693303426106,84.97742692271623L81.84111634890239,86.79548254658891L86.6552996635437,88.31591882861653L91.46948297818501,89.7385248153966L96.28366629282633,91.01405896427161L101.09784960746765,92.17426098690078L105.91203292210896,93.13606775794135L110.72621623675029,94.06576431485199L115.5403995513916,94.87287748287535L120.35458286603293,95.6748212592833L125.16876618067424,96.36510264820309L129.98294949531555,96.96563422433222L134.79713280995688,97.57399928127107L139.61131612459818,98.05328833459748L144.4254994392395,98.58266579337162L149.23968275388083,98.96234261099602L154.05386606852213,99.3812926905178L158.86804938316345,99.73981558136097L163.68223269780478,100.09043441949524L168.4964160124461,100.41203056408898L173.3105993270874,100.72452293368764L178.12478264172873,100.93772064113062L182.93896595637003,101.17346607036376L187.75314927101135,101.36118732220035L192.56733258565265,101.56603990256451L197.38151590029398,101.67452655458925L202.1956992149353,101.88984141900784L207.00988252957663,102.02080522092353L211.82406584421793,102.1041859198126L216.63824915885925,102.26339612437776L221.45243247350058,102.35053477689854L226.26661578814188,102.42168889425352L231.0807991027832,102.52334771503195L235.89498241742453,102.61385617573887L240.70916573206586,102.62708840683638L245.52334904670715,102.67435393631666L250.33753236134848,102.74028573313181L255.15171567598978,102.76195130618214L259.9658989906311,102.75348267827974" fill="none"></path></g><g><path style="fill: none;" stroke="rgb(255, 112, 67)" stroke-width="2px" d="M28.8850998878479,-25.578446115099293L33.69928320248922,19.12227119006893L38.51346651713053,41.58617120695701L43.32764983177185,55.831832419756815L48.14183314641316,66.22264478328213L52.95601646105448,74.33470816504403L57.7701997756958,80.85641615565912L62.58438309033712,86.42041054538645L67.39856640497844,91.35684432159616L72.21274971961975,95.36077630790253L77.02693303426106,99.25292240589721L81.84111634890239,102.3152488273052L86.6552996635437,105.93879827699533L91.46948297818501,108.29088910498847L96.28366629282633,110.89560968909518L101.09784960746765,113.6078112756632L105.91203292210896,116.13389712110113L110.72621623675029,118.05126505010429L115.5403995513916,119.83269385829908L120.35458286603293,121.97721508780938L125.16876618067424,123.70885542112796L129.98294949531555,125.32419326458688L134.79713280995688,127.27693535805736L139.61131612459818,128.71635509981866L144.4254994392395,130.1491940119808L149.23968275388083,131.79787707780542L154.05386606852213,132.9713113315321L158.86804938316345,134.3598134480302L163.68223269780478,136.06900309592L168.4964160124461,136.65984867888577L173.3105993270874,137.96769593610088L178.12478264172873,139.23553774796454L182.93896595637003,140.2780258427503L187.75314927101135,141.45331260883063L192.56733258565265,142.59077283694688L197.38151590029398,143.19802638647354L202.1956992149353,144.60890861650122L207.00988252957663,145.11178632713077L211.82406584421793,146.38862605614074L216.63824915885925,147.38750953871653L221.45243247350058,148.18906516967894L226.26661578814188,148.782486626965L231.0807991027832,149.45547790058407L235.89498241742453,150.81506318139043L240.70916573206586,151.09841817811238L245.52334904670715,152.2249132973925L250.33753236134848,152.8563730083402L255.15171567598978,153.55753129122215L259.9658989906311,154.32466547835625" fill="none"></path></g><g><path style="fill: none;" stroke="rgb(0, 153, 136)" stroke-width="2px" d="M24.07091657320658,-59.76347408113135L28.8850998878479,6.3824025902155L33.69928320248922,33.00005873538333L38.51346651713053,47.82488588183348L43.32764983177185,57.485490804474104L48.14183314641316,64.48112438407742L52.95601646105448,69.7982406274749L57.7701997756958,74.032660436525L62.58438309033712,77.51954740344011L67.39856640497844,80.43460791422028L72.21274971961975,82.84848443995138L77.02693303426106,84.98296681680237L81.84111634890239,86.78574362450115L86.6552996635437,88.32124700700511L91.46948297818501,89.81534232766131L96.28366629282633,91.04733361473812L101.09784960746765,92.15861166825613L105.91203292210896,93.19199598804681L110.72621623675029,94.09843910417544L115.5403995513916,95.0296353139438L120.35458286603293,95.70469081561407L125.16876618067424,96.4287585012695L129.98294949531555,97.00690114238165L134.79713280995688,97.60640942597257L139.61131612459818,98.11789690830288L144.4254994392395,98.58146607108546L149.23968275388083,99.00630890418931L154.05386606852213,99.4665788306849L158.86804938316345,99.77556024829903L163.68223269780478,100.08452402293834L168.4964160124461,100.37847362602571L173.3105993270874,100.65123401638225L178.12478264172873,100.86704288409516L182.93896595637003,101.14020906287203L187.75314927101135,101.37080274346452L192.56733258565265,101.49236283981361L197.38151590029398,101.73056064254347L202.1956992149353,101.82867322538777L207.00988252957663,102.10016332155895L211.82406584421793,102.06431279677213L216.63824915885925,102.2244933649511L221.45243247350058,102.3417132895002L226.26661578814188,102.43043980975266L231.0807991027832,102.52765260088233L235.89498241742453,102.56163297034072L240.70916573206586,102.64349637339728L245.52334904670715,102.67398343384593L250.33753236134848,102.75537047658297L255.15171567598978,102.80305943745837L259.9658989906311,102.80662331836731" fill="none"></path></g><g><path style="fill: none;" stroke="rgb(238, 51, 119)" stroke-width="2px" d="M28.8850998878479,-25.186630930814772L33.69928320248922,19.338238844554986L38.51346651713053,41.55556064568479L43.32764983177185,55.801786433678096L48.14183314641316,66.26858708965267L52.95601646105448,74.28943629171579L57.7701997756958,80.57843344476275L62.58438309033712,86.45887223044319L67.39856640497844,90.94080533291583L72.21274971961975,95.25036657162495L77.02693303426106,98.8574551258298L81.84111634890239,102.5288346801937L86.6552996635437,105.4235175550837L91.46948297818501,108.25061019352766L96.28366629282633,110.92196829344141L101.09784960746765,113.44011480022084L105.91203292210896,115.86207180840881L110.72621623675029,117.77342348300628L115.5403995513916,120.12473802010838L120.35458286603293,121.765005386955L125.16876618067424,123.53960636390347L129.98294949531555,125.53012206641364L134.79713280995688,126.9835150442139L139.61131612459818,128.5400488526755L144.4254994392395,130.0903723340087L149.23968275388083,131.67545247569132L154.05386606852213,132.66314149075862L158.86804938316345,134.23982357643803L163.68223269780478,135.56048845484293L168.4964160124461,136.7710170630796L173.3105993270874,137.74291561570388L178.12478264172873,139.023169260337L182.93896595637003,140.33231327619967L187.75314927101135,141.14905068697462L192.56733258565265,142.0727750969166L197.38151590029398,143.43971749821316L202.1956992149353,144.479682647603L207.00988252957663,145.23737784322088L211.82406584421793,146.2085001049541L216.63824915885925,147.05538935965657L221.45243247350058,148.1071753021602L226.26661578814188,148.70381660234665L231.0807991027832,149.27432865685924L235.89498241742453,150.27989882688297L240.70916573206586,151.30864304430213L245.52334904670715,152.1125010834755L250.33753236134848,152.51731914018515L255.15171567598978,153.284691507479L259.9658989906311,154.24357836619075" fill="none"></path></g><g><path style="fill: none;" stroke="rgb(51, 187, 238)" stroke-width="2px" d="M24.07091657320658,-60.416370006457015L28.8850998878479,6.03331869088855L33.69928320248922,32.91793068770481L38.51346651713053,47.805990255826245L43.32764983177185,57.46116114222951L48.14183314641316,64.46385191175146L52.95601646105448,69.78574940131885L57.7701997756958,74.0157055377454L62.58438309033712,77.48186200927442L67.39856640497844,80.3375715528386L72.21274971961975,82.79689638164591L77.02693303426106,84.90971318544659L81.84111634890239,86.74070110984525L86.6552996635437,88.34368887094648L91.46948297818501,89.7199996918601L96.28366629282633,91.04556931725847L101.09784960746765,92.11542166595387L105.91203292210896,93.09196032094968L110.72621623675029,94.10569036681687L115.5403995513916,94.84205520590558L120.35458286603293,95.59976804449826L125.16876618067424,96.29036700696439L129.98294949531555,96.93100106480637L134.79713280995688,97.50826155717867L139.61131612459818,97.9985598267782L144.4254994392395,98.49607407306955L149.23968275388083,98.87756811709801L154.05386606852213,99.34397779882283L158.86804938316345,99.62584196417446L163.68223269780478,99.97250877595428L168.4964160124461,100.2592600453246L173.3105993270874,100.53203807865593L178.12478264172873,100.82851062713922L182.93896595637003,101.04610143530658L187.75314927101135,101.28950391560146L192.56733258565265,101.48953996384614L197.38151590029398,101.73394809370443L202.1956992149353,101.87163386901767L207.00988252957663,101.9864719919692L211.82406584421793,102.10976109984836L216.63824915885925,102.20348058196826L221.45243247350058,102.33298001697585L226.26661578814188,102.43537984269574L231.0807991027832,102.48927913069957L235.89498241742453,102.51576123586936L240.70916573206586,102.59660134638773L245.52334904670715,102.67029605211343L250.33753236134848,102.79665503760718L255.15171567598978,102.76091037066914L259.9658989906311,102.79005656503324" fill="none"></path></g><g><path style="fill: none;" stroke="rgb(204, 51, 17)" stroke-width="2px" d="M28.8850998878479,-25.708227837703614L33.69928320248922,19.043548236526185L38.51346651713053,41.564346847133535L43.32764983177185,55.612230312462636L48.14183314641316,66.01745698639682L52.95601646105448,74.04954476340542L57.7701997756958,80.97903483049599L62.58438309033712,86.29299298140488L67.39856640497844,90.8916520051323L72.21274971961975,95.2172330649568L77.02693303426106,99.17352901931218L81.84111634890239,102.60685191474458L86.6552996635437,105.74456676745876L91.46948297818501,108.3845909441336L96.28366629282633,111.00480206011179L101.09784960746765,113.22037154912827L105.91203292210896,115.85531454906169L110.72621623675029,118.17088441922573L115.5403995513916,119.954006953001L120.35458286603293,121.9787500266167L125.16876618067424,123.3942106086041L129.98294949531555,125.27715709377894L134.79713280995688,127.22046019573321L139.61131612459818,128.71206785694307L144.4254994392395,130.0823977094006L149.23968275388083,131.61320806060866L154.05386606852213,132.9532978542647L158.86804938316345,134.08317160321837L163.68223269780478,135.89127658930573L168.4964160124461,137.00920604432207L173.3105993270874,137.9622971858131L178.12478264172873,139.08593414317616L182.93896595637003,140.37382719589624L187.75314927101135,141.1814431887013L192.56733258565265,142.45275184511252L197.38151590029398,143.3138348730389L202.1956992149353,143.9771136890324L207.00988252957663,145.18829508733654L211.82406584421793,146.08918066640422L216.63824915885925,146.96026726104031L221.45243247350058,148.118819665526L226.26661578814188,148.53583783930753L231.0807991027832,149.4595798922243L235.89498241742453,150.67771262259834L240.70916573206586,151.03031629539723L245.52334904670715,152.23195284433638L250.33753236134848,152.7296523418631L255.15171567598978,153.3880616968127L259.9658989906311,154.27053683168006" fill="none"></path></g></g></g></g></g></g><g transform="translate(41, 177)" clip-path="url(#clip_1)"><clipPath id="clip_1"><rect width="288" height="22"></rect></clipPath><g><g><line x1="0" y1="0" x2="0" y2="5" style="visibility: inherit;" fill="rgb(0, 0, 0)" stroke="rgb(204, 204, 204)" stroke-width="1px"></line><line x1="24.07091657320658" y1="0" x2="24.07091657320658" y2="5" style="visibility: inherit;" fill="rgb(0, 0, 0)" stroke="rgb(204, 204, 204)" stroke-width="1px"></line><line x1="48.14183314641316" y1="0" x2="48.14183314641316" y2="5" style="visibility: inherit;" fill="rgb(0, 0, 0)" stroke="rgb(204, 204, 204)" stroke-width="1px"></line><line x1="72.21274971961975" y1="0" x2="72.21274971961975" y2="5" style="visibility: inherit;" fill="rgb(0, 0, 0)" stroke="rgb(204, 204, 204)" stroke-width="1px"></line><line x1="96.28366629282633" y1="0" x2="96.28366629282633" y2="5" style="visibility: inherit;" fill="rgb(0, 0, 0)" stroke="rgb(204, 204, 204)" stroke-width="1px"></line><line x1="120.35458286603293" y1="0" x2="120.35458286603293" y2="5" style="visibility: inherit;" fill="rgb(0, 0, 0)" stroke="rgb(204, 204, 204)" stroke-width="1px"></line><line x1="144.4254994392395" y1="0" x2="144.4254994392395" y2="5" style="visibility: inherit;" fill="rgb(0, 0, 0)" stroke="rgb(204, 204, 204)" stroke-width="1px"></line><line x1="168.4964160124461" y1="0" x2="168.4964160124461" y2="5" style="visibility: inherit;" fill="rgb(0, 0, 0)" stroke="rgb(204, 204, 204)" stroke-width="1px"></line><line x1="192.56733258565265" y1="0" x2="192.56733258565265" y2="5" style="visibility: inherit;" fill="rgb(0, 0, 0)" stroke="rgb(204, 204, 204)" stroke-width="1px"></line><line x1="216.63824915885925" y1="0" x2="216.63824915885925" y2="5" style="visibility: inherit;" fill="rgb(0, 0, 0)" stroke="rgb(204, 204, 204)" stroke-width="1px"></line><line x1="240.70916573206586" y1="0" x2="240.70916573206586" y2="5" style="visibility: inherit;" fill="rgb(0, 0, 0)" stroke="rgb(204, 204, 204)" stroke-width="1px"></line><line x1="264.7800823052724" y1="0" x2="264.7800823052724" y2="5" style="visibility: inherit;" fill="rgb(0, 0, 0)" stroke="rgb(204, 204, 204)" stroke-width="1px"></line><line x1="288.850998878479" y1="0" x2="288.850998878479" y2="5" style="visibility: inherit;" fill="rgb(0, 0, 0)" stroke="rgb(204, 204, 204)" stroke-width="1px"></line></g><g transform="translate(0, 8)"><text style="text-anchor: middle; visibility: hidden; font-family: Roboto, sans-serif; font-size: 12px; font-weight: 200;" x="0" y="0" dx="0em" dy="0.95em" fill="rgb(50, 49, 63)" stroke="none" stroke-width="1px">-5</text><text style="text-anchor: middle; visibility: inherit; font-family: Roboto, sans-serif; font-size: 12px; font-weight: 200;" x="24.07091657320658" y="0" dx="0em" dy="0.95em" fill="rgb(50, 49, 63)" stroke="none" stroke-width="1px">0</text><text style="text-anchor: middle; visibility: inherit; font-family: Roboto, sans-serif; font-size: 12px; font-weight: 200;" x="48.14183314641316" y="0" dx="0em" dy="0.95em" fill="rgb(50, 49, 63)" stroke="none" stroke-width="1px">5</text><text style="text-anchor: middle; visibility: inherit; font-family: Roboto, sans-serif; font-size: 12px; font-weight: 200;" x="72.21274971961975" y="0" dx="0em" dy="0.95em" fill="rgb(50, 49, 63)" stroke="none" stroke-width="1px">10</text><text style="text-anchor: middle; visibility: inherit; font-family: Roboto, sans-serif; font-size: 12px; font-weight: 200;" x="96.28366629282633" y="0" dx="0em" dy="0.95em" fill="rgb(50, 49, 63)" stroke="none" stroke-width="1px">15</text><text style="text-anchor: middle; visibility: inherit; font-family: Roboto, sans-serif; font-size: 12px; font-weight: 200;" x="120.35458286603293" y="0" dx="0em" dy="0.95em" fill="rgb(50, 49, 63)" stroke="none" stroke-width="1px">20</text><text style="text-anchor: middle; visibility: inherit; font-family: Roboto, sans-serif; font-size: 12px; font-weight: 200;" x="144.4254994392395" y="0" dx="0em" dy="0.95em" fill="rgb(50, 49, 63)" stroke="none" stroke-width="1px">25</text><text style="text-anchor: middle; visibility: inherit; font-family: Roboto, sans-serif; font-size: 12px; font-weight: 200;" x="168.4964160124461" y="0" dx="0em" dy="0.95em" fill="rgb(50, 49, 63)" stroke="none" stroke-width="1px">30</text><text style="text-anchor: middle; visibility: inherit; font-family: Roboto, sans-serif; font-size: 12px; font-weight: 200;" x="192.56733258565265" y="0" dx="0em" dy="0.95em" fill="rgb(50, 49, 63)" stroke="none" stroke-width="1px">35</text><text style="text-anchor: middle; visibility: inherit; font-family: Roboto, sans-serif; font-size: 12px; font-weight: 200;" x="216.63824915885925" y="0" dx="0em" dy="0.95em" fill="rgb(50, 49, 63)" stroke="none" stroke-width="1px">40</text><text style="text-anchor: middle; visibility: inherit; font-family: Roboto, sans-serif; font-size: 12px; font-weight: 200;" x="240.70916573206586" y="0" dx="0em" dy="0.95em" fill="rgb(50, 49, 63)" stroke="none" stroke-width="1px">45</text><text style="text-anchor: middle; visibility: inherit; font-family: Roboto, sans-serif; font-size: 12px; font-weight: 200;" x="264.7800823052724" y="0" dx="0em" dy="0.95em" fill="rgb(50, 49, 63)" stroke="none" stroke-width="1px">50</text><text style="text-anchor: middle; visibility: hidden; font-family: Roboto, sans-serif; font-size: 12px; font-weight: 200;" x="288.850998878479" y="0" dx="0em" dy="0.95em" fill="rgb(50, 49, 63)" stroke="none" stroke-width="1px">55</text></g><line x1="0" y1="0" x2="288.850998878479" y2="0" fill="rgb(0, 0, 0)" stroke="rgb(204, 204, 204)" stroke-width="1px"></line></g></g></g></g></svg>