<svg viewBox="0 0 330 200" xmlns="http://www.w3.org/2000/svg"><g><g><g><g><g><line x1="30.766000747680664" y1="177.5999994277954" x2="25.766000747680664" y2="177.5999994277954" style="visibility: inherit;" fill="rgb(0, 0, 0)" stroke="rgb(204, 204, 204)" stroke-width="1px"></line><line x1="30.766000747680664" y1="155.39999949932098" x2="25.766000747680664" y2="155.39999949932098" style="visibility: inherit;" fill="rgb(0, 0, 0)" stroke="rgb(204, 204, 204)" stroke-width="1px"></line><line x1="30.766000747680664" y1="133.19999957084656" x2="25.766000747680664" y2="133.19999957084656" style="visibility: inherit;" fill="rgb(0, 0, 0)" stroke="rgb(204, 204, 204)" stroke-width="1px"></line><line x1="30.766000747680664" y1="110.99999964237213" x2="25.766000747680664" y2="110.99999964237213" style="visibility: inherit;" fill="rgb(0, 0, 0)" stroke="rgb(204, 204, 204)" stroke-width="1px"></line><line x1="30.766000747680664" y1="88.7999997138977" x2="25.766000747680664" y2="88.7999997138977" style="visibility: inherit;" fill="rgb(0, 0, 0)" stroke="rgb(204, 204, 204)" stroke-width="1px"></line><line x1="30.766000747680664" y1="66.59999978542328" x2="25.766000747680664" y2="66.59999978542328" style="visibility: inherit;" fill="rgb(0, 0, 0)" stroke="rgb(204, 204, 204)" stroke-width="1px"></line><line x1="30.766000747680664" y1="44.39999985694885" x2="25.766000747680664" y2="44.39999985694885" style="visibility: inherit;" fill="rgb(0, 0, 0)" stroke="rgb(204, 204, 204)" stroke-width="1px"></line><line x1="30.766000747680664" y1="22.199999928474426" x2="25.766000747680664" y2="22.199999928474426" style="visibility: inherit;" fill="rgb(0, 0, 0)" stroke="rgb(204, 204, 204)" stroke-width="1px"></line><line x1="30.766000747680664" y1="0" x2="25.766000747680664" y2="0" style="visibility: inherit;" fill="rgb(0, 0, 0)" stroke="rgb(204, 204, 204)" stroke-width="1px"></line></g><g transform="translate(20.766000747680664, 0)"><text style="text-anchor: end; visibility: hidden; font-family: Roboto, sans-serif; font-size: 12px; font-weight: 200;" x="0" y="177.5999994277954" dx="0em" dy="0.3em" fill="rgb(50, 49, 63)" stroke="none" stroke-width="1px">-1</text><text style="text-anchor: end; visibility: inherit; font-family: Roboto, sans-serif; font-size: 12px; font-weight: 200;" x="0" y="155.39999949932098" dx="0em" dy="0.3em" fill="rgb(50, 49, 63)" stroke="none" stroke-width="1px">0</text><text style="text-anchor: end; visibility: hidden; font-family: Roboto, sans-serif; font-size: 12px; font-weight: 200;" x="0" y="133.19999957084656" dx="0em" dy="0.3em" fill="rgb(50, 49, 63)" stroke="none" stroke-width="1px">1</text><text style="text-anchor: end; visibility: inherit; font-family: Roboto, sans-serif; font-size: 12px; font-weight: 200;" x="0" y="110.99999964237213" dx="0em" dy="0.3em" fill="rgb(50, 49, 63)" stroke="none" stroke-width="1px">2</text><text style="text-anchor: end; visibility: hidden; font-family: Roboto, sans-serif; font-size: 12px; font-weight: 200;" x="0" y="88.7999997138977" dx="0em" dy="0.3em" fill="rgb(50, 49, 63)" stroke="none" stroke-width="1px">3</text><text style="text-anchor: end; visibility: inherit; font-family: Roboto, sans-serif; font-size: 12px; font-weight: 200;" x="0" y="66.59999978542328" dx="0em" dy="0.3em" fill="rgb(50, 49, 63)" stroke="none" stroke-width="1px">4</text><text style="text-anchor: end; visibility: hidden; font-family: Roboto, sans-serif; font-size: 12px; font-weight: 200;" x="0" y="44.39999985694885" dx="0em" dy="0.3em" fill="rgb(50, 49, 63)" stroke="none" stroke-width="1px">5</text><text style="text-anchor: end; visibility: inherit; font-family: Roboto, sans-serif; font-size: 12px; font-weight: 200;" x="0" y="22.199999928474426" dx="0em" dy="0.3em" fill="rgb(50, 49, 63)" stroke="none" stroke-width="1px">6</text><text style="text-anchor: end; visibility: hidden; font-family: Roboto, sans-serif; font-size: 12px; font-weight: 200;" x="0" y="0" dx="0em" dy="0.3em" fill="rgb(50, 49, 63)" stroke="none" stroke-width="1px">7</text></g><line x1="30.766000747680664" y1="0" x2="30.766000747680664" y2="177.5999994277954" fill="rgb(0, 0, 0)" stroke="rgb(204, 204, 204)" stroke-width="1px"></line></g></g><g transform="translate(30, 0)" clip-path="url(#clip_0)"><clipPath id="clip_0"><rect width="299" height="177"></rect></clipPath><g><g><g><line x1="0" y1="0" x2="0" y2="177.5999994277954" fill="rgb(0, 0, 0)" stroke="rgb(60, 60, 60)" stroke-width="1px" opacity="0.25"></line><line x1="24.936166604359943" y1="0" x2="24.936166604359943" y2="177.5999994277954" fill="rgb(0, 0, 0)" stroke="rgb(60, 60, 60)" stroke-width="1px" opacity="0.25"></line><line x1="49.87233320871989" y1="0" x2="49.87233320871989" y2="177.5999994277954" fill="rgb(0, 0, 0)" stroke="rgb(60, 60, 60)" stroke-width="1px" opacity="0.25"></line><line x1="74.80849981307983" y1="0" x2="74.80849981307983" y2="177.5999994277954" fill="rgb(0, 0, 0)" stroke="rgb(60, 60, 60)" stroke-width="1px" opacity="0.25"></line><line x1="99.74466641743977" y1="0" x2="99.74466641743977" y2="177.5999994277954" fill="rgb(0, 0, 0)" stroke="rgb(60, 60, 60)" stroke-width="1px" opacity="0.25"></line><line x1="124.68083302179973" y1="0" x2="124.68083302179973" y2="177.5999994277954" fill="rgb(0, 0, 0)" stroke="rgb(60, 60, 60)" stroke-width="1px" opacity="0.25"></line><line x1="149.61699962615967" y1="0" x2="149.61699962615967" y2="177.5999994277954" fill="rgb(0, 0, 0)" stroke="rgb(60, 60, 60)" stroke-width="1px" opacity="0.25"></line><line x1="174.55316623051962" y1="0" x2="174.55316623051962" y2="177.5999994277954" fill="rgb(0, 0, 0)" stroke="rgb(60, 60, 60)" stroke-width="1px" opacity="0.25"></line><line x1="199.48933283487955" y1="0" x2="199.48933283487955" y2="177.5999994277954" fill="rgb(0, 0, 0)" stroke="rgb(60, 60, 60)" stroke-width="1px" opacity="0.25"></line><line x1="224.4254994392395" y1="0" x2="224.4254994392395" y2="177.5999994277954" fill="rgb(0, 0, 0)" stroke="rgb(60, 60, 60)" stroke-width="1px" opacity="0.25"></line><line x1="249.36166604359946" y1="0" x2="249.36166604359946" y2="177.5999994277954" fill="rgb(0, 0, 0)" stroke="rgb(60, 60, 60)" stroke-width="1px" opacity="0.25"></line><line x1="274.29783264795935" y1="0" x2="274.29783264795935" y2="177.5999994277954" fill="rgb(0, 0, 0)" stroke="rgb(60, 60, 60)" stroke-width="1px" opacity="0.25"></line><line x1="299.23399925231934" y1="0" x2="299.23399925231934" y2="177.5999994277954" fill="rgb(0, 0, 0)" stroke="rgb(60, 60, 60)" stroke-width="1px" opacity="0.25"></line></g><g><line x1="0" y1="177.5999994277954" x2="299.23399925231934" y2="177.5999994277954" fill="rgb(0, 0, 0)" stroke="rgb(60, 60, 60)" stroke-width="1px" opacity="0.25"></line><line x1="0" y1="155.39999949932098" x2="299.23399925231934" y2="155.39999949932098" fill="rgb(0, 0, 0)" stroke="rgb(60, 60, 60)" stroke-width="1px" opacity="0.25"></line><line x1="0" y1="133.19999957084656" x2="299.23399925231934" y2="133.19999957084656" fill="rgb(0, 0, 0)" stroke="rgb(60, 60, 60)" stroke-width="1px" opacity="0.25"></line><line x1="0" y1="110.99999964237213" x2="299.23399925231934" y2="110.99999964237213" fill="rgb(0, 0, 0)" stroke="rgb(60, 60, 60)" stroke-width="1px" opacity="0.25"></line><line x1="0" y1="88.7999997138977" x2="299.23399925231934" y2="88.7999997138977" fill="rgb(0, 0, 0)" stroke="rgb(60, 60, 60)" stroke-width="1px" opacity="0.25"></line><line x1="0" y1="66.59999978542328" x2="299.23399925231934" y2="66.59999978542328" fill="rgb(0, 0, 0)" stroke="rgb(60, 60, 60)" stroke-width="1px" opacity="0.25"></line><line x1="0" y1="44.39999985694885" x2="299.23399925231934" y2="44.39999985694885" fill="rgb(0, 0, 0)" stroke="rgb(60, 60, 60)" stroke-width="1px" opacity="0.25"></line><line x1="0" y1="22.199999928474426" x2="299.23399925231934" y2="22.199999928474426" fill="rgb(0, 0, 0)" stroke="rgb(60, 60, 60)" stroke-width="1px" opacity="0.25"></line><line x1="0" y1="0" x2="299.23399925231934" y2="0" fill="rgb(0, 0, 0)" stroke="rgb(60, 60, 60)" stroke-width="1px" opacity="0.25"></line></g></g></g><g><g><line x1="0" y1="155.39999949932098" x2="299.23399925231934" y2="155.39999949932098" fill="rgb(0, 0, 0)" stroke="rgb(153, 153, 153)" stroke-width="1.5px"></line></g></g><g><g><line x1="24.936166604359943" y1="0" x2="24.936166604359943" y2="177.5999994277954" fill="rgb(0, 0, 0)" stroke="rgb(153, 153, 153)" stroke-width="1.5px"></line></g></g><g><g><g><g><g><path style="fill: none;" stroke="rgb(51, 187, 238)" stroke-width="2px" d="M24.936166604359943,104.77251472095375L29.923399925231934,100.2546605217951L34.91063324610392,94.9970875540389L39.897866566975914,90.7205310282819L44.8850998878479,88.4235268604964L49.87233320871989,85.58576904378785L54.85956652959187,82.13232609989731L59.84679985046387,79.10359543109715L64.83403317133586,76.78857955034172L69.82126649220784,73.69665703871232L74.80849981307983,70.80670071677034L79.79573313395183,67.84089724617746L84.78296645482381,68.26267196596419L89.7701997756958,65.55776574947458L94.75743309656778,65.14655035010367L99.74466641743977,59.785157297156445L104.73189973831177,58.90986108873386L109.71913305918375,56.234769735353154L114.70636638005575,57.64855423473489L119.69359970092773,57.56288347771721L124.68083302179973,52.627324793057426L129.66806634267172,51.24648325621604L134.6552996635437,50.95105517184072L139.64253298441568,50.45836098626381L144.6297663052877,48.51500142679021L149.61699962615967,47.43184274650315L154.60423294703168,47.42967266060316L159.59146626790366,45.16827378025482L164.57869958877563,45.4082323518694L169.56593290964761,39.5415692009102L174.55316623051962,39.843010011096226L179.5403995513916,39.01677891558319L184.5276328722636,38.96882531008583L189.51486619313556,37.77390191305682L194.50209951400757,39.57568718557201L199.48933283487955,34.46789778094711L204.47656615575156,32.82909125241366L209.46379947662354,33.23344706318363L214.45103279749551,31.66054763130063L219.4382661183675,30.455165478812148L224.4254994392395,31.186177439347546L229.4127327601115,29.231120587583746L234.3999660809835,26.387249480108153L239.38719940185547,25.01237832593796L244.37443272272745,27.161186798323854L249.36166604359946,25.70704928698717L254.34889936447144,25.27465173207537L259.33613268534344,24.41413327934248L264.3233660062154,23.725940818638605L269.3105993270874,24.288935201590334" fill="none"></path></g><g><path style="fill: none;" stroke="rgb(204, 51, 17)" stroke-width="2px" d="M24.936166604359943,102.19760723565847L29.923399925231934,111.01159636970598L34.91063324610392,113.92946211347882L39.897866566975914,115.66270442890894L44.8850998878479,116.48962360043905L49.87233320871989,117.65833130121769L54.85956652959187,118.27595891992479L59.84679985046387,118.65359356321646L64.83403317133586,119.63584589560017L69.82126649220784,119.42031137614536L74.80849981307983,120.4142107183411L79.79573313395183,120.28148614754069L84.78296645482381,120.69430529332062L89.7701997756958,120.85685002012237L94.75743309656778,120.56026014585669L99.74466641743977,121.35633763314473L104.73189973831177,121.25656661066955L109.71913305918375,121.51832660624038L114.70636638005575,121.86019717532172L119.69359970092773,122.02369991565492L124.68083302179973,122.11741057628744L129.66806634267172,121.96504937453834L134.6552996635437,122.14856983407584L139.64253298441568,122.10399838684701L144.6297663052877,122.128208076863L149.61699962615967,122.5663457736249L154.60423294703168,122.1223858951801L159.59146626790366,121.93472374730908L164.57869958877563,122.29152291951462L169.56593290964761,122.47704409239407L174.55316623051962,122.00866280823571L179.5403995513916,122.3401169649971L184.5276328722636,122.81674722202163L189.51486619313556,122.48294037457111L194.50209951400757,122.64117139403507L199.48933283487955,122.47183588623409L204.47656615575156,122.56318856328504L209.46379947662354,122.18654369087946L214.45103279749551,122.22714282233282L219.4382661183675,122.37195635946391L224.4254994392395,122.47412506221396L229.4127327601115,122.46580992819229L234.3999660809835,122.87455883968663L239.38719940185547,122.62764805385342L244.37443272272745,122.4827207195349L249.36166604359946,122.52815226178507L254.34889936447144,122.33660777731004L259.33613268534344,122.85301941390611L264.3233660062154,122.26188801474865L269.3105993270874,122.67727685980772" fill="none"></path></g><g><path style="fill: none;" stroke="rgb(0, 119, 187)" stroke-width="2px" d="M24.936166604359943,123.88591149469997L29.923399925231934,126.08026795296969L34.91063324610392,126.87337877404568L39.897866566975914,127.15773677388482L44.8850998878479,127.32904653056555L49.87233320871989,127.26688680176191L54.85956652959187,127.07363006658287L59.84679985046387,126.98436014270666L64.83403317133586,126.82579831746527L69.82126649220784,126.60973715521278L74.80849981307983,126.40213403507782L79.79573313395183,126.20458211768452L84.78296645482381,125.87526099657606L89.7701997756958,125.75115854755879L94.75743309656778,125.36475887438813L99.74466641743977,125.25641601260799L104.73189973831177,125.10173917041682L109.71913305918375,124.70247512217317L114.70636638005575,124.53357363155219L119.69359970092773,124.30215514188794L124.68083302179973,124.07676261026549L129.66806634267172,123.8310480181235L134.6552996635437,123.649782330765L139.64253298441568,123.52020967741203L144.6297663052877,123.11728824049302L149.61699962615967,122.94275775876316L154.60423294703168,122.7189372161951L159.59146626790366,122.46487043978436L164.57869958877563,122.28999856649219L169.56593290964761,122.09244135620645L174.55316623051962,121.8473169215714L179.5403995513916,121.62902215870966L184.5276328722636,121.4829780240865L189.51486619313556,121.32445854198463L194.50209951400757,120.94034010545518L199.48933283487955,120.95039130819684L204.47656615575156,120.61339813949805L209.46379947662354,120.4674492769388L214.45103279749551,120.28963720189675L219.4382661183675,120.03876203962673L224.4254994392395,119.96895143480252L229.4127327601115,119.83929938806295L234.3999660809835,119.4763366426122L239.38719940185547,119.37404884978227L244.37443272272745,119.28902647208837L249.36166604359946,119.10066830886161L254.34889936447144,119.0429493168143L259.33613268534344,118.82416760784817L264.3233660062154,118.65300075926329L269.3105993270874,118.42295842163318" fill="none"></path></g><g><path style="fill: none;" stroke="rgb(255, 112, 67)" stroke-width="2px" d="M24.936166604359943,114.81712781153135L29.923399925231934,126.51755878694135L34.91063324610392,129.67357293311463L39.897866566975914,131.64725282692507L44.8850998878479,133.0775537971627L49.87233320871989,134.2603974904228L54.85956652959187,135.16680399737874L59.84679985046387,135.92836388662582L64.83403317133586,136.56836059200324L69.82126649220784,137.12972079441442L74.80849981307983,137.65436949486872L79.79573313395183,138.13791756231103L84.78296645482381,138.49351921760223L89.7701997756958,138.86934369167977L94.75743309656778,139.16543471083307L99.74466641743977,139.43293881792334L104.73189973831177,139.8302233243948L109.71913305918375,140.02747222369595L114.70636638005575,140.25475961081156L119.69359970092773,140.42878859098283L124.68083302179973,140.70394092764744L129.66806634267172,140.8107686989669L134.6552996635437,141.09016461214452L139.64253298441568,141.2114340404838L144.6297663052877,141.35617877001317L149.61699962615967,141.50812447970583L154.60423294703168,141.60394965086772L159.59146626790366,141.69925347212438L164.57869958877563,141.94391742511723L169.56593290964761,142.02929574982767L174.55316623051962,142.09512609953777L179.5403995513916,142.22608549070975L184.5276328722636,142.25048704807665L189.51486619313556,142.41302780520908L194.50209951400757,142.52464564418585L199.48933283487955,142.62841677012182L204.47656615575156,142.75847504635607L209.46379947662354,142.73836337831096L214.45103279749551,142.84598640671942L219.4382661183675,142.97550083825556L224.4254994392395,142.85706310737112L229.4127327601115,143.15360534560486L234.3999660809835,143.0739102641508L239.38719940185547,143.14274829998936L244.37443272272745,143.281600717011L249.36166604359946,143.22191144575328L254.34889936447144,143.20252755041855L259.33613268534344,143.36658604445785L264.3233660062154,143.34929813452896L269.3105993270874,143.51356040492715" fill="none"></path></g><g><path style="fill: none;" stroke="rgb(0, 153, 136)" stroke-width="2px" d="M24.936166604359943,104.19892396733914L29.923399925231934,114.13618661346891L34.91063324610392,118.15248897155398L39.897866566975914,120.38368131475293L44.8850998878479,121.84689878306872L49.87233320871989,122.8864837263517L54.85956652959187,123.69363923751457L59.84679985046387,124.32055058955969L64.83403317133586,124.83685636830698L69.82126649220784,125.2740598695534L74.80849981307983,125.64774601508557L79.79573313395183,125.96661367362701L84.78296645482381,126.23932201720791L89.7701997756958,126.46738745951205L94.75743309656778,126.68077835752906L99.74466641743977,126.87210847986032L104.73189973831177,127.04613878325469L109.71913305918375,127.19040979891078L114.70636638005575,127.32986428244737L119.69359970092773,127.45093125765088L124.68083302179973,127.57122282411207L129.66806634267172,127.67476503245004L134.6552996635437,127.76484476886941L139.64253298441568,127.85609952741024L144.6297663052877,127.9279928854092L149.61699962615967,128.0073995042253L154.60423294703168,128.06435102686896L159.59146626790366,128.12719353879726L164.57869958877563,128.18097197242372L169.56593290964761,128.23356479814385L174.55316623051962,128.2818042198329L179.5403995513916,128.3286780752727L184.5276328722636,128.36065773138915L189.51486619313556,128.39601954577415L194.50209951400757,128.42417773354964L199.48933283487955,128.45490562060425L204.47656615575156,128.47117861840798L209.46379947662354,128.50347584807076L214.45103279749551,128.5231204183581L219.4382661183675,128.53562752319147L224.4254994392395,128.55950905387624L229.4127327601115,128.57257985175437L234.3999660809835,128.5832529693576L239.38719940185547,128.59850179247437L244.37443272272745,128.6120780615804L249.36166604359946,128.61406289624503L254.34889936447144,128.62115272566706L259.33613268534344,128.63104249518935L264.3233660062154,128.6342923311469L269.3105993270874,128.63302203696153" fill="none"></path></g><g><path style="fill: none;" stroke="rgb(238, 51, 119)" stroke-width="2px" d="M24.936166604359943,85.61143427922457L29.923399925231934,109.38323271795468L34.91063324610392,116.08834031372992L39.897866566975914,119.45792531626313L44.8850998878479,121.5947744981831L49.87233320871989,123.1533963527119L54.85956652959187,124.37020585997618L59.84679985046387,125.34846205856844L64.83403317133586,126.18306121702754L69.82126649220784,126.923526283459L74.80849981307983,127.52411608140496L79.79573313395183,128.10793799610417L84.78296645482381,128.56728695931537L89.7701997756958,129.11081937676886L94.75743309656778,129.46363300096783L99.74466641743977,129.85434108858385L104.73189973831177,130.26117132656907L109.71913305918375,130.64008420338473L114.70636638005575,130.9276893927352L119.69359970092773,131.19490371396444L124.68083302179973,131.516581898391L129.66806634267172,131.77632794838877L134.6552996635437,132.0186286249076L139.64253298441568,132.31153993892818L144.6297663052877,132.52745290019237L149.61699962615967,132.74237873701668L154.60423294703168,132.9896811968904L159.59146626790366,133.1656963349494L164.57869958877563,133.3739716524241L169.56593290964761,133.63035009960757L174.55316623051962,133.71897693705245L179.5403995513916,133.9151540256347L184.5276328722636,134.10533029741424L189.51486619313556,134.2617035116321L194.50209951400757,134.43799652654417L199.48933283487955,134.60861556076162L204.47656615575156,134.6997035931906L209.46379947662354,134.91133592769475L214.45103279749551,134.9867675842892L219.4382661183675,135.17829354364068L224.4254994392395,135.32812606602704L229.4127327601115,135.4483594106714L234.3999660809835,135.53737262926433L239.38719940185547,135.63832132030717L244.37443272272745,135.84225911242814L249.36166604359946,135.88476236193642L254.34889936447144,136.05373662982845L259.33613268534344,136.14845558647062L264.3233660062154,136.2536293289029L269.3105993270874,136.36869945697302" fill="none"></path></g></g></g></g></g></g><g transform="translate(30, 177)" clip-path="url(#clip_1)"><clipPath id="clip_1"><rect width="299" height="22"></rect></clipPath><g><g><line x1="0" y1="0" x2="0" y2="5" style="visibility: inherit;" fill="rgb(0, 0, 0)" stroke="rgb(204, 204, 204)" stroke-width="1px"></line><line x1="24.936166604359943" y1="0" x2="24.936166604359943" y2="5" style="visibility: inherit;" fill="rgb(0, 0, 0)" stroke="rgb(204, 204, 204)" stroke-width="1px"></line><line x1="49.87233320871989" y1="0" x2="49.87233320871989" y2="5" style="visibility: inherit;" fill="rgb(0, 0, 0)" stroke="rgb(204, 204, 204)" stroke-width="1px"></line><line x1="74.80849981307983" y1="0" x2="74.80849981307983" y2="5" style="visibility: inherit;" fill="rgb(0, 0, 0)" stroke="rgb(204, 204, 204)" stroke-width="1px"></line><line x1="99.74466641743977" y1="0" x2="99.74466641743977" y2="5" style="visibility: inherit;" fill="rgb(0, 0, 0)" stroke="rgb(204, 204, 204)" stroke-width="1px"></line><line x1="124.68083302179973" y1="0" x2="124.68083302179973" y2="5" style="visibility: inherit;" fill="rgb(0, 0, 0)" stroke="rgb(204, 204, 204)" stroke-width="1px"></line><line x1="149.61699962615967" y1="0" x2="149.61699962615967" y2="5" style="visibility: inherit;" fill="rgb(0, 0, 0)" stroke="rgb(204, 204, 204)" stroke-width="1px"></line><line x1="174.55316623051962" y1="0" x2="174.55316623051962" y2="5" style="visibility: inherit;" fill="rgb(0, 0, 0)" stroke="rgb(204, 204, 204)" stroke-width="1px"></line><line x1="199.48933283487955" y1="0" x2="199.48933283487955" y2="5" style="visibility: inherit;" fill="rgb(0, 0, 0)" stroke="rgb(204, 204, 204)" stroke-width="1px"></line><line x1="224.4254994392395" y1="0" x2="224.4254994392395" y2="5" style="visibility: inherit;" fill="rgb(0, 0, 0)" stroke="rgb(204, 204, 204)" stroke-width="1px"></line><line x1="249.36166604359946" y1="0" x2="249.36166604359946" y2="5" style="visibility: inherit;" fill="rgb(0, 0, 0)" stroke="rgb(204, 204, 204)" stroke-width="1px"></line><line x1="274.29783264795935" y1="0" x2="274.29783264795935" y2="5" style="visibility: inherit;" fill="rgb(0, 0, 0)" stroke="rgb(204, 204, 204)" stroke-width="1px"></line><line x1="299.23399925231934" y1="0" x2="299.23399925231934" y2="5" style="visibility: inherit;" fill="rgb(0, 0, 0)" stroke="rgb(204, 204, 204)" stroke-width="1px"></line></g><g transform="translate(0, 8)"><text style="text-anchor: middle; visibility: hidden; font-family: Roboto, sans-serif; font-size: 12px; font-weight: 200;" x="0" y="0" dx="0em" dy="0.95em" fill="rgb(50, 49, 63)" stroke="none" stroke-width="1px">-5</text><text style="text-anchor: middle; visibility: inherit; font-family: Roboto, sans-serif; font-size: 12px; font-weight: 200;" x="24.936166604359943" y="0" dx="0em" dy="0.95em" fill="rgb(50, 49, 63)" stroke="none" stroke-width="1px">0</text><text style="text-anchor: middle; visibility: inherit; font-family: Roboto, sans-serif; font-size: 12px; font-weight: 200;" x="49.87233320871989" y="0" dx="0em" dy="0.95em" fill="rgb(50, 49, 63)" stroke="none" stroke-width="1px">5</text><text style="text-anchor: middle; visibility: inherit; font-family: Roboto, sans-serif; font-size: 12px; font-weight: 200;" x="74.80849981307983" y="0" dx="0em" dy="0.95em" fill="rgb(50, 49, 63)" stroke="none" stroke-width="1px">10</text><text style="text-anchor: middle; visibility: inherit; font-family: Roboto, sans-serif; font-size: 12px; font-weight: 200;" x="99.74466641743977" y="0" dx="0em" dy="0.95em" fill="rgb(50, 49, 63)" stroke="none" stroke-width="1px">15</text><text style="text-anchor: middle; visibility: inherit; font-family: Roboto, sans-serif; font-size: 12px; font-weight: 200;" x="124.68083302179973" y="0" dx="0em" dy="0.95em" fill="rgb(50, 49, 63)" stroke="none" stroke-width="1px">20</text><text style="text-anchor: middle; visibility: inherit; font-family: Roboto, sans-serif; font-size: 12px; font-weight: 200;" x="149.61699962615967" y="0" dx="0em" dy="0.95em" fill="rgb(50, 49, 63)" stroke="none" stroke-width="1px">25</text><text style="text-anchor: middle; visibility: inherit; font-family: Roboto, sans-serif; font-size: 12px; font-weight: 200;" x="174.55316623051962" y="0" dx="0em" dy="0.95em" fill="rgb(50, 49, 63)" stroke="none" stroke-width="1px">30</text><text style="text-anchor: middle; visibility: inherit; font-family: Roboto, sans-serif; font-size: 12px; font-weight: 200;" x="199.48933283487955" y="0" dx="0em" dy="0.95em" fill="rgb(50, 49, 63)" stroke="none" stroke-width="1px">35</text><text style="text-anchor: middle; visibility: inherit; font-family: Roboto, sans-serif; font-size: 12px; font-weight: 200;" x="224.4254994392395" y="0" dx="0em" dy="0.95em" fill="rgb(50, 49, 63)" stroke="none" stroke-width="1px">40</text><text style="text-anchor: middle; visibility: inherit; font-family: Roboto, sans-serif; font-size: 12px; font-weight: 200;" x="249.36166604359946" y="0" dx="0em" dy="0.95em" fill="rgb(50, 49, 63)" stroke="none" stroke-width="1px">45</text><text style="text-anchor: middle; visibility: inherit; font-family: Roboto, sans-serif; font-size: 12px; font-weight: 200;" x="274.29783264795935" y="0" dx="0em" dy="0.95em" fill="rgb(50, 49, 63)" stroke="none" stroke-width="1px">50</text><text style="text-anchor: middle; visibility: hidden; font-family: Roboto, sans-serif; font-size: 12px; font-weight: 200;" x="299.23399925231934" y="0" dx="0em" dy="0.95em" fill="rgb(50, 49, 63)" stroke="none" stroke-width="1px">55</text></g><line x1="0" y1="0" x2="299.23399925231934" y2="0" fill="rgb(0, 0, 0)" stroke="rgb(204, 204, 204)" stroke-width="1px"></line></g></g></g></g></svg>