<svg viewBox="0 0 330 200" xmlns="http://www.w3.org/2000/svg"><g><g><g><g><g><line x1="51.53200149536133" y1="177.5999994277954" x2="46.53200149536133" y2="177.5999994277954" style="visibility: inherit;" fill="rgb(0, 0, 0)" stroke="rgb(204, 204, 204)" stroke-width="1px"></line><line x1="51.53200149536133" y1="163.93846101027273" x2="46.53200149536133" y2="163.93846101027273" style="visibility: inherit;" fill="rgb(0, 0, 0)" stroke="rgb(204, 204, 204)" stroke-width="1px"></line><line x1="51.53200149536133" y1="150.27692259275" x2="46.53200149536133" y2="150.27692259275" style="visibility: inherit;" fill="rgb(0, 0, 0)" stroke="rgb(204, 204, 204)" stroke-width="1px"></line><line x1="51.53200149536133" y1="136.61538417522726" x2="46.53200149536133" y2="136.61538417522726" style="visibility: inherit;" fill="rgb(0, 0, 0)" stroke="rgb(204, 204, 204)" stroke-width="1px"></line><line x1="51.53200149536133" y1="122.95384575770451" x2="46.53200149536133" y2="122.95384575770451" style="visibility: inherit;" fill="rgb(0, 0, 0)" stroke="rgb(204, 204, 204)" stroke-width="1px"></line><line x1="51.53200149536133" y1="109.29230734018178" x2="46.53200149536133" y2="109.29230734018178" style="visibility: inherit;" fill="rgb(0, 0, 0)" stroke="rgb(204, 204, 204)" stroke-width="1px"></line><line x1="51.53200149536133" y1="95.6307689226591" x2="46.53200149536133" y2="95.6307689226591" style="visibility: inherit;" fill="rgb(0, 0, 0)" stroke="rgb(204, 204, 204)" stroke-width="1px"></line><line x1="51.53200149536133" y1="81.96923050513637" x2="46.53200149536133" y2="81.96923050513637" style="visibility: inherit;" fill="rgb(0, 0, 0)" stroke="rgb(204, 204, 204)" stroke-width="1px"></line><line x1="51.53200149536133" y1="68.30769208761363" x2="46.53200149536133" y2="68.30769208761363" style="visibility: inherit;" fill="rgb(0, 0, 0)" stroke="rgb(204, 204, 204)" stroke-width="1px"></line><line x1="51.53200149536133" y1="54.6461536700909" x2="46.53200149536133" y2="54.6461536700909" style="visibility: inherit;" fill="rgb(0, 0, 0)" stroke="rgb(204, 204, 204)" stroke-width="1px"></line><line x1="51.53200149536133" y1="40.98461525256815" x2="46.53200149536133" y2="40.98461525256815" style="visibility: inherit;" fill="rgb(0, 0, 0)" stroke="rgb(204, 204, 204)" stroke-width="1px"></line><line x1="51.53200149536133" y1="27.32307683504547" x2="46.53200149536133" y2="27.32307683504547" style="visibility: inherit;" fill="rgb(0, 0, 0)" stroke="rgb(204, 204, 204)" stroke-width="1px"></line><line x1="51.53200149536133" y1="13.661538417522735" x2="46.53200149536133" y2="13.661538417522735" style="visibility: inherit;" fill="rgb(0, 0, 0)" stroke="rgb(204, 204, 204)" stroke-width="1px"></line><line x1="51.53200149536133" y1="0" x2="46.53200149536133" y2="0" style="visibility: inherit;" fill="rgb(0, 0, 0)" stroke="rgb(204, 204, 204)" stroke-width="1px"></line></g><g transform="translate(41.53200149536133, 0)"><text style="text-anchor: end; visibility: hidden; font-family: Roboto, sans-serif; font-size: 12px; font-weight: 200;" x="0" y="177.5999994277954" dx="0em" dy="0.3em" fill="rgb(50, 49, 63)" stroke="none" stroke-width="1px">1.1</text><text style="text-anchor: end; visibility: inherit; font-family: Roboto, sans-serif; font-size: 12px; font-weight: 200;" x="0" y="163.93846101027273" dx="0em" dy="0.3em" fill="rgb(50, 49, 63)" stroke="none" stroke-width="1px">1.15</text><text style="text-anchor: end; visibility: hidden; font-family: Roboto, sans-serif; font-size: 12px; font-weight: 200;" x="0" y="150.27692259275" dx="0em" dy="0.3em" fill="rgb(50, 49, 63)" stroke="none" stroke-width="1px">1.2</text><text style="text-anchor: end; visibility: inherit; font-family: Roboto, sans-serif; font-size: 12px; font-weight: 200;" x="0" y="136.61538417522726" dx="0em" dy="0.3em" fill="rgb(50, 49, 63)" stroke="none" stroke-width="1px">1.25</text><text style="text-anchor: end; visibility: hidden; font-family: Roboto, sans-serif; font-size: 12px; font-weight: 200;" x="0" y="122.95384575770451" dx="0em" dy="0.3em" fill="rgb(50, 49, 63)" stroke="none" stroke-width="1px">1.3</text><text style="text-anchor: end; visibility: inherit; font-family: Roboto, sans-serif; font-size: 12px; font-weight: 200;" x="0" y="109.29230734018178" dx="0em" dy="0.3em" fill="rgb(50, 49, 63)" stroke="none" stroke-width="1px">1.35</text><text style="text-anchor: end; visibility: hidden; font-family: Roboto, sans-serif; font-size: 12px; font-weight: 200;" x="0" y="95.6307689226591" dx="0em" dy="0.3em" fill="rgb(50, 49, 63)" stroke="none" stroke-width="1px">1.4</text><text style="text-anchor: end; visibility: inherit; font-family: Roboto, sans-serif; font-size: 12px; font-weight: 200;" x="0" y="81.96923050513637" dx="0em" dy="0.3em" fill="rgb(50, 49, 63)" stroke="none" stroke-width="1px">1.45</text><text style="text-anchor: end; visibility: hidden; font-family: Roboto, sans-serif; font-size: 12px; font-weight: 200;" x="0" y="68.30769208761363" dx="0em" dy="0.3em" fill="rgb(50, 49, 63)" stroke="none" stroke-width="1px">1.5</text><text style="text-anchor: end; visibility: inherit; font-family: Roboto, sans-serif; font-size: 12px; font-weight: 200;" x="0" y="54.6461536700909" dx="0em" dy="0.3em" fill="rgb(50, 49, 63)" stroke="none" stroke-width="1px">1.55</text><text style="text-anchor: end; visibility: hidden; font-family: Roboto, sans-serif; font-size: 12px; font-weight: 200;" x="0" y="40.98461525256815" dx="0em" dy="0.3em" fill="rgb(50, 49, 63)" stroke="none" stroke-width="1px">1.6</text><text style="text-anchor: end; visibility: inherit; font-family: Roboto, sans-serif; font-size: 12px; font-weight: 200;" x="0" y="27.32307683504547" dx="0em" dy="0.3em" fill="rgb(50, 49, 63)" stroke="none" stroke-width="1px">1.65</text><text style="text-anchor: end; visibility: hidden; font-family: Roboto, sans-serif; font-size: 12px; font-weight: 200;" x="0" y="13.661538417522735" dx="0em" dy="0.3em" fill="rgb(50, 49, 63)" stroke="none" stroke-width="1px">1.7</text><text style="text-anchor: end; visibility: hidden; font-family: Roboto, sans-serif; font-size: 12px; font-weight: 200;" x="0" y="0" dx="0em" dy="0.3em" fill="rgb(50, 49, 63)" stroke="none" stroke-width="1px">1.75</text></g><line x1="51.53200149536133" y1="0" x2="51.53200149536133" y2="177.5999994277954" fill="rgb(0, 0, 0)" stroke="rgb(204, 204, 204)" stroke-width="1px"></line></g></g><g transform="translate(51, 0)" clip-path="url(#clip_0)"><clipPath id="clip_0"><rect width="278" height="177"></rect></clipPath><g><g><g><line x1="0" y1="0" x2="0" y2="177.5999994277954" fill="rgb(0, 0, 0)" stroke="rgb(60, 60, 60)" stroke-width="1px" opacity="0.25"></line><line x1="23.205666542053223" y1="0" x2="23.205666542053223" y2="177.5999994277954" fill="rgb(0, 0, 0)" stroke="rgb(60, 60, 60)" stroke-width="1px" opacity="0.25"></line><line x1="46.411333084106445" y1="0" x2="46.411333084106445" y2="177.5999994277954" fill="rgb(0, 0, 0)" stroke="rgb(60, 60, 60)" stroke-width="1px" opacity="0.25"></line><line x1="69.61699962615967" y1="0" x2="69.61699962615967" y2="177.5999994277954" fill="rgb(0, 0, 0)" stroke="rgb(60, 60, 60)" stroke-width="1px" opacity="0.25"></line><line x1="92.82266616821289" y1="0" x2="92.82266616821289" y2="177.5999994277954" fill="rgb(0, 0, 0)" stroke="rgb(60, 60, 60)" stroke-width="1px" opacity="0.25"></line><line x1="116.02833271026611" y1="0" x2="116.02833271026611" y2="177.5999994277954" fill="rgb(0, 0, 0)" stroke="rgb(60, 60, 60)" stroke-width="1px" opacity="0.25"></line><line x1="139.23399925231934" y1="0" x2="139.23399925231934" y2="177.5999994277954" fill="rgb(0, 0, 0)" stroke="rgb(60, 60, 60)" stroke-width="1px" opacity="0.25"></line><line x1="162.43966579437256" y1="0" x2="162.43966579437256" y2="177.5999994277954" fill="rgb(0, 0, 0)" stroke="rgb(60, 60, 60)" stroke-width="1px" opacity="0.25"></line><line x1="185.64533233642578" y1="0" x2="185.64533233642578" y2="177.5999994277954" fill="rgb(0, 0, 0)" stroke="rgb(60, 60, 60)" stroke-width="1px" opacity="0.25"></line><line x1="208.850998878479" y1="0" x2="208.850998878479" y2="177.5999994277954" fill="rgb(0, 0, 0)" stroke="rgb(60, 60, 60)" stroke-width="1px" opacity="0.25"></line><line x1="232.05666542053223" y1="0" x2="232.05666542053223" y2="177.5999994277954" fill="rgb(0, 0, 0)" stroke="rgb(60, 60, 60)" stroke-width="1px" opacity="0.25"></line><line x1="255.26233196258545" y1="0" x2="255.26233196258545" y2="177.5999994277954" fill="rgb(0, 0, 0)" stroke="rgb(60, 60, 60)" stroke-width="1px" opacity="0.25"></line><line x1="278.4679985046387" y1="0" x2="278.4679985046387" y2="177.5999994277954" fill="rgb(0, 0, 0)" stroke="rgb(60, 60, 60)" stroke-width="1px" opacity="0.25"></line></g><g><line x1="0" y1="177.5999994277954" x2="278.4679985046387" y2="177.5999994277954" fill="rgb(0, 0, 0)" stroke="rgb(60, 60, 60)" stroke-width="1px" opacity="0.25"></line><line x1="0" y1="163.93846101027273" x2="278.4679985046387" y2="163.93846101027273" fill="rgb(0, 0, 0)" stroke="rgb(60, 60, 60)" stroke-width="1px" opacity="0.25"></line><line x1="0" y1="150.27692259275" x2="278.4679985046387" y2="150.27692259275" fill="rgb(0, 0, 0)" stroke="rgb(60, 60, 60)" stroke-width="1px" opacity="0.25"></line><line x1="0" y1="136.61538417522726" x2="278.4679985046387" y2="136.61538417522726" fill="rgb(0, 0, 0)" stroke="rgb(60, 60, 60)" stroke-width="1px" opacity="0.25"></line><line x1="0" y1="122.95384575770451" x2="278.4679985046387" y2="122.95384575770451" fill="rgb(0, 0, 0)" stroke="rgb(60, 60, 60)" stroke-width="1px" opacity="0.25"></line><line x1="0" y1="109.29230734018178" x2="278.4679985046387" y2="109.29230734018178" fill="rgb(0, 0, 0)" stroke="rgb(60, 60, 60)" stroke-width="1px" opacity="0.25"></line><line x1="0" y1="95.6307689226591" x2="278.4679985046387" y2="95.6307689226591" fill="rgb(0, 0, 0)" stroke="rgb(60, 60, 60)" stroke-width="1px" opacity="0.25"></line><line x1="0" y1="81.96923050513637" x2="278.4679985046387" y2="81.96923050513637" fill="rgb(0, 0, 0)" stroke="rgb(60, 60, 60)" stroke-width="1px" opacity="0.25"></line><line x1="0" y1="68.30769208761363" x2="278.4679985046387" y2="68.30769208761363" fill="rgb(0, 0, 0)" stroke="rgb(60, 60, 60)" stroke-width="1px" opacity="0.25"></line><line x1="0" y1="54.6461536700909" x2="278.4679985046387" y2="54.6461536700909" fill="rgb(0, 0, 0)" stroke="rgb(60, 60, 60)" stroke-width="1px" opacity="0.25"></line><line x1="0" y1="40.98461525256815" x2="278.4679985046387" y2="40.98461525256815" fill="rgb(0, 0, 0)" stroke="rgb(60, 60, 60)" stroke-width="1px" opacity="0.25"></line><line x1="0" y1="27.32307683504547" x2="278.4679985046387" y2="27.32307683504547" fill="rgb(0, 0, 0)" stroke="rgb(60, 60, 60)" stroke-width="1px" opacity="0.25"></line><line x1="0" y1="13.661538417522735" x2="278.4679985046387" y2="13.661538417522735" fill="rgb(0, 0, 0)" stroke="rgb(60, 60, 60)" stroke-width="1px" opacity="0.25"></line><line x1="0" y1="0" x2="278.4679985046387" y2="0" fill="rgb(0, 0, 0)" stroke="rgb(60, 60, 60)" stroke-width="1px" opacity="0.25"></line></g></g></g><g><g><line x1="0" y1="478.15384461329535" x2="278.4679985046387" y2="478.15384461329535" fill="rgb(0, 0, 0)" stroke="rgb(153, 153, 153)" stroke-width="1.5px"></line></g></g><g><g><line x1="23.205666542053223" y1="0" x2="23.205666542053223" y2="177.5999994277954" fill="rgb(0, 0, 0)" stroke="rgb(153, 153, 153)" stroke-width="1.5px"></line></g></g><g><g><g><g><g><path style="fill: none;" stroke="rgb(51, 187, 238)" stroke-width="2px" d="M27.846799850463867,-28.41947751792373L32.48793315887451,13.530554801189172L37.129066467285156,37.161837531448676L41.7701997756958,52.94299534099293L46.411333084106445,63.785379644439054L51.05246639251708,72.43478018091223L55.693599700927734,79.3869373991608L60.33473300933838,85.20208360657449L64.97586631774902,90.0335986831241L69.61699962615967,93.92835322708484L74.25813293457031,97.62158699861422L78.89926624298096,100.41509419880484L83.5403995513916,103.4049107081023L88.18153285980225,105.68701049792517L92.82266616821289,107.80735949481212L97.46379947662354,109.87627786301488L102.10493278503417,111.15816755427241L106.74606609344484,113.01188505881679L111.38719940185547,114.23104176030498L116.02833271026611,115.95531954452574L120.66946601867676,116.68313296944567L125.3105993270874,117.71155011325514L129.95173263549805,119.07096032146545L134.5928659439087,119.42631697690858L139.23399925231934,120.65960977266462L143.87513256073,121.42709546214276L148.51626586914062,121.93847030086475L153.15739917755127,122.73771334497691L157.7985324859619,123.284070131265L162.43966579437256,123.69525458757242L167.0807991027832,124.30297635450715L171.72193241119385,124.86177550948261L176.3630657196045,125.09762679656453L181.00419902801514,125.62173714878591L185.64533233642578,126.13575029081598L190.28646564483643,126.33381846879486L194.92759895324707,126.81653025923181L199.56873226165771,127.55255173888794L204.20986557006833,127.66554277809344L208.850998878479,127.84002908452872L213.49213218688968,128.23124712197395L218.1332654953003,128.1342161891999L222.77439880371094,128.55312012555683L227.41553211212158,128.87424398128675L232.05666542053223,128.99905852790985L236.69779872894287,128.99091561646526L241.33893203735352,129.15504413954298L245.98006534576416,129.1371297343648L250.6211986541748,129.3408002354176" fill="none"></path></g><g><path style="fill: none;" stroke="rgb(255, 112, 67)" stroke-width="2px" d="M27.846799850463867,-11.340567625627864L32.48793315887451,29.081431075079635L37.129066467285156,51.918747367843096L41.7701997756958,66.88587460609179L46.411333084106445,77.96212332622734L51.05246639251708,86.32779225632424L55.693599700927734,92.88404112013548L60.33473300933838,98.29461491533478L64.97586631774902,102.67784643103526L69.61699962615967,107.07524661264941L74.25813293457031,110.1975971486195L78.89926624298096,113.5010134634721L83.5403995513916,116.0494841724713L88.18153285980225,118.27634245105385L92.82266616821289,119.98505098859246L97.46379947662354,121.96798021194004L102.10493278503417,123.24237842466853L106.74606609344484,124.81448147981227L111.38719940185547,126.68578767307703L116.02833271026611,127.4335023735676L120.66946601867676,128.3437821581386L125.3105993270874,129.5320609394288L129.95173263549805,130.73102322053433L134.5928659439087,131.5736191251776L139.23399925231934,132.4035120879673L143.87513256073,132.73759945871709L148.51626586914062,133.4510813594945L153.15739917755127,134.08114727543327L157.7985324859619,134.79361945519156L162.43966579437256,135.0935717411655L167.0807991027832,135.5353735445047L171.72193241119385,136.16951091616576L176.3630657196045,136.39467870343233L181.00419902801514,136.6867160794821L185.64533233642578,137.0104782385201L190.28646564483643,137.46846814981123L194.92759895324707,137.02891379003074L199.56873226165771,137.75014774250343L204.20986557006833,137.89531956773808L208.850998878479,138.16403564541048L213.49213218688968,138.54463532633193L218.1332654953003,138.3570552182937L222.77439880371094,138.6216998402438L227.41553211212158,138.93044647057792L232.05666542053223,138.73491888096976L236.69779872894287,139.1519988051631L241.33893203735352,139.29371803594523L245.98006534576416,139.45755341421093L250.6211986541748,139.445632191856" fill="none"></path></g><g><path style="fill: none;" stroke="rgb(0, 119, 187)" stroke-width="2px" d="M27.846799850463867,-17.304663969186475L32.48793315887451,23.197916983176928L37.129066467285156,45.67730346048078L41.7701997756958,61.34810853412757L46.411333084106445,72.19648602039693L51.05246639251708,81.02773405525132L55.693599700927734,87.42135269169064L60.33473300933838,93.9211548933678L64.97586631774902,98.0331297430252L69.61699962615967,101.7554825658805L74.25813293457031,105.43881455709321L78.89926624298096,108.7632721551187L83.5403995513916,111.279529506443L88.18153285980225,113.3418358305527L92.82266616821289,115.22014492765985L97.46379947662354,117.47283252134471L102.10493278503417,118.90181576493784L106.74606609344484,120.59778878897708L111.38719940185547,122.17663417479694L116.02833271026611,123.32452411532184L120.66946601867676,124.37541569471847L125.3105993270874,124.84721598381962L129.95173263549805,126.04930514291989L134.5928659439087,126.76454591256937L139.23399925231934,127.67449998068254L143.87513256073,128.10734458143264L148.51626586914062,128.8857092006008L153.15739917755127,129.30441770708305L157.7985324859619,129.96845584956876L162.43966579437256,130.4429921569153L167.0807991027832,130.53051216912206L171.72193241119385,131.11357720020249L176.3630657196045,131.71152747340366L181.00419902801514,131.94096214626722L185.64533233642578,132.431784276503L190.28646564483643,132.41569388348844L194.92759895324707,132.74626351649414L199.56873226165771,132.90482228814375L204.20986557006833,133.07794058545633L208.850998878479,133.65318842154994L213.49213218688968,133.57312731622645L218.1332654953003,133.43661954876885L222.77439880371094,133.82487356644825L227.41553211212158,133.89522832132974L232.05666542053223,134.29423098211603L236.69779872894287,133.8056237237932L241.33893203735352,134.76179695726597L245.98006534576416,134.45464633757499L250.6211986541748,134.51760732886478" fill="none"></path></g><g><path style="fill: none;" stroke="rgb(204, 51, 17)" stroke-width="2px" d="M23.205666542053223,-90.17206074932838L27.846799850463867,7.760748324699125L32.48793315887451,46.17900452040658L37.129066467285156,67.99581857928477L41.7701997756958,82.42469937104418L46.411333084106445,92.79267765372688L51.05246639251708,100.74856270828482L55.693599700927734,106.99749809417621L60.33473300933838,112.36149443591226L64.97586631774902,116.59528724078115L69.61699962615967,120.43242254335979L74.25813293457031,123.18922149875809L78.89926624298096,126.20538846949033L83.5403995513916,128.1525214541274L88.18153285980225,130.3059306714795L92.82266616821289,132.3318218956089L97.46379947662354,133.63224485331435L102.10493278503417,135.1671185173333L106.74606609344484,136.40024845486045L111.38719940185547,137.45100974767394L116.02833271026611,138.5130734015726L120.66946601867676,139.39944559814214L125.3105993270874,140.21321559627148L129.95173263549805,140.66527746803087L134.5928659439087,141.6392999633903L139.23399925231934,141.90488916306796L143.87513256073,142.20894547640998L148.51626586914062,142.68999611291224L153.15739917755127,143.09183250688125L157.7985324859619,143.74587115411296L162.43966579437256,143.8127081712504L167.0807991027832,143.98416531462826L171.72193241119385,144.33727452651266L176.3630657196045,144.33404993358062L181.00419902801514,144.52231404618016L185.64533233642578,144.6710036091589L190.28646564483643,144.77409286804775L194.92759895324707,144.97251933413023L199.56873226165771,144.97909880657747L204.20986557006833,145.0156116214951L208.850998878479,145.2111717827491L213.49213218688968,144.77806660883272L218.1332654953003,144.93496422654763L222.77439880371094,145.01525333339157L227.41553211212158,144.63149420282963L232.05666542053223,144.54547248632866L236.69779872894287,144.61833525793512L241.33893203735352,144.46231707465623L245.98006534576416,144.33613451891043L250.6211986541748,144.3423882748999" fill="none"></path></g></g></g></g></g></g><g transform="translate(51, 177)" clip-path="url(#clip_1)"><clipPath id="clip_1"><rect width="278" height="22"></rect></clipPath><g><g><line x1="0" y1="0" x2="0" y2="5" style="visibility: inherit;" fill="rgb(0, 0, 0)" stroke="rgb(204, 204, 204)" stroke-width="1px"></line><line x1="23.205666542053223" y1="0" x2="23.205666542053223" y2="5" style="visibility: inherit;" fill="rgb(0, 0, 0)" stroke="rgb(204, 204, 204)" stroke-width="1px"></line><line x1="46.411333084106445" y1="0" x2="46.411333084106445" y2="5" style="visibility: inherit;" fill="rgb(0, 0, 0)" stroke="rgb(204, 204, 204)" stroke-width="1px"></line><line x1="69.61699962615967" y1="0" x2="69.61699962615967" y2="5" style="visibility: inherit;" fill="rgb(0, 0, 0)" stroke="rgb(204, 204, 204)" stroke-width="1px"></line><line x1="92.82266616821289" y1="0" x2="92.82266616821289" y2="5" style="visibility: inherit;" fill="rgb(0, 0, 0)" stroke="rgb(204, 204, 204)" stroke-width="1px"></line><line x1="116.02833271026611" y1="0" x2="116.02833271026611" y2="5" style="visibility: inherit;" fill="rgb(0, 0, 0)" stroke="rgb(204, 204, 204)" stroke-width="1px"></line><line x1="139.23399925231934" y1="0" x2="139.23399925231934" y2="5" style="visibility: inherit;" fill="rgb(0, 0, 0)" stroke="rgb(204, 204, 204)" stroke-width="1px"></line><line x1="162.43966579437256" y1="0" x2="162.43966579437256" y2="5" style="visibility: inherit;" fill="rgb(0, 0, 0)" stroke="rgb(204, 204, 204)" stroke-width="1px"></line><line x1="185.64533233642578" y1="0" x2="185.64533233642578" y2="5" style="visibility: inherit;" fill="rgb(0, 0, 0)" stroke="rgb(204, 204, 204)" stroke-width="1px"></line><line x1="208.850998878479" y1="0" x2="208.850998878479" y2="5" style="visibility: inherit;" fill="rgb(0, 0, 0)" stroke="rgb(204, 204, 204)" stroke-width="1px"></line><line x1="232.05666542053223" y1="0" x2="232.05666542053223" y2="5" style="visibility: inherit;" fill="rgb(0, 0, 0)" stroke="rgb(204, 204, 204)" stroke-width="1px"></line><line x1="255.26233196258545" y1="0" x2="255.26233196258545" y2="5" style="visibility: inherit;" fill="rgb(0, 0, 0)" stroke="rgb(204, 204, 204)" stroke-width="1px"></line><line x1="278.4679985046387" y1="0" x2="278.4679985046387" y2="5" style="visibility: inherit;" fill="rgb(0, 0, 0)" stroke="rgb(204, 204, 204)" stroke-width="1px"></line></g><g transform="translate(0, 8)"><text style="text-anchor: middle; visibility: hidden; font-family: Roboto, sans-serif; font-size: 12px; font-weight: 200;" x="0" y="0" dx="0em" dy="0.95em" fill="rgb(50, 49, 63)" stroke="none" stroke-width="1px">-5</text><text style="text-anchor: middle; visibility: inherit; font-family: Roboto, sans-serif; font-size: 12px; font-weight: 200;" x="23.205666542053223" y="0" dx="0em" dy="0.95em" fill="rgb(50, 49, 63)" stroke="none" stroke-width="1px">0</text><text style="text-anchor: middle; visibility: inherit; font-family: Roboto, sans-serif; font-size: 12px; font-weight: 200;" x="46.411333084106445" y="0" dx="0em" dy="0.95em" fill="rgb(50, 49, 63)" stroke="none" stroke-width="1px">5</text><text style="text-anchor: middle; visibility: inherit; font-family: Roboto, sans-serif; font-size: 12px; font-weight: 200;" x="69.61699962615967" y="0" dx="0em" dy="0.95em" fill="rgb(50, 49, 63)" stroke="none" stroke-width="1px">10</text><text style="text-anchor: middle; visibility: inherit; font-family: Roboto, sans-serif; font-size: 12px; font-weight: 200;" x="92.82266616821289" y="0" dx="0em" dy="0.95em" fill="rgb(50, 49, 63)" stroke="none" stroke-width="1px">15</text><text style="text-anchor: middle; visibility: inherit; font-family: Roboto, sans-serif; font-size: 12px; font-weight: 200;" x="116.02833271026611" y="0" dx="0em" dy="0.95em" fill="rgb(50, 49, 63)" stroke="none" stroke-width="1px">20</text><text style="text-anchor: middle; visibility: inherit; font-family: Roboto, sans-serif; font-size: 12px; font-weight: 200;" x="139.23399925231934" y="0" dx="0em" dy="0.95em" fill="rgb(50, 49, 63)" stroke="none" stroke-width="1px">25</text><text style="text-anchor: middle; visibility: inherit; font-family: Roboto, sans-serif; font-size: 12px; font-weight: 200;" x="162.43966579437256" y="0" dx="0em" dy="0.95em" fill="rgb(50, 49, 63)" stroke="none" stroke-width="1px">30</text><text style="text-anchor: middle; visibility: inherit; font-family: Roboto, sans-serif; font-size: 12px; font-weight: 200;" x="185.64533233642578" y="0" dx="0em" dy="0.95em" fill="rgb(50, 49, 63)" stroke="none" stroke-width="1px">35</text><text style="text-anchor: middle; visibility: inherit; font-family: Roboto, sans-serif; font-size: 12px; font-weight: 200;" x="208.850998878479" y="0" dx="0em" dy="0.95em" fill="rgb(50, 49, 63)" stroke="none" stroke-width="1px">40</text><text style="text-anchor: middle; visibility: inherit; font-family: Roboto, sans-serif; font-size: 12px; font-weight: 200;" x="232.05666542053223" y="0" dx="0em" dy="0.95em" fill="rgb(50, 49, 63)" stroke="none" stroke-width="1px">45</text><text style="text-anchor: middle; visibility: inherit; font-family: Roboto, sans-serif; font-size: 12px; font-weight: 200;" x="255.26233196258545" y="0" dx="0em" dy="0.95em" fill="rgb(50, 49, 63)" stroke="none" stroke-width="1px">50</text><text style="text-anchor: middle; visibility: hidden; font-family: Roboto, sans-serif; font-size: 12px; font-weight: 200;" x="278.4679985046387" y="0" dx="0em" dy="0.95em" fill="rgb(50, 49, 63)" stroke="none" stroke-width="1px">55</text></g><line x1="0" y1="0" x2="278.4679985046387" y2="0" fill="rgb(0, 0, 0)" stroke="rgb(204, 204, 204)" stroke-width="1px"></line></g></g></g></g></svg>