<svg viewBox="0 0 330 200" xmlns="http://www.w3.org/2000/svg"><g><g><g><g><g><line x1="51.53200149536133" y1="177.5999994277954" x2="46.53200149536133" y2="177.5999994277954" style="visibility: inherit;" fill="rgb(0, 0, 0)" stroke="rgb(204, 204, 204)" stroke-width="1px"></line><line x1="51.53200149536133" y1="152.22857093811038" x2="46.53200149536133" y2="152.22857093811038" style="visibility: inherit;" fill="rgb(0, 0, 0)" stroke="rgb(204, 204, 204)" stroke-width="1px"></line><line x1="51.53200149536133" y1="126.85714244842532" x2="46.53200149536133" y2="126.85714244842532" style="visibility: inherit;" fill="rgb(0, 0, 0)" stroke="rgb(204, 204, 204)" stroke-width="1px"></line><line x1="51.53200149536133" y1="101.48571395874026" x2="46.53200149536133" y2="101.48571395874026" style="visibility: inherit;" fill="rgb(0, 0, 0)" stroke="rgb(204, 204, 204)" stroke-width="1px"></line><line x1="51.53200149536133" y1="76.1142854690552" x2="46.53200149536133" y2="76.1142854690552" style="visibility: inherit;" fill="rgb(0, 0, 0)" stroke="rgb(204, 204, 204)" stroke-width="1px"></line><line x1="51.53200149536133" y1="50.74285697937012" x2="46.53200149536133" y2="50.74285697937012" style="visibility: inherit;" fill="rgb(0, 0, 0)" stroke="rgb(204, 204, 204)" stroke-width="1px"></line><line x1="51.53200149536133" y1="25.371428489685087" x2="46.53200149536133" y2="25.371428489685087" style="visibility: inherit;" fill="rgb(0, 0, 0)" stroke="rgb(204, 204, 204)" stroke-width="1px"></line><line x1="51.53200149536133" y1="0" x2="46.53200149536133" y2="0" style="visibility: inherit;" fill="rgb(0, 0, 0)" stroke="rgb(204, 204, 204)" stroke-width="1px"></line></g><g transform="translate(41.53200149536133, 0)"><text style="text-anchor: end; visibility: hidden; font-family: Roboto, sans-serif; font-size: 12px; font-weight: 200;" x="0" y="177.5999994277954" dx="0em" dy="0.3em" fill="rgb(50, 49, 63)" stroke="none" stroke-width="1px">0.55</text><text style="text-anchor: end; visibility: inherit; font-family: Roboto, sans-serif; font-size: 12px; font-weight: 200;" x="0" y="152.22857093811038" dx="0em" dy="0.3em" fill="rgb(50, 49, 63)" stroke="none" stroke-width="1px">0.6</text><text style="text-anchor: end; visibility: hidden; font-family: Roboto, sans-serif; font-size: 12px; font-weight: 200;" x="0" y="126.85714244842532" dx="0em" dy="0.3em" fill="rgb(50, 49, 63)" stroke="none" stroke-width="1px">0.65</text><text style="text-anchor: end; visibility: inherit; font-family: Roboto, sans-serif; font-size: 12px; font-weight: 200;" x="0" y="101.48571395874026" dx="0em" dy="0.3em" fill="rgb(50, 49, 63)" stroke="none" stroke-width="1px">0.7</text><text style="text-anchor: end; visibility: hidden; font-family: Roboto, sans-serif; font-size: 12px; font-weight: 200;" x="0" y="76.1142854690552" dx="0em" dy="0.3em" fill="rgb(50, 49, 63)" stroke="none" stroke-width="1px">0.75</text><text style="text-anchor: end; visibility: inherit; font-family: Roboto, sans-serif; font-size: 12px; font-weight: 200;" x="0" y="50.74285697937012" dx="0em" dy="0.3em" fill="rgb(50, 49, 63)" stroke="none" stroke-width="1px">0.8</text><text style="text-anchor: end; visibility: hidden; font-family: Roboto, sans-serif; font-size: 12px; font-weight: 200;" x="0" y="25.371428489685087" dx="0em" dy="0.3em" fill="rgb(50, 49, 63)" stroke="none" stroke-width="1px">0.85</text><text style="text-anchor: end; visibility: hidden; font-family: Roboto, sans-serif; font-size: 12px; font-weight: 200;" x="0" y="0" dx="0em" dy="0.3em" fill="rgb(50, 49, 63)" stroke="none" stroke-width="1px">0.9</text></g><line x1="51.53200149536133" y1="0" x2="51.53200149536133" y2="177.5999994277954" fill="rgb(0, 0, 0)" stroke="rgb(204, 204, 204)" stroke-width="1px"></line></g></g><g transform="translate(51, 0)" clip-path="url(#clip_0)"><clipPath id="clip_0"><rect width="278" height="177"></rect></clipPath><g><g><g><line x1="0" y1="0" x2="0" y2="177.5999994277954" fill="rgb(0, 0, 0)" stroke="rgb(60, 60, 60)" stroke-width="1px" opacity="0.25"></line><line x1="23.205666542053223" y1="0" x2="23.205666542053223" y2="177.5999994277954" fill="rgb(0, 0, 0)" stroke="rgb(60, 60, 60)" stroke-width="1px" opacity="0.25"></line><line x1="46.411333084106445" y1="0" x2="46.411333084106445" y2="177.5999994277954" fill="rgb(0, 0, 0)" stroke="rgb(60, 60, 60)" stroke-width="1px" opacity="0.25"></line><line x1="69.61699962615967" y1="0" x2="69.61699962615967" y2="177.5999994277954" fill="rgb(0, 0, 0)" stroke="rgb(60, 60, 60)" stroke-width="1px" opacity="0.25"></line><line x1="92.82266616821289" y1="0" x2="92.82266616821289" y2="177.5999994277954" fill="rgb(0, 0, 0)" stroke="rgb(60, 60, 60)" stroke-width="1px" opacity="0.25"></line><line x1="116.02833271026611" y1="0" x2="116.02833271026611" y2="177.5999994277954" fill="rgb(0, 0, 0)" stroke="rgb(60, 60, 60)" stroke-width="1px" opacity="0.25"></line><line x1="139.23399925231934" y1="0" x2="139.23399925231934" y2="177.5999994277954" fill="rgb(0, 0, 0)" stroke="rgb(60, 60, 60)" stroke-width="1px" opacity="0.25"></line><line x1="162.43966579437256" y1="0" x2="162.43966579437256" y2="177.5999994277954" fill="rgb(0, 0, 0)" stroke="rgb(60, 60, 60)" stroke-width="1px" opacity="0.25"></line><line x1="185.64533233642578" y1="0" x2="185.64533233642578" y2="177.5999994277954" fill="rgb(0, 0, 0)" stroke="rgb(60, 60, 60)" stroke-width="1px" opacity="0.25"></line><line x1="208.850998878479" y1="0" x2="208.850998878479" y2="177.5999994277954" fill="rgb(0, 0, 0)" stroke="rgb(60, 60, 60)" stroke-width="1px" opacity="0.25"></line><line x1="232.05666542053223" y1="0" x2="232.05666542053223" y2="177.5999994277954" fill="rgb(0, 0, 0)" stroke="rgb(60, 60, 60)" stroke-width="1px" opacity="0.25"></line><line x1="255.26233196258545" y1="0" x2="255.26233196258545" y2="177.5999994277954" fill="rgb(0, 0, 0)" stroke="rgb(60, 60, 60)" stroke-width="1px" opacity="0.25"></line><line x1="278.4679985046387" y1="0" x2="278.4679985046387" y2="177.5999994277954" fill="rgb(0, 0, 0)" stroke="rgb(60, 60, 60)" stroke-width="1px" opacity="0.25"></line></g><g><line x1="0" y1="177.5999994277954" x2="278.4679985046387" y2="177.5999994277954" fill="rgb(0, 0, 0)" stroke="rgb(60, 60, 60)" stroke-width="1px" opacity="0.25"></line><line x1="0" y1="152.22857093811038" x2="278.4679985046387" y2="152.22857093811038" fill="rgb(0, 0, 0)" stroke="rgb(60, 60, 60)" stroke-width="1px" opacity="0.25"></line><line x1="0" y1="126.85714244842532" x2="278.4679985046387" y2="126.85714244842532" fill="rgb(0, 0, 0)" stroke="rgb(60, 60, 60)" stroke-width="1px" opacity="0.25"></line><line x1="0" y1="101.48571395874026" x2="278.4679985046387" y2="101.48571395874026" fill="rgb(0, 0, 0)" stroke="rgb(60, 60, 60)" stroke-width="1px" opacity="0.25"></line><line x1="0" y1="76.1142854690552" x2="278.4679985046387" y2="76.1142854690552" fill="rgb(0, 0, 0)" stroke="rgb(60, 60, 60)" stroke-width="1px" opacity="0.25"></line><line x1="0" y1="50.74285697937012" x2="278.4679985046387" y2="50.74285697937012" fill="rgb(0, 0, 0)" stroke="rgb(60, 60, 60)" stroke-width="1px" opacity="0.25"></line><line x1="0" y1="25.371428489685087" x2="278.4679985046387" y2="25.371428489685087" fill="rgb(0, 0, 0)" stroke="rgb(60, 60, 60)" stroke-width="1px" opacity="0.25"></line><line x1="0" y1="0" x2="278.4679985046387" y2="0" fill="rgb(0, 0, 0)" stroke="rgb(60, 60, 60)" stroke-width="1px" opacity="0.25"></line></g></g></g><g><g><line x1="0" y1="456.6857128143311" x2="278.4679985046387" y2="456.6857128143311" fill="rgb(0, 0, 0)" stroke="rgb(153, 153, 153)" stroke-width="1.5px"></line></g></g><g><g><line x1="23.205666542053223" y1="0" x2="23.205666542053223" y2="177.5999994277954" fill="rgb(0, 0, 0)" stroke="rgb(153, 153, 153)" stroke-width="1.5px"></line></g></g><g><g><g><g><g><path style="fill: none;" stroke="rgb(0, 153, 136)" stroke-width="2px" d="M23.205666542053223,140.71467283416317L27.846799850463867,129.29787359813693L32.48793315887451,124.99562915311844L37.129066467285156,122.38417651391435L41.7701997756958,121.83174976878081L46.411333084106445,121.36301121438282L51.05246639251708,120.20795085869443L55.693599700927734,120.96123531061315L60.33473300933838,120.2581577241158L64.97586631774902,121.07843507176246L69.61699962615967,122.0158819354588L74.25813293457031,122.6352713312206L78.89926624298096,122.55155289538541L83.5403995513916,123.2546607269824L88.18153285980225,123.40531156834619L92.82266616821289,124.20883313078596L97.46379947662354,124.34275843204253L102.10493278503417,124.4766837332991L106.74606609344484,124.4097210826708L111.38719940185547,125.34716794636712L116.02833271026611,125.14631023958194L120.66946601867676,125.76566939024407L125.3105993270874,126.21765215943515L129.95173263549805,127.38946830033049L134.5928659439087,127.03792950708181L139.23399925231934,126.71987203914729L143.87513256073,128.46084046528338L148.51626586914062,128.31018962391957L153.15739917755127,128.46084046528338L157.7985324859619,128.94630455978862L162.43966579437256,129.1806738369876L167.0807991027832,128.89609769436723L171.72193241119385,129.43176865429385L176.3630657196045,130.36924576308982L181.00419902801514,129.44852443950074L185.64533233642578,130.2520460019405L190.28646564483643,130.0344325099484L194.92759895324707,131.0890488896944L199.56873226165771,130.75426588165263L204.20986557006833,131.62475009472067L208.850998878479,132.0600073238045L213.49213218688968,133.1815863541788L218.1332654953003,133.04766105292222L222.77439880371094,132.41154611705318L227.41553211212158,133.1313794887574L232.05666542053223,133.34899298074947L236.69779872894287,132.22738370527557L241.33893203735352,133.53312514742746L245.98006534576416,132.96397286218667L250.6211986541748,133.6000877980557" fill="none"></path></g><g><path style="fill: none;" stroke="rgb(238, 51, 119)" stroke-width="2px" d="M23.205666542053223,180.69675888698657L27.846799850463867,124.59019359229092L32.48793315887451,108.45310214386406L37.129066467285156,98.008471145934L41.7701997756958,89.02827762802691L46.411333084106445,82.6825532701587L51.05246639251708,76.68854917613704L55.693599700927734,73.16396673335638L60.33473300933838,70.01260882027442L64.97586631774902,67.32070421599748L69.61699962615967,63.55921190764709L74.25813293457031,59.91259048777284L78.89926624298096,59.9843621092457L83.5403995513916,56.23723622322975L88.18153285980225,55.11738116353559L92.82266616821289,54.14829792560388L97.46379947662354,52.1024588949813L102.10493278503417,51.49946234323058L106.74606609344484,48.829092249905464L111.38719940185547,47.91741421111215L116.02833271026611,46.567877864664986L120.66946601867676,45.49829016059153L125.3105993270874,45.49112207197415L129.95173263549805,43.47398564092079L134.5928659439087,43.28017504235437L139.23399925231934,41.952142961759385L143.87513256073,41.40658185424674L148.51626586914062,41.76553069691L153.15739917755127,40.99025805754469L157.7985324859619,39.41817826786225L162.43966579437256,39.74839426585665L167.0807991027832,39.60482077781126L171.72193241119385,38.13324545427055L176.3630657196045,37.106726772100735L181.00419902801514,36.99905421734163L185.64533233642578,36.64730370839539L190.28646564483643,35.47004344956283L194.92759895324707,36.367355066021695L199.56873226165771,35.29776736194824L204.20986557006833,35.2905690282312L208.850998878479,35.785893025222784L213.49213218688968,34.429158345058575L218.1332654953003,33.876429148928544L222.77439880371094,32.60583251257164L227.41553211212158,33.61801501750667L232.05666542053223,33.27343259717783L236.69779872894287,32.584298001619814L241.33893203735352,32.39768573677045L245.98006534576416,32.3043493592461L250.6211986541748,31.744421829399034" fill="none"></path></g><g><path style="fill: none;" stroke="rgb(51, 187, 238)" stroke-width="2px" d="M23.205666542053223,174.52984355825768L27.846799850463867,153.75527098027578L32.48793315887451,143.5939760758804L37.129066467285156,136.94812959417098L41.7701997756958,132.07673286391176L46.411333084106445,128.66172841716823L51.05246639251708,126.35157746069173L55.693599700927734,124.27579578141422L60.33473300933838,121.99912615025188L64.97586631774902,121.53041784095356L69.61699962615967,120.60969651736447L74.25813293457031,119.38767351104777L78.89926624298096,118.76828411528598L83.5403995513916,118.03172520347451L88.18153285980225,117.54626110896928L92.82266616821289,117.07752255457129L97.46379947662354,116.08986882545358L102.10493278503417,116.19028255629634L106.74606609344484,115.26959147780691L111.38719940185547,115.11891039134345L116.02833271026611,115.23611015249278L120.66946601867676,115.00174087529379L125.3105993270874,115.23611015249278L129.95173263549805,114.9347782246655L134.5928659439087,114.66692762215237L139.23399925231934,114.59996497152406L143.87513256073,114.83433424872305L148.51626586914062,114.28190750358957L153.15739917755127,114.44931413016026L157.7985324859619,114.81760870861581L162.43966579437256,114.65020208204513L167.0807991027832,114.63344629683822L171.72193241119385,114.5330023208958L176.3630657196045,115.11891039134345L181.00419902801514,114.90129689935137L185.64533233642578,114.24842617827541L190.28646564483643,115.23611015249278L194.92759895324707,115.43699810437762L199.56873226165771,115.37003545374935L204.20986557006833,115.43699810437762L208.850998878479,114.9347782246655L213.49213218688968,115.63785581116284L218.1332654953003,114.7171647326734L222.77439880371094,115.37003545374935L227.41553211212158,115.82201822294043L232.05666542053223,115.31979834322829L236.69779872894287,115.40351677906348L241.33893203735352,115.37003545374935L245.98006534576416,115.52068629511315L250.6211986541748,115.53744208032003" fill="none"></path></g><g><path style="fill: none;" stroke="rgb(204, 51, 17)" stroke-width="2px" d="M23.205666542053223,235.3461304030258L27.846799850463867,162.54253100750634L32.48793315887451,143.28998257928382L37.129066467285156,132.19214816418165L41.7701997756958,122.73099707161738L46.411333084106445,116.7800619994994L51.05246639251708,111.09476963761996L55.693599700927734,106.55800468990427L60.33473300933838,102.39449451698695L64.97586631774902,98.3099845443592L69.61699962615967,95.84059313821787L74.25813293457031,93.3712319771762L78.89926624298096,90.2916759306668L83.5403995513916,87.74334481443523L88.18153285980225,85.31702243019755L92.82266616821289,82.9625019125324L97.46379947662354,81.83547876422088L102.10493278503417,79.83270875550194L106.74606609344484,78.29652989910575L111.38719940185547,76.15735449095884L116.02833271026611,75.08776678688538L120.66946601867676,73.01319491159394L125.3105993270874,72.13744805118655L129.95173263549805,70.48639830631421L134.5928659439087,69.10096102658078L139.23399925231934,68.31132196488103L143.87513256073,66.4449573555901L148.51626586914062,66.40188833368644L153.15739917755127,64.42782092453673L157.7985324859619,63.666884462406195L162.43966579437256,62.08046849548897L167.0807991027832,61.67128254230467L171.72193241119385,60.51555679442391L176.3630657196045,59.84078862120033L181.00419902801514,59.1229514260731L185.64533233642578,58.4266487418977L190.28646564483643,57.41449648206231L194.92759895324707,56.60332290941075L199.56873226165771,55.93572282480455L204.20986557006833,54.56465196740556L208.850998878479,54.27033690269742L213.49213218688968,54.18419885889012L218.1332654953003,51.966053495553304L222.77439880371094,52.6336535801595L227.41553211212158,52.50444651444855L232.05666542053223,51.190780856188006L236.69779872894287,50.55908170486807L241.33893203735352,50.17146050773523L245.98006534576416,49.625899400222586L250.6211986541748,49.46795948984278" fill="none"></path></g><g><path style="fill: none;" stroke="rgb(0, 119, 187)" stroke-width="2px" d="M23.205666542053223,201.5150356339648L27.846799850463867,172.72191248149332L32.48793315887451,160.65224252439114L37.129066467285156,152.6002106245874L41.7701997756958,146.824848355946L46.411333084106445,142.02041427631505L51.05246639251708,138.47148452831496L55.693599700927734,135.2071611680349L60.33473300933838,132.76308491030184L64.97586631774902,130.23532046183325L69.61699962615967,128.82913504373894L74.25813293457031,127.10489215771011L78.89926624298096,126.21765215943515L83.5403995513916,124.96214782780433L88.18153285980225,123.90753144805832L92.82266616821289,123.0202914497834L97.46379947662354,122.21676988734363L102.10493278503417,121.3295298890687L106.74606609344484,120.4925270013148L111.38719940185547,119.67224965366813L116.02833271026611,119.52159881230433L120.66946601867676,118.9524162819639L125.3105993270874,118.81849098070735L129.95173263549805,118.21585737015243L134.5928659439087,117.89779990221794L139.23399925231934,117.76387460096136L143.87513256073,117.42906134781995L148.51626586914062,116.87663460268642L153.15739917755127,116.75946508663674L157.7985324859619,116.70922797611573L162.43966579437256,116.08986882545358L167.0807991027832,116.35768918286706L171.72193241119385,115.60437448584868L176.3630657196045,115.43699810437762L181.00419902801514,115.28631701791416L185.64533233642578,115.25283569260003L190.28646564483643,114.81760870861581L194.92759895324707,114.90129689935137L199.56873226165771,114.36562593942473L204.20986557006833,114.51627678078856L208.850998878479,114.31538882890369L213.49213218688968,114.19821931285402L218.1332654953003,114.13125666222574L222.77439880371094,113.98057557576227L227.41553211212158,114.01405690107642L232.05666542053223,114.09777533691158L236.69779872894287,113.99733136096917L241.33893203735352,113.96385003565503L245.98006534576416,113.49511148125704L250.6211986541748,113.6290367825136" fill="none"></path></g><g><path style="fill: none;" stroke="rgb(255, 112, 67)" stroke-width="2px" d="M27.846799850463867,187.28656119904193L32.48793315887451,165.29903914463878L37.129066467285156,152.650659450806L41.7701997756958,144.15139326245642L46.411333084106445,136.91555562184635L51.05246639251708,131.17999590434627L55.693599700927734,126.22687691482885L60.33473300933838,122.11363409753223L64.97586631774902,118.68952587579363L69.61699962615967,115.54536629642872L74.25813293457031,112.53044402787441L78.89926624298096,109.06326678423217L83.5403995513916,107.08919937508247L88.18153285980225,104.87105401174566L92.82266616821289,102.76777953688499L97.46379947662354,100.85831566059075L102.10493278503417,98.05873850155469L106.74606609344484,97.139892374144L111.38719940185547,94.95764794409344L116.02833271026611,93.63681419721549L120.66946601867676,92.53135580495541L125.3105993270874,91.03824597046288L129.95173263549805,89.8681538002477L134.5928659439087,88.1668669448543L139.23399925231934,87.1403482626845L143.87513256073,85.64007033957456L148.51626586914062,85.12321183163115L153.15739917755127,83.1276099115296L157.7985324859619,81.9288151417452L162.43966579437256,81.58423272141637L167.0807991027832,80.21316186401738L171.72193241119385,79.11487156037472L176.3630657196045,78.6698149190038L181.00419902801514,77.8945422796385L185.64533233642578,76.98286424084519L190.28646564483643,75.89894035953695L194.92759895324707,74.94419329884L199.56873226165771,74.07561452705002L204.20986557006833,72.82655240164493L208.850998878479,73.22137193249479L213.49213218688968,71.90773651933388L218.1332654953003,70.50793281726602L222.77439880371094,70.86685141482965L227.41553211212158,69.96953979837077L232.05666542053223,68.82818047282446L236.69779872894287,68.83534856144185L241.33893203735352,67.82319630160647L245.98006534576416,66.4736599551593L250.6211986541748,65.92809884764667" fill="none"></path></g></g></g></g></g></g><g transform="translate(51, 177)" clip-path="url(#clip_1)"><clipPath id="clip_1"><rect width="278" height="22"></rect></clipPath><g><g><line x1="0" y1="0" x2="0" y2="5" style="visibility: inherit;" fill="rgb(0, 0, 0)" stroke="rgb(204, 204, 204)" stroke-width="1px"></line><line x1="23.205666542053223" y1="0" x2="23.205666542053223" y2="5" style="visibility: inherit;" fill="rgb(0, 0, 0)" stroke="rgb(204, 204, 204)" stroke-width="1px"></line><line x1="46.411333084106445" y1="0" x2="46.411333084106445" y2="5" style="visibility: inherit;" fill="rgb(0, 0, 0)" stroke="rgb(204, 204, 204)" stroke-width="1px"></line><line x1="69.61699962615967" y1="0" x2="69.61699962615967" y2="5" style="visibility: inherit;" fill="rgb(0, 0, 0)" stroke="rgb(204, 204, 204)" stroke-width="1px"></line><line x1="92.82266616821289" y1="0" x2="92.82266616821289" y2="5" style="visibility: inherit;" fill="rgb(0, 0, 0)" stroke="rgb(204, 204, 204)" stroke-width="1px"></line><line x1="116.02833271026611" y1="0" x2="116.02833271026611" y2="5" style="visibility: inherit;" fill="rgb(0, 0, 0)" stroke="rgb(204, 204, 204)" stroke-width="1px"></line><line x1="139.23399925231934" y1="0" x2="139.23399925231934" y2="5" style="visibility: inherit;" fill="rgb(0, 0, 0)" stroke="rgb(204, 204, 204)" stroke-width="1px"></line><line x1="162.43966579437256" y1="0" x2="162.43966579437256" y2="5" style="visibility: inherit;" fill="rgb(0, 0, 0)" stroke="rgb(204, 204, 204)" stroke-width="1px"></line><line x1="185.64533233642578" y1="0" x2="185.64533233642578" y2="5" style="visibility: inherit;" fill="rgb(0, 0, 0)" stroke="rgb(204, 204, 204)" stroke-width="1px"></line><line x1="208.850998878479" y1="0" x2="208.850998878479" y2="5" style="visibility: inherit;" fill="rgb(0, 0, 0)" stroke="rgb(204, 204, 204)" stroke-width="1px"></line><line x1="232.05666542053223" y1="0" x2="232.05666542053223" y2="5" style="visibility: inherit;" fill="rgb(0, 0, 0)" stroke="rgb(204, 204, 204)" stroke-width="1px"></line><line x1="255.26233196258545" y1="0" x2="255.26233196258545" y2="5" style="visibility: inherit;" fill="rgb(0, 0, 0)" stroke="rgb(204, 204, 204)" stroke-width="1px"></line><line x1="278.4679985046387" y1="0" x2="278.4679985046387" y2="5" style="visibility: inherit;" fill="rgb(0, 0, 0)" stroke="rgb(204, 204, 204)" stroke-width="1px"></line></g><g transform="translate(0, 8)"><text style="text-anchor: middle; visibility: hidden; font-family: Roboto, sans-serif; font-size: 12px; font-weight: 200;" x="0" y="0" dx="0em" dy="0.95em" fill="rgb(50, 49, 63)" stroke="none" stroke-width="1px">-5</text><text style="text-anchor: middle; visibility: inherit; font-family: Roboto, sans-serif; font-size: 12px; font-weight: 200;" x="23.205666542053223" y="0" dx="0em" dy="0.95em" fill="rgb(50, 49, 63)" stroke="none" stroke-width="1px">0</text><text style="text-anchor: middle; visibility: inherit; font-family: Roboto, sans-serif; font-size: 12px; font-weight: 200;" x="46.411333084106445" y="0" dx="0em" dy="0.95em" fill="rgb(50, 49, 63)" stroke="none" stroke-width="1px">5</text><text style="text-anchor: middle; visibility: inherit; font-family: Roboto, sans-serif; font-size: 12px; font-weight: 200;" x="69.61699962615967" y="0" dx="0em" dy="0.95em" fill="rgb(50, 49, 63)" stroke="none" stroke-width="1px">10</text><text style="text-anchor: middle; visibility: inherit; font-family: Roboto, sans-serif; font-size: 12px; font-weight: 200;" x="92.82266616821289" y="0" dx="0em" dy="0.95em" fill="rgb(50, 49, 63)" stroke="none" stroke-width="1px">15</text><text style="text-anchor: middle; visibility: inherit; font-family: Roboto, sans-serif; font-size: 12px; font-weight: 200;" x="116.02833271026611" y="0" dx="0em" dy="0.95em" fill="rgb(50, 49, 63)" stroke="none" stroke-width="1px">20</text><text style="text-anchor: middle; visibility: inherit; font-family: Roboto, sans-serif; font-size: 12px; font-weight: 200;" x="139.23399925231934" y="0" dx="0em" dy="0.95em" fill="rgb(50, 49, 63)" stroke="none" stroke-width="1px">25</text><text style="text-anchor: middle; visibility: inherit; font-family: Roboto, sans-serif; font-size: 12px; font-weight: 200;" x="162.43966579437256" y="0" dx="0em" dy="0.95em" fill="rgb(50, 49, 63)" stroke="none" stroke-width="1px">30</text><text style="text-anchor: middle; visibility: inherit; font-family: Roboto, sans-serif; font-size: 12px; font-weight: 200;" x="185.64533233642578" y="0" dx="0em" dy="0.95em" fill="rgb(50, 49, 63)" stroke="none" stroke-width="1px">35</text><text style="text-anchor: middle; visibility: inherit; font-family: Roboto, sans-serif; font-size: 12px; font-weight: 200;" x="208.850998878479" y="0" dx="0em" dy="0.95em" fill="rgb(50, 49, 63)" stroke="none" stroke-width="1px">40</text><text style="text-anchor: middle; visibility: inherit; font-family: Roboto, sans-serif; font-size: 12px; font-weight: 200;" x="232.05666542053223" y="0" dx="0em" dy="0.95em" fill="rgb(50, 49, 63)" stroke="none" stroke-width="1px">45</text><text style="text-anchor: middle; visibility: inherit; font-family: Roboto, sans-serif; font-size: 12px; font-weight: 200;" x="255.26233196258545" y="0" dx="0em" dy="0.95em" fill="rgb(50, 49, 63)" stroke="none" stroke-width="1px">50</text><text style="text-anchor: middle; visibility: hidden; font-family: Roboto, sans-serif; font-size: 12px; font-weight: 200;" x="278.4679985046387" y="0" dx="0em" dy="0.95em" fill="rgb(50, 49, 63)" stroke="none" stroke-width="1px">55</text></g><line x1="0" y1="0" x2="278.4679985046387" y2="0" fill="rgb(0, 0, 0)" stroke="rgb(204, 204, 204)" stroke-width="1px"></line></g></g></g></g></svg>