<svg viewBox="0 0 330 200" xmlns="http://www.w3.org/2000/svg"><g><g><g><g><g><line x1="51.53200149536133" y1="177.5999994277954" x2="46.53200149536133" y2="177.5999994277954" style="visibility: inherit;" fill="rgb(0, 0, 0)" stroke="rgb(204, 204, 204)" stroke-width="1px"></line><line x1="51.53200149536133" y1="155.39999949932096" x2="46.53200149536133" y2="155.39999949932096" style="visibility: inherit;" fill="rgb(0, 0, 0)" stroke="rgb(204, 204, 204)" stroke-width="1px"></line><line x1="51.53200149536133" y1="133.19999957084656" x2="46.53200149536133" y2="133.19999957084656" style="visibility: inherit;" fill="rgb(0, 0, 0)" stroke="rgb(204, 204, 204)" stroke-width="1px"></line><line x1="51.53200149536133" y1="110.99999964237213" x2="46.53200149536133" y2="110.99999964237213" style="visibility: inherit;" fill="rgb(0, 0, 0)" stroke="rgb(204, 204, 204)" stroke-width="1px"></line><line x1="51.53200149536133" y1="88.79999971389772" x2="46.53200149536133" y2="88.79999971389772" style="visibility: inherit;" fill="rgb(0, 0, 0)" stroke="rgb(204, 204, 204)" stroke-width="1px"></line><line x1="51.53200149536133" y1="66.59999978542328" x2="46.53200149536133" y2="66.59999978542328" style="visibility: inherit;" fill="rgb(0, 0, 0)" stroke="rgb(204, 204, 204)" stroke-width="1px"></line><line x1="51.53200149536133" y1="44.39999985694883" x2="46.53200149536133" y2="44.39999985694883" style="visibility: inherit;" fill="rgb(0, 0, 0)" stroke="rgb(204, 204, 204)" stroke-width="1px"></line><line x1="51.53200149536133" y1="22.199999928474448" x2="46.53200149536133" y2="22.199999928474448" style="visibility: inherit;" fill="rgb(0, 0, 0)" stroke="rgb(204, 204, 204)" stroke-width="1px"></line><line x1="51.53200149536133" y1="0" x2="46.53200149536133" y2="0" style="visibility: inherit;" fill="rgb(0, 0, 0)" stroke="rgb(204, 204, 204)" stroke-width="1px"></line></g><g transform="translate(41.53200149536133, 0)"><text style="text-anchor: end; visibility: hidden; font-family: Roboto, sans-serif; font-size: 12px; font-weight: 200;" x="0" y="177.5999994277954" dx="0em" dy="0.3em" fill="rgb(50, 49, 63)" stroke="none" stroke-width="1px">0.5</text><text style="text-anchor: end; visibility: inherit; font-family: Roboto, sans-serif; font-size: 12px; font-weight: 200;" x="0" y="155.39999949932096" dx="0em" dy="0.3em" fill="rgb(50, 49, 63)" stroke="none" stroke-width="1px">0.55</text><text style="text-anchor: end; visibility: hidden; font-family: Roboto, sans-serif; font-size: 12px; font-weight: 200;" x="0" y="133.19999957084656" dx="0em" dy="0.3em" fill="rgb(50, 49, 63)" stroke="none" stroke-width="1px">0.6</text><text style="text-anchor: end; visibility: inherit; font-family: Roboto, sans-serif; font-size: 12px; font-weight: 200;" x="0" y="110.99999964237213" dx="0em" dy="0.3em" fill="rgb(50, 49, 63)" stroke="none" stroke-width="1px">0.65</text><text style="text-anchor: end; visibility: hidden; font-family: Roboto, sans-serif; font-size: 12px; font-weight: 200;" x="0" y="88.79999971389772" dx="0em" dy="0.3em" fill="rgb(50, 49, 63)" stroke="none" stroke-width="1px">0.7</text><text style="text-anchor: end; visibility: inherit; font-family: Roboto, sans-serif; font-size: 12px; font-weight: 200;" x="0" y="66.59999978542328" dx="0em" dy="0.3em" fill="rgb(50, 49, 63)" stroke="none" stroke-width="1px">0.75</text><text style="text-anchor: end; visibility: hidden; font-family: Roboto, sans-serif; font-size: 12px; font-weight: 200;" x="0" y="44.39999985694883" dx="0em" dy="0.3em" fill="rgb(50, 49, 63)" stroke="none" stroke-width="1px">0.8</text><text style="text-anchor: end; visibility: inherit; font-family: Roboto, sans-serif; font-size: 12px; font-weight: 200;" x="0" y="22.199999928474448" dx="0em" dy="0.3em" fill="rgb(50, 49, 63)" stroke="none" stroke-width="1px">0.85</text><text style="text-anchor: end; visibility: hidden; font-family: Roboto, sans-serif; font-size: 12px; font-weight: 200;" x="0" y="0" dx="0em" dy="0.3em" fill="rgb(50, 49, 63)" stroke="none" stroke-width="1px">0.9</text></g><line x1="51.53200149536133" y1="0" x2="51.53200149536133" y2="177.5999994277954" fill="rgb(0, 0, 0)" stroke="rgb(204, 204, 204)" stroke-width="1px"></line></g></g><g transform="translate(51, 0)" clip-path="url(#clip_0)"><clipPath id="clip_0"><rect width="278" height="177"></rect></clipPath><g><g><g><line x1="0" y1="0" x2="0" y2="177.5999994277954" fill="rgb(0, 0, 0)" stroke="rgb(60, 60, 60)" stroke-width="1px" opacity="0.25"></line><line x1="23.205666542053223" y1="0" x2="23.205666542053223" y2="177.5999994277954" fill="rgb(0, 0, 0)" stroke="rgb(60, 60, 60)" stroke-width="1px" opacity="0.25"></line><line x1="46.411333084106445" y1="0" x2="46.411333084106445" y2="177.5999994277954" fill="rgb(0, 0, 0)" stroke="rgb(60, 60, 60)" stroke-width="1px" opacity="0.25"></line><line x1="69.61699962615967" y1="0" x2="69.61699962615967" y2="177.5999994277954" fill="rgb(0, 0, 0)" stroke="rgb(60, 60, 60)" stroke-width="1px" opacity="0.25"></line><line x1="92.82266616821289" y1="0" x2="92.82266616821289" y2="177.5999994277954" fill="rgb(0, 0, 0)" stroke="rgb(60, 60, 60)" stroke-width="1px" opacity="0.25"></line><line x1="116.02833271026611" y1="0" x2="116.02833271026611" y2="177.5999994277954" fill="rgb(0, 0, 0)" stroke="rgb(60, 60, 60)" stroke-width="1px" opacity="0.25"></line><line x1="139.23399925231934" y1="0" x2="139.23399925231934" y2="177.5999994277954" fill="rgb(0, 0, 0)" stroke="rgb(60, 60, 60)" stroke-width="1px" opacity="0.25"></line><line x1="162.43966579437256" y1="0" x2="162.43966579437256" y2="177.5999994277954" fill="rgb(0, 0, 0)" stroke="rgb(60, 60, 60)" stroke-width="1px" opacity="0.25"></line><line x1="185.64533233642578" y1="0" x2="185.64533233642578" y2="177.5999994277954" fill="rgb(0, 0, 0)" stroke="rgb(60, 60, 60)" stroke-width="1px" opacity="0.25"></line><line x1="208.850998878479" y1="0" x2="208.850998878479" y2="177.5999994277954" fill="rgb(0, 0, 0)" stroke="rgb(60, 60, 60)" stroke-width="1px" opacity="0.25"></line><line x1="232.05666542053223" y1="0" x2="232.05666542053223" y2="177.5999994277954" fill="rgb(0, 0, 0)" stroke="rgb(60, 60, 60)" stroke-width="1px" opacity="0.25"></line><line x1="255.26233196258545" y1="0" x2="255.26233196258545" y2="177.5999994277954" fill="rgb(0, 0, 0)" stroke="rgb(60, 60, 60)" stroke-width="1px" opacity="0.25"></line><line x1="278.4679985046387" y1="0" x2="278.4679985046387" y2="177.5999994277954" fill="rgb(0, 0, 0)" stroke="rgb(60, 60, 60)" stroke-width="1px" opacity="0.25"></line></g><g><line x1="0" y1="177.5999994277954" x2="278.4679985046387" y2="177.5999994277954" fill="rgb(0, 0, 0)" stroke="rgb(60, 60, 60)" stroke-width="1px" opacity="0.25"></line><line x1="0" y1="155.39999949932096" x2="278.4679985046387" y2="155.39999949932096" fill="rgb(0, 0, 0)" stroke="rgb(60, 60, 60)" stroke-width="1px" opacity="0.25"></line><line x1="0" y1="133.19999957084656" x2="278.4679985046387" y2="133.19999957084656" fill="rgb(0, 0, 0)" stroke="rgb(60, 60, 60)" stroke-width="1px" opacity="0.25"></line><line x1="0" y1="110.99999964237213" x2="278.4679985046387" y2="110.99999964237213" fill="rgb(0, 0, 0)" stroke="rgb(60, 60, 60)" stroke-width="1px" opacity="0.25"></line><line x1="0" y1="88.79999971389772" x2="278.4679985046387" y2="88.79999971389772" fill="rgb(0, 0, 0)" stroke="rgb(60, 60, 60)" stroke-width="1px" opacity="0.25"></line><line x1="0" y1="66.59999978542328" x2="278.4679985046387" y2="66.59999978542328" fill="rgb(0, 0, 0)" stroke="rgb(60, 60, 60)" stroke-width="1px" opacity="0.25"></line><line x1="0" y1="44.39999985694883" x2="278.4679985046387" y2="44.39999985694883" fill="rgb(0, 0, 0)" stroke="rgb(60, 60, 60)" stroke-width="1px" opacity="0.25"></line><line x1="0" y1="22.199999928474448" x2="278.4679985046387" y2="22.199999928474448" fill="rgb(0, 0, 0)" stroke="rgb(60, 60, 60)" stroke-width="1px" opacity="0.25"></line><line x1="0" y1="0" x2="278.4679985046387" y2="0" fill="rgb(0, 0, 0)" stroke="rgb(60, 60, 60)" stroke-width="1px" opacity="0.25"></line></g></g></g><g><g><line x1="0" y1="399.5999987125397" x2="278.4679985046387" y2="399.5999987125397" fill="rgb(0, 0, 0)" stroke="rgb(153, 153, 153)" stroke-width="1.5px"></line></g></g><g><g><line x1="23.205666542053223" y1="0" x2="23.205666542053223" y2="177.5999994277954" fill="rgb(0, 0, 0)" stroke="rgb(153, 153, 153)" stroke-width="1.5px"></line></g></g><g><g><g><g><g><path style="fill: none;" stroke="rgb(51, 187, 238)" stroke-width="2px" d="M23.205666542053223,144.0714841969223L27.846799850463867,140.38027393888694L32.48793315887451,141.24449741632714L37.129066467285156,141.20056640908342L41.7701997756958,138.0366605602836L46.411333084106445,139.51607692590895L51.05246639251708,139.19381916976033L55.693599700927734,138.2417336778327L60.33473300933838,138.8715878780739L64.97586631774902,139.20848048181637L69.61699962615967,141.55209386041972L74.25813293457031,141.6692784990192L78.89926624298096,138.7544032394744L83.5403995513916,138.68114960811863L88.18153285980225,137.2163945545493L92.82266616821289,142.15265190101104L97.46379947662354,139.9701541682509L102.10493278503417,141.37631690252047L106.74606609344484,137.69976795654114L111.38719940185547,136.46935571570862L116.02833271026611,139.60396540485857L120.66946601867676,141.14197408978367L125.3105993270874,138.4760764905695L129.95173263549805,138.30032599713246L134.5928659439087,139.1791843221665L139.23399925231934,138.56396496951913L143.87513256073,137.6411756372414L148.51626586914062,138.93015373291146L153.15739917755127,136.1031669523163L157.7985324859619,141.80109798521255L162.43966579437256,137.90484107409026L167.0807991027832,140.62930452814197L171.72193241119385,138.79833424671813L176.3630657196045,139.9701541682509L181.00419902801514,137.23102940214315L185.64533233642578,139.42818844695933L190.28646564483643,140.35097777923707L194.92759895324707,139.35496128006574L199.56873226165771,138.12454903923322L204.20986557006833,139.48678076625907L208.850998878479,138.68114960811863L213.49213218688968,139.1791843221665L218.1332654953003,140.6439393757358L222.77439880371094,139.061999683567L227.41553211212158,137.50932968658586L232.05666542053223,138.88622272566775L236.69779872894287,139.32566512041586L241.33893203735352,138.44678033091964L245.98006534576416,138.50537265021939L250.6211986541748,137.49469483899202" fill="none"></path></g><g><path style="fill: none;" stroke="rgb(204, 51, 17)" stroke-width="2px" d="M23.205666542053223,169.1141960894282L27.846799850463867,129.71271387270104L32.48793315887451,116.59144826518056L37.129066467285156,109.30535839149965L41.7701997756958,103.57696676261693L46.411333084106445,99.21787287216614L51.05246639251708,94.94042184758695L55.693599700927734,93.03095797129271L60.33473300933838,88.68443470038454L64.97586631774902,87.4344916864521L69.61699962615967,84.93460565858723L74.25813293457031,83.11935526770722L78.89926624298096,81.47998769257524L83.5403995513916,79.46373971132414L88.18153285980225,79.18109925508145L92.82266616821289,76.9387389088362L97.46379947662354,76.31690344064009L102.10493278503417,75.75159606369252L106.74606609344484,74.20016989643455L111.38719940185547,72.58591709592562L116.02833271026611,72.88740024925116L120.66946601867676,71.78819881198149L125.3105993270874,70.38751422138628L129.95173263549805,69.70915066194164L134.5928659439087,68.69161855500576L139.23399925231934,67.41653430198807L143.87513256073,67.69290268069054L148.51626586914062,68.15772449468366L153.15739917755127,67.19042193699391L157.7985324859619,65.73320925515017L162.43966579437256,66.18543398513847L167.0807991027832,65.23070204699135L171.72193241119385,64.97317636537173L176.3630657196045,64.59632242371481L181.00419902801514,63.4405928951966L185.64533233642578,62.97579754566567L190.28646564483643,63.4405928951966L194.92759895324707,62.718271864046045L199.56873226165771,62.862741363168595L204.20986557006833,61.89543880547885L208.850998878479,61.5060142442793L213.49213218688968,62.26602066959555L218.1332654953003,60.14301504784979L222.77439880371094,60.44449820117532L227.41553211212158,60.16812982247285L232.05666542053223,60.26234330788708L236.69779872894287,59.7787052612733L241.33893203735352,58.34660735405262L245.98006534576416,60.04880156243556L250.6211986541748,58.86793079483209" fill="none"></path></g><g><path style="fill: none;" stroke="rgb(0, 119, 187)" stroke-width="2px" d="M23.205666542053223,123.71123545842804L27.846799850463867,114.26350184819665L32.48793315887451,109.67877195307122L37.129066467285156,107.17404292862466L41.7701997756958,105.94363068779214L46.411333084106445,105.40166496650056L51.05246639251708,106.33911561083434L55.693599700927734,105.66533040334943L60.33473300933838,106.07545017398547L64.97586631774902,105.98756169503585L69.61699962615967,106.54418872838346L74.25813293457031,106.57348488803333L78.89926624298096,107.7013473378602L83.5403995513916,107.51093553236711L88.18153285980225,108.46302102429473L92.82266616821289,108.66809414184385L97.46379947662354,108.14076326814612L102.10493278503417,109.21005986313543L106.74606609344484,109.41513298068455L111.38719940185547,110.39651463226204L116.02833271026611,109.73736427237097L120.66946601867676,110.8945493463099L125.3105993270874,110.4990379588055L129.95173263549805,110.23539898641883L134.5928659439087,111.40719244348941L139.23399925231934,111.48044607484519L143.87513256073,112.13959643473626L148.51626586914062,111.93452331718714L153.15739917755127,111.94915816478098L157.7985324859619,112.53508135777847L162.43966579437256,112.72549316327155L167.0807991027832,113.39927837075646L171.72193241119385,112.88660880911476L176.3630657196045,113.531124321412L181.00419902801514,113.79476329379867L185.64533233642578,113.13563939836979L190.28646564483643,115.23024865218031L194.92759895324707,114.21954437649075L199.56873226165771,114.33672901509024L204.20986557006833,114.89335604843785L208.850998878479,115.02517553463119L213.49213218688968,114.89335604843785L218.1332654953003,115.87473770001534L222.77439880371094,116.03587981032075L227.41553211212158,115.44995661732327L232.05666542053223,115.90403385966522L236.69779872894287,116.10910697721434L241.33893203735352,115.4646179293793L245.98006534576416,116.28488393511358L250.6211986541748,116.98796530224837" fill="none"></path></g><g><path style="fill: none;" stroke="rgb(255, 112, 67)" stroke-width="2px" d="M23.205666542053223,156.84717685710038L27.846799850463867,109.06667540696287L32.48793315887451,94.73315217967564L37.129066467285156,85.19213134020686L41.7701997756958,77.78668674202646L46.411333084106445,71.81961212860696L51.05246639251708,68.26450859964052L55.693599700927734,63.64159048556769L60.33473300933838,61.00350703612048L64.97586631774902,58.47223415609233L69.61699962615967,55.62688103873381L74.25813293457031,52.97625343420617L78.89926624298096,51.91473739110219L83.5403995513916,50.042958908973645L88.18153285980225,48.44127672800735L92.82266616821289,47.11596292574353L97.46379947662354,44.98665876199536L102.10493278503417,44.29572458300808L106.74606609344484,43.12745089940944L111.38719940185547,41.70792361173139L116.02833271026611,40.809719764832806L120.66946601867676,40.48936744996223L125.3105993270874,39.02588269057827L129.95173263549805,38.04600951334589L134.5928659439087,37.66285702968656L139.23399925231934,36.50715396563055L143.87513256073,36.54483935979624L148.51626586914062,36.174231031217346L153.15739917755127,34.62907694149959L157.7985324859619,34.195694908594135L162.43966579437256,33.96328400159757L167.0807991027832,33.55501674331518L171.72193241119385,33.046237457616144L176.3630657196045,32.58144210808521L181.00419902801514,32.129190913634716L185.64533233642578,31.375456565858684L190.28646564483643,30.753621097662574L194.92759895324707,31.48851274835576L199.56873226165771,31.48851274835576L204.20986557006833,30.07528400268012L208.850998878479,30.577764746376744L213.49213218688968,28.762514355496734L218.1332654953003,29.949657200640416L222.77439880371094,29.528819322815394L227.41553211212158,29.133096219613435L232.05666542053223,29.158237458698693L236.69779872894287,29.334093809984523L241.33893203735352,28.53010344850017L245.98006534576416,28.373089794297186L250.6211986541748,27.97109461355501" fill="none"></path></g><g><path style="fill: none;" stroke="rgb(0, 153, 136)" stroke-width="2px" d="M23.205666542053223,177.74648022604478L27.846799850463867,151.9812355866908L32.48793315887451,140.2045234454499L37.129066467285156,133.071107054172L41.7701997756958,128.1494845553041L46.411333084106445,124.73657458171144L51.05246639251708,120.98677200437632L55.693599700927734,117.89611978693227L60.33473300933838,115.75755306141585L64.97586631774902,114.35139032714628L69.61699962615967,112.63760468432193L74.25813293457031,111.40719244348941L78.89926624298096,110.23539898641883L83.5403995513916,109.3565406613848L88.18153285980225,108.3312015381014L92.82266616821289,107.51093553236711L97.46379947662354,106.54418872838346L102.10493278503417,106.03151916674176L106.74606609344484,105.44559597374428L111.38719940185547,105.16729568930157L116.02833271026611,104.77181076625936L120.66946601867676,104.18591403772407L125.3105993270874,103.55605983748288L129.95173263549805,103.4095790392335L134.5928659439087,103.4095790392335L139.23399925231934,103.07268643549105L143.87513256073,102.56001687384935L148.51626586914062,102.31101274905652L153.15739917755127,102.1059396315074L157.7985324859619,101.82763934706469L162.43966579437256,101.78368187535878L167.0807991027832,101.56397391021582L171.72193241119385,101.31496978542299L176.3630657196045,101.43215442402249L181.00419902801514,101.27101231371708L185.64533233642578,100.99271202927437L190.28646564483643,100.94878102203066L194.92759895324707,100.52399993933858L199.56873226165771,100.6118884182882L204.20986557006833,100.64118457793808L208.850998878479,100.4507463079828L213.49213218688968,100.6118884182882L218.1332654953003,100.46540762003883L222.77439880371094,100.36285782903317L227.41553211212158,100.3335616693833L232.05666542053223,100.39215398868305L236.69779872894287,100.26033450248971L241.33893203735352,100.14314986389022L245.98006534576416,100.18708087113393L250.6211986541748,99.99666906564084" fill="none"></path></g><g><path style="fill: none;" stroke="rgb(238, 51, 119)" stroke-width="2px" d="M23.205666542053223,243.17491414877236L27.846799850463867,163.70615677541605L32.48793315887451,144.59897385739322L37.129066467285156,133.5253695477493L41.7701997756958,125.9063567396552L46.411333084106445,119.76969785249008L51.05246639251708,114.70082708596917L55.693599700927734,110.66835758792917L60.33473300933838,106.83685921579806L64.97586631774902,102.9865446110463L69.61699962615967,100.52434397734712L74.25813293457031,98.32594110280777L78.89926624298096,95.88258316619144L83.5403995513916,93.28221157537212L88.18153285980225,91.54233197282349L92.82266616821289,89.58263854728312L97.46379947662354,87.69201736807173L102.10493278503417,86.35413294626528L106.74606609344484,84.78383761746227L111.38719940185547,83.45852381519845L116.02833271026611,81.85056955669194L120.66946601867676,80.25515945326586L125.3105993270874,79.34438498682465L129.95173263549805,78.27032478864024L134.5928659439087,76.95128306391663L139.23399925231934,76.21011933568323L143.87513256073,74.58959445763409L148.51626586914062,74.15618596026644L153.15739917755127,72.59218917346584L157.7985324859619,71.25430475165939L162.43966579437256,71.80076943152412L167.0807991027832,70.46918355172008L171.72193241119385,69.60866509898719L176.3630657196045,69.16898452407932L181.00419902801514,67.3474620556591L185.64533233642578,67.60498773727872L190.28646564483643,66.72562658746298L194.92759895324707,65.331214074408L199.56873226165771,65.5824676784874L204.20986557006833,64.0184708916868L208.850998878479,63.06373895353968L213.49213218688968,62.40421809117788L218.1332654953003,62.17180718418132L222.77439880371094,61.5876571101509L227.41553211212158,60.51359691196649L232.05666542053223,60.64549579154641L236.69779872894287,59.41439547469682L241.33893203735352,58.56017556396634L245.98006534576416,58.805130626043336L250.6211986541748,57.894356159602125" fill="none"></path></g></g></g></g></g></g><g transform="translate(51, 177)" clip-path="url(#clip_1)"><clipPath id="clip_1"><rect width="278" height="22"></rect></clipPath><g><g><line x1="0" y1="0" x2="0" y2="5" style="visibility: inherit;" fill="rgb(0, 0, 0)" stroke="rgb(204, 204, 204)" stroke-width="1px"></line><line x1="23.205666542053223" y1="0" x2="23.205666542053223" y2="5" style="visibility: inherit;" fill="rgb(0, 0, 0)" stroke="rgb(204, 204, 204)" stroke-width="1px"></line><line x1="46.411333084106445" y1="0" x2="46.411333084106445" y2="5" style="visibility: inherit;" fill="rgb(0, 0, 0)" stroke="rgb(204, 204, 204)" stroke-width="1px"></line><line x1="69.61699962615967" y1="0" x2="69.61699962615967" y2="5" style="visibility: inherit;" fill="rgb(0, 0, 0)" stroke="rgb(204, 204, 204)" stroke-width="1px"></line><line x1="92.82266616821289" y1="0" x2="92.82266616821289" y2="5" style="visibility: inherit;" fill="rgb(0, 0, 0)" stroke="rgb(204, 204, 204)" stroke-width="1px"></line><line x1="116.02833271026611" y1="0" x2="116.02833271026611" y2="5" style="visibility: inherit;" fill="rgb(0, 0, 0)" stroke="rgb(204, 204, 204)" stroke-width="1px"></line><line x1="139.23399925231934" y1="0" x2="139.23399925231934" y2="5" style="visibility: inherit;" fill="rgb(0, 0, 0)" stroke="rgb(204, 204, 204)" stroke-width="1px"></line><line x1="162.43966579437256" y1="0" x2="162.43966579437256" y2="5" style="visibility: inherit;" fill="rgb(0, 0, 0)" stroke="rgb(204, 204, 204)" stroke-width="1px"></line><line x1="185.64533233642578" y1="0" x2="185.64533233642578" y2="5" style="visibility: inherit;" fill="rgb(0, 0, 0)" stroke="rgb(204, 204, 204)" stroke-width="1px"></line><line x1="208.850998878479" y1="0" x2="208.850998878479" y2="5" style="visibility: inherit;" fill="rgb(0, 0, 0)" stroke="rgb(204, 204, 204)" stroke-width="1px"></line><line x1="232.05666542053223" y1="0" x2="232.05666542053223" y2="5" style="visibility: inherit;" fill="rgb(0, 0, 0)" stroke="rgb(204, 204, 204)" stroke-width="1px"></line><line x1="255.26233196258545" y1="0" x2="255.26233196258545" y2="5" style="visibility: inherit;" fill="rgb(0, 0, 0)" stroke="rgb(204, 204, 204)" stroke-width="1px"></line><line x1="278.4679985046387" y1="0" x2="278.4679985046387" y2="5" style="visibility: inherit;" fill="rgb(0, 0, 0)" stroke="rgb(204, 204, 204)" stroke-width="1px"></line></g><g transform="translate(0, 8)"><text style="text-anchor: middle; visibility: hidden; font-family: Roboto, sans-serif; font-size: 12px; font-weight: 200;" x="0" y="0" dx="0em" dy="0.95em" fill="rgb(50, 49, 63)" stroke="none" stroke-width="1px">-5</text><text style="text-anchor: middle; visibility: inherit; font-family: Roboto, sans-serif; font-size: 12px; font-weight: 200;" x="23.205666542053223" y="0" dx="0em" dy="0.95em" fill="rgb(50, 49, 63)" stroke="none" stroke-width="1px">0</text><text style="text-anchor: middle; visibility: inherit; font-family: Roboto, sans-serif; font-size: 12px; font-weight: 200;" x="46.411333084106445" y="0" dx="0em" dy="0.95em" fill="rgb(50, 49, 63)" stroke="none" stroke-width="1px">5</text><text style="text-anchor: middle; visibility: inherit; font-family: Roboto, sans-serif; font-size: 12px; font-weight: 200;" x="69.61699962615967" y="0" dx="0em" dy="0.95em" fill="rgb(50, 49, 63)" stroke="none" stroke-width="1px">10</text><text style="text-anchor: middle; visibility: inherit; font-family: Roboto, sans-serif; font-size: 12px; font-weight: 200;" x="92.82266616821289" y="0" dx="0em" dy="0.95em" fill="rgb(50, 49, 63)" stroke="none" stroke-width="1px">15</text><text style="text-anchor: middle; visibility: inherit; font-family: Roboto, sans-serif; font-size: 12px; font-weight: 200;" x="116.02833271026611" y="0" dx="0em" dy="0.95em" fill="rgb(50, 49, 63)" stroke="none" stroke-width="1px">20</text><text style="text-anchor: middle; visibility: inherit; font-family: Roboto, sans-serif; font-size: 12px; font-weight: 200;" x="139.23399925231934" y="0" dx="0em" dy="0.95em" fill="rgb(50, 49, 63)" stroke="none" stroke-width="1px">25</text><text style="text-anchor: middle; visibility: inherit; font-family: Roboto, sans-serif; font-size: 12px; font-weight: 200;" x="162.43966579437256" y="0" dx="0em" dy="0.95em" fill="rgb(50, 49, 63)" stroke="none" stroke-width="1px">30</text><text style="text-anchor: middle; visibility: inherit; font-family: Roboto, sans-serif; font-size: 12px; font-weight: 200;" x="185.64533233642578" y="0" dx="0em" dy="0.95em" fill="rgb(50, 49, 63)" stroke="none" stroke-width="1px">35</text><text style="text-anchor: middle; visibility: inherit; font-family: Roboto, sans-serif; font-size: 12px; font-weight: 200;" x="208.850998878479" y="0" dx="0em" dy="0.95em" fill="rgb(50, 49, 63)" stroke="none" stroke-width="1px">40</text><text style="text-anchor: middle; visibility: inherit; font-family: Roboto, sans-serif; font-size: 12px; font-weight: 200;" x="232.05666542053223" y="0" dx="0em" dy="0.95em" fill="rgb(50, 49, 63)" stroke="none" stroke-width="1px">45</text><text style="text-anchor: middle; visibility: inherit; font-family: Roboto, sans-serif; font-size: 12px; font-weight: 200;" x="255.26233196258545" y="0" dx="0em" dy="0.95em" fill="rgb(50, 49, 63)" stroke="none" stroke-width="1px">50</text><text style="text-anchor: middle; visibility: hidden; font-family: Roboto, sans-serif; font-size: 12px; font-weight: 200;" x="278.4679985046387" y="0" dx="0em" dy="0.95em" fill="rgb(50, 49, 63)" stroke="none" stroke-width="1px">55</text></g><line x1="0" y1="0" x2="278.4679985046387" y2="0" fill="rgb(0, 0, 0)" stroke="rgb(204, 204, 204)" stroke-width="1px"></line></g></g></g></g></svg>