<svg viewBox="0 0 330 200" xmlns="http://www.w3.org/2000/svg"><g><g><g><g><g><line x1="41.149001121520996" y1="177.5999994277954" x2="36.149001121520996" y2="177.5999994277954" style="visibility: inherit;" fill="rgb(0, 0, 0)" stroke="rgb(204, 204, 204)" stroke-width="1px"></line><line x1="41.149001121520996" y1="162.79999947547913" x2="36.149001121520996" y2="162.79999947547913" style="visibility: inherit;" fill="rgb(0, 0, 0)" stroke="rgb(204, 204, 204)" stroke-width="1px"></line><line x1="41.149001121520996" y1="147.99999952316284" x2="36.149001121520996" y2="147.99999952316284" style="visibility: inherit;" fill="rgb(0, 0, 0)" stroke="rgb(204, 204, 204)" stroke-width="1px"></line><line x1="41.149001121520996" y1="133.19999957084656" x2="36.149001121520996" y2="133.19999957084656" style="visibility: inherit;" fill="rgb(0, 0, 0)" stroke="rgb(204, 204, 204)" stroke-width="1px"></line><line x1="41.149001121520996" y1="118.39999961853029" x2="36.149001121520996" y2="118.39999961853029" style="visibility: inherit;" fill="rgb(0, 0, 0)" stroke="rgb(204, 204, 204)" stroke-width="1px"></line><line x1="41.149001121520996" y1="103.59999966621398" x2="36.149001121520996" y2="103.59999966621398" style="visibility: inherit;" fill="rgb(0, 0, 0)" stroke="rgb(204, 204, 204)" stroke-width="1px"></line><line x1="41.149001121520996" y1="88.79999971389772" x2="36.149001121520996" y2="88.79999971389772" style="visibility: inherit;" fill="rgb(0, 0, 0)" stroke="rgb(204, 204, 204)" stroke-width="1px"></line><line x1="41.149001121520996" y1="73.99999976158144" x2="36.149001121520996" y2="73.99999976158144" style="visibility: inherit;" fill="rgb(0, 0, 0)" stroke="rgb(204, 204, 204)" stroke-width="1px"></line><line x1="41.149001121520996" y1="59.199999809265165" x2="36.149001121520996" y2="59.199999809265165" style="visibility: inherit;" fill="rgb(0, 0, 0)" stroke="rgb(204, 204, 204)" stroke-width="1px"></line><line x1="41.149001121520996" y1="44.399999856948874" x2="36.149001121520996" y2="44.399999856948874" style="visibility: inherit;" fill="rgb(0, 0, 0)" stroke="rgb(204, 204, 204)" stroke-width="1px"></line><line x1="41.149001121520996" y1="29.599999904632583" x2="36.149001121520996" y2="29.599999904632583" style="visibility: inherit;" fill="rgb(0, 0, 0)" stroke="rgb(204, 204, 204)" stroke-width="1px"></line><line x1="41.149001121520996" y1="14.799999952316291" x2="36.149001121520996" y2="14.799999952316291" style="visibility: inherit;" fill="rgb(0, 0, 0)" stroke="rgb(204, 204, 204)" stroke-width="1px"></line><line x1="41.149001121520996" y1="0" x2="36.149001121520996" y2="0" style="visibility: inherit;" fill="rgb(0, 0, 0)" stroke="rgb(204, 204, 204)" stroke-width="1px"></line></g><g transform="translate(31.149001121520996, 0)"><text style="text-anchor: end; visibility: hidden; font-family: Roboto, sans-serif; font-size: 12px; font-weight: 200;" x="0" y="177.5999994277954" dx="0em" dy="0.3em" fill="rgb(50, 49, 63)" stroke="none" stroke-width="1px">0.6</text><text style="text-anchor: end; visibility: inherit; font-family: Roboto, sans-serif; font-size: 12px; font-weight: 200;" x="0" y="162.79999947547913" dx="0em" dy="0.3em" fill="rgb(50, 49, 63)" stroke="none" stroke-width="1px">0.7</text><text style="text-anchor: end; visibility: hidden; font-family: Roboto, sans-serif; font-size: 12px; font-weight: 200;" x="0" y="147.99999952316284" dx="0em" dy="0.3em" fill="rgb(50, 49, 63)" stroke="none" stroke-width="1px">0.8</text><text style="text-anchor: end; visibility: inherit; font-family: Roboto, sans-serif; font-size: 12px; font-weight: 200;" x="0" y="133.19999957084656" dx="0em" dy="0.3em" fill="rgb(50, 49, 63)" stroke="none" stroke-width="1px">0.9</text><text style="text-anchor: end; visibility: hidden; font-family: Roboto, sans-serif; font-size: 12px; font-weight: 200;" x="0" y="118.39999961853029" dx="0em" dy="0.3em" fill="rgb(50, 49, 63)" stroke="none" stroke-width="1px">1</text><text style="text-anchor: end; visibility: inherit; font-family: Roboto, sans-serif; font-size: 12px; font-weight: 200;" x="0" y="103.59999966621398" dx="0em" dy="0.3em" fill="rgb(50, 49, 63)" stroke="none" stroke-width="1px">1.1</text><text style="text-anchor: end; visibility: hidden; font-family: Roboto, sans-serif; font-size: 12px; font-weight: 200;" x="0" y="88.79999971389772" dx="0em" dy="0.3em" fill="rgb(50, 49, 63)" stroke="none" stroke-width="1px">1.2</text><text style="text-anchor: end; visibility: inherit; font-family: Roboto, sans-serif; font-size: 12px; font-weight: 200;" x="0" y="73.99999976158144" dx="0em" dy="0.3em" fill="rgb(50, 49, 63)" stroke="none" stroke-width="1px">1.3</text><text style="text-anchor: end; visibility: hidden; font-family: Roboto, sans-serif; font-size: 12px; font-weight: 200;" x="0" y="59.199999809265165" dx="0em" dy="0.3em" fill="rgb(50, 49, 63)" stroke="none" stroke-width="1px">1.4</text><text style="text-anchor: end; visibility: inherit; font-family: Roboto, sans-serif; font-size: 12px; font-weight: 200;" x="0" y="44.399999856948874" dx="0em" dy="0.3em" fill="rgb(50, 49, 63)" stroke="none" stroke-width="1px">1.5</text><text style="text-anchor: end; visibility: hidden; font-family: Roboto, sans-serif; font-size: 12px; font-weight: 200;" x="0" y="29.599999904632583" dx="0em" dy="0.3em" fill="rgb(50, 49, 63)" stroke="none" stroke-width="1px">1.6</text><text style="text-anchor: end; visibility: inherit; font-family: Roboto, sans-serif; font-size: 12px; font-weight: 200;" x="0" y="14.799999952316291" dx="0em" dy="0.3em" fill="rgb(50, 49, 63)" stroke="none" stroke-width="1px">1.7</text><text style="text-anchor: end; visibility: hidden; font-family: Roboto, sans-serif; font-size: 12px; font-weight: 200;" x="0" y="0" dx="0em" dy="0.3em" fill="rgb(50, 49, 63)" stroke="none" stroke-width="1px">1.8</text></g><line x1="41.149001121520996" y1="0" x2="41.149001121520996" y2="177.5999994277954" fill="rgb(0, 0, 0)" stroke="rgb(204, 204, 204)" stroke-width="1px"></line></g></g><g transform="translate(41, 0)" clip-path="url(#clip_0)"><clipPath id="clip_0"><rect width="288" height="177"></rect></clipPath><g><g><g><line x1="0" y1="0" x2="0" y2="177.5999994277954" fill="rgb(0, 0, 0)" stroke="rgb(60, 60, 60)" stroke-width="1px" opacity="0.25"></line><line x1="24.07091657320658" y1="0" x2="24.07091657320658" y2="177.5999994277954" fill="rgb(0, 0, 0)" stroke="rgb(60, 60, 60)" stroke-width="1px" opacity="0.25"></line><line x1="48.14183314641316" y1="0" x2="48.14183314641316" y2="177.5999994277954" fill="rgb(0, 0, 0)" stroke="rgb(60, 60, 60)" stroke-width="1px" opacity="0.25"></line><line x1="72.21274971961975" y1="0" x2="72.21274971961975" y2="177.5999994277954" fill="rgb(0, 0, 0)" stroke="rgb(60, 60, 60)" stroke-width="1px" opacity="0.25"></line><line x1="96.28366629282633" y1="0" x2="96.28366629282633" y2="177.5999994277954" fill="rgb(0, 0, 0)" stroke="rgb(60, 60, 60)" stroke-width="1px" opacity="0.25"></line><line x1="120.35458286603293" y1="0" x2="120.35458286603293" y2="177.5999994277954" fill="rgb(0, 0, 0)" stroke="rgb(60, 60, 60)" stroke-width="1px" opacity="0.25"></line><line x1="144.4254994392395" y1="0" x2="144.4254994392395" y2="177.5999994277954" fill="rgb(0, 0, 0)" stroke="rgb(60, 60, 60)" stroke-width="1px" opacity="0.25"></line><line x1="168.4964160124461" y1="0" x2="168.4964160124461" y2="177.5999994277954" fill="rgb(0, 0, 0)" stroke="rgb(60, 60, 60)" stroke-width="1px" opacity="0.25"></line><line x1="192.56733258565265" y1="0" x2="192.56733258565265" y2="177.5999994277954" fill="rgb(0, 0, 0)" stroke="rgb(60, 60, 60)" stroke-width="1px" opacity="0.25"></line><line x1="216.63824915885925" y1="0" x2="216.63824915885925" y2="177.5999994277954" fill="rgb(0, 0, 0)" stroke="rgb(60, 60, 60)" stroke-width="1px" opacity="0.25"></line><line x1="240.70916573206586" y1="0" x2="240.70916573206586" y2="177.5999994277954" fill="rgb(0, 0, 0)" stroke="rgb(60, 60, 60)" stroke-width="1px" opacity="0.25"></line><line x1="264.7800823052724" y1="0" x2="264.7800823052724" y2="177.5999994277954" fill="rgb(0, 0, 0)" stroke="rgb(60, 60, 60)" stroke-width="1px" opacity="0.25"></line><line x1="288.850998878479" y1="0" x2="288.850998878479" y2="177.5999994277954" fill="rgb(0, 0, 0)" stroke="rgb(60, 60, 60)" stroke-width="1px" opacity="0.25"></line></g><g><line x1="0" y1="177.5999994277954" x2="288.850998878479" y2="177.5999994277954" fill="rgb(0, 0, 0)" stroke="rgb(60, 60, 60)" stroke-width="1px" opacity="0.25"></line><line x1="0" y1="162.79999947547913" x2="288.850998878479" y2="162.79999947547913" fill="rgb(0, 0, 0)" stroke="rgb(60, 60, 60)" stroke-width="1px" opacity="0.25"></line><line x1="0" y1="147.99999952316284" x2="288.850998878479" y2="147.99999952316284" fill="rgb(0, 0, 0)" stroke="rgb(60, 60, 60)" stroke-width="1px" opacity="0.25"></line><line x1="0" y1="133.19999957084656" x2="288.850998878479" y2="133.19999957084656" fill="rgb(0, 0, 0)" stroke="rgb(60, 60, 60)" stroke-width="1px" opacity="0.25"></line><line x1="0" y1="118.39999961853029" x2="288.850998878479" y2="118.39999961853029" fill="rgb(0, 0, 0)" stroke="rgb(60, 60, 60)" stroke-width="1px" opacity="0.25"></line><line x1="0" y1="103.59999966621398" x2="288.850998878479" y2="103.59999966621398" fill="rgb(0, 0, 0)" stroke="rgb(60, 60, 60)" stroke-width="1px" opacity="0.25"></line><line x1="0" y1="88.79999971389772" x2="288.850998878479" y2="88.79999971389772" fill="rgb(0, 0, 0)" stroke="rgb(60, 60, 60)" stroke-width="1px" opacity="0.25"></line><line x1="0" y1="73.99999976158144" x2="288.850998878479" y2="73.99999976158144" fill="rgb(0, 0, 0)" stroke="rgb(60, 60, 60)" stroke-width="1px" opacity="0.25"></line><line x1="0" y1="59.199999809265165" x2="288.850998878479" y2="59.199999809265165" fill="rgb(0, 0, 0)" stroke="rgb(60, 60, 60)" stroke-width="1px" opacity="0.25"></line><line x1="0" y1="44.399999856948874" x2="288.850998878479" y2="44.399999856948874" fill="rgb(0, 0, 0)" stroke="rgb(60, 60, 60)" stroke-width="1px" opacity="0.25"></line><line x1="0" y1="29.599999904632583" x2="288.850998878479" y2="29.599999904632583" fill="rgb(0, 0, 0)" stroke="rgb(60, 60, 60)" stroke-width="1px" opacity="0.25"></line><line x1="0" y1="14.799999952316291" x2="288.850998878479" y2="14.799999952316291" fill="rgb(0, 0, 0)" stroke="rgb(60, 60, 60)" stroke-width="1px" opacity="0.25"></line><line x1="0" y1="0" x2="288.850998878479" y2="0" fill="rgb(0, 0, 0)" stroke="rgb(60, 60, 60)" stroke-width="1px" opacity="0.25"></line></g></g></g><g><g><line x1="0" y1="266.3999991416931" x2="288.850998878479" y2="266.3999991416931" fill="rgb(0, 0, 0)" stroke="rgb(153, 153, 153)" stroke-width="1.5px"></line></g></g><g><g><line x1="24.07091657320658" y1="0" x2="24.07091657320658" y2="177.5999994277954" fill="rgb(0, 0, 0)" stroke="rgb(153, 153, 153)" stroke-width="1.5px"></line></g></g><g><g><g><g><g><path style="fill: none;" stroke="rgb(0, 119, 187)" stroke-width="2px" d="M24.07091657320658,-36.688488460590705L28.8850998878479,15.211332830657117L33.69928320248922,35.97036396502411L38.51346651713053,47.53574445035297L43.32764983177185,55.292929283396354L48.14183314641316,60.88268578827037L52.95601646105448,65.19836417065896L57.7701997756958,68.55446368489729L62.58438309033712,71.41981938362672L67.39856640497844,73.75362110669607L72.21274971961975,75.70328684325709L77.02693303426106,77.31784951201674L81.84111634890239,78.70062345083404L86.6552996635437,79.87285647655698L91.46948297818501,80.98670390876914L96.28366629282633,81.92382945065806L101.09784960746765,82.67105477832753L105.91203292210896,83.43767374014384L110.72621623675029,84.13441135681667L115.5403995513916,84.74399201251696L120.35458286603293,85.23986397660933L125.16876618067424,85.68081904175949L129.98294949531555,86.02392399232163L134.79713280995688,86.46492567722166L139.61131612459818,86.75853550767413L144.4254994392395,87.06574302091808L149.23968275388083,87.2686345654198L154.05386606852213,87.45082212816605L158.86804938316345,87.58602618448249L163.68223269780478,87.88650768743776L168.4964160124461,88.00724591144733L173.3105993270874,88.05288000974313L178.12478264172873,88.06814910572591L182.93896595637003,88.19409222686329L187.75314927101135,88.22702398360578L192.56733258565265,88.38013587857807L197.38151590029398,88.42921540047442L202.1956992149353,88.47085009750845L207.00988252957663,88.37004130980877L211.82406584421793,88.30646962007272L216.63824915885925,88.29336561001297L221.45243247350058,88.19429615222802L226.26661578814188,88.27009279837642L231.0807991027832,88.26594811559006L235.89498241742453,88.14923606454606L240.70916573206586,88.06455616473337L245.52334904670715,87.92401830944483L250.33753236134848,87.99156205117323L255.15171567598978,87.77369634304098L259.9658989906311,87.72325477529903" fill="none"></path></g><g><path style="fill: none;" stroke="rgb(255, 112, 67)" stroke-width="2px" d="M28.8850998878479,-9.497908121143533L33.69928320248922,26.52039421431662L38.51346651713053,44.85530148021315L43.32764983177185,57.06263472550788L48.14183314641316,65.77491196910181L52.95601646105448,73.3869377001776L57.7701997756958,79.04153472789329L62.58438309033712,84.47830108639916L67.39856640497844,88.72517957887986L72.21274971961975,92.71068680037682L77.02693303426106,96.12350943024599L81.84111634890239,99.37261489980685L86.6552996635437,102.50718946518491L91.46948297818501,105.04780370083111L96.28366629282633,107.39366869232191L101.09784960746765,109.76726366441319L105.91203292210896,111.8431328626839L110.72621623675029,113.93252797586227L115.5403995513916,116.16997798100788L120.35458286603293,117.8610405726133L125.16876618067424,119.55146818930169L129.98294949531555,120.73112189411974L134.79713280995688,122.63267293210858L139.61131612459818,124.14631774513272L144.4254994392395,125.43584201652617L149.23968275388083,126.44878546649204L154.05386606852213,128.1112252155159L158.86804938316345,129.44154476112965L163.68223269780478,130.67897099215554L168.4964160124461,131.5176085764321L173.3105993270874,132.75498465104425L178.12478264172873,133.57746708049075L182.93896595637003,134.90042823181216L187.75314927101135,136.42201023635246L192.56733258565265,136.70869565999914L197.38151590029398,137.70817082683007L202.1956992149353,138.681251424769L207.00988252957663,139.51023953495655L211.82406584421793,140.3427339171152L216.63824915885925,140.86801635681394L221.45243247350058,142.235326733938L226.26661578814188,142.7791192214297L231.0807991027832,143.47499740446602L235.89498241742453,144.47921747142863L240.70916573206586,145.14919999950976L245.52334904670715,146.0312765606968L250.33753236134848,146.80987433806345L255.15171567598978,147.10965295962114L259.9658989906311,147.48515542779626" fill="none"></path></g></g></g></g><g opacity="0.2"><g><g><g><path style="fill: none;" stroke="rgb(0, 119, 187)" stroke-width="2px" d="M24.07091657320658,-36.688488460590705L28.8850998878479,15.31513247323964L33.69928320248922,36.01196506341742L38.51346651713053,47.558921565368635L43.32764983177185,55.30847474398332L48.14183314641316,60.89388770511381L52.95601646105448,65.20701282473188L57.7701997756958,68.5611893352264L62.58438309033712,71.42556157941574L67.39856640497844,73.75829806405694L72.21274971961975,75.70719398902175L77.02693303426106,77.32108510854732L81.84111634890239,78.70339454089181L86.6552996635437,79.87520564093718L91.46948297818501,80.98893606795191L96.28366629282633,81.92570745775602L101.09784960746765,82.67255222387395L105.91203292210896,83.43921005068854L110.72621623675029,84.13580762458555L115.5403995513916,84.7452136170374L120.35458286603293,85.24085770800032L125.16876618067424,85.68170271924477L129.98294949531555,86.02461157739288L134.79713280995688,86.46580944813327L139.61131612459818,86.75912390412795L144.4254994392395,87.06635866723718L149.23968275388083,87.26904116170137L154.05386606852213,87.45118723350221L158.86804938316345,87.58629713449513L163.68223269780478,87.88710985477839L168.4964160124461,88.00748787181607L173.3105993270874,88.0529714608419L178.12478264172873,88.06817970511663L182.93896595637003,88.19434461788764L187.75314927101135,88.22708997911025L192.56733258565265,88.38044271604294L197.38151590029398,88.42931375622972L202.1956992149353,88.47093353377505L207.00988252957663,88.36983928819012L211.82406584421793,88.30634222189691L216.63824915885925,88.29333934947176L221.45243247350058,88.19409761624048L226.26661578814188,88.27024469546292L231.0807991027832,88.26593980961252L235.89498241742453,88.14900217266019L240.70916573206586,88.06438646553534L245.52334904670715,87.92373667045628L250.33753236134848,87.99169740937306L255.15171567598978,87.77325973841546L259.9658989906311,87.7231536899929" fill="none"></path></g><g><path style="fill: none;" stroke="rgb(255, 112, 67)" stroke-width="2px" d="M28.8850998878479,-9.203591889292458L33.69928320248922,26.59257489219689L38.51346651713053,44.89204478105326L43.32764983177185,57.087098319185436L48.14183314641316,65.79237144253585L52.95601646105448,73.40219226076091L57.7701997756958,79.05286658566428L62.58438309033712,84.48919640976288L67.39856640497844,88.7336903574219L72.21274971961975,92.71867378879666L77.02693303426106,96.13034875415354L81.84111634890239,99.37912613321276L86.6552996635437,102.51347117774077L91.46948297818501,105.05289511212499L96.28366629282633,107.39836982456939L101.09784960746765,109.77202036776407L105.91203292210896,111.84729292119745L110.72621623675029,113.93671514041775L115.5403995513916,116.17446184875365L120.35458286603293,117.86442947560249L125.16876618067424,119.55485581979606L129.98294949531555,120.73348592960033L134.79713280995688,122.63648365563161L139.61131612459818,124.14935110147145L144.4254994392395,125.4384262335029L149.23968275388083,126.45081541328554L154.05386606852213,128.11455675809913L158.86804938316345,129.44421073216293L163.68223269780478,130.68145080424176L168.4964160124461,131.51928921287353L173.3105993270874,132.7574643626166L178.12478264172873,133.5791153418724L182.93896595637003,134.90307945656429L187.75314927101135,136.4250594988866L192.56733258565265,136.7092701798862L197.38151590029398,137.71017378307621L202.1956992149353,138.68320148608748L207.00988252957663,139.51190083377458L211.82406584421793,140.34440224253035L216.63824915885925,140.8690690270338L221.45243247350058,142.23806683489417L226.26661578814188,142.7802089859337L231.0807991027832,143.476391949923L235.89498241742453,144.48122993649267L240.70916573206586,145.15054264986662L245.52334904670715,146.03304424919617L250.33753236134848,146.81143465425055L255.15171567598978,147.11025371838178L259.9658989906311,147.48590793775253" fill="none"></path></g></g></g></g></g></g><g transform="translate(41, 177)" clip-path="url(#clip_1)"><clipPath id="clip_1"><rect width="288" height="22"></rect></clipPath><g><g><line x1="0" y1="0" x2="0" y2="5" style="visibility: inherit;" fill="rgb(0, 0, 0)" stroke="rgb(204, 204, 204)" stroke-width="1px"></line><line x1="24.07091657320658" y1="0" x2="24.07091657320658" y2="5" style="visibility: inherit;" fill="rgb(0, 0, 0)" stroke="rgb(204, 204, 204)" stroke-width="1px"></line><line x1="48.14183314641316" y1="0" x2="48.14183314641316" y2="5" style="visibility: inherit;" fill="rgb(0, 0, 0)" stroke="rgb(204, 204, 204)" stroke-width="1px"></line><line x1="72.21274971961975" y1="0" x2="72.21274971961975" y2="5" style="visibility: inherit;" fill="rgb(0, 0, 0)" stroke="rgb(204, 204, 204)" stroke-width="1px"></line><line x1="96.28366629282633" y1="0" x2="96.28366629282633" y2="5" style="visibility: inherit;" fill="rgb(0, 0, 0)" stroke="rgb(204, 204, 204)" stroke-width="1px"></line><line x1="120.35458286603293" y1="0" x2="120.35458286603293" y2="5" style="visibility: inherit;" fill="rgb(0, 0, 0)" stroke="rgb(204, 204, 204)" stroke-width="1px"></line><line x1="144.4254994392395" y1="0" x2="144.4254994392395" y2="5" style="visibility: inherit;" fill="rgb(0, 0, 0)" stroke="rgb(204, 204, 204)" stroke-width="1px"></line><line x1="168.4964160124461" y1="0" x2="168.4964160124461" y2="5" style="visibility: inherit;" fill="rgb(0, 0, 0)" stroke="rgb(204, 204, 204)" stroke-width="1px"></line><line x1="192.56733258565265" y1="0" x2="192.56733258565265" y2="5" style="visibility: inherit;" fill="rgb(0, 0, 0)" stroke="rgb(204, 204, 204)" stroke-width="1px"></line><line x1="216.63824915885925" y1="0" x2="216.63824915885925" y2="5" style="visibility: inherit;" fill="rgb(0, 0, 0)" stroke="rgb(204, 204, 204)" stroke-width="1px"></line><line x1="240.70916573206586" y1="0" x2="240.70916573206586" y2="5" style="visibility: inherit;" fill="rgb(0, 0, 0)" stroke="rgb(204, 204, 204)" stroke-width="1px"></line><line x1="264.7800823052724" y1="0" x2="264.7800823052724" y2="5" style="visibility: inherit;" fill="rgb(0, 0, 0)" stroke="rgb(204, 204, 204)" stroke-width="1px"></line><line x1="288.850998878479" y1="0" x2="288.850998878479" y2="5" style="visibility: inherit;" fill="rgb(0, 0, 0)" stroke="rgb(204, 204, 204)" stroke-width="1px"></line></g><g transform="translate(0, 8)"><text style="text-anchor: middle; visibility: hidden; font-family: Roboto, sans-serif; font-size: 12px; font-weight: 200;" x="0" y="0" dx="0em" dy="0.95em" fill="rgb(50, 49, 63)" stroke="none" stroke-width="1px">-5</text><text style="text-anchor: middle; visibility: inherit; font-family: Roboto, sans-serif; font-size: 12px; font-weight: 200;" x="24.07091657320658" y="0" dx="0em" dy="0.95em" fill="rgb(50, 49, 63)" stroke="none" stroke-width="1px">0</text><text style="text-anchor: middle; visibility: inherit; font-family: Roboto, sans-serif; font-size: 12px; font-weight: 200;" x="48.14183314641316" y="0" dx="0em" dy="0.95em" fill="rgb(50, 49, 63)" stroke="none" stroke-width="1px">5</text><text style="text-anchor: middle; visibility: inherit; font-family: Roboto, sans-serif; font-size: 12px; font-weight: 200;" x="72.21274971961975" y="0" dx="0em" dy="0.95em" fill="rgb(50, 49, 63)" stroke="none" stroke-width="1px">10</text><text style="text-anchor: middle; visibility: inherit; font-family: Roboto, sans-serif; font-size: 12px; font-weight: 200;" x="96.28366629282633" y="0" dx="0em" dy="0.95em" fill="rgb(50, 49, 63)" stroke="none" stroke-width="1px">15</text><text style="text-anchor: middle; visibility: inherit; font-family: Roboto, sans-serif; font-size: 12px; font-weight: 200;" x="120.35458286603293" y="0" dx="0em" dy="0.95em" fill="rgb(50, 49, 63)" stroke="none" stroke-width="1px">20</text><text style="text-anchor: middle; visibility: inherit; font-family: Roboto, sans-serif; font-size: 12px; font-weight: 200;" x="144.4254994392395" y="0" dx="0em" dy="0.95em" fill="rgb(50, 49, 63)" stroke="none" stroke-width="1px">25</text><text style="text-anchor: middle; visibility: inherit; font-family: Roboto, sans-serif; font-size: 12px; font-weight: 200;" x="168.4964160124461" y="0" dx="0em" dy="0.95em" fill="rgb(50, 49, 63)" stroke="none" stroke-width="1px">30</text><text style="text-anchor: middle; visibility: inherit; font-family: Roboto, sans-serif; font-size: 12px; font-weight: 200;" x="192.56733258565265" y="0" dx="0em" dy="0.95em" fill="rgb(50, 49, 63)" stroke="none" stroke-width="1px">35</text><text style="text-anchor: middle; visibility: inherit; font-family: Roboto, sans-serif; font-size: 12px; font-weight: 200;" x="216.63824915885925" y="0" dx="0em" dy="0.95em" fill="rgb(50, 49, 63)" stroke="none" stroke-width="1px">40</text><text style="text-anchor: middle; visibility: inherit; font-family: Roboto, sans-serif; font-size: 12px; font-weight: 200;" x="240.70916573206586" y="0" dx="0em" dy="0.95em" fill="rgb(50, 49, 63)" stroke="none" stroke-width="1px">45</text><text style="text-anchor: middle; visibility: inherit; font-family: Roboto, sans-serif; font-size: 12px; font-weight: 200;" x="264.7800823052724" y="0" dx="0em" dy="0.95em" fill="rgb(50, 49, 63)" stroke="none" stroke-width="1px">50</text><text style="text-anchor: middle; visibility: hidden; font-family: Roboto, sans-serif; font-size: 12px; font-weight: 200;" x="288.850998878479" y="0" dx="0em" dy="0.95em" fill="rgb(50, 49, 63)" stroke="none" stroke-width="1px">55</text></g><line x1="0" y1="0" x2="288.850998878479" y2="0" fill="rgb(0, 0, 0)" stroke="rgb(204, 204, 204)" stroke-width="1px"></line></g></g></g></g></svg>