<svg viewBox="0 0 330 200" xmlns="http://www.w3.org/2000/svg"><g><g><g><g><g><line x1="51.53200149536133" y1="177.5999994277954" x2="46.53200149536133" y2="177.5999994277954" style="visibility: inherit;" fill="rgb(0, 0, 0)" stroke="rgb(204, 204, 204)" stroke-width="1px"></line><line x1="51.53200149536133" y1="155.39999949932096" x2="46.53200149536133" y2="155.39999949932096" style="visibility: inherit;" fill="rgb(0, 0, 0)" stroke="rgb(204, 204, 204)" stroke-width="1px"></line><line x1="51.53200149536133" y1="133.19999957084656" x2="46.53200149536133" y2="133.19999957084656" style="visibility: inherit;" fill="rgb(0, 0, 0)" stroke="rgb(204, 204, 204)" stroke-width="1px"></line><line x1="51.53200149536133" y1="110.99999964237213" x2="46.53200149536133" y2="110.99999964237213" style="visibility: inherit;" fill="rgb(0, 0, 0)" stroke="rgb(204, 204, 204)" stroke-width="1px"></line><line x1="51.53200149536133" y1="88.79999971389772" x2="46.53200149536133" y2="88.79999971389772" style="visibility: inherit;" fill="rgb(0, 0, 0)" stroke="rgb(204, 204, 204)" stroke-width="1px"></line><line x1="51.53200149536133" y1="66.59999978542328" x2="46.53200149536133" y2="66.59999978542328" style="visibility: inherit;" fill="rgb(0, 0, 0)" stroke="rgb(204, 204, 204)" stroke-width="1px"></line><line x1="51.53200149536133" y1="44.39999985694883" x2="46.53200149536133" y2="44.39999985694883" style="visibility: inherit;" fill="rgb(0, 0, 0)" stroke="rgb(204, 204, 204)" stroke-width="1px"></line><line x1="51.53200149536133" y1="22.199999928474448" x2="46.53200149536133" y2="22.199999928474448" style="visibility: inherit;" fill="rgb(0, 0, 0)" stroke="rgb(204, 204, 204)" stroke-width="1px"></line><line x1="51.53200149536133" y1="0" x2="46.53200149536133" y2="0" style="visibility: inherit;" fill="rgb(0, 0, 0)" stroke="rgb(204, 204, 204)" stroke-width="1px"></line></g><g transform="translate(41.53200149536133, 0)"><text style="text-anchor: end; visibility: hidden; font-family: Roboto, sans-serif; font-size: 12px; font-weight: 200;" x="0" y="177.5999994277954" dx="0em" dy="0.3em" fill="rgb(50, 49, 63)" stroke="none" stroke-width="1px">0.5</text><text style="text-anchor: end; visibility: inherit; font-family: Roboto, sans-serif; font-size: 12px; font-weight: 200;" x="0" y="155.39999949932096" dx="0em" dy="0.3em" fill="rgb(50, 49, 63)" stroke="none" stroke-width="1px">0.55</text><text style="text-anchor: end; visibility: hidden; font-family: Roboto, sans-serif; font-size: 12px; font-weight: 200;" x="0" y="133.19999957084656" dx="0em" dy="0.3em" fill="rgb(50, 49, 63)" stroke="none" stroke-width="1px">0.6</text><text style="text-anchor: end; visibility: inherit; font-family: Roboto, sans-serif; font-size: 12px; font-weight: 200;" x="0" y="110.99999964237213" dx="0em" dy="0.3em" fill="rgb(50, 49, 63)" stroke="none" stroke-width="1px">0.65</text><text style="text-anchor: end; visibility: hidden; font-family: Roboto, sans-serif; font-size: 12px; font-weight: 200;" x="0" y="88.79999971389772" dx="0em" dy="0.3em" fill="rgb(50, 49, 63)" stroke="none" stroke-width="1px">0.7</text><text style="text-anchor: end; visibility: inherit; font-family: Roboto, sans-serif; font-size: 12px; font-weight: 200;" x="0" y="66.59999978542328" dx="0em" dy="0.3em" fill="rgb(50, 49, 63)" stroke="none" stroke-width="1px">0.75</text><text style="text-anchor: end; visibility: hidden; font-family: Roboto, sans-serif; font-size: 12px; font-weight: 200;" x="0" y="44.39999985694883" dx="0em" dy="0.3em" fill="rgb(50, 49, 63)" stroke="none" stroke-width="1px">0.8</text><text style="text-anchor: end; visibility: inherit; font-family: Roboto, sans-serif; font-size: 12px; font-weight: 200;" x="0" y="22.199999928474448" dx="0em" dy="0.3em" fill="rgb(50, 49, 63)" stroke="none" stroke-width="1px">0.85</text><text style="text-anchor: end; visibility: hidden; font-family: Roboto, sans-serif; font-size: 12px; font-weight: 200;" x="0" y="0" dx="0em" dy="0.3em" fill="rgb(50, 49, 63)" stroke="none" stroke-width="1px">0.9</text></g><line x1="51.53200149536133" y1="0" x2="51.53200149536133" y2="177.5999994277954" fill="rgb(0, 0, 0)" stroke="rgb(204, 204, 204)" stroke-width="1px"></line></g></g><g transform="translate(51, 0)" clip-path="url(#clip_0)"><clipPath id="clip_0"><rect width="278" height="177"></rect></clipPath><g><g><g><line x1="0" y1="0" x2="0" y2="177.5999994277954" fill="rgb(0, 0, 0)" stroke="rgb(60, 60, 60)" stroke-width="1px" opacity="0.25"></line><line x1="23.205666542053223" y1="0" x2="23.205666542053223" y2="177.5999994277954" fill="rgb(0, 0, 0)" stroke="rgb(60, 60, 60)" stroke-width="1px" opacity="0.25"></line><line x1="46.411333084106445" y1="0" x2="46.411333084106445" y2="177.5999994277954" fill="rgb(0, 0, 0)" stroke="rgb(60, 60, 60)" stroke-width="1px" opacity="0.25"></line><line x1="69.61699962615967" y1="0" x2="69.61699962615967" y2="177.5999994277954" fill="rgb(0, 0, 0)" stroke="rgb(60, 60, 60)" stroke-width="1px" opacity="0.25"></line><line x1="92.82266616821289" y1="0" x2="92.82266616821289" y2="177.5999994277954" fill="rgb(0, 0, 0)" stroke="rgb(60, 60, 60)" stroke-width="1px" opacity="0.25"></line><line x1="116.02833271026611" y1="0" x2="116.02833271026611" y2="177.5999994277954" fill="rgb(0, 0, 0)" stroke="rgb(60, 60, 60)" stroke-width="1px" opacity="0.25"></line><line x1="139.23399925231934" y1="0" x2="139.23399925231934" y2="177.5999994277954" fill="rgb(0, 0, 0)" stroke="rgb(60, 60, 60)" stroke-width="1px" opacity="0.25"></line><line x1="162.43966579437256" y1="0" x2="162.43966579437256" y2="177.5999994277954" fill="rgb(0, 0, 0)" stroke="rgb(60, 60, 60)" stroke-width="1px" opacity="0.25"></line><line x1="185.64533233642578" y1="0" x2="185.64533233642578" y2="177.5999994277954" fill="rgb(0, 0, 0)" stroke="rgb(60, 60, 60)" stroke-width="1px" opacity="0.25"></line><line x1="208.850998878479" y1="0" x2="208.850998878479" y2="177.5999994277954" fill="rgb(0, 0, 0)" stroke="rgb(60, 60, 60)" stroke-width="1px" opacity="0.25"></line><line x1="232.05666542053223" y1="0" x2="232.05666542053223" y2="177.5999994277954" fill="rgb(0, 0, 0)" stroke="rgb(60, 60, 60)" stroke-width="1px" opacity="0.25"></line><line x1="255.26233196258545" y1="0" x2="255.26233196258545" y2="177.5999994277954" fill="rgb(0, 0, 0)" stroke="rgb(60, 60, 60)" stroke-width="1px" opacity="0.25"></line><line x1="278.4679985046387" y1="0" x2="278.4679985046387" y2="177.5999994277954" fill="rgb(0, 0, 0)" stroke="rgb(60, 60, 60)" stroke-width="1px" opacity="0.25"></line></g><g><line x1="0" y1="177.5999994277954" x2="278.4679985046387" y2="177.5999994277954" fill="rgb(0, 0, 0)" stroke="rgb(60, 60, 60)" stroke-width="1px" opacity="0.25"></line><line x1="0" y1="155.39999949932096" x2="278.4679985046387" y2="155.39999949932096" fill="rgb(0, 0, 0)" stroke="rgb(60, 60, 60)" stroke-width="1px" opacity="0.25"></line><line x1="0" y1="133.19999957084656" x2="278.4679985046387" y2="133.19999957084656" fill="rgb(0, 0, 0)" stroke="rgb(60, 60, 60)" stroke-width="1px" opacity="0.25"></line><line x1="0" y1="110.99999964237213" x2="278.4679985046387" y2="110.99999964237213" fill="rgb(0, 0, 0)" stroke="rgb(60, 60, 60)" stroke-width="1px" opacity="0.25"></line><line x1="0" y1="88.79999971389772" x2="278.4679985046387" y2="88.79999971389772" fill="rgb(0, 0, 0)" stroke="rgb(60, 60, 60)" stroke-width="1px" opacity="0.25"></line><line x1="0" y1="66.59999978542328" x2="278.4679985046387" y2="66.59999978542328" fill="rgb(0, 0, 0)" stroke="rgb(60, 60, 60)" stroke-width="1px" opacity="0.25"></line><line x1="0" y1="44.39999985694883" x2="278.4679985046387" y2="44.39999985694883" fill="rgb(0, 0, 0)" stroke="rgb(60, 60, 60)" stroke-width="1px" opacity="0.25"></line><line x1="0" y1="22.199999928474448" x2="278.4679985046387" y2="22.199999928474448" fill="rgb(0, 0, 0)" stroke="rgb(60, 60, 60)" stroke-width="1px" opacity="0.25"></line><line x1="0" y1="0" x2="278.4679985046387" y2="0" fill="rgb(0, 0, 0)" stroke="rgb(60, 60, 60)" stroke-width="1px" opacity="0.25"></line></g></g></g><g><g><line x1="0" y1="399.5999987125397" x2="278.4679985046387" y2="399.5999987125397" fill="rgb(0, 0, 0)" stroke="rgb(153, 153, 153)" stroke-width="1.5px"></line></g></g><g><g><line x1="23.205666542053223" y1="0" x2="23.205666542053223" y2="177.5999994277954" fill="rgb(0, 0, 0)" stroke="rgb(153, 153, 153)" stroke-width="1.5px"></line></g></g><g><g><g><g><g><path style="fill: none;" stroke="rgb(0, 119, 187)" stroke-width="2px" d="M23.205666542053223,144.36444579342105L27.846799850463867,138.88622272566775L32.48793315887451,141.20056640908342L37.129066467285156,142.0940595817113L41.7701997756958,142.40165602580387L46.411333084106445,137.08454860389378L51.05246639251708,143.89573370348526L55.693599700927734,139.79437721035166L60.33473300933838,139.03270352391712L64.97586631774902,141.49350154111997L69.61699962615967,139.0180422118611L74.25813293457031,140.6732355353857L78.89926624298096,139.99945032790077L83.5403995513916,140.5560508967862L88.18153285980225,141.01012813912814L92.82266616821289,139.56000793315266L97.46379947662354,139.7357848910519L102.10493278503417,141.37631690252047L106.74606609344484,141.05408561083405L111.38719940185547,138.76903808706825L116.02833271026611,139.91156184895115L120.66946601867676,141.14197408978367L125.3105993270874,139.1791843221665L129.95173263549805,136.60117520190195L134.5928659439087,137.7583602758409L139.23399925231934,136.55724419465824L143.87513256073,138.2710298374826L148.51626586914062,140.40957009853682L153.15739917755127,140.79042017398518L157.7985324859619,140.2045234454499L162.43966579437256,140.27775061234348L167.0807991027832,141.273793575977L171.72193241119385,138.21243751818284L176.3630657196045,139.5307117735028L181.00419902801514,139.48678076625907L185.64533233642578,138.69581092017467L190.28646564483643,138.09525287958334L194.92759895324707,139.07663453116083L199.56873226165771,136.85020579115698L204.20986557006833,136.7037249929076L208.850998878479,139.42818844695933L213.49213218688968,139.31100380835983L218.1332654953003,138.34425700437617L222.77439880371094,138.3149608447263L227.41553211212158,139.0180422118611L232.05666542053223,136.4986518753585L236.69779872894287,140.5560508967862L241.33893203735352,137.6411756372414L245.98006534576416,138.85692656601788L250.6211986541748,141.77180182556268" fill="none"></path></g><g><path style="fill: none;" stroke="rgb(255, 112, 67)" stroke-width="2px" d="M23.205666542053223,169.18956687775957L27.846799850463867,129.51801482433237L32.48793315887451,117.13791294504529L37.129066467285156,109.19230220900258L41.7701997756958,103.26291298974877L46.411333084106445,98.41388251068179L51.05246639251708,95.30473163416343L55.693599700927734,92.18301013810245L60.33473300933838,88.84144835458753L64.97586631774902,86.12172203926872L69.61699962615967,85.85165220256866L74.25813293457031,82.93092829687876L78.89926624298096,81.49883038965808L83.5403995513916,79.86573489206631L88.18153285980225,79.36325414836969L92.82266616821289,76.2792180464744L97.46379947662354,76.85079750096219L102.10493278503417,74.62098130979737L106.74606609344484,75.07950458178809L111.38719940185547,72.661287884257L116.02833271026611,72.23417792889177L120.66946601867676,71.7944973539839L125.3105993270874,71.1349764916221L129.95173263549805,70.54455434005146L134.5928659439087,68.96171485616802L139.23399925231934,68.4215222538435L143.87513256073,69.13129912991363L148.51626586914062,66.9391683329145L153.15739917755127,67.23440587316202L157.7985324859619,66.16659128805563L162.43966579437256,67.03340828279093L167.0807991027832,65.21815789191092L171.72193241119385,64.5083810158408L176.3630657196045,64.28854072838686L181.00419902801514,64.40789545288635L185.64533233642578,63.704390654356445L190.28646564483643,63.0700110310799L194.92759895324707,63.804902681773086L199.56873226165771,61.7949532425244L204.20986557006833,62.178079261721535L208.850998878479,61.44948615303076L213.49213218688968,61.537427560904774L218.1332654953003,60.87790669854297L222.77439880371094,59.58397974844243L227.41553211212158,59.82266273297921L232.05666542053223,60.13044442830716L236.69779872894287,59.671921156316444L241.33893203735352,59.244811200951204L245.98006534576416,60.41938342655226L250.6211986541748,58.63554635229772" fill="none"></path></g><g><path style="fill: none;" stroke="rgb(51, 187, 238)" stroke-width="2px" d="M23.205666542053223,123.00815409129325L27.846799850463867,113.25279757250709L32.48793315887451,109.41513298068455L37.129066467285156,107.08615444967504L41.7701997756958,105.84108089678648L46.411333084106445,106.23659228429088L51.05246639251708,105.72392272264918L55.693599700927734,105.95826553538598L60.33473300933838,105.82644604919264L64.97586631774902,106.11940764569138L69.61699962615967,106.39770793013409L74.25813293457031,107.21797393586837L78.89926624298096,107.32049726241183L83.5403995513916,107.89175914335328L88.18153285980225,107.86246298370341L92.82266616821289,108.3312015381014L97.46379947662354,109.25399087037914L102.10493278503417,108.46302102429473L106.74606609344484,109.53229115482185L111.38719940185547,109.37117550897864L116.02833271026611,110.16214535506305L120.66946601867676,110.67481491670475L125.3105993270874,110.2646951460687L129.95173263549805,110.87988803425387L134.5928659439087,110.48440311121166L139.23399925231934,111.50974223449506L143.87513256073,111.67085788033827L148.51626586914062,111.99311563648689L153.15739917755127,112.97449728806438L157.7985324859619,113.04775091942017L162.43966579437256,112.21282360162985L167.0807991027832,113.1795704056135L171.72193241119385,113.07704707907004L176.3630657196045,113.66294380760533L181.00419902801514,113.89731308480432L185.64533233642578,113.38464352316262L190.28646564483643,113.86801692515445L194.92759895324707,114.19024821684087L199.56873226165771,114.58575960434527L204.20986557006833,115.15699502082452L208.850998878479,114.89335604843785L213.49213218688968,115.15699502082452L218.1332654953003,115.55250640832892L222.77439880371094,115.65502973487239L227.41553211212158,115.3474332907798L232.05666542053223,116.56318421955629L236.69779872894287,115.84544154036547L241.33893203735352,115.977287491021L245.98006534576416,115.88939901207138L250.6211986541748,116.4459995809568" fill="none"></path></g><g><path style="fill: none;" stroke="rgb(204, 51, 17)" stroke-width="2px" d="M23.205666542053223,156.66502196381214L27.846799850463867,109.25510237779133L32.48793315887451,94.65778139134426L37.129066467285156,85.41824370520101L41.7701997756958,77.5982333067358L46.411333084106445,72.0017670218952L51.05246639251708,67.35373413319931L55.693599700927734,63.59763301386178L60.33473300933838,60.14928712539L64.97586631774902,57.906926779144754L69.61699962615967,55.903249417436285L74.25813293457031,53.44732086127732L78.89926624298096,52.191105769804665L83.5403995513916,49.804275924436865L88.18153285980225,47.81944125981124L92.82266616821289,46.84586662458128L97.46379947662354,46.192644304221886L102.10493278503417,44.62862105295909L106.74606609344484,43.18397899065798L111.38719940185547,42.08477755338831L116.02833271026611,41.582296809691684L120.66946601867676,40.363740647922526L125.3105993270874,39.22058173894695L129.95173263549805,38.68041560108463L134.5928659439087,38.02716681626305L139.23399925231934,37.059890723035494L143.87513256073,36.72696778862229L148.51626586914062,35.45191000006679L153.15739917755127,34.20823906367457L157.7985324859619,34.11402557826034L162.43966579437256,34.264767154923106L167.0807991027832,33.36658977248672L171.72193241119385,33.228392350904386L176.3630657196045,32.568871488542584L181.00419902801514,32.74475430429061L185.64533233642578,32.524914016836675L190.28646564483643,31.90935062618078L194.92759895324707,31.28751515798467L199.56873226165771,31.130501503781687L204.20986557006833,30.207182882260042L208.850998878479,30.288825748131643L213.49213218688968,30.40188193062872L218.1332654953003,29.742361068266916L222.77439880371094,28.9132559321595L227.41553211212158,29.72351837118407L232.05666542053223,28.36681771675697L236.69779872894287,28.417047266003095L241.33893203735352,28.9132559321595L245.98006534576416,28.216049675632007L250.6211986541748,28.027622704803548" fill="none"></path></g><g><path style="fill: none;" stroke="rgb(0, 153, 136)" stroke-width="2px" d="M23.205666542053223,176.23776770076955L27.846799850463867,151.32208522679971L32.48793315887451,139.98478901584474L37.129066467285156,133.3494073386147L41.7701997756958,128.79397360313914L46.411333084106445,124.75123589376747L51.05246639251708,121.79240316251676L55.693599700927734,118.74568195231643L60.33473300933838,116.70966501780566L64.97586631774902,115.02517553463119L69.61699962615967,113.20886656526338L74.25813293457031,111.78804251893777L78.89926624298096,110.4990379588055L83.5403995513916,109.82525275132059L88.18153285980225,108.82920978768706L92.82266616821289,107.92105530300316L97.46379947662354,107.40838574136146L102.10493278503417,106.77853154112026L106.74606609344484,106.30981945118447L111.38719940185547,105.70926141059314L116.02833271026611,105.03547620310823L120.66946601867676,104.63999128006603L125.3105993270874,104.09802555877445L129.95173263549805,103.67324447608237L134.5928659439087,103.65858316402634L139.23399925231934,103.26309824098414L143.87513256073,103.07268643549105L148.51626586914062,102.47212839489973L153.15739917755127,102.26705527735061L157.7985324859619,102.36960506835626L162.43966579437256,101.97412014531406L167.0807991027832,101.8715703543084L171.72193241119385,101.57863522227186L176.3630657196045,101.50538159091607L181.00419902801514,101.44678927161632L185.64533233642578,100.94878102203066L190.28646564483643,101.13919282752374L194.92759895324707,100.64118457793808L199.56873226165771,100.4507463079828L204.20986557006833,100.11385370424034L208.850998878479,100.18708087113393L213.49213218688968,100.0552613849406L218.1332654953003,100.20174218318996L222.77439880371094,99.76229978844185L227.41553211212158,99.79159594809173L232.05666542053223,99.90878058669122L236.69779872894287,99.77696110049789L241.33893203735352,99.45470334434927L245.98006534576416,99.90878058669122L250.6211986541748,99.73300362879198" fill="none"></path></g><g><path style="fill: none;" stroke="rgb(238, 51, 119)" stroke-width="2px" d="M23.205666542053223,243.58319463928586L27.846799850463867,163.96368245703567L32.48793315887451,144.52360306906183L37.129066467285156,133.17990245825567L41.7701997756958,126.23298113206599L46.411333084106445,119.91416735161263L51.05246639251708,115.23472114629126L55.693599700927734,110.34803173752078L60.33473300933838,106.49141859076661L64.97586631774902,103.74655103636255L69.61699962615967,101.06451011520943L74.25813293457031,97.75436164831999L78.89926624298096,95.63762810411444L83.5403995513916,93.44552377157751L88.18153285980225,91.9568977731083L92.82266616821289,89.52611045603459L97.46379947662354,88.84144835458753L102.10493278503417,86.05264979293975L106.74606609344484,84.40698367580535L111.38719940185547,83.32662493561853L116.02833271026611,81.88198287331741L120.66946601867676,81.24757678557867L125.3105993270874,79.6961506183207L129.95173263549805,78.32685287988878L134.5928659439087,77.00153907762495L139.23399925231934,76.00284966777193L143.87513256073,74.54561052146599L148.51626586914062,73.95518836989535L153.15739917755127,72.6549893422546L157.7985324859619,71.04076300620787L162.43966579437256,71.04703508374809L167.0807991027832,70.12371646222644L171.72193241119385,68.96798693370823L176.3630657196045,68.47177826755183L181.00419902801514,67.44794761861354L185.64533233642578,66.88264024166597L190.28646564483643,66.53719961663452L194.92759895324707,65.72691071314776L199.56873226165771,65.64526784727616L204.20986557006833,64.74079192283736L208.850998878479,62.48586095704948L213.49213218688968,63.41547812057354L218.1332654953003,62.95065630658041L222.77439880371094,62.17180718418132L227.41553211212158,60.90929355070625L232.05666542053223,60.293756624512554L236.69779872894287,59.52745165719389L241.33893203735352,58.67950382400363L245.98006534576416,58.77998938695808L250.6211986541748,58.03255358118446" fill="none"></path></g></g></g></g></g></g><g transform="translate(51, 177)" clip-path="url(#clip_1)"><clipPath id="clip_1"><rect width="278" height="22"></rect></clipPath><g><g><line x1="0" y1="0" x2="0" y2="5" style="visibility: inherit;" fill="rgb(0, 0, 0)" stroke="rgb(204, 204, 204)" stroke-width="1px"></line><line x1="23.205666542053223" y1="0" x2="23.205666542053223" y2="5" style="visibility: inherit;" fill="rgb(0, 0, 0)" stroke="rgb(204, 204, 204)" stroke-width="1px"></line><line x1="46.411333084106445" y1="0" x2="46.411333084106445" y2="5" style="visibility: inherit;" fill="rgb(0, 0, 0)" stroke="rgb(204, 204, 204)" stroke-width="1px"></line><line x1="69.61699962615967" y1="0" x2="69.61699962615967" y2="5" style="visibility: inherit;" fill="rgb(0, 0, 0)" stroke="rgb(204, 204, 204)" stroke-width="1px"></line><line x1="92.82266616821289" y1="0" x2="92.82266616821289" y2="5" style="visibility: inherit;" fill="rgb(0, 0, 0)" stroke="rgb(204, 204, 204)" stroke-width="1px"></line><line x1="116.02833271026611" y1="0" x2="116.02833271026611" y2="5" style="visibility: inherit;" fill="rgb(0, 0, 0)" stroke="rgb(204, 204, 204)" stroke-width="1px"></line><line x1="139.23399925231934" y1="0" x2="139.23399925231934" y2="5" style="visibility: inherit;" fill="rgb(0, 0, 0)" stroke="rgb(204, 204, 204)" stroke-width="1px"></line><line x1="162.43966579437256" y1="0" x2="162.43966579437256" y2="5" style="visibility: inherit;" fill="rgb(0, 0, 0)" stroke="rgb(204, 204, 204)" stroke-width="1px"></line><line x1="185.64533233642578" y1="0" x2="185.64533233642578" y2="5" style="visibility: inherit;" fill="rgb(0, 0, 0)" stroke="rgb(204, 204, 204)" stroke-width="1px"></line><line x1="208.850998878479" y1="0" x2="208.850998878479" y2="5" style="visibility: inherit;" fill="rgb(0, 0, 0)" stroke="rgb(204, 204, 204)" stroke-width="1px"></line><line x1="232.05666542053223" y1="0" x2="232.05666542053223" y2="5" style="visibility: inherit;" fill="rgb(0, 0, 0)" stroke="rgb(204, 204, 204)" stroke-width="1px"></line><line x1="255.26233196258545" y1="0" x2="255.26233196258545" y2="5" style="visibility: inherit;" fill="rgb(0, 0, 0)" stroke="rgb(204, 204, 204)" stroke-width="1px"></line><line x1="278.4679985046387" y1="0" x2="278.4679985046387" y2="5" style="visibility: inherit;" fill="rgb(0, 0, 0)" stroke="rgb(204, 204, 204)" stroke-width="1px"></line></g><g transform="translate(0, 8)"><text style="text-anchor: middle; visibility: hidden; font-family: Roboto, sans-serif; font-size: 12px; font-weight: 200;" x="0" y="0" dx="0em" dy="0.95em" fill="rgb(50, 49, 63)" stroke="none" stroke-width="1px">-5</text><text style="text-anchor: middle; visibility: inherit; font-family: Roboto, sans-serif; font-size: 12px; font-weight: 200;" x="23.205666542053223" y="0" dx="0em" dy="0.95em" fill="rgb(50, 49, 63)" stroke="none" stroke-width="1px">0</text><text style="text-anchor: middle; visibility: inherit; font-family: Roboto, sans-serif; font-size: 12px; font-weight: 200;" x="46.411333084106445" y="0" dx="0em" dy="0.95em" fill="rgb(50, 49, 63)" stroke="none" stroke-width="1px">5</text><text style="text-anchor: middle; visibility: inherit; font-family: Roboto, sans-serif; font-size: 12px; font-weight: 200;" x="69.61699962615967" y="0" dx="0em" dy="0.95em" fill="rgb(50, 49, 63)" stroke="none" stroke-width="1px">10</text><text style="text-anchor: middle; visibility: inherit; font-family: Roboto, sans-serif; font-size: 12px; font-weight: 200;" x="92.82266616821289" y="0" dx="0em" dy="0.95em" fill="rgb(50, 49, 63)" stroke="none" stroke-width="1px">15</text><text style="text-anchor: middle; visibility: inherit; font-family: Roboto, sans-serif; font-size: 12px; font-weight: 200;" x="116.02833271026611" y="0" dx="0em" dy="0.95em" fill="rgb(50, 49, 63)" stroke="none" stroke-width="1px">20</text><text style="text-anchor: middle; visibility: inherit; font-family: Roboto, sans-serif; font-size: 12px; font-weight: 200;" x="139.23399925231934" y="0" dx="0em" dy="0.95em" fill="rgb(50, 49, 63)" stroke="none" stroke-width="1px">25</text><text style="text-anchor: middle; visibility: inherit; font-family: Roboto, sans-serif; font-size: 12px; font-weight: 200;" x="162.43966579437256" y="0" dx="0em" dy="0.95em" fill="rgb(50, 49, 63)" stroke="none" stroke-width="1px">30</text><text style="text-anchor: middle; visibility: inherit; font-family: Roboto, sans-serif; font-size: 12px; font-weight: 200;" x="185.64533233642578" y="0" dx="0em" dy="0.95em" fill="rgb(50, 49, 63)" stroke="none" stroke-width="1px">35</text><text style="text-anchor: middle; visibility: inherit; font-family: Roboto, sans-serif; font-size: 12px; font-weight: 200;" x="208.850998878479" y="0" dx="0em" dy="0.95em" fill="rgb(50, 49, 63)" stroke="none" stroke-width="1px">40</text><text style="text-anchor: middle; visibility: inherit; font-family: Roboto, sans-serif; font-size: 12px; font-weight: 200;" x="232.05666542053223" y="0" dx="0em" dy="0.95em" fill="rgb(50, 49, 63)" stroke="none" stroke-width="1px">45</text><text style="text-anchor: middle; visibility: inherit; font-family: Roboto, sans-serif; font-size: 12px; font-weight: 200;" x="255.26233196258545" y="0" dx="0em" dy="0.95em" fill="rgb(50, 49, 63)" stroke="none" stroke-width="1px">50</text><text style="text-anchor: middle; visibility: hidden; font-family: Roboto, sans-serif; font-size: 12px; font-weight: 200;" x="278.4679985046387" y="0" dx="0em" dy="0.95em" fill="rgb(50, 49, 63)" stroke="none" stroke-width="1px">55</text></g><line x1="0" y1="0" x2="278.4679985046387" y2="0" fill="rgb(0, 0, 0)" stroke="rgb(204, 204, 204)" stroke-width="1px"></line></g></g></g></g></svg>