<svg viewBox="0 0 330 200" xmlns="http://www.w3.org/2000/svg"><g><g><g><g><g><line x1="51.53200149536133" y1="164.914285182953" x2="46.53200149536133" y2="164.914285182953" style="visibility: inherit;" fill="rgb(0, 0, 0)" stroke="rgb(204, 204, 204)" stroke-width="1px"></line><line x1="51.53200149536133" y1="152.22857093811044" x2="46.53200149536133" y2="152.22857093811044" style="visibility: inherit;" fill="rgb(0, 0, 0)" stroke="rgb(204, 204, 204)" stroke-width="1px"></line><line x1="51.53200149536133" y1="139.5428566932679" x2="46.53200149536133" y2="139.5428566932679" style="visibility: inherit;" fill="rgb(0, 0, 0)" stroke="rgb(204, 204, 204)" stroke-width="1px"></line><line x1="51.53200149536133" y1="126.85714244842535" x2="46.53200149536133" y2="126.85714244842535" style="visibility: inherit;" fill="rgb(0, 0, 0)" stroke="rgb(204, 204, 204)" stroke-width="1px"></line><line x1="51.53200149536133" y1="114.17142820358279" x2="46.53200149536133" y2="114.17142820358279" style="visibility: inherit;" fill="rgb(0, 0, 0)" stroke="rgb(204, 204, 204)" stroke-width="1px"></line><line x1="51.53200149536133" y1="101.48571395874026" x2="46.53200149536133" y2="101.48571395874026" style="visibility: inherit;" fill="rgb(0, 0, 0)" stroke="rgb(204, 204, 204)" stroke-width="1px"></line><line x1="51.53200149536133" y1="88.7999997138977" x2="46.53200149536133" y2="88.7999997138977" style="visibility: inherit;" fill="rgb(0, 0, 0)" stroke="rgb(204, 204, 204)" stroke-width="1px"></line><line x1="51.53200149536133" y1="76.11428546905516" x2="46.53200149536133" y2="76.11428546905516" style="visibility: inherit;" fill="rgb(0, 0, 0)" stroke="rgb(204, 204, 204)" stroke-width="1px"></line><line x1="51.53200149536133" y1="63.4285712242126" x2="46.53200149536133" y2="63.4285712242126" style="visibility: inherit;" fill="rgb(0, 0, 0)" stroke="rgb(204, 204, 204)" stroke-width="1px"></line><line x1="51.53200149536133" y1="50.74285697937005" x2="46.53200149536133" y2="50.74285697937005" style="visibility: inherit;" fill="rgb(0, 0, 0)" stroke="rgb(204, 204, 204)" stroke-width="1px"></line><line x1="51.53200149536133" y1="38.05714273452751" x2="46.53200149536133" y2="38.05714273452751" style="visibility: inherit;" fill="rgb(0, 0, 0)" stroke="rgb(204, 204, 204)" stroke-width="1px"></line><line x1="51.53200149536133" y1="25.37142848968495" x2="46.53200149536133" y2="25.37142848968495" style="visibility: inherit;" fill="rgb(0, 0, 0)" stroke="rgb(204, 204, 204)" stroke-width="1px"></line><line x1="51.53200149536133" y1="12.685714244842544" x2="46.53200149536133" y2="12.685714244842544" style="visibility: inherit;" fill="rgb(0, 0, 0)" stroke="rgb(204, 204, 204)" stroke-width="1px"></line><line x1="51.53200149536133" y1="0" x2="46.53200149536133" y2="0" style="visibility: inherit;" fill="rgb(0, 0, 0)" stroke="rgb(204, 204, 204)" stroke-width="1px"></line></g><g transform="translate(41.53200149536133, 0)"><text style="text-anchor: end; visibility: inherit; font-family: Roboto, sans-serif; font-size: 12px; font-weight: 200;" x="0" y="164.914285182953" dx="0em" dy="0.3em" fill="rgb(50, 49, 63)" stroke="none" stroke-width="1px">0.57</text><text style="text-anchor: end; visibility: hidden; font-family: Roboto, sans-serif; font-size: 12px; font-weight: 200;" x="0" y="152.22857093811044" dx="0em" dy="0.3em" fill="rgb(50, 49, 63)" stroke="none" stroke-width="1px">0.58</text><text style="text-anchor: end; visibility: hidden; font-family: Roboto, sans-serif; font-size: 12px; font-weight: 200;" x="0" y="139.5428566932679" dx="0em" dy="0.3em" fill="rgb(50, 49, 63)" stroke="none" stroke-width="1px">0.59</text><text style="text-anchor: end; visibility: inherit; font-family: Roboto, sans-serif; font-size: 12px; font-weight: 200;" x="0" y="126.85714244842535" dx="0em" dy="0.3em" fill="rgb(50, 49, 63)" stroke="none" stroke-width="1px">0.6</text><text style="text-anchor: end; visibility: hidden; font-family: Roboto, sans-serif; font-size: 12px; font-weight: 200;" x="0" y="114.17142820358279" dx="0em" dy="0.3em" fill="rgb(50, 49, 63)" stroke="none" stroke-width="1px">0.61</text><text style="text-anchor: end; visibility: hidden; font-family: Roboto, sans-serif; font-size: 12px; font-weight: 200;" x="0" y="101.48571395874026" dx="0em" dy="0.3em" fill="rgb(50, 49, 63)" stroke="none" stroke-width="1px">0.62</text><text style="text-anchor: end; visibility: inherit; font-family: Roboto, sans-serif; font-size: 12px; font-weight: 200;" x="0" y="88.7999997138977" dx="0em" dy="0.3em" fill="rgb(50, 49, 63)" stroke="none" stroke-width="1px">0.63</text><text style="text-anchor: end; visibility: hidden; font-family: Roboto, sans-serif; font-size: 12px; font-weight: 200;" x="0" y="76.11428546905516" dx="0em" dy="0.3em" fill="rgb(50, 49, 63)" stroke="none" stroke-width="1px">0.64</text><text style="text-anchor: end; visibility: hidden; font-family: Roboto, sans-serif; font-size: 12px; font-weight: 200;" x="0" y="63.4285712242126" dx="0em" dy="0.3em" fill="rgb(50, 49, 63)" stroke="none" stroke-width="1px">0.65</text><text style="text-anchor: end; visibility: inherit; font-family: Roboto, sans-serif; font-size: 12px; font-weight: 200;" x="0" y="50.74285697937005" dx="0em" dy="0.3em" fill="rgb(50, 49, 63)" stroke="none" stroke-width="1px">0.66</text><text style="text-anchor: end; visibility: hidden; font-family: Roboto, sans-serif; font-size: 12px; font-weight: 200;" x="0" y="38.05714273452751" dx="0em" dy="0.3em" fill="rgb(50, 49, 63)" stroke="none" stroke-width="1px">0.67</text><text style="text-anchor: end; visibility: hidden; font-family: Roboto, sans-serif; font-size: 12px; font-weight: 200;" x="0" y="25.37142848968495" dx="0em" dy="0.3em" fill="rgb(50, 49, 63)" stroke="none" stroke-width="1px">0.68</text><text style="text-anchor: end; visibility: inherit; font-family: Roboto, sans-serif; font-size: 12px; font-weight: 200;" x="0" y="12.685714244842544" dx="0em" dy="0.3em" fill="rgb(50, 49, 63)" stroke="none" stroke-width="1px">0.69</text><text style="text-anchor: end; visibility: hidden; font-family: Roboto, sans-serif; font-size: 12px; font-weight: 200;" x="0" y="0" dx="0em" dy="0.3em" fill="rgb(50, 49, 63)" stroke="none" stroke-width="1px">0.7</text></g><line x1="51.53200149536133" y1="0" x2="51.53200149536133" y2="177.5999994277954" fill="rgb(0, 0, 0)" stroke="rgb(204, 204, 204)" stroke-width="1px"></line></g></g><g transform="translate(51, 0)" clip-path="url(#clip_0)"><clipPath id="clip_0"><rect width="278" height="177"></rect></clipPath><g><g><g><line x1="0" y1="0" x2="0" y2="177.5999994277954" fill="rgb(0, 0, 0)" stroke="rgb(60, 60, 60)" stroke-width="1px" opacity="0.25"></line><line x1="23.205666542053223" y1="0" x2="23.205666542053223" y2="177.5999994277954" fill="rgb(0, 0, 0)" stroke="rgb(60, 60, 60)" stroke-width="1px" opacity="0.25"></line><line x1="46.411333084106445" y1="0" x2="46.411333084106445" y2="177.5999994277954" fill="rgb(0, 0, 0)" stroke="rgb(60, 60, 60)" stroke-width="1px" opacity="0.25"></line><line x1="69.61699962615967" y1="0" x2="69.61699962615967" y2="177.5999994277954" fill="rgb(0, 0, 0)" stroke="rgb(60, 60, 60)" stroke-width="1px" opacity="0.25"></line><line x1="92.82266616821289" y1="0" x2="92.82266616821289" y2="177.5999994277954" fill="rgb(0, 0, 0)" stroke="rgb(60, 60, 60)" stroke-width="1px" opacity="0.25"></line><line x1="116.02833271026611" y1="0" x2="116.02833271026611" y2="177.5999994277954" fill="rgb(0, 0, 0)" stroke="rgb(60, 60, 60)" stroke-width="1px" opacity="0.25"></line><line x1="139.23399925231934" y1="0" x2="139.23399925231934" y2="177.5999994277954" fill="rgb(0, 0, 0)" stroke="rgb(60, 60, 60)" stroke-width="1px" opacity="0.25"></line><line x1="162.43966579437256" y1="0" x2="162.43966579437256" y2="177.5999994277954" fill="rgb(0, 0, 0)" stroke="rgb(60, 60, 60)" stroke-width="1px" opacity="0.25"></line><line x1="185.64533233642578" y1="0" x2="185.64533233642578" y2="177.5999994277954" fill="rgb(0, 0, 0)" stroke="rgb(60, 60, 60)" stroke-width="1px" opacity="0.25"></line><line x1="208.850998878479" y1="0" x2="208.850998878479" y2="177.5999994277954" fill="rgb(0, 0, 0)" stroke="rgb(60, 60, 60)" stroke-width="1px" opacity="0.25"></line><line x1="232.05666542053223" y1="0" x2="232.05666542053223" y2="177.5999994277954" fill="rgb(0, 0, 0)" stroke="rgb(60, 60, 60)" stroke-width="1px" opacity="0.25"></line><line x1="255.26233196258545" y1="0" x2="255.26233196258545" y2="177.5999994277954" fill="rgb(0, 0, 0)" stroke="rgb(60, 60, 60)" stroke-width="1px" opacity="0.25"></line><line x1="278.4679985046387" y1="0" x2="278.4679985046387" y2="177.5999994277954" fill="rgb(0, 0, 0)" stroke="rgb(60, 60, 60)" stroke-width="1px" opacity="0.25"></line></g><g><line x1="0" y1="164.914285182953" x2="278.4679985046387" y2="164.914285182953" fill="rgb(0, 0, 0)" stroke="rgb(60, 60, 60)" stroke-width="1px" opacity="0.25"></line><line x1="0" y1="152.22857093811044" x2="278.4679985046387" y2="152.22857093811044" fill="rgb(0, 0, 0)" stroke="rgb(60, 60, 60)" stroke-width="1px" opacity="0.25"></line><line x1="0" y1="139.5428566932679" x2="278.4679985046387" y2="139.5428566932679" fill="rgb(0, 0, 0)" stroke="rgb(60, 60, 60)" stroke-width="1px" opacity="0.25"></line><line x1="0" y1="126.85714244842535" x2="278.4679985046387" y2="126.85714244842535" fill="rgb(0, 0, 0)" stroke="rgb(60, 60, 60)" stroke-width="1px" opacity="0.25"></line><line x1="0" y1="114.17142820358279" x2="278.4679985046387" y2="114.17142820358279" fill="rgb(0, 0, 0)" stroke="rgb(60, 60, 60)" stroke-width="1px" opacity="0.25"></line><line x1="0" y1="101.48571395874026" x2="278.4679985046387" y2="101.48571395874026" fill="rgb(0, 0, 0)" stroke="rgb(60, 60, 60)" stroke-width="1px" opacity="0.25"></line><line x1="0" y1="88.7999997138977" x2="278.4679985046387" y2="88.7999997138977" fill="rgb(0, 0, 0)" stroke="rgb(60, 60, 60)" stroke-width="1px" opacity="0.25"></line><line x1="0" y1="76.11428546905516" x2="278.4679985046387" y2="76.11428546905516" fill="rgb(0, 0, 0)" stroke="rgb(60, 60, 60)" stroke-width="1px" opacity="0.25"></line><line x1="0" y1="63.4285712242126" x2="278.4679985046387" y2="63.4285712242126" fill="rgb(0, 0, 0)" stroke="rgb(60, 60, 60)" stroke-width="1px" opacity="0.25"></line><line x1="0" y1="50.74285697937005" x2="278.4679985046387" y2="50.74285697937005" fill="rgb(0, 0, 0)" stroke="rgb(60, 60, 60)" stroke-width="1px" opacity="0.25"></line><line x1="0" y1="38.05714273452751" x2="278.4679985046387" y2="38.05714273452751" fill="rgb(0, 0, 0)" stroke="rgb(60, 60, 60)" stroke-width="1px" opacity="0.25"></line><line x1="0" y1="25.37142848968495" x2="278.4679985046387" y2="25.37142848968495" fill="rgb(0, 0, 0)" stroke="rgb(60, 60, 60)" stroke-width="1px" opacity="0.25"></line><line x1="0" y1="12.685714244842544" x2="278.4679985046387" y2="12.685714244842544" fill="rgb(0, 0, 0)" stroke="rgb(60, 60, 60)" stroke-width="1px" opacity="0.25"></line><line x1="0" y1="0" x2="278.4679985046387" y2="0" fill="rgb(0, 0, 0)" stroke="rgb(60, 60, 60)" stroke-width="1px" opacity="0.25"></line></g></g></g><g><g><line x1="0" y1="887.9999971389777" x2="278.4679985046387" y2="887.9999971389777" fill="rgb(0, 0, 0)" stroke="rgb(153, 153, 153)" stroke-width="1.5px"></line></g></g><g><g><line x1="23.205666542053223" y1="0" x2="23.205666542053223" y2="177.5999994277954" fill="rgb(0, 0, 0)" stroke="rgb(153, 153, 153)" stroke-width="1.5px"></line></g></g><g><g><g><g><g><path style="fill: none;" stroke="rgb(51, 187, 238)" stroke-width="2px" d="M27.846799850463867,198.55538930953352L32.48793315887451,167.00014755394426L37.129066467285156,147.7070253245393L41.7701997756958,135.02638923192822L46.411333084106445,124.6055913725235L51.05246639251708,116.57030013537681L55.693599700927734,109.62315197093973L60.33473300933838,102.71781765677078L64.97586631774902,98.11421103882539L69.61699962615967,93.5943833469145L74.25813293457031,90.2045125779813L78.89926624298096,86.22871861605063L83.5403995513916,81.2066710444276L88.18153285980225,81.58329814783711L92.82266616821289,79.11416382504284L97.46379947662354,77.39828370906764L102.10493278503417,75.1801837133803L106.74606609344484,72.83656655413948L111.38719940185547,71.74842348142988L116.02833271026611,69.15369638233301L120.66946601867676,67.98192560908716L125.3105993270874,66.89378253637756L129.95173263549805,65.59641898682911L134.5928659439087,65.17790242040233L139.23399925231934,63.67131839401509L143.87513256073,63.46202230442713L148.51626586914062,63.62942893099783L153.15739917755127,62.08095544159334L157.7985324859619,62.4994720080201L162.43966579437256,60.74177804177678L167.0807991027832,60.532481952188824L171.72193241119385,59.2351184026404L176.3630657196045,59.02589792580158L181.00419902801514,58.48186419582133L185.64533233642578,57.05890786997029L190.28646564483643,57.686720525985024L194.92759895324707,55.6778410071365L199.56873226165771,56.47306028972194L204.20986557006833,55.301213903726975L208.850998878479,55.384917217012315L213.49213218688968,55.09199342688815L218.1332654953003,55.21751059044161L222.77439880371094,55.259324440709726L227.41553211212158,55.34302775399509L232.05666542053223,54.92458680031745L236.69779872894287,53.79462987733971L241.33893203735352,53.25052053461034L245.98006534576416,53.66903710103712L250.6211986541748,54.71529071072949" fill="none"></path></g><g><path style="fill: none;" stroke="rgb(255, 112, 67)" stroke-width="2px" d="M27.846799850463867,182.4011035219548L32.48793315887451,152.1850391661821L37.129066467285156,131.3016295971045L41.7701997756958,119.58354380090046L46.411333084106445,107.73986522839382L51.05246639251708,100.7508276009395L55.693599700927734,94.43141647976803L60.33473300933838,89.49307222143034L64.97586631774902,85.60098157278503L69.61699962615967,80.24412074802058L74.25813293457031,76.97976714264087L78.89926624298096,73.46430359740508L83.5403995513916,71.24620360171775L88.18153285980225,67.94003614606993L92.82266616821289,65.84752892668517L97.46379947662354,62.039141591325226L102.10493278503417,60.992887981632855L106.74606609344484,59.779227745369774L111.38719940185547,57.89594100282385L116.02833271026611,57.01709401970218L120.66946601867676,55.21751059044161L125.3105993270874,53.878257577875935L129.95173263549805,52.413563014505925L134.5928659439087,51.534640418635135L139.23399925231934,50.36286964538929L143.87513256073,49.065506095840846L148.51626586914062,48.3540657392899L153.15739917755127,48.814396155984795L157.7985324859619,46.97299887645612L162.43966579437256,47.307736516848394L167.0807991027832,46.93110941343886L171.72193241119385,45.466339237319715L176.3630657196045,43.95975521093247L181.00419902801514,44.42008562762734L185.64533233642578,43.75045912134451L190.28646564483643,42.66239166138402L194.92759895324707,44.21086515078852L199.56873226165771,43.29012870464962L204.20986557006833,43.122722078078915L208.850998878479,42.955315451508206L213.49213218688968,41.82535852853047L218.1332654953003,43.0809082278108L222.77439880371094,42.20198563194L227.41553211212158,42.7879088249375L232.05666542053223,42.36939225851072L236.69779872894287,42.704205511652134L241.33893203735352,41.69984136497701L245.98006534576416,41.95087569208395L250.6211986541748,41.82535852853047" fill="none"></path></g><g><path style="fill: none;" stroke="rgb(0, 119, 187)" stroke-width="2px" d="M27.846799850463867,188.00907428657533L32.48793315887451,157.54189999094655L37.129066467285156,139.79732686369522L41.7701997756958,125.6937344452331L46.411333084106445,116.82141007523288L51.05246639251708,106.86101824527216L55.693599700927734,102.25741162732676L60.33473300933838,95.97988996917255L64.97586631774902,90.53932583112271L69.61699962615967,87.86089541874048L74.25813293457031,82.50403459397603L78.89926624298096,79.23968098859632L83.5403995513916,75.68240359309242L88.18153285980225,75.13836986311219L92.82266616821289,73.38060028411974L97.46379947662354,69.40480632218906L102.10493278503417,67.89822229580182L106.74606609344484,65.80571507641706L111.38719940185547,62.91798857444687L116.02833271026611,62.95987803746412L120.66946601867676,60.616185265474186L125.3105993270874,58.439974732804075L129.95173263549805,58.64927082239203L134.5928659439087,58.06334762939455L139.23399925231934,57.226314496540994L143.87513256073,56.38935697643658L148.51626586914062,55.6778410071365L153.15739917755127,54.92458680031745L157.7985324859619,53.9619608911613L162.43966579437256,53.627223250769006L167.0807991027832,52.413563014505925L171.72193241119385,52.79019011791545L176.3630657196045,50.53027627195999L181.00419902801514,50.53027627195999L185.64533233642578,50.32098018237204L190.28646564483643,50.865089525101425L194.92759895324707,49.73513260212369L199.56873226165771,50.32098018237204L204.20986557006833,49.86064976567717L208.850998878479,49.27472657267968L213.49213218688968,49.48402266226762L218.1332654953003,49.86064976567717L222.77439880371094,48.521396753111475L227.41553211212158,49.48402266226762L232.05666542053223,48.31217627627265L236.69779872894287,49.56772597555298L241.33893203735352,47.433329293151004L245.98006534576416,50.11175970553322L250.6211986541748,48.01925248614849" fill="none"></path></g><g><path style="fill: none;" stroke="rgb(204, 51, 17)" stroke-width="2px" d="M23.205666542053223,224.0004404207901L27.846799850463867,159.6344072103313L32.48793315887451,132.93380639979435L37.129066467285156,115.64956368923791L41.7701997756958,103.5129613266071L46.411333084106445,92.58994358749021L51.05246639251708,84.42913518679006L55.693599700927734,79.95112134514729L60.33473300933838,73.46430359740508L64.97586631774902,69.94884005216932L69.61699962615967,64.42464821358328L74.25813293457031,61.49510786134498L78.89926624298096,59.10960123908693L83.5403995513916,56.72409461682888L88.18153285980225,54.96640065058556L92.82266616821289,53.83644372760782L97.46379947662354,51.953156985061895L102.10493278503417,49.94435307896251L106.74606609344484,48.521396753111475L111.38719940185547,47.433329293151004L116.02833271026611,45.96855911703185L120.66946601867676,46.76370278686816L125.3105993270874,44.16897568777129L129.95173263549805,43.62494195779104L134.5928659439087,42.11828231865465L139.23399925231934,40.737215455820866L143.87513256073,40.653512142535504L148.51626586914062,39.48174136928967L153.15739917755127,38.812114863006826L157.7985324859619,38.05878504343863L162.43966579437256,38.72841154972148L167.0807991027832,38.14248835672397L171.72193241119385,36.510387166783254L176.3630657196045,36.510387166783254L181.00419902801514,36.17557391364184L185.64533233642578,35.71516788419781L190.28646564483643,35.42224409407365L194.92759895324707,35.505947407358995L199.56873226165771,34.543397110951986L204.20986557006833,34.96191367737876L208.850998878479,35.338540780788286L213.49213218688968,36.17557391364184L218.1332654953003,34.8782103640934L222.77439880371094,34.33410102136403L227.41553211212158,35.42224409407365L232.05666542053223,35.505947407358995L236.69779872894287,34.66891427450546L241.33893203735352,34.71080373752269L245.98006534576416,33.62266066481308L250.6211986541748,34.16669439479332" fill="none"></path></g></g></g></g></g></g><g transform="translate(51, 177)" clip-path="url(#clip_1)"><clipPath id="clip_1"><rect width="278" height="22"></rect></clipPath><g><g><line x1="0" y1="0" x2="0" y2="5" style="visibility: inherit;" fill="rgb(0, 0, 0)" stroke="rgb(204, 204, 204)" stroke-width="1px"></line><line x1="23.205666542053223" y1="0" x2="23.205666542053223" y2="5" style="visibility: inherit;" fill="rgb(0, 0, 0)" stroke="rgb(204, 204, 204)" stroke-width="1px"></line><line x1="46.411333084106445" y1="0" x2="46.411333084106445" y2="5" style="visibility: inherit;" fill="rgb(0, 0, 0)" stroke="rgb(204, 204, 204)" stroke-width="1px"></line><line x1="69.61699962615967" y1="0" x2="69.61699962615967" y2="5" style="visibility: inherit;" fill="rgb(0, 0, 0)" stroke="rgb(204, 204, 204)" stroke-width="1px"></line><line x1="92.82266616821289" y1="0" x2="92.82266616821289" y2="5" style="visibility: inherit;" fill="rgb(0, 0, 0)" stroke="rgb(204, 204, 204)" stroke-width="1px"></line><line x1="116.02833271026611" y1="0" x2="116.02833271026611" y2="5" style="visibility: inherit;" fill="rgb(0, 0, 0)" stroke="rgb(204, 204, 204)" stroke-width="1px"></line><line x1="139.23399925231934" y1="0" x2="139.23399925231934" y2="5" style="visibility: inherit;" fill="rgb(0, 0, 0)" stroke="rgb(204, 204, 204)" stroke-width="1px"></line><line x1="162.43966579437256" y1="0" x2="162.43966579437256" y2="5" style="visibility: inherit;" fill="rgb(0, 0, 0)" stroke="rgb(204, 204, 204)" stroke-width="1px"></line><line x1="185.64533233642578" y1="0" x2="185.64533233642578" y2="5" style="visibility: inherit;" fill="rgb(0, 0, 0)" stroke="rgb(204, 204, 204)" stroke-width="1px"></line><line x1="208.850998878479" y1="0" x2="208.850998878479" y2="5" style="visibility: inherit;" fill="rgb(0, 0, 0)" stroke="rgb(204, 204, 204)" stroke-width="1px"></line><line x1="232.05666542053223" y1="0" x2="232.05666542053223" y2="5" style="visibility: inherit;" fill="rgb(0, 0, 0)" stroke="rgb(204, 204, 204)" stroke-width="1px"></line><line x1="255.26233196258545" y1="0" x2="255.26233196258545" y2="5" style="visibility: inherit;" fill="rgb(0, 0, 0)" stroke="rgb(204, 204, 204)" stroke-width="1px"></line><line x1="278.4679985046387" y1="0" x2="278.4679985046387" y2="5" style="visibility: inherit;" fill="rgb(0, 0, 0)" stroke="rgb(204, 204, 204)" stroke-width="1px"></line></g><g transform="translate(0, 8)"><text style="text-anchor: middle; visibility: hidden; font-family: Roboto, sans-serif; font-size: 12px; font-weight: 200;" x="0" y="0" dx="0em" dy="0.95em" fill="rgb(50, 49, 63)" stroke="none" stroke-width="1px">-5</text><text style="text-anchor: middle; visibility: inherit; font-family: Roboto, sans-serif; font-size: 12px; font-weight: 200;" x="23.205666542053223" y="0" dx="0em" dy="0.95em" fill="rgb(50, 49, 63)" stroke="none" stroke-width="1px">0</text><text style="text-anchor: middle; visibility: inherit; font-family: Roboto, sans-serif; font-size: 12px; font-weight: 200;" x="46.411333084106445" y="0" dx="0em" dy="0.95em" fill="rgb(50, 49, 63)" stroke="none" stroke-width="1px">5</text><text style="text-anchor: middle; visibility: inherit; font-family: Roboto, sans-serif; font-size: 12px; font-weight: 200;" x="69.61699962615967" y="0" dx="0em" dy="0.95em" fill="rgb(50, 49, 63)" stroke="none" stroke-width="1px">10</text><text style="text-anchor: middle; visibility: inherit; font-family: Roboto, sans-serif; font-size: 12px; font-weight: 200;" x="92.82266616821289" y="0" dx="0em" dy="0.95em" fill="rgb(50, 49, 63)" stroke="none" stroke-width="1px">15</text><text style="text-anchor: middle; visibility: inherit; font-family: Roboto, sans-serif; font-size: 12px; font-weight: 200;" x="116.02833271026611" y="0" dx="0em" dy="0.95em" fill="rgb(50, 49, 63)" stroke="none" stroke-width="1px">20</text><text style="text-anchor: middle; visibility: inherit; font-family: Roboto, sans-serif; font-size: 12px; font-weight: 200;" x="139.23399925231934" y="0" dx="0em" dy="0.95em" fill="rgb(50, 49, 63)" stroke="none" stroke-width="1px">25</text><text style="text-anchor: middle; visibility: inherit; font-family: Roboto, sans-serif; font-size: 12px; font-weight: 200;" x="162.43966579437256" y="0" dx="0em" dy="0.95em" fill="rgb(50, 49, 63)" stroke="none" stroke-width="1px">30</text><text style="text-anchor: middle; visibility: inherit; font-family: Roboto, sans-serif; font-size: 12px; font-weight: 200;" x="185.64533233642578" y="0" dx="0em" dy="0.95em" fill="rgb(50, 49, 63)" stroke="none" stroke-width="1px">35</text><text style="text-anchor: middle; visibility: inherit; font-family: Roboto, sans-serif; font-size: 12px; font-weight: 200;" x="208.850998878479" y="0" dx="0em" dy="0.95em" fill="rgb(50, 49, 63)" stroke="none" stroke-width="1px">40</text><text style="text-anchor: middle; visibility: inherit; font-family: Roboto, sans-serif; font-size: 12px; font-weight: 200;" x="232.05666542053223" y="0" dx="0em" dy="0.95em" fill="rgb(50, 49, 63)" stroke="none" stroke-width="1px">45</text><text style="text-anchor: middle; visibility: inherit; font-family: Roboto, sans-serif; font-size: 12px; font-weight: 200;" x="255.26233196258545" y="0" dx="0em" dy="0.95em" fill="rgb(50, 49, 63)" stroke="none" stroke-width="1px">50</text><text style="text-anchor: middle; visibility: hidden; font-family: Roboto, sans-serif; font-size: 12px; font-weight: 200;" x="278.4679985046387" y="0" dx="0em" dy="0.95em" fill="rgb(50, 49, 63)" stroke="none" stroke-width="1px">55</text></g><line x1="0" y1="0" x2="278.4679985046387" y2="0" fill="rgb(0, 0, 0)" stroke="rgb(204, 204, 204)" stroke-width="1px"></line></g></g></g></g></svg>