<svg viewBox="0 0 330 200" xmlns="http://www.w3.org/2000/svg"><g><g><g><g><g><line x1="30.766000747680664" y1="177.5999994277954" x2="25.766000747680664" y2="177.5999994277954" style="visibility: inherit;" fill="rgb(0, 0, 0)" stroke="rgb(204, 204, 204)" stroke-width="1px"></line><line x1="30.766000747680664" y1="155.39999949932098" x2="25.766000747680664" y2="155.39999949932098" style="visibility: inherit;" fill="rgb(0, 0, 0)" stroke="rgb(204, 204, 204)" stroke-width="1px"></line><line x1="30.766000747680664" y1="133.19999957084656" x2="25.766000747680664" y2="133.19999957084656" style="visibility: inherit;" fill="rgb(0, 0, 0)" stroke="rgb(204, 204, 204)" stroke-width="1px"></line><line x1="30.766000747680664" y1="110.99999964237213" x2="25.766000747680664" y2="110.99999964237213" style="visibility: inherit;" fill="rgb(0, 0, 0)" stroke="rgb(204, 204, 204)" stroke-width="1px"></line><line x1="30.766000747680664" y1="88.7999997138977" x2="25.766000747680664" y2="88.7999997138977" style="visibility: inherit;" fill="rgb(0, 0, 0)" stroke="rgb(204, 204, 204)" stroke-width="1px"></line><line x1="30.766000747680664" y1="66.59999978542328" x2="25.766000747680664" y2="66.59999978542328" style="visibility: inherit;" fill="rgb(0, 0, 0)" stroke="rgb(204, 204, 204)" stroke-width="1px"></line><line x1="30.766000747680664" y1="44.39999985694885" x2="25.766000747680664" y2="44.39999985694885" style="visibility: inherit;" fill="rgb(0, 0, 0)" stroke="rgb(204, 204, 204)" stroke-width="1px"></line><line x1="30.766000747680664" y1="22.199999928474426" x2="25.766000747680664" y2="22.199999928474426" style="visibility: inherit;" fill="rgb(0, 0, 0)" stroke="rgb(204, 204, 204)" stroke-width="1px"></line><line x1="30.766000747680664" y1="0" x2="25.766000747680664" y2="0" style="visibility: inherit;" fill="rgb(0, 0, 0)" stroke="rgb(204, 204, 204)" stroke-width="1px"></line></g><g transform="translate(20.766000747680664, 0)"><text style="text-anchor: end; visibility: hidden; font-family: Roboto, sans-serif; font-size: 12px; font-weight: 200;" x="0" y="177.5999994277954" dx="0em" dy="0.3em" fill="rgb(50, 49, 63)" stroke="none" stroke-width="1px">-1</text><text style="text-anchor: end; visibility: inherit; font-family: Roboto, sans-serif; font-size: 12px; font-weight: 200;" x="0" y="155.39999949932098" dx="0em" dy="0.3em" fill="rgb(50, 49, 63)" stroke="none" stroke-width="1px">0</text><text style="text-anchor: end; visibility: hidden; font-family: Roboto, sans-serif; font-size: 12px; font-weight: 200;" x="0" y="133.19999957084656" dx="0em" dy="0.3em" fill="rgb(50, 49, 63)" stroke="none" stroke-width="1px">1</text><text style="text-anchor: end; visibility: inherit; font-family: Roboto, sans-serif; font-size: 12px; font-weight: 200;" x="0" y="110.99999964237213" dx="0em" dy="0.3em" fill="rgb(50, 49, 63)" stroke="none" stroke-width="1px">2</text><text style="text-anchor: end; visibility: hidden; font-family: Roboto, sans-serif; font-size: 12px; font-weight: 200;" x="0" y="88.7999997138977" dx="0em" dy="0.3em" fill="rgb(50, 49, 63)" stroke="none" stroke-width="1px">3</text><text style="text-anchor: end; visibility: inherit; font-family: Roboto, sans-serif; font-size: 12px; font-weight: 200;" x="0" y="66.59999978542328" dx="0em" dy="0.3em" fill="rgb(50, 49, 63)" stroke="none" stroke-width="1px">4</text><text style="text-anchor: end; visibility: hidden; font-family: Roboto, sans-serif; font-size: 12px; font-weight: 200;" x="0" y="44.39999985694885" dx="0em" dy="0.3em" fill="rgb(50, 49, 63)" stroke="none" stroke-width="1px">5</text><text style="text-anchor: end; visibility: inherit; font-family: Roboto, sans-serif; font-size: 12px; font-weight: 200;" x="0" y="22.199999928474426" dx="0em" dy="0.3em" fill="rgb(50, 49, 63)" stroke="none" stroke-width="1px">6</text><text style="text-anchor: end; visibility: hidden; font-family: Roboto, sans-serif; font-size: 12px; font-weight: 200;" x="0" y="0" dx="0em" dy="0.3em" fill="rgb(50, 49, 63)" stroke="none" stroke-width="1px">7</text></g><line x1="30.766000747680664" y1="0" x2="30.766000747680664" y2="177.5999994277954" fill="rgb(0, 0, 0)" stroke="rgb(204, 204, 204)" stroke-width="1px"></line></g></g><g transform="translate(30, 0)" clip-path="url(#clip_0)"><clipPath id="clip_0"><rect width="299" height="177"></rect></clipPath><g><g><g><line x1="0" y1="0" x2="0" y2="177.5999994277954" fill="rgb(0, 0, 0)" stroke="rgb(60, 60, 60)" stroke-width="1px" opacity="0.25"></line><line x1="24.936166604359943" y1="0" x2="24.936166604359943" y2="177.5999994277954" fill="rgb(0, 0, 0)" stroke="rgb(60, 60, 60)" stroke-width="1px" opacity="0.25"></line><line x1="49.87233320871989" y1="0" x2="49.87233320871989" y2="177.5999994277954" fill="rgb(0, 0, 0)" stroke="rgb(60, 60, 60)" stroke-width="1px" opacity="0.25"></line><line x1="74.80849981307983" y1="0" x2="74.80849981307983" y2="177.5999994277954" fill="rgb(0, 0, 0)" stroke="rgb(60, 60, 60)" stroke-width="1px" opacity="0.25"></line><line x1="99.74466641743977" y1="0" x2="99.74466641743977" y2="177.5999994277954" fill="rgb(0, 0, 0)" stroke="rgb(60, 60, 60)" stroke-width="1px" opacity="0.25"></line><line x1="124.68083302179973" y1="0" x2="124.68083302179973" y2="177.5999994277954" fill="rgb(0, 0, 0)" stroke="rgb(60, 60, 60)" stroke-width="1px" opacity="0.25"></line><line x1="149.61699962615967" y1="0" x2="149.61699962615967" y2="177.5999994277954" fill="rgb(0, 0, 0)" stroke="rgb(60, 60, 60)" stroke-width="1px" opacity="0.25"></line><line x1="174.55316623051962" y1="0" x2="174.55316623051962" y2="177.5999994277954" fill="rgb(0, 0, 0)" stroke="rgb(60, 60, 60)" stroke-width="1px" opacity="0.25"></line><line x1="199.48933283487955" y1="0" x2="199.48933283487955" y2="177.5999994277954" fill="rgb(0, 0, 0)" stroke="rgb(60, 60, 60)" stroke-width="1px" opacity="0.25"></line><line x1="224.4254994392395" y1="0" x2="224.4254994392395" y2="177.5999994277954" fill="rgb(0, 0, 0)" stroke="rgb(60, 60, 60)" stroke-width="1px" opacity="0.25"></line><line x1="249.36166604359946" y1="0" x2="249.36166604359946" y2="177.5999994277954" fill="rgb(0, 0, 0)" stroke="rgb(60, 60, 60)" stroke-width="1px" opacity="0.25"></line><line x1="274.29783264795935" y1="0" x2="274.29783264795935" y2="177.5999994277954" fill="rgb(0, 0, 0)" stroke="rgb(60, 60, 60)" stroke-width="1px" opacity="0.25"></line><line x1="299.23399925231934" y1="0" x2="299.23399925231934" y2="177.5999994277954" fill="rgb(0, 0, 0)" stroke="rgb(60, 60, 60)" stroke-width="1px" opacity="0.25"></line></g><g><line x1="0" y1="177.5999994277954" x2="299.23399925231934" y2="177.5999994277954" fill="rgb(0, 0, 0)" stroke="rgb(60, 60, 60)" stroke-width="1px" opacity="0.25"></line><line x1="0" y1="155.39999949932098" x2="299.23399925231934" y2="155.39999949932098" fill="rgb(0, 0, 0)" stroke="rgb(60, 60, 60)" stroke-width="1px" opacity="0.25"></line><line x1="0" y1="133.19999957084656" x2="299.23399925231934" y2="133.19999957084656" fill="rgb(0, 0, 0)" stroke="rgb(60, 60, 60)" stroke-width="1px" opacity="0.25"></line><line x1="0" y1="110.99999964237213" x2="299.23399925231934" y2="110.99999964237213" fill="rgb(0, 0, 0)" stroke="rgb(60, 60, 60)" stroke-width="1px" opacity="0.25"></line><line x1="0" y1="88.7999997138977" x2="299.23399925231934" y2="88.7999997138977" fill="rgb(0, 0, 0)" stroke="rgb(60, 60, 60)" stroke-width="1px" opacity="0.25"></line><line x1="0" y1="66.59999978542328" x2="299.23399925231934" y2="66.59999978542328" fill="rgb(0, 0, 0)" stroke="rgb(60, 60, 60)" stroke-width="1px" opacity="0.25"></line><line x1="0" y1="44.39999985694885" x2="299.23399925231934" y2="44.39999985694885" fill="rgb(0, 0, 0)" stroke="rgb(60, 60, 60)" stroke-width="1px" opacity="0.25"></line><line x1="0" y1="22.199999928474426" x2="299.23399925231934" y2="22.199999928474426" fill="rgb(0, 0, 0)" stroke="rgb(60, 60, 60)" stroke-width="1px" opacity="0.25"></line><line x1="0" y1="0" x2="299.23399925231934" y2="0" fill="rgb(0, 0, 0)" stroke="rgb(60, 60, 60)" stroke-width="1px" opacity="0.25"></line></g></g></g><g><g><line x1="0" y1="155.39999949932098" x2="299.23399925231934" y2="155.39999949932098" fill="rgb(0, 0, 0)" stroke="rgb(153, 153, 153)" stroke-width="1.5px"></line></g></g><g><g><line x1="24.936166604359943" y1="0" x2="24.936166604359943" y2="177.5999994277954" fill="rgb(0, 0, 0)" stroke="rgb(153, 153, 153)" stroke-width="1.5px"></line></g></g><g><g><g><g><g><path style="fill: none;" stroke="rgb(0, 119, 187)" stroke-width="2px" d="M24.936166604359943,104.78503241157199L29.923399925231934,100.89483586229235L34.91063324610392,94.53704522191819L39.897866566975914,89.8751978839565L44.8850998878479,86.71294341759764L49.87233320871989,86.17426987540313L54.85956652959187,78.48667705997687L59.84679985046387,79.15112560519938L64.83403317133586,75.67238792834286L69.82126649220784,72.51903081417396L74.80849981307983,71.26483231472056L79.79573313395183,67.7532892905271L84.78296645482381,67.41833917830976L89.7701997756958,64.09676864953695L94.75743309656778,62.74103659442619L99.74466641743977,61.42934140440792L104.73189973831177,58.59420356945668L109.71913305918375,56.71135235634574L114.70636638005575,55.58878279895788L119.69359970092773,56.079539785902114L124.68083302179973,52.341773245973286L129.66806634267172,51.54831574044255L134.6552996635437,50.749946430728414L139.64253298441568,51.45595476738197L144.6297663052877,48.793831000476814L149.61699962615967,49.23740714421979L154.60423294703168,45.0806975819591L159.59146626790366,42.70925946780392L164.57869958877563,41.063201676629035L169.56593290964761,42.07023797785837L174.55316623051962,39.40914103208638L179.5403995513916,37.321370195307054L184.5276328722636,41.21443019939619L189.51486619313556,37.47761638010638L194.50209951400757,35.21821821309999L199.48933283487955,34.45527952537253L204.47656615575156,35.05156620176558L209.46379947662354,33.5280812136931L214.45103279749551,33.77819155300568L219.4382661183675,33.17096976083366L224.4254994392395,30.31120939025618L229.4127327601115,29.972718332997147L234.3999660809835,28.684047225088534L239.38719940185547,27.513704020546243L244.37443272272745,26.540616331420665L249.36166604359946,27.586438948443003L254.34889936447144,23.571441288344147L259.33613268534344,24.482602135933405L264.3233660062154,24.503953664032338L269.3105993270874,20.23400796093165" fill="none"></path></g><g><path style="fill: none;" stroke="rgb(255, 112, 67)" stroke-width="2px" d="M24.936166604359943,102.20953741521598L29.923399925231934,111.21201703480122L34.91063324610392,113.63606385335386L39.897866566975914,115.43610776425662L44.8850998878479,116.8215355923964L49.87233320871989,117.79677219585221L54.85956652959187,118.06612749207301L59.84679985046387,118.78017837878762L64.83403317133586,119.59127444837134L69.82126649220784,120.02925335836007L74.80849981307983,119.92470020756625L79.79573313395183,120.56773370998056L84.78296645482381,120.56538895863008L89.7701997756958,120.74134852131847L94.75743309656778,120.76303350164106L99.74466641743977,121.60444461266916L104.73189973831177,121.34826332572904L109.71913305918375,121.71304417973259L114.70636638005575,121.56037863666825L119.69359970092773,121.8185871014125L124.68083302179973,121.97659052650158L129.66806634267172,121.80430423116586L134.6552996635437,121.59408642216603L139.64253298441568,121.8782988674631L144.6297663052877,122.2729289883764L149.61699962615967,122.36577161464893L154.60423294703168,121.96526373668212L159.59146626790366,122.10533748863408L164.57869958877563,122.27300308887055L169.56593290964761,122.38638743069885L174.55316623051962,122.36717158469905L179.5403995513916,122.54096635437989L184.5276328722636,122.61969019007138L189.51486619313556,122.26126874633329L194.50209951400757,122.51697896584633L199.48933283487955,122.23422735886243L204.47656615575156,122.67845982126784L209.46379947662354,122.37125769766196L214.45103279749551,122.97081538158231L219.4382661183675,122.35253409065899L224.4254994392395,122.6338195664373L229.4127327601115,122.90698309876795L234.3999660809835,122.63991962497325L239.38719940185547,123.0775359718299L244.37443272272745,122.57341972436963L249.36166604359946,122.4174170126225L254.34889936447144,122.75104390173009L259.33613268534344,122.75292287854593L264.3233660062154,122.0714126945463L269.3105993270874,122.62864047118573" fill="none"></path></g><g><path style="fill: none;" stroke="rgb(51, 187, 238)" stroke-width="2px" d="M24.936166604359943,123.85214548738536L29.923399925231934,126.05297515310798L34.91063324610392,126.84515707156092L39.897866566975914,127.20340120340231L44.8850998878479,127.24943878183674L49.87233320871989,127.177439565989L54.85956652959187,127.12998349238092L59.84679985046387,126.93596722713687L64.83403317133586,126.72498194873339L69.82126649220784,126.54775738475207L74.80849981307983,126.39558143423834L79.79573313395183,126.05227649130603L84.78296645482381,125.82005877488349L89.7701997756958,125.66448743387014L94.75743309656778,125.36057219646888L99.74466641743977,125.15658412186976L104.73189973831177,124.94728727615431L109.71913305918375,124.84639416048206L114.70636638005575,124.53872096944912L119.69359970092773,124.39027121521244L124.68083302179973,124.08360102729668L129.66806634267172,123.69087899410763L134.6552996635437,123.64349172810125L139.64253298441568,123.27785077907636L144.6297663052877,123.26497052532605L149.61699962615967,122.92710667582104L154.60423294703168,122.75069986372155L159.59146626790366,122.47505131839078L164.57869958877563,122.23224781709024L169.56593290964761,121.91546291172355L174.55316623051962,121.84847341856933L179.5403995513916,121.63109961899197L184.5276328722636,121.37081104751918L189.51486619313556,121.35230709555243L194.50209951400757,121.01209055535828L199.48933283487955,120.947861305611L204.47656615575156,120.76146151258668L209.46379947662354,120.63192061658833L214.45103279749551,120.38395654515976L219.4382661183675,120.13440725244571L224.4254994392395,120.05421993199484L229.4127327601115,119.71956092886164L234.3999660809835,119.62459585272107L239.38719940185547,119.4774084533311L244.37443272272745,119.34239470655082L249.36166604359946,119.08102373857426L254.34889936447144,119.04418785364503L259.33613268534344,118.87579977359063L264.3233660062154,118.68721930888144L269.3105993270874,118.54566354704656" fill="none"></path></g><g><path style="fill: none;" stroke="rgb(204, 51, 17)" stroke-width="2px" d="M24.936166604359943,114.83065644460544L29.923399925231934,126.49501371159742L34.91063324610392,129.6699975842721L39.897866566975914,131.57570350693464L44.8850998878479,133.13555595895548L49.87233320871989,134.26512404337083L54.85956652959187,135.1361991700733L59.84679985046387,135.96558879914932L64.83403317133586,136.65111893495637L69.82126649220784,137.19027677680907L74.80849981307983,137.693509111232L79.79573313395183,138.1193765600972L84.78296645482381,138.51971241905974L89.7701997756958,138.85971989000257L94.75743309656778,139.23347616635954L99.74466641743977,139.52478770364044L104.73189973831177,139.68197073040147L109.71913305918375,139.98073201379026L114.70636638005575,140.17673840659137L119.69359970092773,140.45540787028168L124.68083302179973,140.64417226300313L129.66806634267172,140.82307467388762L134.6552996635437,141.0219961271995L139.64253298441568,141.22722273862934L144.6297663052877,141.3543500756755L149.61699962615967,141.47404751496043L154.60423294703168,141.6245866384874L159.59146626790366,141.7746017656629L164.57869958877563,141.88311929289353L169.56593290964761,142.02034679193642L174.55316623051962,142.13285780651228L179.5403995513916,142.23326926897258L184.5276328722636,142.31795951766594L189.51486619313556,142.43427612190544L194.50209951400757,142.44115423562994L199.48933283487955,142.515532606629L204.47656615575156,142.66325591137843L209.46379947662354,142.75185496113798L214.45103279749551,142.78121860516646L219.4382661183675,142.93611642561694L224.4254994392395,142.9354164405919L229.4127327601115,143.085390547851L234.3999660809835,143.1176626362747L239.38719940185547,143.24670203071446L244.37443272272745,143.1502999342767L249.36166604359946,143.27624430986273L254.34889936447144,143.32220778780302L259.33613268534344,143.35199486322662L264.3233660062154,143.47361891535934L269.3105993270874,143.48049173619137" fill="none"></path></g><g><path style="fill: none;" stroke="rgb(0, 153, 136)" stroke-width="2px" d="M24.936166604359943,104.15754413425103L29.923399925231934,114.12499743885286L34.91063324610392,118.1576892383753L39.897866566975914,120.39089817359351L44.8850998878479,121.839173806554L49.87233320871989,122.8895774219823L54.85956652959187,123.6878620454174L59.84679985046387,124.32235546588139L64.83403317133586,124.84227893661074L69.82126649220784,125.27063536814536L74.80849981307983,125.63953409246646L79.79573313395183,125.95645661303656L84.78296645482381,126.23110480169636L89.7701997756958,126.47155296586155L94.75743309656778,126.67799958899859L99.74466641743977,126.87683503280834L104.73189973831177,127.03731288511266L109.71913305918375,127.18379368336203L114.70636638005575,127.3358531902421L119.69359970092773,127.44630791610541L124.68083302179973,127.55996484189431L129.66806634267172,127.66355468626423L134.6552996635437,127.75964979494053L139.64253298441568,127.84623886879638L144.6297663052877,127.9197836092363L149.61699962615967,127.99441074618001L154.60423294703168,128.05163485278428L159.59146626790366,128.121596305043L164.57869958877563,128.16387592984574L169.56593290964761,128.2158759516127L174.55316623051962,128.25888864201826L179.5403995513916,128.29980534701798L184.5276328722636,128.34427622929047L189.51486619313556,128.37691485051556L194.50209951400757,128.4134252225598L199.48933283487955,128.4434306297965L204.47656615575156,128.48009184927525L209.46379947662354,128.50074471557224L214.45103279749551,128.51797043401496L219.4382661183675,128.53646380019683L224.4254994392395,128.55052172251482L229.4127327601115,128.56994663776595L234.3999660809835,128.58530661162393L239.38719940185547,128.59339150482452L244.37443272272745,128.59736382059998L249.36166604359946,128.60948983717773L254.34889936447144,128.6205440430366L259.33613268534344,128.63949789086064L264.3233660062154,128.63413619081996L269.3105993270874,128.63850811997457" fill="none"></path></g><g><path style="fill: none;" stroke="rgb(238, 51, 119)" stroke-width="2px" d="M24.936166604359943,85.57913175666934L29.923399925231934,109.36376545956404L34.91063324610392,116.0765318706985L39.897866566975914,119.4546516622896L44.8850998878479,121.56183418208897L49.87233320871989,123.1226181831791L54.85956652959187,124.32743134973039L59.84679985046387,125.36685485979397L64.83403317133586,126.16394858243031L69.82126649220784,126.85374743598942L74.80849981307983,127.5025845949631L79.79573313395183,128.09602898811642L84.78296645482381,128.61102742243128L89.7701997756958,129.0816846503384L94.75743309656778,129.47768827683961L99.74466641743977,129.87071994423633L104.73189973831177,130.20305536758883L109.71913305918375,130.59829681757884L114.70636638005575,130.94563229810342L119.69359970092773,131.21310067816972L124.68083302179973,131.51681213921208L129.66806634267172,131.7291312265102L134.6552996635437,132.01157319928643L139.64253298441568,132.30306866457954L144.6297663052877,132.52680981376102L149.61699962615967,132.73235929162968L154.60423294703168,132.96198084431086L159.59146626790366,133.16299431335926L164.57869958877563,133.33247537570233L169.56593290964761,133.60369112361542L174.55316623051962,133.77138054186787L179.5403995513916,133.91434421309154L184.5276328722636,134.082889756696L189.51486619313556,134.27607371460402L194.50209951400757,134.39721611352476L199.48933283487955,134.58791241198645L204.47656615575156,134.7170748661754L209.46379947662354,134.81656668857443L214.45103279749551,134.99824389832006L219.4382661183675,135.1333767351802L224.4254994392395,135.2640397243756L229.4127327601115,135.43782258504848L234.3999660809835,135.5003753111157L239.38719940185547,135.63893661905323L244.37443272272745,135.8216565286093L249.36166604359946,135.87454707952915L254.34889936447144,136.05479256187004L259.33613268534344,136.12944748649903L264.3233660062154,136.2282088897415L269.3105993270874,136.3605801599716" fill="none"></path></g></g></g></g></g></g><g transform="translate(30, 177)" clip-path="url(#clip_1)"><clipPath id="clip_1"><rect width="299" height="22"></rect></clipPath><g><g><line x1="0" y1="0" x2="0" y2="5" style="visibility: inherit;" fill="rgb(0, 0, 0)" stroke="rgb(204, 204, 204)" stroke-width="1px"></line><line x1="24.936166604359943" y1="0" x2="24.936166604359943" y2="5" style="visibility: inherit;" fill="rgb(0, 0, 0)" stroke="rgb(204, 204, 204)" stroke-width="1px"></line><line x1="49.87233320871989" y1="0" x2="49.87233320871989" y2="5" style="visibility: inherit;" fill="rgb(0, 0, 0)" stroke="rgb(204, 204, 204)" stroke-width="1px"></line><line x1="74.80849981307983" y1="0" x2="74.80849981307983" y2="5" style="visibility: inherit;" fill="rgb(0, 0, 0)" stroke="rgb(204, 204, 204)" stroke-width="1px"></line><line x1="99.74466641743977" y1="0" x2="99.74466641743977" y2="5" style="visibility: inherit;" fill="rgb(0, 0, 0)" stroke="rgb(204, 204, 204)" stroke-width="1px"></line><line x1="124.68083302179973" y1="0" x2="124.68083302179973" y2="5" style="visibility: inherit;" fill="rgb(0, 0, 0)" stroke="rgb(204, 204, 204)" stroke-width="1px"></line><line x1="149.61699962615967" y1="0" x2="149.61699962615967" y2="5" style="visibility: inherit;" fill="rgb(0, 0, 0)" stroke="rgb(204, 204, 204)" stroke-width="1px"></line><line x1="174.55316623051962" y1="0" x2="174.55316623051962" y2="5" style="visibility: inherit;" fill="rgb(0, 0, 0)" stroke="rgb(204, 204, 204)" stroke-width="1px"></line><line x1="199.48933283487955" y1="0" x2="199.48933283487955" y2="5" style="visibility: inherit;" fill="rgb(0, 0, 0)" stroke="rgb(204, 204, 204)" stroke-width="1px"></line><line x1="224.4254994392395" y1="0" x2="224.4254994392395" y2="5" style="visibility: inherit;" fill="rgb(0, 0, 0)" stroke="rgb(204, 204, 204)" stroke-width="1px"></line><line x1="249.36166604359946" y1="0" x2="249.36166604359946" y2="5" style="visibility: inherit;" fill="rgb(0, 0, 0)" stroke="rgb(204, 204, 204)" stroke-width="1px"></line><line x1="274.29783264795935" y1="0" x2="274.29783264795935" y2="5" style="visibility: inherit;" fill="rgb(0, 0, 0)" stroke="rgb(204, 204, 204)" stroke-width="1px"></line><line x1="299.23399925231934" y1="0" x2="299.23399925231934" y2="5" style="visibility: inherit;" fill="rgb(0, 0, 0)" stroke="rgb(204, 204, 204)" stroke-width="1px"></line></g><g transform="translate(0, 8)"><text style="text-anchor: middle; visibility: hidden; font-family: Roboto, sans-serif; font-size: 12px; font-weight: 200;" x="0" y="0" dx="0em" dy="0.95em" fill="rgb(50, 49, 63)" stroke="none" stroke-width="1px">-5</text><text style="text-anchor: middle; visibility: inherit; font-family: Roboto, sans-serif; font-size: 12px; font-weight: 200;" x="24.936166604359943" y="0" dx="0em" dy="0.95em" fill="rgb(50, 49, 63)" stroke="none" stroke-width="1px">0</text><text style="text-anchor: middle; visibility: inherit; font-family: Roboto, sans-serif; font-size: 12px; font-weight: 200;" x="49.87233320871989" y="0" dx="0em" dy="0.95em" fill="rgb(50, 49, 63)" stroke="none" stroke-width="1px">5</text><text style="text-anchor: middle; visibility: inherit; font-family: Roboto, sans-serif; font-size: 12px; font-weight: 200;" x="74.80849981307983" y="0" dx="0em" dy="0.95em" fill="rgb(50, 49, 63)" stroke="none" stroke-width="1px">10</text><text style="text-anchor: middle; visibility: inherit; font-family: Roboto, sans-serif; font-size: 12px; font-weight: 200;" x="99.74466641743977" y="0" dx="0em" dy="0.95em" fill="rgb(50, 49, 63)" stroke="none" stroke-width="1px">15</text><text style="text-anchor: middle; visibility: inherit; font-family: Roboto, sans-serif; font-size: 12px; font-weight: 200;" x="124.68083302179973" y="0" dx="0em" dy="0.95em" fill="rgb(50, 49, 63)" stroke="none" stroke-width="1px">20</text><text style="text-anchor: middle; visibility: inherit; font-family: Roboto, sans-serif; font-size: 12px; font-weight: 200;" x="149.61699962615967" y="0" dx="0em" dy="0.95em" fill="rgb(50, 49, 63)" stroke="none" stroke-width="1px">25</text><text style="text-anchor: middle; visibility: inherit; font-family: Roboto, sans-serif; font-size: 12px; font-weight: 200;" x="174.55316623051962" y="0" dx="0em" dy="0.95em" fill="rgb(50, 49, 63)" stroke="none" stroke-width="1px">30</text><text style="text-anchor: middle; visibility: inherit; font-family: Roboto, sans-serif; font-size: 12px; font-weight: 200;" x="199.48933283487955" y="0" dx="0em" dy="0.95em" fill="rgb(50, 49, 63)" stroke="none" stroke-width="1px">35</text><text style="text-anchor: middle; visibility: inherit; font-family: Roboto, sans-serif; font-size: 12px; font-weight: 200;" x="224.4254994392395" y="0" dx="0em" dy="0.95em" fill="rgb(50, 49, 63)" stroke="none" stroke-width="1px">40</text><text style="text-anchor: middle; visibility: inherit; font-family: Roboto, sans-serif; font-size: 12px; font-weight: 200;" x="249.36166604359946" y="0" dx="0em" dy="0.95em" fill="rgb(50, 49, 63)" stroke="none" stroke-width="1px">45</text><text style="text-anchor: middle; visibility: inherit; font-family: Roboto, sans-serif; font-size: 12px; font-weight: 200;" x="274.29783264795935" y="0" dx="0em" dy="0.95em" fill="rgb(50, 49, 63)" stroke="none" stroke-width="1px">50</text><text style="text-anchor: middle; visibility: hidden; font-family: Roboto, sans-serif; font-size: 12px; font-weight: 200;" x="299.23399925231934" y="0" dx="0em" dy="0.95em" fill="rgb(50, 49, 63)" stroke="none" stroke-width="1px">55</text></g><line x1="0" y1="0" x2="299.23399925231934" y2="0" fill="rgb(0, 0, 0)" stroke="rgb(204, 204, 204)" stroke-width="1px"></line></g></g></g></g></svg>