<svg viewBox="0 0 330 200" xmlns="http://www.w3.org/2000/svg"><g><g><g><g><g><line x1="51.53200149536133" y1="177.5999994277954" x2="46.53200149536133" y2="177.5999994277954" style="visibility: inherit;" fill="rgb(0, 0, 0)" stroke="rgb(204, 204, 204)" stroke-width="1px"></line><line x1="51.53200149536133" y1="161.45454493435946" x2="46.53200149536133" y2="161.45454493435946" style="visibility: inherit;" fill="rgb(0, 0, 0)" stroke="rgb(204, 204, 204)" stroke-width="1px"></line><line x1="51.53200149536133" y1="145.3090904409235" x2="46.53200149536133" y2="145.3090904409235" style="visibility: inherit;" fill="rgb(0, 0, 0)" stroke="rgb(204, 204, 204)" stroke-width="1px"></line><line x1="51.53200149536133" y1="129.16363594748756" x2="46.53200149536133" y2="129.16363594748756" style="visibility: inherit;" fill="rgb(0, 0, 0)" stroke="rgb(204, 204, 204)" stroke-width="1px"></line><line x1="51.53200149536133" y1="113.01818145405163" x2="46.53200149536133" y2="113.01818145405163" style="visibility: inherit;" fill="rgb(0, 0, 0)" stroke="rgb(204, 204, 204)" stroke-width="1px"></line><line x1="51.53200149536133" y1="96.87272696061567" x2="46.53200149536133" y2="96.87272696061567" style="visibility: inherit;" fill="rgb(0, 0, 0)" stroke="rgb(204, 204, 204)" stroke-width="1px"></line><line x1="51.53200149536133" y1="80.72727246717974" x2="46.53200149536133" y2="80.72727246717974" style="visibility: inherit;" fill="rgb(0, 0, 0)" stroke="rgb(204, 204, 204)" stroke-width="1px"></line><line x1="51.53200149536133" y1="64.58181797374381" x2="46.53200149536133" y2="64.58181797374381" style="visibility: inherit;" fill="rgb(0, 0, 0)" stroke="rgb(204, 204, 204)" stroke-width="1px"></line><line x1="51.53200149536133" y1="48.436363480307854" x2="46.53200149536133" y2="48.436363480307854" style="visibility: inherit;" fill="rgb(0, 0, 0)" stroke="rgb(204, 204, 204)" stroke-width="1px"></line><line x1="51.53200149536133" y1="32.290908986871905" x2="46.53200149536133" y2="32.290908986871905" style="visibility: inherit;" fill="rgb(0, 0, 0)" stroke="rgb(204, 204, 204)" stroke-width="1px"></line><line x1="51.53200149536133" y1="16.145454493435953" x2="46.53200149536133" y2="16.145454493435953" style="visibility: inherit;" fill="rgb(0, 0, 0)" stroke="rgb(204, 204, 204)" stroke-width="1px"></line><line x1="51.53200149536133" y1="0" x2="46.53200149536133" y2="0" style="visibility: inherit;" fill="rgb(0, 0, 0)" stroke="rgb(204, 204, 204)" stroke-width="1px"></line></g><g transform="translate(41.53200149536133, 0)"><text style="text-anchor: end; visibility: hidden; font-family: Roboto, sans-serif; font-size: 12px; font-weight: 200;" x="0" y="177.5999994277954" dx="0em" dy="0.3em" fill="rgb(50, 49, 63)" stroke="none" stroke-width="1px">-0.2</text><text style="text-anchor: end; visibility: inherit; font-family: Roboto, sans-serif; font-size: 12px; font-weight: 200;" x="0" y="161.45454493435946" dx="0em" dy="0.3em" fill="rgb(50, 49, 63)" stroke="none" stroke-width="1px">0</text><text style="text-anchor: end; visibility: hidden; font-family: Roboto, sans-serif; font-size: 12px; font-weight: 200;" x="0" y="145.3090904409235" dx="0em" dy="0.3em" fill="rgb(50, 49, 63)" stroke="none" stroke-width="1px">0.2</text><text style="text-anchor: end; visibility: inherit; font-family: Roboto, sans-serif; font-size: 12px; font-weight: 200;" x="0" y="129.16363594748756" dx="0em" dy="0.3em" fill="rgb(50, 49, 63)" stroke="none" stroke-width="1px">0.4</text><text style="text-anchor: end; visibility: hidden; font-family: Roboto, sans-serif; font-size: 12px; font-weight: 200;" x="0" y="113.01818145405163" dx="0em" dy="0.3em" fill="rgb(50, 49, 63)" stroke="none" stroke-width="1px">0.6</text><text style="text-anchor: end; visibility: inherit; font-family: Roboto, sans-serif; font-size: 12px; font-weight: 200;" x="0" y="96.87272696061567" dx="0em" dy="0.3em" fill="rgb(50, 49, 63)" stroke="none" stroke-width="1px">0.8</text><text style="text-anchor: end; visibility: hidden; font-family: Roboto, sans-serif; font-size: 12px; font-weight: 200;" x="0" y="80.72727246717974" dx="0em" dy="0.3em" fill="rgb(50, 49, 63)" stroke="none" stroke-width="1px">1</text><text style="text-anchor: end; visibility: inherit; font-family: Roboto, sans-serif; font-size: 12px; font-weight: 200;" x="0" y="64.58181797374381" dx="0em" dy="0.3em" fill="rgb(50, 49, 63)" stroke="none" stroke-width="1px">1.2</text><text style="text-anchor: end; visibility: hidden; font-family: Roboto, sans-serif; font-size: 12px; font-weight: 200;" x="0" y="48.436363480307854" dx="0em" dy="0.3em" fill="rgb(50, 49, 63)" stroke="none" stroke-width="1px">1.4</text><text style="text-anchor: end; visibility: inherit; font-family: Roboto, sans-serif; font-size: 12px; font-weight: 200;" x="0" y="32.290908986871905" dx="0em" dy="0.3em" fill="rgb(50, 49, 63)" stroke="none" stroke-width="1px">1.6</text><text style="text-anchor: end; visibility: hidden; font-family: Roboto, sans-serif; font-size: 12px; font-weight: 200;" x="0" y="16.145454493435953" dx="0em" dy="0.3em" fill="rgb(50, 49, 63)" stroke="none" stroke-width="1px">1.8</text><text style="text-anchor: end; visibility: hidden; font-family: Roboto, sans-serif; font-size: 12px; font-weight: 200;" x="0" y="0" dx="0em" dy="0.3em" fill="rgb(50, 49, 63)" stroke="none" stroke-width="1px">2</text></g><line x1="51.53200149536133" y1="0" x2="51.53200149536133" y2="177.5999994277954" fill="rgb(0, 0, 0)" stroke="rgb(204, 204, 204)" stroke-width="1px"></line></g></g><g transform="translate(51, 0)" clip-path="url(#clip_0)"><clipPath id="clip_0"><rect width="278" height="177"></rect></clipPath><g><g><g><line x1="0" y1="0" x2="0" y2="177.5999994277954" fill="rgb(0, 0, 0)" stroke="rgb(60, 60, 60)" stroke-width="1px" opacity="0.25"></line><line x1="23.205666542053223" y1="0" x2="23.205666542053223" y2="177.5999994277954" fill="rgb(0, 0, 0)" stroke="rgb(60, 60, 60)" stroke-width="1px" opacity="0.25"></line><line x1="46.411333084106445" y1="0" x2="46.411333084106445" y2="177.5999994277954" fill="rgb(0, 0, 0)" stroke="rgb(60, 60, 60)" stroke-width="1px" opacity="0.25"></line><line x1="69.61699962615967" y1="0" x2="69.61699962615967" y2="177.5999994277954" fill="rgb(0, 0, 0)" stroke="rgb(60, 60, 60)" stroke-width="1px" opacity="0.25"></line><line x1="92.82266616821289" y1="0" x2="92.82266616821289" y2="177.5999994277954" fill="rgb(0, 0, 0)" stroke="rgb(60, 60, 60)" stroke-width="1px" opacity="0.25"></line><line x1="116.02833271026611" y1="0" x2="116.02833271026611" y2="177.5999994277954" fill="rgb(0, 0, 0)" stroke="rgb(60, 60, 60)" stroke-width="1px" opacity="0.25"></line><line x1="139.23399925231934" y1="0" x2="139.23399925231934" y2="177.5999994277954" fill="rgb(0, 0, 0)" stroke="rgb(60, 60, 60)" stroke-width="1px" opacity="0.25"></line><line x1="162.43966579437256" y1="0" x2="162.43966579437256" y2="177.5999994277954" fill="rgb(0, 0, 0)" stroke="rgb(60, 60, 60)" stroke-width="1px" opacity="0.25"></line><line x1="185.64533233642578" y1="0" x2="185.64533233642578" y2="177.5999994277954" fill="rgb(0, 0, 0)" stroke="rgb(60, 60, 60)" stroke-width="1px" opacity="0.25"></line><line x1="208.850998878479" y1="0" x2="208.850998878479" y2="177.5999994277954" fill="rgb(0, 0, 0)" stroke="rgb(60, 60, 60)" stroke-width="1px" opacity="0.25"></line><line x1="232.05666542053223" y1="0" x2="232.05666542053223" y2="177.5999994277954" fill="rgb(0, 0, 0)" stroke="rgb(60, 60, 60)" stroke-width="1px" opacity="0.25"></line><line x1="255.26233196258545" y1="0" x2="255.26233196258545" y2="177.5999994277954" fill="rgb(0, 0, 0)" stroke="rgb(60, 60, 60)" stroke-width="1px" opacity="0.25"></line><line x1="278.4679985046387" y1="0" x2="278.4679985046387" y2="177.5999994277954" fill="rgb(0, 0, 0)" stroke="rgb(60, 60, 60)" stroke-width="1px" opacity="0.25"></line></g><g><line x1="0" y1="177.5999994277954" x2="278.4679985046387" y2="177.5999994277954" fill="rgb(0, 0, 0)" stroke="rgb(60, 60, 60)" stroke-width="1px" opacity="0.25"></line><line x1="0" y1="161.45454493435946" x2="278.4679985046387" y2="161.45454493435946" fill="rgb(0, 0, 0)" stroke="rgb(60, 60, 60)" stroke-width="1px" opacity="0.25"></line><line x1="0" y1="145.3090904409235" x2="278.4679985046387" y2="145.3090904409235" fill="rgb(0, 0, 0)" stroke="rgb(60, 60, 60)" stroke-width="1px" opacity="0.25"></line><line x1="0" y1="129.16363594748756" x2="278.4679985046387" y2="129.16363594748756" fill="rgb(0, 0, 0)" stroke="rgb(60, 60, 60)" stroke-width="1px" opacity="0.25"></line><line x1="0" y1="113.01818145405163" x2="278.4679985046387" y2="113.01818145405163" fill="rgb(0, 0, 0)" stroke="rgb(60, 60, 60)" stroke-width="1px" opacity="0.25"></line><line x1="0" y1="96.87272696061567" x2="278.4679985046387" y2="96.87272696061567" fill="rgb(0, 0, 0)" stroke="rgb(60, 60, 60)" stroke-width="1px" opacity="0.25"></line><line x1="0" y1="80.72727246717974" x2="278.4679985046387" y2="80.72727246717974" fill="rgb(0, 0, 0)" stroke="rgb(60, 60, 60)" stroke-width="1px" opacity="0.25"></line><line x1="0" y1="64.58181797374381" x2="278.4679985046387" y2="64.58181797374381" fill="rgb(0, 0, 0)" stroke="rgb(60, 60, 60)" stroke-width="1px" opacity="0.25"></line><line x1="0" y1="48.436363480307854" x2="278.4679985046387" y2="48.436363480307854" fill="rgb(0, 0, 0)" stroke="rgb(60, 60, 60)" stroke-width="1px" opacity="0.25"></line><line x1="0" y1="32.290908986871905" x2="278.4679985046387" y2="32.290908986871905" fill="rgb(0, 0, 0)" stroke="rgb(60, 60, 60)" stroke-width="1px" opacity="0.25"></line><line x1="0" y1="16.145454493435953" x2="278.4679985046387" y2="16.145454493435953" fill="rgb(0, 0, 0)" stroke="rgb(60, 60, 60)" stroke-width="1px" opacity="0.25"></line><line x1="0" y1="0" x2="278.4679985046387" y2="0" fill="rgb(0, 0, 0)" stroke="rgb(60, 60, 60)" stroke-width="1px" opacity="0.25"></line></g></g></g><g><g><line x1="0" y1="161.45454493435946" x2="278.4679985046387" y2="161.45454493435946" fill="rgb(0, 0, 0)" stroke="rgb(153, 153, 153)" stroke-width="1.5px"></line></g></g><g><g><line x1="23.205666542053223" y1="0" x2="23.205666542053223" y2="177.5999994277954" fill="rgb(0, 0, 0)" stroke="rgb(153, 153, 153)" stroke-width="1.5px"></line></g></g><g><g><g><g><g><path style="fill: none;" stroke="rgb(0, 153, 136)" stroke-width="2px" d="M23.205666542053223,46.766496334254185L27.846799850463867,54.67572324649916L32.48793315887451,57.68134514691063L37.129066467285156,58.98106781423188L41.7701997756958,59.24302749619928L46.411333084106445,58.98502304839993L51.05246639251708,58.79537390059012L55.693599700927734,57.80016577044583L60.33473300933838,57.51673619205768L64.97586631774902,56.49369707112505L69.61699962615967,55.708905474033074L74.25813293457031,54.65499435501985L78.89926624298096,53.98739701996819L83.5403995513916,53.19075896725364L88.18153285980225,52.634014046756256L92.82266616821289,51.43112244074635L97.46379947662354,50.73067067880966L102.10493278503417,49.951595405551814L106.74606609344484,49.095234279243726L111.38719940185547,47.78511829586046L116.02833271026611,47.37851829869635L120.66946601867676,46.36228295040803L125.3105993270874,45.66395796888773L129.95173263549805,44.77208634603437L134.5928659439087,44.09840699639824L139.23399925231934,43.21311780705082L143.87513256073,42.06429069144511L148.51626586914062,41.4614976067284L153.15739917755127,41.02090761666511L157.7985324859619,40.15311384268879L162.43966579437256,39.74620589541913L167.0807991027832,38.75826346307749L171.72193241119385,37.78643067063199L176.3630657196045,37.3033435660039L181.00419902801514,36.50392433889869L185.64533233642578,36.158202228223914L190.28646564483643,35.82907092948519L194.92759895324707,34.502691331152974L199.56873226165771,34.278330432384074L204.20986557006833,33.386766759636245L208.850998878479,32.815172869987265L213.49213218688968,31.31965167618615L218.1332654953003,31.710257514743667L222.77439880371094,30.65521082971627L227.41553211212158,29.900223028776285L232.05666542053223,29.13224358275874L236.69779872894287,28.844242869991447L241.33893203735352,28.081873889959247L245.98006534576416,27.905043165292604L250.6211986541748,26.955325039801345" fill="none"></path></g><g><path style="fill: none;" stroke="rgb(238, 51, 119)" stroke-width="2px" d="M23.205666542053223,13.706965055519408L27.846799850463867,56.39077437178847L32.48793315887451,67.80753373927425L37.129066467285156,75.04597795756335L41.7701997756958,80.32015280421254L46.411333084106445,84.35031027060077L51.05246639251708,88.03552031329846L55.693599700927734,90.81072335895861L60.33473300933838,92.88022505572668L64.97586631774902,94.99343160887967L69.61699962615967,96.96202190543796L74.25813293457031,98.74740113608041L78.89926624298096,99.83890141485134L83.5403995513916,101.28056983394579L88.18153285980225,102.48841751196679L92.82266616821289,103.48203296265896L97.46379947662354,104.43541280737395L102.10493278503417,105.35450433252498L106.74606609344484,106.34308672367972L111.38719940185547,107.30909733444231L116.02833271026611,107.98569739836068L120.66946601867676,108.51708455235487L125.3105993270874,109.21752187913035L129.95173263549805,109.92824666411909L134.5928659439087,110.27335768630321L139.23399925231934,111.06062731940071L143.87513256073,111.41824881462244L148.51626586914062,111.60101239054117L153.15739917755127,112.5578037450191L157.7985324859619,112.79366465554182L162.43966579437256,112.90474803267527L167.0807991027832,113.36866043151296L171.72193241119385,113.82791989672475L176.3630657196045,114.2215090019297L181.00419902801514,114.43541403227135L185.64533233642578,114.82567342696015L190.28646564483643,115.28877745677079L194.92759895324707,115.27974585758172L199.56873226165771,115.60937757524192L204.20986557006833,115.79779973434998L208.850998878479,116.1890166613982L213.49213218688968,116.28186842993948L218.1332654953003,116.6734654828992L222.77439880371094,117.10558684506012L227.41553211212158,117.16135949620599L232.05666542053223,117.37117937592883L236.69779872894287,117.6034748016358L241.33893203735352,117.60208421444047L245.98006534576416,117.79711767737687L250.6211986541748,118.07113553066439" fill="none"></path></g><g><path style="fill: none;" stroke="rgb(51, 187, 238)" stroke-width="2px" d="M23.205666542053223,10.697282063091086L27.846799850463867,33.166024274607494L32.48793315887451,42.35617927429486L37.129066467285156,47.64676208750495L41.7701997756958,51.104454742851956L46.411333084106445,53.66413602011636L51.05246639251708,55.588516229647794L55.693599700927734,57.09291023586483L60.33473300933838,58.20910426372389L64.97586631774902,59.23539610764631L69.61699962615967,60.023016996332956L74.25813293457031,60.70302857001429L78.89926624298096,61.2368312076488L83.5403995513916,61.74519909125372L88.18153285980225,62.07859357426602L92.82266616821289,62.406435331937786L97.46379947662354,62.657097094408115L102.10493278503417,62.87119940528614L106.74606609344484,63.07289710097528L111.38719940185547,63.28376593574511L116.02833271026611,63.330218284477965L120.66946601867676,63.47737994116379L125.3105993270874,63.49963895973L129.95173263549805,63.5028724358382L134.5928659439087,63.57077543411018L139.23399925231934,63.62555205913345L143.87513256073,63.56777292058115L148.51626586914062,63.5356594986376L153.15739917755127,63.57189175324278L157.7985324859619,63.50641386205192L162.43966579437256,63.46893056014298L167.0807991027832,63.428050183632294L171.72193241119385,63.33765720421495L176.3630657196045,63.229701445340915L181.00419902801514,63.16180807050972L185.64533233642578,63.11762685380525L190.28646564483643,62.988634253346376L194.92759895324707,62.89581616684788L199.56873226165771,62.754717277864906L204.20986557006833,62.68012598823818L208.850998878479,62.594496612015924L213.49213218688968,62.33777208184274L218.1332654953003,62.2971996554376L222.77439880371094,62.13932710914338L227.41553211212158,62.04773119962626L232.05666542053223,61.87438416052855L236.69779872894287,61.80949329922639L241.33893203735352,61.61684163788752L245.98006534576416,61.55339429270511L250.6211986541748,61.45275234883768" fill="none"></path></g><g><path style="fill: none;" stroke="rgb(204, 51, 17)" stroke-width="2px" d="M23.205666542053223,-49.539317578316755L27.846799850463867,22.846115818976415L32.48793315887451,39.697078230144406L37.129066467285156,48.549373470289105L41.7701997756958,54.94369757896541L46.411333084106445,59.58612240753616L51.05246639251708,63.27231404119529L55.693599700927734,66.37877035429014L60.33473300933838,69.06822373071806L64.97586631774902,71.58537902309529L69.61699962615967,73.4928316002627L74.25813293457031,75.48983991749803L78.89926624298096,77.28476560141227L83.5403995513916,78.87863836017083L88.18153285980225,80.41773449390614L92.82266616821289,81.76631537015975L97.46379947662354,82.88585354369619L102.10493278503417,84.17165590390286L106.74606609344484,85.1576399660421L111.38719940185547,86.39690336654876L116.02833271026611,87.20640795961046L120.66946601867676,88.37022839597974L125.3105993270874,89.1736798447794L129.95173263549805,90.13512413288325L134.5928659439087,90.86027926734886L139.23399925231934,91.42608465735775L143.87513256073,92.46784137064287L148.51626586914062,92.86768571236664L153.15739917755127,93.82541535232241L157.7985324859619,94.2786361084333L162.43966579437256,95.07237750546757L167.0807991027832,95.69043336729023L171.72193241119385,96.34965349712706L176.3630657196045,96.69835887444931L181.00419902801514,97.38848468440952L185.64533233642578,97.83240438498899L190.28646564483643,98.30792265342929L194.92759895324707,99.09020253247294L199.56873226165771,99.28633787938075L204.20986557006833,99.94538478728323L208.850998878479,100.2388323675423L213.49213218688968,100.61745221058568L218.1332654953003,101.15097095671665L222.77439880371094,101.55697911227168L227.41553211212158,101.9220154686284L232.05666542053223,102.25964907731232L236.69779872894287,102.59722494535146L241.33893203735352,102.89382420247192L245.98006534576416,103.368375315112L250.6211986541748,103.7830060736222" fill="none"></path></g><g><path style="fill: none;" stroke="rgb(0, 119, 187)" stroke-width="2px" d="M23.205666542053223,-24.525531342990025L27.846799850463867,11.5540377504719L32.48793315887451,26.072759284199797L37.129066467285156,34.159028636808976L41.7701997756958,39.42844950370388L46.411333084106445,43.24424963803294L51.05246639251708,46.14449486170431L55.693599700927734,48.454178393913445L60.33473300933838,50.35611673950351L64.97586631774902,51.9461497453836L69.61699962615967,53.262809668509654L74.25813293457031,54.42707278315565L78.89926624298096,55.41040558735498L83.5403995513916,56.2479528869026L88.18153285980225,57.062913970896886L92.82266616821289,57.73490921839333L97.46379947662354,58.3410608839486L102.10493278503417,58.904725058379896L106.74606609344484,59.39914857626823L111.38719940185547,59.90707378159643L116.02833271026611,60.275285873416564L120.66946601867676,60.67023188377408L125.3105993270874,60.9855824152898L129.95173263549805,61.31258693361211L134.5928659439087,61.59158010579229L139.23399925231934,61.84443601276459L143.87513256073,62.07616846718489L148.51626586914062,62.32722479072794L153.15739917755127,62.49576010942654L157.7985324859619,62.664285804684354L162.43966579437256,62.82462195182293L167.0807991027832,62.973400346562855L171.72193241119385,63.09111427440625L176.3630657196045,63.24011400828456L181.00419902801514,63.365892379516836L185.64533233642578,63.43219788661631L190.28646564483643,63.56212396083261L194.92759895324707,63.615639915111316L199.56873226165771,63.76372542211378L204.20986557006833,63.744170590411876L208.850998878479,63.8315418094186L213.49213218688968,63.89547995008174L218.1332654953003,63.94387623385582L222.77439880371094,63.996901392653804L227.41553211212158,64.01543613963112L232.05666542053223,64.06008890493469L236.69779872894287,64.07671821063394L241.33893203735352,64.12111114303598L245.98006534576416,64.14712330351348L250.6211986541748,64.1490672385547" fill="none"></path></g><g><path style="fill: none;" stroke="rgb(255, 112, 67)" stroke-width="2px" d="M27.846799850463867,-5.665435079180986L32.48793315887451,18.620857525566183L37.129066467285156,30.739396689818783L41.7701997756958,38.510065301451505L46.411333084106445,44.219229295619435L51.05246639251708,48.59423795129024L55.693599700927734,52.024600034770415L60.33473300933838,55.232112099687015L64.97586631774902,57.67680288285389L69.61699962615967,60.027472649422506L74.25813293457031,61.99497549717061L78.89926624298096,63.997546163187295L83.5403995513916,65.57646409494548L88.18153285980225,67.11851462500582L92.82266616821289,68.57561904314056L97.46379947662354,69.9491535013839L102.10493278503417,71.27022096039552L106.74606609344484,72.31277641926687L111.38719940185547,73.59531162132257L116.02833271026611,74.4900029123298L120.66946601867676,75.45796708157442L125.3105993270874,76.54370291930724L129.95173263549805,77.33646272538012L134.5928659439087,78.18548116635917L139.23399925231934,79.03111215617727L143.87513256073,79.89570132436778L148.51626586914062,80.43444078713178L153.15739917755127,81.29444919750237L157.7985324859619,82.0148118584505L162.43966579437256,82.67510019021596L167.0807991027832,83.20522667346555L171.72193241119385,83.90354684326545L176.3630657196045,84.61762539737235L181.00419902801514,85.06311853052232L185.64533233642578,85.56696820867248L190.28646564483643,86.31257315483425L194.92759895324707,86.87982687268327L199.56873226165771,87.29311516120211L204.20986557006833,87.82281821305659L208.850998878479,88.28475780653066L213.49213218688968,88.85845922971447L218.1332654953003,89.18389993890706L222.77439880371094,89.49508833227759L227.41553211212158,90.04358115229051L232.05666542053223,90.60471436179188L236.69779872894287,91.04318238315918L241.33893203735352,91.26399223227352L245.98006534576416,91.68255897807018L250.6211986541748,92.2055881737311" fill="none"></path></g></g></g></g></g></g><g transform="translate(51, 177)" clip-path="url(#clip_1)"><clipPath id="clip_1"><rect width="278" height="22"></rect></clipPath><g><g><line x1="0" y1="0" x2="0" y2="5" style="visibility: inherit;" fill="rgb(0, 0, 0)" stroke="rgb(204, 204, 204)" stroke-width="1px"></line><line x1="23.205666542053223" y1="0" x2="23.205666542053223" y2="5" style="visibility: inherit;" fill="rgb(0, 0, 0)" stroke="rgb(204, 204, 204)" stroke-width="1px"></line><line x1="46.411333084106445" y1="0" x2="46.411333084106445" y2="5" style="visibility: inherit;" fill="rgb(0, 0, 0)" stroke="rgb(204, 204, 204)" stroke-width="1px"></line><line x1="69.61699962615967" y1="0" x2="69.61699962615967" y2="5" style="visibility: inherit;" fill="rgb(0, 0, 0)" stroke="rgb(204, 204, 204)" stroke-width="1px"></line><line x1="92.82266616821289" y1="0" x2="92.82266616821289" y2="5" style="visibility: inherit;" fill="rgb(0, 0, 0)" stroke="rgb(204, 204, 204)" stroke-width="1px"></line><line x1="116.02833271026611" y1="0" x2="116.02833271026611" y2="5" style="visibility: inherit;" fill="rgb(0, 0, 0)" stroke="rgb(204, 204, 204)" stroke-width="1px"></line><line x1="139.23399925231934" y1="0" x2="139.23399925231934" y2="5" style="visibility: inherit;" fill="rgb(0, 0, 0)" stroke="rgb(204, 204, 204)" stroke-width="1px"></line><line x1="162.43966579437256" y1="0" x2="162.43966579437256" y2="5" style="visibility: inherit;" fill="rgb(0, 0, 0)" stroke="rgb(204, 204, 204)" stroke-width="1px"></line><line x1="185.64533233642578" y1="0" x2="185.64533233642578" y2="5" style="visibility: inherit;" fill="rgb(0, 0, 0)" stroke="rgb(204, 204, 204)" stroke-width="1px"></line><line x1="208.850998878479" y1="0" x2="208.850998878479" y2="5" style="visibility: inherit;" fill="rgb(0, 0, 0)" stroke="rgb(204, 204, 204)" stroke-width="1px"></line><line x1="232.05666542053223" y1="0" x2="232.05666542053223" y2="5" style="visibility: inherit;" fill="rgb(0, 0, 0)" stroke="rgb(204, 204, 204)" stroke-width="1px"></line><line x1="255.26233196258545" y1="0" x2="255.26233196258545" y2="5" style="visibility: inherit;" fill="rgb(0, 0, 0)" stroke="rgb(204, 204, 204)" stroke-width="1px"></line><line x1="278.4679985046387" y1="0" x2="278.4679985046387" y2="5" style="visibility: inherit;" fill="rgb(0, 0, 0)" stroke="rgb(204, 204, 204)" stroke-width="1px"></line></g><g transform="translate(0, 8)"><text style="text-anchor: middle; visibility: hidden; font-family: Roboto, sans-serif; font-size: 12px; font-weight: 200;" x="0" y="0" dx="0em" dy="0.95em" fill="rgb(50, 49, 63)" stroke="none" stroke-width="1px">-5</text><text style="text-anchor: middle; visibility: inherit; font-family: Roboto, sans-serif; font-size: 12px; font-weight: 200;" x="23.205666542053223" y="0" dx="0em" dy="0.95em" fill="rgb(50, 49, 63)" stroke="none" stroke-width="1px">0</text><text style="text-anchor: middle; visibility: inherit; font-family: Roboto, sans-serif; font-size: 12px; font-weight: 200;" x="46.411333084106445" y="0" dx="0em" dy="0.95em" fill="rgb(50, 49, 63)" stroke="none" stroke-width="1px">5</text><text style="text-anchor: middle; visibility: inherit; font-family: Roboto, sans-serif; font-size: 12px; font-weight: 200;" x="69.61699962615967" y="0" dx="0em" dy="0.95em" fill="rgb(50, 49, 63)" stroke="none" stroke-width="1px">10</text><text style="text-anchor: middle; visibility: inherit; font-family: Roboto, sans-serif; font-size: 12px; font-weight: 200;" x="92.82266616821289" y="0" dx="0em" dy="0.95em" fill="rgb(50, 49, 63)" stroke="none" stroke-width="1px">15</text><text style="text-anchor: middle; visibility: inherit; font-family: Roboto, sans-serif; font-size: 12px; font-weight: 200;" x="116.02833271026611" y="0" dx="0em" dy="0.95em" fill="rgb(50, 49, 63)" stroke="none" stroke-width="1px">20</text><text style="text-anchor: middle; visibility: inherit; font-family: Roboto, sans-serif; font-size: 12px; font-weight: 200;" x="139.23399925231934" y="0" dx="0em" dy="0.95em" fill="rgb(50, 49, 63)" stroke="none" stroke-width="1px">25</text><text style="text-anchor: middle; visibility: inherit; font-family: Roboto, sans-serif; font-size: 12px; font-weight: 200;" x="162.43966579437256" y="0" dx="0em" dy="0.95em" fill="rgb(50, 49, 63)" stroke="none" stroke-width="1px">30</text><text style="text-anchor: middle; visibility: inherit; font-family: Roboto, sans-serif; font-size: 12px; font-weight: 200;" x="185.64533233642578" y="0" dx="0em" dy="0.95em" fill="rgb(50, 49, 63)" stroke="none" stroke-width="1px">35</text><text style="text-anchor: middle; visibility: inherit; font-family: Roboto, sans-serif; font-size: 12px; font-weight: 200;" x="208.850998878479" y="0" dx="0em" dy="0.95em" fill="rgb(50, 49, 63)" stroke="none" stroke-width="1px">40</text><text style="text-anchor: middle; visibility: inherit; font-family: Roboto, sans-serif; font-size: 12px; font-weight: 200;" x="232.05666542053223" y="0" dx="0em" dy="0.95em" fill="rgb(50, 49, 63)" stroke="none" stroke-width="1px">45</text><text style="text-anchor: middle; visibility: inherit; font-family: Roboto, sans-serif; font-size: 12px; font-weight: 200;" x="255.26233196258545" y="0" dx="0em" dy="0.95em" fill="rgb(50, 49, 63)" stroke="none" stroke-width="1px">50</text><text style="text-anchor: middle; visibility: hidden; font-family: Roboto, sans-serif; font-size: 12px; font-weight: 200;" x="278.4679985046387" y="0" dx="0em" dy="0.95em" fill="rgb(50, 49, 63)" stroke="none" stroke-width="1px">55</text></g><line x1="0" y1="0" x2="278.4679985046387" y2="0" fill="rgb(0, 0, 0)" stroke="rgb(204, 204, 204)" stroke-width="1px"></line></g></g></g></g></svg>