<svg viewBox="0 0 330 200" xmlns="http://www.w3.org/2000/svg"><g><g><g><g><g><line x1="72.29800224304199" y1="177.5999994277954" x2="67.29800224304199" y2="177.5999994277954" style="visibility: inherit;" fill="rgb(0, 0, 0)" stroke="rgb(204, 204, 204)" stroke-width="1px"></line><line x1="72.29800224304199" y1="155.39999949932098" x2="67.29800224304199" y2="155.39999949932098" style="visibility: inherit;" fill="rgb(0, 0, 0)" stroke="rgb(204, 204, 204)" stroke-width="1px"></line><line x1="72.29800224304199" y1="133.19999957084656" x2="67.29800224304199" y2="133.19999957084656" style="visibility: inherit;" fill="rgb(0, 0, 0)" stroke="rgb(204, 204, 204)" stroke-width="1px"></line><line x1="72.29800224304199" y1="110.99999964237213" x2="67.29800224304199" y2="110.99999964237213" style="visibility: inherit;" fill="rgb(0, 0, 0)" stroke="rgb(204, 204, 204)" stroke-width="1px"></line><line x1="72.29800224304199" y1="88.7999997138977" x2="67.29800224304199" y2="88.7999997138977" style="visibility: inherit;" fill="rgb(0, 0, 0)" stroke="rgb(204, 204, 204)" stroke-width="1px"></line><line x1="72.29800224304199" y1="66.59999978542328" x2="67.29800224304199" y2="66.59999978542328" style="visibility: inherit;" fill="rgb(0, 0, 0)" stroke="rgb(204, 204, 204)" stroke-width="1px"></line><line x1="72.29800224304199" y1="44.39999985694885" x2="67.29800224304199" y2="44.39999985694885" style="visibility: inherit;" fill="rgb(0, 0, 0)" stroke="rgb(204, 204, 204)" stroke-width="1px"></line><line x1="72.29800224304199" y1="22.199999928474426" x2="67.29800224304199" y2="22.199999928474426" style="visibility: inherit;" fill="rgb(0, 0, 0)" stroke="rgb(204, 204, 204)" stroke-width="1px"></line><line x1="72.29800224304199" y1="0" x2="67.29800224304199" y2="0" style="visibility: inherit;" fill="rgb(0, 0, 0)" stroke="rgb(204, 204, 204)" stroke-width="1px"></line></g><g transform="translate(62.29800224304199, 0)"><text style="text-anchor: end; visibility: hidden; font-family: Roboto, sans-serif; font-size: 12px; font-weight: 200;" x="0" y="177.5999994277954" dx="0em" dy="0.3em" fill="rgb(50, 49, 63)" stroke="none" stroke-width="1px">-2e-6</text><text style="text-anchor: end; visibility: inherit; font-family: Roboto, sans-serif; font-size: 12px; font-weight: 200;" x="0" y="155.39999949932098" dx="0em" dy="0.3em" fill="rgb(50, 49, 63)" stroke="none" stroke-width="1px">0</text><text style="text-anchor: end; visibility: hidden; font-family: Roboto, sans-serif; font-size: 12px; font-weight: 200;" x="0" y="133.19999957084656" dx="0em" dy="0.3em" fill="rgb(50, 49, 63)" stroke="none" stroke-width="1px">2e-6</text><text style="text-anchor: end; visibility: inherit; font-family: Roboto, sans-serif; font-size: 12px; font-weight: 200;" x="0" y="110.99999964237213" dx="0em" dy="0.3em" fill="rgb(50, 49, 63)" stroke="none" stroke-width="1px">4e-6</text><text style="text-anchor: end; visibility: hidden; font-family: Roboto, sans-serif; font-size: 12px; font-weight: 200;" x="0" y="88.7999997138977" dx="0em" dy="0.3em" fill="rgb(50, 49, 63)" stroke="none" stroke-width="1px">6e-6</text><text style="text-anchor: end; visibility: inherit; font-family: Roboto, sans-serif; font-size: 12px; font-weight: 200;" x="0" y="66.59999978542328" dx="0em" dy="0.3em" fill="rgb(50, 49, 63)" stroke="none" stroke-width="1px">8e-6</text><text style="text-anchor: end; visibility: hidden; font-family: Roboto, sans-serif; font-size: 12px; font-weight: 200;" x="0" y="44.39999985694885" dx="0em" dy="0.3em" fill="rgb(50, 49, 63)" stroke="none" stroke-width="1px">1e-5</text><text style="text-anchor: end; visibility: inherit; font-family: Roboto, sans-serif; font-size: 12px; font-weight: 200;" x="0" y="22.199999928474426" dx="0em" dy="0.3em" fill="rgb(50, 49, 63)" stroke="none" stroke-width="1px">1.2e-5</text><text style="text-anchor: end; visibility: hidden; font-family: Roboto, sans-serif; font-size: 12px; font-weight: 200;" x="0" y="0" dx="0em" dy="0.3em" fill="rgb(50, 49, 63)" stroke="none" stroke-width="1px">1.4e-5</text></g><line x1="72.29800224304199" y1="0" x2="72.29800224304199" y2="177.5999994277954" fill="rgb(0, 0, 0)" stroke="rgb(204, 204, 204)" stroke-width="1px"></line></g></g><g transform="translate(72, 0)" clip-path="url(#clip_0)"><clipPath id="clip_0"><rect width="257" height="177"></rect></clipPath><g><g><g><line x1="0" y1="0" x2="0" y2="177.5999994277954" fill="rgb(0, 0, 0)" stroke="rgb(60, 60, 60)" stroke-width="1px" opacity="0.25"></line><line x1="21.4751664797465" y1="0" x2="21.4751664797465" y2="177.5999994277954" fill="rgb(0, 0, 0)" stroke="rgb(60, 60, 60)" stroke-width="1px" opacity="0.25"></line><line x1="42.950332959493" y1="0" x2="42.950332959493" y2="177.5999994277954" fill="rgb(0, 0, 0)" stroke="rgb(60, 60, 60)" stroke-width="1px" opacity="0.25"></line><line x1="64.4254994392395" y1="0" x2="64.4254994392395" y2="177.5999994277954" fill="rgb(0, 0, 0)" stroke="rgb(60, 60, 60)" stroke-width="1px" opacity="0.25"></line><line x1="85.900665918986" y1="0" x2="85.900665918986" y2="177.5999994277954" fill="rgb(0, 0, 0)" stroke="rgb(60, 60, 60)" stroke-width="1px" opacity="0.25"></line><line x1="107.37583239873251" y1="0" x2="107.37583239873251" y2="177.5999994277954" fill="rgb(0, 0, 0)" stroke="rgb(60, 60, 60)" stroke-width="1px" opacity="0.25"></line><line x1="128.850998878479" y1="0" x2="128.850998878479" y2="177.5999994277954" fill="rgb(0, 0, 0)" stroke="rgb(60, 60, 60)" stroke-width="1px" opacity="0.25"></line><line x1="150.32616535822552" y1="0" x2="150.32616535822552" y2="177.5999994277954" fill="rgb(0, 0, 0)" stroke="rgb(60, 60, 60)" stroke-width="1px" opacity="0.25"></line><line x1="171.801331837972" y1="0" x2="171.801331837972" y2="177.5999994277954" fill="rgb(0, 0, 0)" stroke="rgb(60, 60, 60)" stroke-width="1px" opacity="0.25"></line><line x1="193.2764983177185" y1="0" x2="193.2764983177185" y2="177.5999994277954" fill="rgb(0, 0, 0)" stroke="rgb(60, 60, 60)" stroke-width="1px" opacity="0.25"></line><line x1="214.75166479746503" y1="0" x2="214.75166479746503" y2="177.5999994277954" fill="rgb(0, 0, 0)" stroke="rgb(60, 60, 60)" stroke-width="1px" opacity="0.25"></line><line x1="236.2268312772115" y1="0" x2="236.2268312772115" y2="177.5999994277954" fill="rgb(0, 0, 0)" stroke="rgb(60, 60, 60)" stroke-width="1px" opacity="0.25"></line><line x1="257.701997756958" y1="0" x2="257.701997756958" y2="177.5999994277954" fill="rgb(0, 0, 0)" stroke="rgb(60, 60, 60)" stroke-width="1px" opacity="0.25"></line></g><g><line x1="0" y1="177.5999994277954" x2="257.701997756958" y2="177.5999994277954" fill="rgb(0, 0, 0)" stroke="rgb(60, 60, 60)" stroke-width="1px" opacity="0.25"></line><line x1="0" y1="155.39999949932098" x2="257.701997756958" y2="155.39999949932098" fill="rgb(0, 0, 0)" stroke="rgb(60, 60, 60)" stroke-width="1px" opacity="0.25"></line><line x1="0" y1="133.19999957084656" x2="257.701997756958" y2="133.19999957084656" fill="rgb(0, 0, 0)" stroke="rgb(60, 60, 60)" stroke-width="1px" opacity="0.25"></line><line x1="0" y1="110.99999964237213" x2="257.701997756958" y2="110.99999964237213" fill="rgb(0, 0, 0)" stroke="rgb(60, 60, 60)" stroke-width="1px" opacity="0.25"></line><line x1="0" y1="88.7999997138977" x2="257.701997756958" y2="88.7999997138977" fill="rgb(0, 0, 0)" stroke="rgb(60, 60, 60)" stroke-width="1px" opacity="0.25"></line><line x1="0" y1="66.59999978542328" x2="257.701997756958" y2="66.59999978542328" fill="rgb(0, 0, 0)" stroke="rgb(60, 60, 60)" stroke-width="1px" opacity="0.25"></line><line x1="0" y1="44.39999985694885" x2="257.701997756958" y2="44.39999985694885" fill="rgb(0, 0, 0)" stroke="rgb(60, 60, 60)" stroke-width="1px" opacity="0.25"></line><line x1="0" y1="22.199999928474426" x2="257.701997756958" y2="22.199999928474426" fill="rgb(0, 0, 0)" stroke="rgb(60, 60, 60)" stroke-width="1px" opacity="0.25"></line><line x1="0" y1="0" x2="257.701997756958" y2="0" fill="rgb(0, 0, 0)" stroke="rgb(60, 60, 60)" stroke-width="1px" opacity="0.25"></line></g></g></g><g><g><line x1="0" y1="155.39999949932098" x2="257.701997756958" y2="155.39999949932098" fill="rgb(0, 0, 0)" stroke="rgb(153, 153, 153)" stroke-width="1.5px"></line></g></g><g><g><line x1="21.4751664797465" y1="0" x2="21.4751664797465" y2="177.5999994277954" fill="rgb(0, 0, 0)" stroke="rgb(153, 153, 153)" stroke-width="1.5px"></line></g></g><g><g><g><g><g><path style="fill: none;" stroke="rgb(204, 51, 17)" stroke-width="2px" d="M21.4751664797465,-7183.883469037756L25.7701997756958,155.39999949932098L30.0652330716451,155.39999949932098L34.3602663675944,155.39999949932098L38.6552996635437,155.39999949932098L42.950332959493,155.39999949932098L47.2453662554423,155.39999949932098L51.5403995513916,155.39999949932098L55.835432847340904,155.39999949932098L60.1304661432902,155.39999949932098L64.4254994392395,155.39999949932098L68.7205327351888,155.39999949932098L73.0155660311381,155.39999949932098L77.3105993270874,155.39999949932098L81.6056326230367,155.39999949932098L85.900665918986,155.39999949932098L90.1956992149353,155.39999949932098L94.4907325108846,155.39999949932098L98.78576580683391,155.39999949932098L103.0807991027832,155.39999949932098L107.37583239873251,155.39999949932098L111.67086569468181,155.39999949932098L115.9658989906311,155.39999949932098L120.2609322865804,155.39999949932098L124.55596558252971,155.39999949932098L128.850998878479,155.39999949932098L133.1460321744283,155.39999949932098L137.4410654703776,155.39999949932098L141.7360987663269,155.39999949932098L146.0311320622762,155.39999949932098L150.32616535822552,155.39999949932098L154.6211986541748,155.39999949932098L158.91623195012411,155.39999949932098L163.2112652460734,155.39999949932098L167.5062985420227,155.39999949932098L171.801331837972,155.39999949932098L176.0963651339213,155.39999949932098L180.3913984298706,155.39999949932098L184.68643172581992,155.39999949932098L188.9814650217692,155.39999949932098L193.2764983177185,155.39999949932098L197.57153161366782,155.39999949932098L201.8665649096171,155.39999949932098L206.1615982055664,155.39999949932098L210.45663150151572,155.39999949932098L214.75166479746503,155.39999949932098L219.0466980934143,155.39999949932098L223.34173138936362,155.39999949932098L227.6367646853129,155.39999949932098L231.9317979812622,155.39999949932098" fill="none"></path></g><g><path style="fill: none;" stroke="rgb(255, 112, 67)" stroke-width="2px" d="M21.4751664797465,149.8499995312148L25.7701997756958,149.8499995312148L30.0652330716451,149.8499995312148L34.3602663675944,149.8499995312148L38.6552996635437,149.8499995312148L42.950332959493,149.8499995312148L47.2453662554423,149.8499995312148L51.5403995513916,149.8499995312148L55.835432847340904,149.8499995312148L60.1304661432902,149.8499995312148L64.4254994392395,149.8499995312148L68.7205327351888,149.8499995312148L73.0155660311381,149.8499995312148L77.3105993270874,149.8499995312148L81.6056326230367,149.8499995312148L85.900665918986,149.8499995312148L90.1956992149353,149.8499995312148L94.4907325108846,149.8499995312148L98.78576580683391,149.8499995312148L103.0807991027832,149.8499995312148L107.37583239873251,149.8499995312148L111.67086569468181,149.8499995312148L115.9658989906311,149.8499995312148L120.2609322865804,149.8499995312148L124.55596558252971,149.8499995312148L128.850998878479,149.8499995312148L133.1460321744283,149.8499995312148L137.4410654703776,149.8499995312148L141.7360987663269,149.8499995312148L146.0311320622762,149.8499995312148L150.32616535822552,149.8499995312148L154.6211986541748,149.8499995312148L158.91623195012411,149.8499995312148L163.2112652460734,149.8499995312148L167.5062985420227,149.8499995312148L171.801331837972,149.8499995312148L176.0963651339213,149.8499995312148L180.3913984298706,149.8499995312148L184.68643172581992,149.8499995312148L188.9814650217692,149.8499995312148L193.2764983177185,149.8499995312148L197.57153161366782,149.8499995312148L201.8665649096171,149.8499995312148L206.1615982055664,149.8499995312148L210.45663150151572,149.8499995312148L214.75166479746503,149.8499995312148L219.0466980934143,149.8499995312148L223.34173138936362,149.8499995312148L227.6367646853129,149.8499995312148L231.9317979812622,149.8499995312148" fill="none"></path></g><g><path style="fill: none;" stroke="rgb(0, 119, 187)" stroke-width="2px" d="M21.4751664797465,44.39999256565354L25.7701997756958,44.39999256565354L30.0652330716451,44.39999256565354L34.3602663675944,44.39999256565354L38.6552996635437,44.39999256565354L42.950332959493,44.39999256565354L47.2453662554423,44.39999256565354L51.5403995513916,44.39999256565354L55.835432847340904,44.39999256565354L60.1304661432902,44.39999256565354L64.4254994392395,44.39999256565354L68.7205327351888,44.39999256565354L73.0155660311381,44.39999256565354L77.3105993270874,44.39999256565354L81.6056326230367,44.39999256565354L85.900665918986,44.39999256565354L90.1956992149353,44.39999256565354L94.4907325108846,44.39999256565354L98.78576580683391,44.39999256565354L103.0807991027832,44.39999256565354L107.37583239873251,44.39999256565354L111.67086569468181,44.39999256565354L115.9658989906311,44.39999256565354L120.2609322865804,44.39999256565354L124.55596558252971,44.39999256565354L128.850998878479,44.39999256565354L133.1460321744283,44.39999256565354L137.4410654703776,44.39999256565354L141.7360987663269,44.39999256565354L146.0311320622762,44.39999256565354L150.32616535822552,44.39999256565354L154.6211986541748,44.39999256565354L158.91623195012411,44.39999256565354L163.2112652460734,44.39999256565354L167.5062985420227,44.39999256565354L171.801331837972,44.39999256565354L176.0963651339213,44.39999256565354L180.3913984298706,44.39999256565354L184.68643172581992,44.39999256565354L188.9814650217692,44.39999256565354L193.2764983177185,44.39999256565354L197.57153161366782,44.39999256565354L201.8665649096171,44.39999256565354L206.1615982055664,44.39999256565354L210.45663150151572,44.39999256565354L214.75166479746503,44.39999256565354L219.0466980934143,44.39999256565354L223.34173138936362,44.39999256565354L227.6367646853129,44.39999256565354L231.9317979812622,44.39999256565354" fill="none"></path></g><g><path style="fill: none;" stroke="rgb(238, 51, 119)" stroke-width="2px" d="M21.4751664797465,-397.8391061848651L25.7701997756958,138.74999896404043L30.0652330716451,138.74999896404043L34.3602663675944,138.74999896404043L38.6552996635437,138.74999896404043L42.950332959493,138.74999896404043L47.2453662554423,138.74999896404043L51.5403995513916,138.74999896404043L55.835432847340904,138.74999896404043L60.1304661432902,138.74999896404043L64.4254994392395,138.74999896404043L68.7205327351888,138.74999896404043L73.0155660311381,138.74999896404043L77.3105993270874,138.74999896404043L81.6056326230367,138.74999896404043L85.900665918986,138.74999896404043L90.1956992149353,138.74999896404043L94.4907325108846,138.74999896404043L98.78576580683391,138.74999896404043L103.0807991027832,138.74999896404043L107.37583239873251,138.74999896404043L111.67086569468181,138.74999896404043L115.9658989906311,138.74999896404043L120.2609322865804,138.74999896404043L124.55596558252971,138.74999896404043L128.850998878479,138.74999896404043L133.1460321744283,138.74999896404043L137.4410654703776,138.74999896404043L141.7360987663269,138.74999896404043L146.0311320622762,138.74999896404043L150.32616535822552,138.74999896404043L154.6211986541748,138.74999896404043L158.91623195012411,138.74999896404043L163.2112652460734,138.74999896404043L167.5062985420227,138.74999896404043L171.801331837972,138.74999896404043L176.0963651339213,138.74999896404043L180.3913984298706,138.74999896404043L184.68643172581992,138.74999896404043L188.9814650217692,138.74999896404043L193.2764983177185,138.74999896404043L197.57153161366782,138.74999896404043L201.8665649096171,138.74999896404043L206.1615982055664,138.74999896404043L210.45663150151572,138.74999896404043L214.75166479746503,138.74999896404043L219.0466980934143,138.74999896404043L223.34173138936362,138.74999896404043L227.6367646853129,138.74999896404043L231.9317979812622,138.74999896404043" fill="none"></path></g><g><path style="fill: none;" stroke="rgb(51, 187, 238)" stroke-width="2px" d="M21.4751664797465,154.2899994899257L25.7701997756958,154.2899994899257L30.0652330716451,154.2899994899257L34.3602663675944,154.2899994899257L38.6552996635437,154.2899994899257L42.950332959493,154.2899994899257L47.2453662554423,154.2899994899257L51.5403995513916,154.2899994899257L55.835432847340904,154.2899994899257L60.1304661432902,154.2899994899257L64.4254994392395,154.2899994899257L68.7205327351888,154.2899994899257L73.0155660311381,154.2899994899257L77.3105993270874,154.2899994899257L81.6056326230367,154.2899994899257L85.900665918986,154.2899994899257L90.1956992149353,154.2899994899257L94.4907325108846,154.2899994899257L98.78576580683391,154.2899994899257L103.0807991027832,154.2899994899257L107.37583239873251,154.2899994899257L111.67086569468181,154.2899994899257L115.9658989906311,154.2899994899257L120.2609322865804,154.2899994899257L124.55596558252971,154.2899994899257L128.850998878479,154.2899994899257L133.1460321744283,154.2899994899257L137.4410654703776,154.2899994899257L141.7360987663269,154.2899994899257L146.0311320622762,154.2899994899257L150.32616535822552,154.2899994899257L154.6211986541748,154.2899994899257L158.91623195012411,154.2899994899257L163.2112652460734,154.2899994899257L167.5062985420227,154.2899994899257L171.801331837972,154.2899994899257L176.0963651339213,154.2899994899257L180.3913984298706,154.2899994899257L184.68643172581992,154.2899994899257L188.9814650217692,154.2899994899257L193.2764983177185,154.2899994899257L197.57153161366782,154.2899994899257L201.8665649096171,154.2899994899257L206.1615982055664,154.2899994899257L210.45663150151572,154.2899994899257L214.75166479746503,154.2899994899257L219.0466980934143,154.2899994899257L223.34173138936362,154.2899994899257L227.6367646853129,154.2899994899257L231.9317979812622,154.2899994899257" fill="none"></path></g></g></g></g></g></g><g transform="translate(72, 177)" clip-path="url(#clip_1)"><clipPath id="clip_1"><rect width="257" height="22"></rect></clipPath><g><g><line x1="0" y1="0" x2="0" y2="5" style="visibility: inherit;" fill="rgb(0, 0, 0)" stroke="rgb(204, 204, 204)" stroke-width="1px"></line><line x1="21.4751664797465" y1="0" x2="21.4751664797465" y2="5" style="visibility: inherit;" fill="rgb(0, 0, 0)" stroke="rgb(204, 204, 204)" stroke-width="1px"></line><line x1="42.950332959493" y1="0" x2="42.950332959493" y2="5" style="visibility: inherit;" fill="rgb(0, 0, 0)" stroke="rgb(204, 204, 204)" stroke-width="1px"></line><line x1="64.4254994392395" y1="0" x2="64.4254994392395" y2="5" style="visibility: inherit;" fill="rgb(0, 0, 0)" stroke="rgb(204, 204, 204)" stroke-width="1px"></line><line x1="85.900665918986" y1="0" x2="85.900665918986" y2="5" style="visibility: inherit;" fill="rgb(0, 0, 0)" stroke="rgb(204, 204, 204)" stroke-width="1px"></line><line x1="107.37583239873251" y1="0" x2="107.37583239873251" y2="5" style="visibility: inherit;" fill="rgb(0, 0, 0)" stroke="rgb(204, 204, 204)" stroke-width="1px"></line><line x1="128.850998878479" y1="0" x2="128.850998878479" y2="5" style="visibility: inherit;" fill="rgb(0, 0, 0)" stroke="rgb(204, 204, 204)" stroke-width="1px"></line><line x1="150.32616535822552" y1="0" x2="150.32616535822552" y2="5" style="visibility: inherit;" fill="rgb(0, 0, 0)" stroke="rgb(204, 204, 204)" stroke-width="1px"></line><line x1="171.801331837972" y1="0" x2="171.801331837972" y2="5" style="visibility: inherit;" fill="rgb(0, 0, 0)" stroke="rgb(204, 204, 204)" stroke-width="1px"></line><line x1="193.2764983177185" y1="0" x2="193.2764983177185" y2="5" style="visibility: inherit;" fill="rgb(0, 0, 0)" stroke="rgb(204, 204, 204)" stroke-width="1px"></line><line x1="214.75166479746503" y1="0" x2="214.75166479746503" y2="5" style="visibility: inherit;" fill="rgb(0, 0, 0)" stroke="rgb(204, 204, 204)" stroke-width="1px"></line><line x1="236.2268312772115" y1="0" x2="236.2268312772115" y2="5" style="visibility: inherit;" fill="rgb(0, 0, 0)" stroke="rgb(204, 204, 204)" stroke-width="1px"></line><line x1="257.701997756958" y1="0" x2="257.701997756958" y2="5" style="visibility: inherit;" fill="rgb(0, 0, 0)" stroke="rgb(204, 204, 204)" stroke-width="1px"></line></g><g transform="translate(0, 8)"><text style="text-anchor: middle; visibility: hidden; font-family: Roboto, sans-serif; font-size: 12px; font-weight: 200;" x="0" y="0" dx="0em" dy="0.95em" fill="rgb(50, 49, 63)" stroke="none" stroke-width="1px">-5</text><text style="text-anchor: middle; visibility: inherit; font-family: Roboto, sans-serif; font-size: 12px; font-weight: 200;" x="21.4751664797465" y="0" dx="0em" dy="0.95em" fill="rgb(50, 49, 63)" stroke="none" stroke-width="1px">0</text><text style="text-anchor: middle; visibility: inherit; font-family: Roboto, sans-serif; font-size: 12px; font-weight: 200;" x="42.950332959493" y="0" dx="0em" dy="0.95em" fill="rgb(50, 49, 63)" stroke="none" stroke-width="1px">5</text><text style="text-anchor: middle; visibility: inherit; font-family: Roboto, sans-serif; font-size: 12px; font-weight: 200;" x="64.4254994392395" y="0" dx="0em" dy="0.95em" fill="rgb(50, 49, 63)" stroke="none" stroke-width="1px">10</text><text style="text-anchor: middle; visibility: inherit; font-family: Roboto, sans-serif; font-size: 12px; font-weight: 200;" x="85.900665918986" y="0" dx="0em" dy="0.95em" fill="rgb(50, 49, 63)" stroke="none" stroke-width="1px">15</text><text style="text-anchor: middle; visibility: inherit; font-family: Roboto, sans-serif; font-size: 12px; font-weight: 200;" x="107.37583239873251" y="0" dx="0em" dy="0.95em" fill="rgb(50, 49, 63)" stroke="none" stroke-width="1px">20</text><text style="text-anchor: middle; visibility: inherit; font-family: Roboto, sans-serif; font-size: 12px; font-weight: 200;" x="128.850998878479" y="0" dx="0em" dy="0.95em" fill="rgb(50, 49, 63)" stroke="none" stroke-width="1px">25</text><text style="text-anchor: middle; visibility: inherit; font-family: Roboto, sans-serif; font-size: 12px; font-weight: 200;" x="150.32616535822552" y="0" dx="0em" dy="0.95em" fill="rgb(50, 49, 63)" stroke="none" stroke-width="1px">30</text><text style="text-anchor: middle; visibility: inherit; font-family: Roboto, sans-serif; font-size: 12px; font-weight: 200;" x="171.801331837972" y="0" dx="0em" dy="0.95em" fill="rgb(50, 49, 63)" stroke="none" stroke-width="1px">35</text><text style="text-anchor: middle; visibility: inherit; font-family: Roboto, sans-serif; font-size: 12px; font-weight: 200;" x="193.2764983177185" y="0" dx="0em" dy="0.95em" fill="rgb(50, 49, 63)" stroke="none" stroke-width="1px">40</text><text style="text-anchor: middle; visibility: inherit; font-family: Roboto, sans-serif; font-size: 12px; font-weight: 200;" x="214.75166479746503" y="0" dx="0em" dy="0.95em" fill="rgb(50, 49, 63)" stroke="none" stroke-width="1px">45</text><text style="text-anchor: middle; visibility: inherit; font-family: Roboto, sans-serif; font-size: 12px; font-weight: 200;" x="236.2268312772115" y="0" dx="0em" dy="0.95em" fill="rgb(50, 49, 63)" stroke="none" stroke-width="1px">50</text><text style="text-anchor: middle; visibility: hidden; font-family: Roboto, sans-serif; font-size: 12px; font-weight: 200;" x="257.701997756958" y="0" dx="0em" dy="0.95em" fill="rgb(50, 49, 63)" stroke="none" stroke-width="1px">55</text></g><line x1="0" y1="0" x2="257.701997756958" y2="0" fill="rgb(0, 0, 0)" stroke="rgb(204, 204, 204)" stroke-width="1px"></line></g></g></g></g></svg>