<svg viewBox="0 0 330 200" xmlns="http://www.w3.org/2000/svg"><g><g><g><g><g><line x1="51.53200149536133" y1="177.5999994277954" x2="46.53200149536133" y2="177.5999994277954" style="visibility: inherit;" fill="rgb(0, 0, 0)" stroke="rgb(204, 204, 204)" stroke-width="1px"></line><line x1="51.53200149536133" y1="161.45454493435946" x2="46.53200149536133" y2="161.45454493435946" style="visibility: inherit;" fill="rgb(0, 0, 0)" stroke="rgb(204, 204, 204)" stroke-width="1px"></line><line x1="51.53200149536133" y1="145.3090904409235" x2="46.53200149536133" y2="145.3090904409235" style="visibility: inherit;" fill="rgb(0, 0, 0)" stroke="rgb(204, 204, 204)" stroke-width="1px"></line><line x1="51.53200149536133" y1="129.16363594748756" x2="46.53200149536133" y2="129.16363594748756" style="visibility: inherit;" fill="rgb(0, 0, 0)" stroke="rgb(204, 204, 204)" stroke-width="1px"></line><line x1="51.53200149536133" y1="113.01818145405163" x2="46.53200149536133" y2="113.01818145405163" style="visibility: inherit;" fill="rgb(0, 0, 0)" stroke="rgb(204, 204, 204)" stroke-width="1px"></line><line x1="51.53200149536133" y1="96.87272696061567" x2="46.53200149536133" y2="96.87272696061567" style="visibility: inherit;" fill="rgb(0, 0, 0)" stroke="rgb(204, 204, 204)" stroke-width="1px"></line><line x1="51.53200149536133" y1="80.72727246717974" x2="46.53200149536133" y2="80.72727246717974" style="visibility: inherit;" fill="rgb(0, 0, 0)" stroke="rgb(204, 204, 204)" stroke-width="1px"></line><line x1="51.53200149536133" y1="64.58181797374378" x2="46.53200149536133" y2="64.58181797374378" style="visibility: inherit;" fill="rgb(0, 0, 0)" stroke="rgb(204, 204, 204)" stroke-width="1px"></line><line x1="51.53200149536133" y1="48.43636348030783" x2="46.53200149536133" y2="48.43636348030783" style="visibility: inherit;" fill="rgb(0, 0, 0)" stroke="rgb(204, 204, 204)" stroke-width="1px"></line><line x1="51.53200149536133" y1="32.290908986871884" x2="46.53200149536133" y2="32.290908986871884" style="visibility: inherit;" fill="rgb(0, 0, 0)" stroke="rgb(204, 204, 204)" stroke-width="1px"></line><line x1="51.53200149536133" y1="16.145454493435953" x2="46.53200149536133" y2="16.145454493435953" style="visibility: inherit;" fill="rgb(0, 0, 0)" stroke="rgb(204, 204, 204)" stroke-width="1px"></line><line x1="51.53200149536133" y1="0" x2="46.53200149536133" y2="0" style="visibility: inherit;" fill="rgb(0, 0, 0)" stroke="rgb(204, 204, 204)" stroke-width="1px"></line></g><g transform="translate(41.53200149536133, 0)"><text style="text-anchor: end; visibility: hidden; font-family: Roboto, sans-serif; font-size: 12px; font-weight: 200;" x="0" y="177.5999994277954" dx="0em" dy="0.3em" fill="rgb(50, 49, 63)" stroke="none" stroke-width="1px">-0.5</text><text style="text-anchor: end; visibility: inherit; font-family: Roboto, sans-serif; font-size: 12px; font-weight: 200;" x="0" y="161.45454493435946" dx="0em" dy="0.3em" fill="rgb(50, 49, 63)" stroke="none" stroke-width="1px">0</text><text style="text-anchor: end; visibility: hidden; font-family: Roboto, sans-serif; font-size: 12px; font-weight: 200;" x="0" y="145.3090904409235" dx="0em" dy="0.3em" fill="rgb(50, 49, 63)" stroke="none" stroke-width="1px">0.5</text><text style="text-anchor: end; visibility: inherit; font-family: Roboto, sans-serif; font-size: 12px; font-weight: 200;" x="0" y="129.16363594748756" dx="0em" dy="0.3em" fill="rgb(50, 49, 63)" stroke="none" stroke-width="1px">1</text><text style="text-anchor: end; visibility: hidden; font-family: Roboto, sans-serif; font-size: 12px; font-weight: 200;" x="0" y="113.01818145405163" dx="0em" dy="0.3em" fill="rgb(50, 49, 63)" stroke="none" stroke-width="1px">1.5</text><text style="text-anchor: end; visibility: inherit; font-family: Roboto, sans-serif; font-size: 12px; font-weight: 200;" x="0" y="96.87272696061567" dx="0em" dy="0.3em" fill="rgb(50, 49, 63)" stroke="none" stroke-width="1px">2</text><text style="text-anchor: end; visibility: hidden; font-family: Roboto, sans-serif; font-size: 12px; font-weight: 200;" x="0" y="80.72727246717974" dx="0em" dy="0.3em" fill="rgb(50, 49, 63)" stroke="none" stroke-width="1px">2.5</text><text style="text-anchor: end; visibility: inherit; font-family: Roboto, sans-serif; font-size: 12px; font-weight: 200;" x="0" y="64.58181797374378" dx="0em" dy="0.3em" fill="rgb(50, 49, 63)" stroke="none" stroke-width="1px">3</text><text style="text-anchor: end; visibility: hidden; font-family: Roboto, sans-serif; font-size: 12px; font-weight: 200;" x="0" y="48.43636348030783" dx="0em" dy="0.3em" fill="rgb(50, 49, 63)" stroke="none" stroke-width="1px">3.5</text><text style="text-anchor: end; visibility: inherit; font-family: Roboto, sans-serif; font-size: 12px; font-weight: 200;" x="0" y="32.290908986871884" dx="0em" dy="0.3em" fill="rgb(50, 49, 63)" stroke="none" stroke-width="1px">4</text><text style="text-anchor: end; visibility: hidden; font-family: Roboto, sans-serif; font-size: 12px; font-weight: 200;" x="0" y="16.145454493435953" dx="0em" dy="0.3em" fill="rgb(50, 49, 63)" stroke="none" stroke-width="1px">4.5</text><text style="text-anchor: end; visibility: hidden; font-family: Roboto, sans-serif; font-size: 12px; font-weight: 200;" x="0" y="0" dx="0em" dy="0.3em" fill="rgb(50, 49, 63)" stroke="none" stroke-width="1px">5</text></g><line x1="51.53200149536133" y1="0" x2="51.53200149536133" y2="177.5999994277954" fill="rgb(0, 0, 0)" stroke="rgb(204, 204, 204)" stroke-width="1px"></line></g></g><g transform="translate(51, 0)" clip-path="url(#clip_0)"><clipPath id="clip_0"><rect width="278" height="177"></rect></clipPath><g><g><g><line x1="0" y1="0" x2="0" y2="177.5999994277954" fill="rgb(0, 0, 0)" stroke="rgb(60, 60, 60)" stroke-width="1px" opacity="0.25"></line><line x1="23.205666542053223" y1="0" x2="23.205666542053223" y2="177.5999994277954" fill="rgb(0, 0, 0)" stroke="rgb(60, 60, 60)" stroke-width="1px" opacity="0.25"></line><line x1="46.411333084106445" y1="0" x2="46.411333084106445" y2="177.5999994277954" fill="rgb(0, 0, 0)" stroke="rgb(60, 60, 60)" stroke-width="1px" opacity="0.25"></line><line x1="69.61699962615967" y1="0" x2="69.61699962615967" y2="177.5999994277954" fill="rgb(0, 0, 0)" stroke="rgb(60, 60, 60)" stroke-width="1px" opacity="0.25"></line><line x1="92.82266616821289" y1="0" x2="92.82266616821289" y2="177.5999994277954" fill="rgb(0, 0, 0)" stroke="rgb(60, 60, 60)" stroke-width="1px" opacity="0.25"></line><line x1="116.02833271026611" y1="0" x2="116.02833271026611" y2="177.5999994277954" fill="rgb(0, 0, 0)" stroke="rgb(60, 60, 60)" stroke-width="1px" opacity="0.25"></line><line x1="139.23399925231934" y1="0" x2="139.23399925231934" y2="177.5999994277954" fill="rgb(0, 0, 0)" stroke="rgb(60, 60, 60)" stroke-width="1px" opacity="0.25"></line><line x1="162.43966579437256" y1="0" x2="162.43966579437256" y2="177.5999994277954" fill="rgb(0, 0, 0)" stroke="rgb(60, 60, 60)" stroke-width="1px" opacity="0.25"></line><line x1="185.64533233642578" y1="0" x2="185.64533233642578" y2="177.5999994277954" fill="rgb(0, 0, 0)" stroke="rgb(60, 60, 60)" stroke-width="1px" opacity="0.25"></line><line x1="208.850998878479" y1="0" x2="208.850998878479" y2="177.5999994277954" fill="rgb(0, 0, 0)" stroke="rgb(60, 60, 60)" stroke-width="1px" opacity="0.25"></line><line x1="232.05666542053223" y1="0" x2="232.05666542053223" y2="177.5999994277954" fill="rgb(0, 0, 0)" stroke="rgb(60, 60, 60)" stroke-width="1px" opacity="0.25"></line><line x1="255.26233196258545" y1="0" x2="255.26233196258545" y2="177.5999994277954" fill="rgb(0, 0, 0)" stroke="rgb(60, 60, 60)" stroke-width="1px" opacity="0.25"></line><line x1="278.4679985046387" y1="0" x2="278.4679985046387" y2="177.5999994277954" fill="rgb(0, 0, 0)" stroke="rgb(60, 60, 60)" stroke-width="1px" opacity="0.25"></line></g><g><line x1="0" y1="177.5999994277954" x2="278.4679985046387" y2="177.5999994277954" fill="rgb(0, 0, 0)" stroke="rgb(60, 60, 60)" stroke-width="1px" opacity="0.25"></line><line x1="0" y1="161.45454493435946" x2="278.4679985046387" y2="161.45454493435946" fill="rgb(0, 0, 0)" stroke="rgb(60, 60, 60)" stroke-width="1px" opacity="0.25"></line><line x1="0" y1="145.3090904409235" x2="278.4679985046387" y2="145.3090904409235" fill="rgb(0, 0, 0)" stroke="rgb(60, 60, 60)" stroke-width="1px" opacity="0.25"></line><line x1="0" y1="129.16363594748756" x2="278.4679985046387" y2="129.16363594748756" fill="rgb(0, 0, 0)" stroke="rgb(60, 60, 60)" stroke-width="1px" opacity="0.25"></line><line x1="0" y1="113.01818145405163" x2="278.4679985046387" y2="113.01818145405163" fill="rgb(0, 0, 0)" stroke="rgb(60, 60, 60)" stroke-width="1px" opacity="0.25"></line><line x1="0" y1="96.87272696061567" x2="278.4679985046387" y2="96.87272696061567" fill="rgb(0, 0, 0)" stroke="rgb(60, 60, 60)" stroke-width="1px" opacity="0.25"></line><line x1="0" y1="80.72727246717974" x2="278.4679985046387" y2="80.72727246717974" fill="rgb(0, 0, 0)" stroke="rgb(60, 60, 60)" stroke-width="1px" opacity="0.25"></line><line x1="0" y1="64.58181797374378" x2="278.4679985046387" y2="64.58181797374378" fill="rgb(0, 0, 0)" stroke="rgb(60, 60, 60)" stroke-width="1px" opacity="0.25"></line><line x1="0" y1="48.43636348030783" x2="278.4679985046387" y2="48.43636348030783" fill="rgb(0, 0, 0)" stroke="rgb(60, 60, 60)" stroke-width="1px" opacity="0.25"></line><line x1="0" y1="32.290908986871884" x2="278.4679985046387" y2="32.290908986871884" fill="rgb(0, 0, 0)" stroke="rgb(60, 60, 60)" stroke-width="1px" opacity="0.25"></line><line x1="0" y1="16.145454493435953" x2="278.4679985046387" y2="16.145454493435953" fill="rgb(0, 0, 0)" stroke="rgb(60, 60, 60)" stroke-width="1px" opacity="0.25"></line><line x1="0" y1="0" x2="278.4679985046387" y2="0" fill="rgb(0, 0, 0)" stroke="rgb(60, 60, 60)" stroke-width="1px" opacity="0.25"></line></g></g></g><g><g><line x1="0" y1="161.45454493435946" x2="278.4679985046387" y2="161.45454493435946" fill="rgb(0, 0, 0)" stroke="rgb(153, 153, 153)" stroke-width="1.5px"></line></g></g><g><g><line x1="23.205666542053223" y1="0" x2="23.205666542053223" y2="177.5999994277954" fill="rgb(0, 0, 0)" stroke="rgb(153, 153, 153)" stroke-width="1.5px"></line></g></g><g><g><g><g><g><path style="fill: none;" stroke="rgb(204, 51, 17)" stroke-width="2px" d="M23.205666542053223,83.6327201229466L27.846799850463867,85.1442162284727L32.48793315887451,85.1442162284727L37.129066467285156,85.1442162284727L41.7701997756958,85.1442162284727L46.411333084106445,85.1442162284727L51.05246639251708,85.1442162284727L55.693599700927734,85.1442162284727L60.33473300933838,85.1442162284727L64.97586631774902,85.1442162284727L69.61699962615967,85.1442162284727L74.25813293457031,85.1442162284727L78.89926624298096,85.1442162284727L83.5403995513916,85.1442162284727L88.18153285980225,85.1442162284727L92.82266616821289,85.1442162284727L97.46379947662354,85.1442162284727L102.10493278503417,85.1442162284727L106.74606609344484,85.1442162284727L111.38719940185547,85.1442162284727L116.02833271026611,85.1442162284727L120.66946601867676,85.1442162284727L125.3105993270874,85.1442162284727L129.95173263549805,85.1442162284727L134.5928659439087,85.1442162284727L139.23399925231934,85.1442162284727L143.87513256073,85.1442162284727L148.51626586914062,85.1442162284727L153.15739917755127,85.1442162284727L157.7985324859619,85.1442162284727L162.43966579437256,85.1442162284727L167.0807991027832,85.1442162284727L171.72193241119385,85.1442162284727L176.3630657196045,85.1442162284727L181.00419902801514,85.1442162284727L185.64533233642578,85.1442162284727L190.28646564483643,85.1442162284727L194.92759895324707,85.1442162284727L199.56873226165771,85.1442162284727L204.20986557006833,85.1442162284727L208.850998878479,85.1442162284727L213.49213218688968,85.1442162284727L218.1332654953003,85.1442162284727L222.77439880371094,85.1442162284727L227.41553211212158,85.1442162284727L232.05666542053223,85.1442162284727L236.69779872894287,85.1442162284727L241.33893203735352,85.1442162284727L245.98006534576416,85.1442162284727L250.6211986541748,85.1442162284727" fill="none"></path></g><g><path style="fill: none;" stroke="rgb(255, 112, 67)" stroke-width="2px" d="M23.205666542053223,115.31138195686164L27.846799850463867,115.34760073864969L32.48793315887451,115.38053215306107L37.129066467285156,115.41154272868916L41.7701997756958,115.44020518476246L46.411333084106445,115.46695835018141L51.05246639251708,115.4919177062356L55.693599700927734,115.5157645925335L60.33473300933838,115.5385567497199L64.97586631774902,115.56006321521569L69.61699962615967,115.58066892665278L74.25813293457031,115.60025840274155L78.89926624298096,115.61881239660046L83.5403995513916,115.63704689222484L88.18153285980225,115.65418431559827L92.82266616821289,115.67094450009239L97.46379947662354,115.68741598136256L102.10493278503417,115.70340629059281L106.74606609344484,115.71918488412553L111.38719940185547,115.73432833056556L116.02833271026611,115.74892516556822L120.66946601867676,115.76350275368934L125.3105993270874,115.77754527850203L129.95173263549805,115.79170328460434L134.5928659439087,115.80519149922705L139.23399925231934,115.81869896073138L143.87513256073,115.83183688210907L148.51626586914062,115.84492091221829L153.15739917755127,115.85753531841654L157.7985324859619,115.87028445278598L162.43966579437256,115.88249467447073L167.0807991027832,115.89480882931609L171.72193241119385,115.9071576285483L176.3630657196045,115.9192215739329L181.00419902801514,115.93115848989898L185.64533233642578,115.94311850212297L190.28646564483643,115.9549283886705L194.92759895324707,115.96673057646538L199.56873226165771,115.97825945854161L204.20986557006833,115.9897998887468L208.850998878479,116.00109010949124L213.49213218688968,116.0125112090305L218.1332654953003,116.02352427467996L222.77439880371094,116.03447575030829L227.41553211212158,116.04564279101052L232.05666542053223,116.05676748857321L236.69779872894287,116.06785754174904L241.33893203735352,116.07894759492486L245.98006534576416,116.08975279425307L250.6211986541748,116.10043096416274" fill="none"></path></g><g><path style="fill: none;" stroke="rgb(0, 119, 187)" stroke-width="2px" d="M23.205666542053223,52.66286319758104L27.846799850463867,64.40646348489557L32.48793315887451,72.97636847825834L37.129066467285156,79.4398562559512L41.7701997756958,84.42403641289972L46.411333084106445,88.3588996814721L51.05246639251708,91.53374208956704L55.693599700927734,94.13396499822602L60.33473300933838,96.30486696599638L64.97586631774902,98.14260541333358L69.61699962615967,99.72029154466962L74.25813293457031,101.08963788147756L78.89926624298096,102.2889957600264L83.5403995513916,103.35159299670406L88.18153285980225,104.2943168054232L92.82266616821289,105.14186478464829L97.46379947662354,105.90844883175009L102.10493278503417,106.6039310488586L106.74606609344484,107.23859696949889L111.38719940185547,107.82260124840121L116.02833271026611,108.36213753206329L120.66946601867676,108.86073184919357L125.3105993270874,109.3233922383834L129.95173263549805,109.75744406276841L134.5928659439087,110.16363410135453L139.23399925231934,110.5434944059168L143.87513256073,110.90127083853538L148.51626586914062,111.23716356677892L153.15739917755127,111.5595680803997L157.7985324859619,111.86301441564807L162.43966579437256,112.14754491566352L167.0807991027832,112.41933013068586L171.72193241119385,112.67774646175137L176.3630657196045,112.9239679686374L181.00419902801514,113.1644885491946L185.64533233642578,113.39234083228506L190.28646564483643,113.608009839325L194.92759895324707,113.81737356795401L199.56873226165771,114.01577042344937L204.20986557006833,114.20666484449849L208.850998878479,114.39143875719995L213.49213218688968,114.57142019638394L218.1332654953003,114.74244798624929L222.77439880371094,114.90457601806446L227.41553211212158,115.06209634642548L232.05666542053223,115.2190854608544L236.69779872894287,115.36822569696837L241.33893203735352,115.5132894435602L245.98006534576416,115.652975611434L250.6211986541748,115.78817725589586" fill="none"></path></g><g><path style="fill: none;" stroke="rgb(238, 51, 119)" stroke-width="2px" d="M23.205666542053223,106.62405943763207L27.846799850463867,107.1757520517104L32.48793315887451,107.27500052135025L37.129066467285156,107.37017250146799L41.7701997756958,107.46335050465233L46.411333084106445,107.55409955137922L51.05246639251708,107.64280457928056L55.693599700927734,107.73042408305989L60.33473300933838,107.81671170263273L64.97586631774902,107.90225639257595L69.61699962615967,107.98610350756236L74.25813293457031,108.0689921278453L78.89926624298096,108.15048342452431L83.5403995513916,108.23182844490321L88.18153285980225,108.31175689479663L92.82266616821289,108.39002626349641L97.46379947662354,108.46819169903559L102.10493278503417,108.5446441621127L106.74606609344484,108.62111972144771L111.38719940185547,108.69646741352118L116.02833271026611,108.77126079540469L120.66946601867676,108.84505718882149L125.3105993270874,108.9176795224609L129.95173263549805,108.98972829902874L134.5928659439087,109.06073774399039L139.23399925231934,109.13059622543257L143.87513256073,109.2003623218431L148.51626586914062,109.26901594849734L153.15739917755127,109.33710371683266L157.7985324859619,109.40468721687014L162.43966579437256,109.47175874985717L167.0807991027832,109.53811429884883L171.72193241119385,109.6027376284968L176.3630657196045,109.66816547779551L181.00419902801514,109.73181106585838L185.64533233642578,109.79499857813926L190.28646564483643,109.85818993979645L194.92759895324707,109.92076540124256L199.56873226165771,109.98212830914811L204.20986557006833,110.04349121705367L208.850998878479,110.10378784771878L213.49213218688968,110.16315677869095L218.1332654953003,110.22189056257042L222.77439880371094,110.28088610403961L227.41553211212158,110.33930808843724L232.05666542053223,110.39675618062607L236.69779872894287,110.45354987884065L241.33893203735352,110.51026658952881L245.98006534576416,110.56612873867412L250.6211986541748,110.62135189135044" fill="none"></path></g><g><path style="fill: none;" stroke="rgb(51, 187, 238)" stroke-width="2px" d="M23.205666542053223,26.479243800074318L27.846799850463867,26.703708632003817L32.48793315887451,26.926679905921446L37.129066467285156,27.148727329522444L41.7701997756958,27.369835505301545L46.411333084106445,27.589942843237623L51.05246639251708,27.809434280962616L55.693599700927734,28.027740110781295L60.33473300933838,28.24518368030443L64.97586631774902,28.46168800200567L69.61699962615967,28.677206883369188L74.25813293457031,28.89204827450051L78.89926624298096,29.106073597852138L83.5403995513916,29.319298250929357L88.18153285980225,29.531398886121345L92.82266616821289,29.742652658523095L97.46379947662354,29.953290530713765L102.10493278503417,30.16289677005088L106.74606609344484,30.37167154410302L111.38719940185547,30.579938200481017L116.02833271026611,30.787219416521268L120.66946601867676,30.993869334845176L125.3105993270874,31.199687787884123L129.95173263549805,31.404844148196144L134.5928659439087,31.609153645717925L139.23399925231934,31.812693267975856L143.87513256073,32.0158171575913L148.51626586914062,32.21789401684791L153.15739917755127,32.41906242329317L157.7985324859619,32.619715013311634L162.43966579437256,32.81982869064541L167.0807991027832,33.019580526605175L171.72193241119385,33.218031273369014L176.3630657196045,33.416058588737755L181.00419902801514,33.61340841387428L185.64533233642578,33.8101962300682L190.28646564483643,34.006075593450774L194.92759895324707,34.20164700672782L199.56873226165771,34.39617138964601L204.20986557006833,34.59003367983727L208.850998878479,34.783511032396625L213.49213218688968,34.9762954972185L218.1332654953003,35.16825619550806L222.77439880371094,35.35990894369206L227.41553211212158,35.550668636569995L232.05666542053223,35.740827826742134L236.69779872894287,35.93057128427178L241.33893203735352,36.11956796279549L245.98006534576416,36.307925644850215L250.6211986541748,36.49585989550981" fill="none"></path></g></g></g></g></g></g><g transform="translate(51, 177)" clip-path="url(#clip_1)"><clipPath id="clip_1"><rect width="278" height="22"></rect></clipPath><g><g><line x1="0" y1="0" x2="0" y2="5" style="visibility: inherit;" fill="rgb(0, 0, 0)" stroke="rgb(204, 204, 204)" stroke-width="1px"></line><line x1="23.205666542053223" y1="0" x2="23.205666542053223" y2="5" style="visibility: inherit;" fill="rgb(0, 0, 0)" stroke="rgb(204, 204, 204)" stroke-width="1px"></line><line x1="46.411333084106445" y1="0" x2="46.411333084106445" y2="5" style="visibility: inherit;" fill="rgb(0, 0, 0)" stroke="rgb(204, 204, 204)" stroke-width="1px"></line><line x1="69.61699962615967" y1="0" x2="69.61699962615967" y2="5" style="visibility: inherit;" fill="rgb(0, 0, 0)" stroke="rgb(204, 204, 204)" stroke-width="1px"></line><line x1="92.82266616821289" y1="0" x2="92.82266616821289" y2="5" style="visibility: inherit;" fill="rgb(0, 0, 0)" stroke="rgb(204, 204, 204)" stroke-width="1px"></line><line x1="116.02833271026611" y1="0" x2="116.02833271026611" y2="5" style="visibility: inherit;" fill="rgb(0, 0, 0)" stroke="rgb(204, 204, 204)" stroke-width="1px"></line><line x1="139.23399925231934" y1="0" x2="139.23399925231934" y2="5" style="visibility: inherit;" fill="rgb(0, 0, 0)" stroke="rgb(204, 204, 204)" stroke-width="1px"></line><line x1="162.43966579437256" y1="0" x2="162.43966579437256" y2="5" style="visibility: inherit;" fill="rgb(0, 0, 0)" stroke="rgb(204, 204, 204)" stroke-width="1px"></line><line x1="185.64533233642578" y1="0" x2="185.64533233642578" y2="5" style="visibility: inherit;" fill="rgb(0, 0, 0)" stroke="rgb(204, 204, 204)" stroke-width="1px"></line><line x1="208.850998878479" y1="0" x2="208.850998878479" y2="5" style="visibility: inherit;" fill="rgb(0, 0, 0)" stroke="rgb(204, 204, 204)" stroke-width="1px"></line><line x1="232.05666542053223" y1="0" x2="232.05666542053223" y2="5" style="visibility: inherit;" fill="rgb(0, 0, 0)" stroke="rgb(204, 204, 204)" stroke-width="1px"></line><line x1="255.26233196258545" y1="0" x2="255.26233196258545" y2="5" style="visibility: inherit;" fill="rgb(0, 0, 0)" stroke="rgb(204, 204, 204)" stroke-width="1px"></line><line x1="278.4679985046387" y1="0" x2="278.4679985046387" y2="5" style="visibility: inherit;" fill="rgb(0, 0, 0)" stroke="rgb(204, 204, 204)" stroke-width="1px"></line></g><g transform="translate(0, 8)"><text style="text-anchor: middle; visibility: hidden; font-family: Roboto, sans-serif; font-size: 12px; font-weight: 200;" x="0" y="0" dx="0em" dy="0.95em" fill="rgb(50, 49, 63)" stroke="none" stroke-width="1px">-5</text><text style="text-anchor: middle; visibility: inherit; font-family: Roboto, sans-serif; font-size: 12px; font-weight: 200;" x="23.205666542053223" y="0" dx="0em" dy="0.95em" fill="rgb(50, 49, 63)" stroke="none" stroke-width="1px">0</text><text style="text-anchor: middle; visibility: inherit; font-family: Roboto, sans-serif; font-size: 12px; font-weight: 200;" x="46.411333084106445" y="0" dx="0em" dy="0.95em" fill="rgb(50, 49, 63)" stroke="none" stroke-width="1px">5</text><text style="text-anchor: middle; visibility: inherit; font-family: Roboto, sans-serif; font-size: 12px; font-weight: 200;" x="69.61699962615967" y="0" dx="0em" dy="0.95em" fill="rgb(50, 49, 63)" stroke="none" stroke-width="1px">10</text><text style="text-anchor: middle; visibility: inherit; font-family: Roboto, sans-serif; font-size: 12px; font-weight: 200;" x="92.82266616821289" y="0" dx="0em" dy="0.95em" fill="rgb(50, 49, 63)" stroke="none" stroke-width="1px">15</text><text style="text-anchor: middle; visibility: inherit; font-family: Roboto, sans-serif; font-size: 12px; font-weight: 200;" x="116.02833271026611" y="0" dx="0em" dy="0.95em" fill="rgb(50, 49, 63)" stroke="none" stroke-width="1px">20</text><text style="text-anchor: middle; visibility: inherit; font-family: Roboto, sans-serif; font-size: 12px; font-weight: 200;" x="139.23399925231934" y="0" dx="0em" dy="0.95em" fill="rgb(50, 49, 63)" stroke="none" stroke-width="1px">25</text><text style="text-anchor: middle; visibility: inherit; font-family: Roboto, sans-serif; font-size: 12px; font-weight: 200;" x="162.43966579437256" y="0" dx="0em" dy="0.95em" fill="rgb(50, 49, 63)" stroke="none" stroke-width="1px">30</text><text style="text-anchor: middle; visibility: inherit; font-family: Roboto, sans-serif; font-size: 12px; font-weight: 200;" x="185.64533233642578" y="0" dx="0em" dy="0.95em" fill="rgb(50, 49, 63)" stroke="none" stroke-width="1px">35</text><text style="text-anchor: middle; visibility: inherit; font-family: Roboto, sans-serif; font-size: 12px; font-weight: 200;" x="208.850998878479" y="0" dx="0em" dy="0.95em" fill="rgb(50, 49, 63)" stroke="none" stroke-width="1px">40</text><text style="text-anchor: middle; visibility: inherit; font-family: Roboto, sans-serif; font-size: 12px; font-weight: 200;" x="232.05666542053223" y="0" dx="0em" dy="0.95em" fill="rgb(50, 49, 63)" stroke="none" stroke-width="1px">45</text><text style="text-anchor: middle; visibility: inherit; font-family: Roboto, sans-serif; font-size: 12px; font-weight: 200;" x="255.26233196258545" y="0" dx="0em" dy="0.95em" fill="rgb(50, 49, 63)" stroke="none" stroke-width="1px">50</text><text style="text-anchor: middle; visibility: hidden; font-family: Roboto, sans-serif; font-size: 12px; font-weight: 200;" x="278.4679985046387" y="0" dx="0em" dy="0.95em" fill="rgb(50, 49, 63)" stroke="none" stroke-width="1px">55</text></g><line x1="0" y1="0" x2="278.4679985046387" y2="0" fill="rgb(0, 0, 0)" stroke="rgb(204, 204, 204)" stroke-width="1px"></line></g></g></g></g></svg>