<svg viewBox="0 0 330 200" xmlns="http://www.w3.org/2000/svg"><g><g><g><g><g><line x1="72.29800224304199" y1="177.5999994277954" x2="67.29800224304199" y2="177.5999994277954" style="visibility: inherit;" fill="rgb(0, 0, 0)" stroke="rgb(204, 204, 204)" stroke-width="1px"></line><line x1="72.29800224304199" y1="163.9384610102727" x2="67.29800224304199" y2="163.9384610102727" style="visibility: inherit;" fill="rgb(0, 0, 0)" stroke="rgb(204, 204, 204)" stroke-width="1px"></line><line x1="72.29800224304199" y1="150.27692259274997" x2="67.29800224304199" y2="150.27692259274997" style="visibility: inherit;" fill="rgb(0, 0, 0)" stroke="rgb(204, 204, 204)" stroke-width="1px"></line><line x1="72.29800224304199" y1="136.61538417522723" x2="67.29800224304199" y2="136.61538417522723" style="visibility: inherit;" fill="rgb(0, 0, 0)" stroke="rgb(204, 204, 204)" stroke-width="1px"></line><line x1="72.29800224304199" y1="122.95384575770451" x2="67.29800224304199" y2="122.95384575770451" style="visibility: inherit;" fill="rgb(0, 0, 0)" stroke="rgb(204, 204, 204)" stroke-width="1px"></line><line x1="72.29800224304199" y1="109.2923073401818" x2="67.29800224304199" y2="109.2923073401818" style="visibility: inherit;" fill="rgb(0, 0, 0)" stroke="rgb(204, 204, 204)" stroke-width="1px"></line><line x1="72.29800224304199" y1="95.63076892265906" x2="67.29800224304199" y2="95.63076892265906" style="visibility: inherit;" fill="rgb(0, 0, 0)" stroke="rgb(204, 204, 204)" stroke-width="1px"></line><line x1="72.29800224304199" y1="81.96923050513635" x2="67.29800224304199" y2="81.96923050513635" style="visibility: inherit;" fill="rgb(0, 0, 0)" stroke="rgb(204, 204, 204)" stroke-width="1px"></line><line x1="72.29800224304199" y1="68.30769208761362" x2="67.29800224304199" y2="68.30769208761362" style="visibility: inherit;" fill="rgb(0, 0, 0)" stroke="rgb(204, 204, 204)" stroke-width="1px"></line><line x1="72.29800224304199" y1="54.6461536700909" x2="67.29800224304199" y2="54.6461536700909" style="visibility: inherit;" fill="rgb(0, 0, 0)" stroke="rgb(204, 204, 204)" stroke-width="1px"></line><line x1="72.29800224304199" y1="40.98461525256816" x2="67.29800224304199" y2="40.98461525256816" style="visibility: inherit;" fill="rgb(0, 0, 0)" stroke="rgb(204, 204, 204)" stroke-width="1px"></line><line x1="72.29800224304199" y1="27.32307683504545" x2="67.29800224304199" y2="27.32307683504545" style="visibility: inherit;" fill="rgb(0, 0, 0)" stroke="rgb(204, 204, 204)" stroke-width="1px"></line><line x1="72.29800224304199" y1="13.661538417522715" x2="67.29800224304199" y2="13.661538417522715" style="visibility: inherit;" fill="rgb(0, 0, 0)" stroke="rgb(204, 204, 204)" stroke-width="1px"></line><line x1="72.29800224304199" y1="0" x2="67.29800224304199" y2="0" style="visibility: inherit;" fill="rgb(0, 0, 0)" stroke="rgb(204, 204, 204)" stroke-width="1px"></line></g><g transform="translate(62.29800224304199, 0)"><text style="text-anchor: end; visibility: hidden; font-family: Roboto, sans-serif; font-size: 12px; font-weight: 200;" x="0" y="177.5999994277954" dx="0em" dy="0.3em" fill="rgb(50, 49, 63)" stroke="none" stroke-width="1px">-100</text><text style="text-anchor: end; visibility: inherit; font-family: Roboto, sans-serif; font-size: 12px; font-weight: 200;" x="0" y="163.9384610102727" dx="0em" dy="0.3em" fill="rgb(50, 49, 63)" stroke="none" stroke-width="1px">0</text><text style="text-anchor: end; visibility: hidden; font-family: Roboto, sans-serif; font-size: 12px; font-weight: 200;" x="0" y="150.27692259274997" dx="0em" dy="0.3em" fill="rgb(50, 49, 63)" stroke="none" stroke-width="1px">100</text><text style="text-anchor: end; visibility: inherit; font-family: Roboto, sans-serif; font-size: 12px; font-weight: 200;" x="0" y="136.61538417522723" dx="0em" dy="0.3em" fill="rgb(50, 49, 63)" stroke="none" stroke-width="1px">200</text><text style="text-anchor: end; visibility: hidden; font-family: Roboto, sans-serif; font-size: 12px; font-weight: 200;" x="0" y="122.95384575770451" dx="0em" dy="0.3em" fill="rgb(50, 49, 63)" stroke="none" stroke-width="1px">300</text><text style="text-anchor: end; visibility: inherit; font-family: Roboto, sans-serif; font-size: 12px; font-weight: 200;" x="0" y="109.2923073401818" dx="0em" dy="0.3em" fill="rgb(50, 49, 63)" stroke="none" stroke-width="1px">400</text><text style="text-anchor: end; visibility: hidden; font-family: Roboto, sans-serif; font-size: 12px; font-weight: 200;" x="0" y="95.63076892265906" dx="0em" dy="0.3em" fill="rgb(50, 49, 63)" stroke="none" stroke-width="1px">500</text><text style="text-anchor: end; visibility: inherit; font-family: Roboto, sans-serif; font-size: 12px; font-weight: 200;" x="0" y="81.96923050513635" dx="0em" dy="0.3em" fill="rgb(50, 49, 63)" stroke="none" stroke-width="1px">600</text><text style="text-anchor: end; visibility: hidden; font-family: Roboto, sans-serif; font-size: 12px; font-weight: 200;" x="0" y="68.30769208761362" dx="0em" dy="0.3em" fill="rgb(50, 49, 63)" stroke="none" stroke-width="1px">700</text><text style="text-anchor: end; visibility: inherit; font-family: Roboto, sans-serif; font-size: 12px; font-weight: 200;" x="0" y="54.6461536700909" dx="0em" dy="0.3em" fill="rgb(50, 49, 63)" stroke="none" stroke-width="1px">800</text><text style="text-anchor: end; visibility: hidden; font-family: Roboto, sans-serif; font-size: 12px; font-weight: 200;" x="0" y="40.98461525256816" dx="0em" dy="0.3em" fill="rgb(50, 49, 63)" stroke="none" stroke-width="1px">900</text><text style="text-anchor: end; visibility: inherit; font-family: Roboto, sans-serif; font-size: 12px; font-weight: 200;" x="0" y="27.32307683504545" dx="0em" dy="0.3em" fill="rgb(50, 49, 63)" stroke="none" stroke-width="1px">1e+3</text><text style="text-anchor: end; visibility: hidden; font-family: Roboto, sans-serif; font-size: 12px; font-weight: 200;" x="0" y="13.661538417522715" dx="0em" dy="0.3em" fill="rgb(50, 49, 63)" stroke="none" stroke-width="1px">1.1e+3</text><text style="text-anchor: end; visibility: hidden; font-family: Roboto, sans-serif; font-size: 12px; font-weight: 200;" x="0" y="0" dx="0em" dy="0.3em" fill="rgb(50, 49, 63)" stroke="none" stroke-width="1px">1.2e+3</text></g><line x1="72.29800224304199" y1="0" x2="72.29800224304199" y2="177.5999994277954" fill="rgb(0, 0, 0)" stroke="rgb(204, 204, 204)" stroke-width="1px"></line></g></g><g transform="translate(72, 0)" clip-path="url(#clip_0)"><clipPath id="clip_0"><rect width="257" height="177"></rect></clipPath><g><g><g><line x1="0" y1="0" x2="0" y2="177.5999994277954" fill="rgb(0, 0, 0)" stroke="rgb(60, 60, 60)" stroke-width="1px" opacity="0.25"></line><line x1="21.4751664797465" y1="0" x2="21.4751664797465" y2="177.5999994277954" fill="rgb(0, 0, 0)" stroke="rgb(60, 60, 60)" stroke-width="1px" opacity="0.25"></line><line x1="42.950332959493" y1="0" x2="42.950332959493" y2="177.5999994277954" fill="rgb(0, 0, 0)" stroke="rgb(60, 60, 60)" stroke-width="1px" opacity="0.25"></line><line x1="64.4254994392395" y1="0" x2="64.4254994392395" y2="177.5999994277954" fill="rgb(0, 0, 0)" stroke="rgb(60, 60, 60)" stroke-width="1px" opacity="0.25"></line><line x1="85.900665918986" y1="0" x2="85.900665918986" y2="177.5999994277954" fill="rgb(0, 0, 0)" stroke="rgb(60, 60, 60)" stroke-width="1px" opacity="0.25"></line><line x1="107.37583239873251" y1="0" x2="107.37583239873251" y2="177.5999994277954" fill="rgb(0, 0, 0)" stroke="rgb(60, 60, 60)" stroke-width="1px" opacity="0.25"></line><line x1="128.850998878479" y1="0" x2="128.850998878479" y2="177.5999994277954" fill="rgb(0, 0, 0)" stroke="rgb(60, 60, 60)" stroke-width="1px" opacity="0.25"></line><line x1="150.32616535822552" y1="0" x2="150.32616535822552" y2="177.5999994277954" fill="rgb(0, 0, 0)" stroke="rgb(60, 60, 60)" stroke-width="1px" opacity="0.25"></line><line x1="171.801331837972" y1="0" x2="171.801331837972" y2="177.5999994277954" fill="rgb(0, 0, 0)" stroke="rgb(60, 60, 60)" stroke-width="1px" opacity="0.25"></line><line x1="193.2764983177185" y1="0" x2="193.2764983177185" y2="177.5999994277954" fill="rgb(0, 0, 0)" stroke="rgb(60, 60, 60)" stroke-width="1px" opacity="0.25"></line><line x1="214.75166479746503" y1="0" x2="214.75166479746503" y2="177.5999994277954" fill="rgb(0, 0, 0)" stroke="rgb(60, 60, 60)" stroke-width="1px" opacity="0.25"></line><line x1="236.2268312772115" y1="0" x2="236.2268312772115" y2="177.5999994277954" fill="rgb(0, 0, 0)" stroke="rgb(60, 60, 60)" stroke-width="1px" opacity="0.25"></line><line x1="257.701997756958" y1="0" x2="257.701997756958" y2="177.5999994277954" fill="rgb(0, 0, 0)" stroke="rgb(60, 60, 60)" stroke-width="1px" opacity="0.25"></line></g><g><line x1="0" y1="177.5999994277954" x2="257.701997756958" y2="177.5999994277954" fill="rgb(0, 0, 0)" stroke="rgb(60, 60, 60)" stroke-width="1px" opacity="0.25"></line><line x1="0" y1="163.9384610102727" x2="257.701997756958" y2="163.9384610102727" fill="rgb(0, 0, 0)" stroke="rgb(60, 60, 60)" stroke-width="1px" opacity="0.25"></line><line x1="0" y1="150.27692259274997" x2="257.701997756958" y2="150.27692259274997" fill="rgb(0, 0, 0)" stroke="rgb(60, 60, 60)" stroke-width="1px" opacity="0.25"></line><line x1="0" y1="136.61538417522723" x2="257.701997756958" y2="136.61538417522723" fill="rgb(0, 0, 0)" stroke="rgb(60, 60, 60)" stroke-width="1px" opacity="0.25"></line><line x1="0" y1="122.95384575770451" x2="257.701997756958" y2="122.95384575770451" fill="rgb(0, 0, 0)" stroke="rgb(60, 60, 60)" stroke-width="1px" opacity="0.25"></line><line x1="0" y1="109.2923073401818" x2="257.701997756958" y2="109.2923073401818" fill="rgb(0, 0, 0)" stroke="rgb(60, 60, 60)" stroke-width="1px" opacity="0.25"></line><line x1="0" y1="95.63076892265906" x2="257.701997756958" y2="95.63076892265906" fill="rgb(0, 0, 0)" stroke="rgb(60, 60, 60)" stroke-width="1px" opacity="0.25"></line><line x1="0" y1="81.96923050513635" x2="257.701997756958" y2="81.96923050513635" fill="rgb(0, 0, 0)" stroke="rgb(60, 60, 60)" stroke-width="1px" opacity="0.25"></line><line x1="0" y1="68.30769208761362" x2="257.701997756958" y2="68.30769208761362" fill="rgb(0, 0, 0)" stroke="rgb(60, 60, 60)" stroke-width="1px" opacity="0.25"></line><line x1="0" y1="54.6461536700909" x2="257.701997756958" y2="54.6461536700909" fill="rgb(0, 0, 0)" stroke="rgb(60, 60, 60)" stroke-width="1px" opacity="0.25"></line><line x1="0" y1="40.98461525256816" x2="257.701997756958" y2="40.98461525256816" fill="rgb(0, 0, 0)" stroke="rgb(60, 60, 60)" stroke-width="1px" opacity="0.25"></line><line x1="0" y1="27.32307683504545" x2="257.701997756958" y2="27.32307683504545" fill="rgb(0, 0, 0)" stroke="rgb(60, 60, 60)" stroke-width="1px" opacity="0.25"></line><line x1="0" y1="13.661538417522715" x2="257.701997756958" y2="13.661538417522715" fill="rgb(0, 0, 0)" stroke="rgb(60, 60, 60)" stroke-width="1px" opacity="0.25"></line><line x1="0" y1="0" x2="257.701997756958" y2="0" fill="rgb(0, 0, 0)" stroke="rgb(60, 60, 60)" stroke-width="1px" opacity="0.25"></line></g></g></g><g><g><line x1="0" y1="163.9384610102727" x2="257.701997756958" y2="163.9384610102727" fill="rgb(0, 0, 0)" stroke="rgb(153, 153, 153)" stroke-width="1.5px"></line></g></g><g><g><line x1="21.4751664797465" y1="0" x2="21.4751664797465" y2="177.5999994277954" fill="rgb(0, 0, 0)" stroke="rgb(153, 153, 153)" stroke-width="1.5px"></line></g></g><g><g><g><g><g><path style="fill: none;" stroke="rgb(204, 51, 17)" stroke-width="2px" d="M21.4751664797465,160.42510219825618L25.7701997756958,160.26643190129144L30.0652330716451,157.50397876875917L34.3602663675944,150.90316537919384L38.6552996635437,155.70272245977145L42.950332959493,143.3992502140676L47.2453662554423,147.10173954446137L51.5403995513916,151.7077767516766L55.835432847340904,130.80243251501952L60.1304661432902,133.10350620051443L64.4254994392395,138.1708829870726L68.7205327351888,142.88649016839392L73.0155660311381,109.70681045633431L77.3105993270874,112.7762039260124L81.6056326230367,112.22995084784449L85.900665918986,117.48207192467282L90.1956992149353,122.90089729032702L94.4907325108846,127.22556133889353L98.78576580683391,129.31829114359934L103.0807991027832,83.58650183406031L107.37583239873251,79.89915388920971L111.67086569468181,77.81727018197498L115.9658989906311,80.52042702422727L120.2609322865804,86.65212637346211L124.55596558252971,89.73148416101677L128.850998878479,95.43606865285368L133.1460321744283,100.16036438582971L137.4410654703776,102.90767691453831L141.7360987663269,103.49535070320981L146.0311320622762,36.22734137967434L150.32616535822552,28.745873029379652L154.6211986541748,26.13211988275276L158.91623195012411,28.090029131252304L163.2112652460734,23.25403297796309L167.5062985420227,23.804280121622952L171.801331837972,28.73434944167639L176.0963651339213,34.13092394352009L180.3913984298706,39.654941654087786L184.68643172581992,46.6456819410597L188.9814650217692,50.767899400735175L193.2764983177185,53.89707877767259L197.57153161366782,55.98636693199885L201.8665649096171,57.229880449627025L206.1615982055664,-48.95375149492148" fill="none"></path></g><g><path style="fill: none;" stroke="rgb(255, 112, 67)" stroke-width="2px" d="M21.4751664797465,163.62484368117214L25.7701997756958,163.5386785191432L30.0652330716451,163.56222599502885L34.3602663675944,163.51676623759053L38.6552996635437,163.50168709646246L42.950332959493,163.47409695818934L47.2453662554423,163.42375927107923L51.5403995513916,163.45267680163275L55.835432847340904,163.39793057483817L60.1304661432902,163.40875927905037L64.4254994392395,163.38274932160056L68.7205327351888,163.3530356423093L73.0155660311381,163.37405301789417L77.3105993270874,163.32830106022155L81.6056326230367,163.3415407827976L85.900665918986,163.31013376878556L90.1956992149353,163.33191579632677L94.4907325108846,163.29624443730614L98.78576580683391,163.27500335965806L103.0807991027832,163.2885755735942L107.37583239873251,163.25045795368902L111.67086569468181,163.25809203088326L115.9658989906311,163.23558704309238L120.2609322865804,163.2210282991489L124.55596558252971,163.2399956804918L128.850998878479,163.19301596720322L133.1460321744283,163.2280835781977L137.4410654703776,163.182536040174L141.7360987663269,163.2061185631505L146.0311320622762,163.1933210332376L150.32616535822552,163.16378441341274L154.6211986541748,163.17687795444255L158.91623195012411,163.1445939162963L163.2112652460734,163.16968515790526L167.5062985420227,163.14255590841992L171.801331837972,163.14984348844638L176.0963651339213,163.1419567855675L180.3913984298706,163.09930519256994L184.68643172581992,163.130241220584L188.9814650217692,163.10812090392974L193.2764983177185,163.122293283011L197.57153161366782,163.08944204222516L201.8665649096171,163.0702154557252L206.1615982055664,163.1025638554435L210.45663150151572,163.07002354358826L214.75166479746503,163.08886956297897L219.0466980934143,163.07024047074913L223.34173138936362,163.07095476694107L227.6367646853129,163.0678482136533L231.9317979812622,163.03124204839884" fill="none"></path></g><g><path style="fill: none;" stroke="rgb(0, 119, 187)" stroke-width="2px" d="M21.4751664797465,163.68499588915986L25.7701997756958,163.70453610803705L30.0652330716451,163.71531315361906L34.3602663675944,163.7187205060556L38.6552996635437,163.7258144313621L42.950332959493,163.73032825889155L47.2453662554423,163.7328828856416L51.5403995513916,163.73396367799182L55.835432847340904,163.73417133851947L60.1304661432902,163.73618161163944L64.4254994392395,163.73848646272387L68.7205327351888,163.740501133016L73.0155660311381,163.74221502044523L77.3105993270874,163.7436413653855L81.6056326230367,163.7447643054454L85.900665918986,163.74571196119348L90.1956992149353,163.74641454787874L94.4907325108846,163.74692789330203L98.78576580683391,163.7472817028043L103.0807991027832,163.74750302713736L107.37583239873251,163.74761999191736L111.67086569468181,163.7476629864898L115.9658989906311,163.7476695333906L120.2609322865804,163.74844400569808L124.55596558252971,163.74922338003827L128.850998878479,163.74996523184254L133.1460321744283,163.7506787788866L137.4410654703776,163.75131532656005L141.7360987663269,163.7519429333167L146.0311320622762,163.75253495555037L150.32616535822552,163.75307134541308L154.6211986541748,163.75357672706897L158.91623195012411,163.7540474199221L163.2112652460734,163.75449334203864L167.5062985420227,163.75490263733948L171.801331837972,163.75528154329484L176.0963651339213,163.7556206792707L180.3913984298706,163.7559442134282L184.68643172581992,163.7562312999141L188.9814650217692,163.75649021192638L193.2764983177185,163.75673445041227L197.57153161366782,163.7569371926214L201.8665649096171,163.7571120697876L206.1615982055664,163.75728201234944L210.45663150151572,163.75742089784706L214.75166479746503,163.75753742290982L219.0466980934143,163.75763881844313L223.34173138936362,163.75773014933787L227.6367646853129,163.7577994618001L231.9317979812622,163.75785471959716" fill="none"></path></g><g><path style="fill: none;" stroke="rgb(238, 51, 119)" stroke-width="2px" d="M21.4751664797465,163.38461743577253L25.7701997756958,163.40873918234496L30.0652330716451,163.41932548836928L34.3602663675944,163.4346778078905L38.6552996635437,163.44509428535375L42.950332959493,163.45032428194475L47.2453662554423,163.45173186561706L51.5403995513916,163.45617085979035L55.835432847340904,163.4635102938769L60.1304661432902,163.4703487109081L64.4254994392395,163.47658025303514L68.7205327351888,163.48213238320287L73.0155660311381,163.48695992453864L77.3105993270874,163.49104750322562L81.6056326230367,163.4944023827408L85.900665918986,163.49705130440537L90.1956992149353,163.4990449497002L94.4907325108846,163.50045090479023L98.78576580683391,163.50135408395602L103.0807991027832,163.50185487300985L107.37583239873251,163.50206528584158L111.67086569468181,163.5021074335512L115.9658989906311,163.50423406887575L120.2609322865804,163.50711363036407L124.55596558252971,163.50992925371176L128.850998878479,163.51267595545696L133.1460321744283,163.51534806813333L137.4410654703776,163.51794500545125L141.7360987663269,163.52045813592457L146.0311320622762,163.52288938128044L150.32616535822552,163.52523222718963L154.6211986541748,163.52748556621623L158.91623195012411,163.52964734634654L163.2112652460734,163.53171825158515L167.5062985420227,163.53369577391527L171.801331837972,163.53558167220586L176.0963651339213,163.53737226586088L180.3913984298706,163.53906963946568L184.68643172581992,163.54067477016966L188.9814650217692,163.5421868436816L193.2764983177185,163.54360686972262L197.57153161366782,163.5449376494542L201.8665649096171,163.54617885715987L206.1615982055664,163.54733260999666L210.45663150151572,163.54840128569464L214.75166479746503,163.549386708266L219.0466980934143,163.55029161372903L223.34173138936362,163.55111766323762L227.6367646853129,163.5518680813847L231.9317979812622,163.55254312874348" fill="none"></path></g><g><path style="fill: none;" stroke="rgb(51, 187, 238)" stroke-width="2px" d="M21.4751664797465,163.6142052930862L25.7701997756958,163.67403007460473L30.0652330716451,163.69851543474476L34.3602663675944,163.71424708365274L38.6552996635437,163.72749356484528L42.950332959493,163.7323587264319L47.2453662554423,163.73311204345546L51.5403995513916,163.74060552514072L55.835432847340904,163.74609930320506L60.1304661432902,163.74978498035478L64.4254994392395,163.75214344436813L68.7205327351888,163.75346469689333L73.0155660311381,163.75402302375943L77.3105993270874,163.75413560765307L81.6056326230367,163.75558380816767L85.900665918986,163.7582191800276L90.1956992149353,163.76019839608333L94.4907325108846,163.76187337668165L98.78576580683391,163.76326690568882L103.0807991027832,163.7644045844184L107.37583239873251,163.76526884046748L111.67086569468181,163.76596971714136L115.9658989906311,163.7665032406992L120.2609322865804,163.76690416508708L124.55596558252971,163.76715244245705L128.850998878479,163.76728409704927L133.1460321744283,163.76736397901053L137.4410654703776,163.7673873003089L141.7360987663269,163.76680850216343L146.0311320622762,163.7677256871369L150.32616535822552,163.76857484622818L154.6211986541748,163.76914673918475L158.91623195012411,163.76982543456785L163.2112652460734,163.77030501948028L167.5062985420227,163.77084681623617L171.801331837972,163.77122805106418L176.0963651339213,163.77159225092146L180.3913984298706,163.7719666945613L184.68643172581992,163.77217613024368L188.9814650217692,163.77245898241563L193.2764983177185,163.77265639916067L197.57153161366782,163.77284467955909L201.8665649096171,163.7730013328895L206.1615982055664,163.77315257932665L210.45663150151572,163.7733098840899L214.75166479746503,163.77337023934956L219.0466980934143,163.77351681175557L223.34173138936362,163.77357876302582L227.6367646853129,163.7736550946777L231.9317979812622,163.77369020691188" fill="none"></path></g></g></g></g></g></g><g transform="translate(72, 177)" clip-path="url(#clip_1)"><clipPath id="clip_1"><rect width="257" height="22"></rect></clipPath><g><g><line x1="0" y1="0" x2="0" y2="5" style="visibility: inherit;" fill="rgb(0, 0, 0)" stroke="rgb(204, 204, 204)" stroke-width="1px"></line><line x1="21.4751664797465" y1="0" x2="21.4751664797465" y2="5" style="visibility: inherit;" fill="rgb(0, 0, 0)" stroke="rgb(204, 204, 204)" stroke-width="1px"></line><line x1="42.950332959493" y1="0" x2="42.950332959493" y2="5" style="visibility: inherit;" fill="rgb(0, 0, 0)" stroke="rgb(204, 204, 204)" stroke-width="1px"></line><line x1="64.4254994392395" y1="0" x2="64.4254994392395" y2="5" style="visibility: inherit;" fill="rgb(0, 0, 0)" stroke="rgb(204, 204, 204)" stroke-width="1px"></line><line x1="85.900665918986" y1="0" x2="85.900665918986" y2="5" style="visibility: inherit;" fill="rgb(0, 0, 0)" stroke="rgb(204, 204, 204)" stroke-width="1px"></line><line x1="107.37583239873251" y1="0" x2="107.37583239873251" y2="5" style="visibility: inherit;" fill="rgb(0, 0, 0)" stroke="rgb(204, 204, 204)" stroke-width="1px"></line><line x1="128.850998878479" y1="0" x2="128.850998878479" y2="5" style="visibility: inherit;" fill="rgb(0, 0, 0)" stroke="rgb(204, 204, 204)" stroke-width="1px"></line><line x1="150.32616535822552" y1="0" x2="150.32616535822552" y2="5" style="visibility: inherit;" fill="rgb(0, 0, 0)" stroke="rgb(204, 204, 204)" stroke-width="1px"></line><line x1="171.801331837972" y1="0" x2="171.801331837972" y2="5" style="visibility: inherit;" fill="rgb(0, 0, 0)" stroke="rgb(204, 204, 204)" stroke-width="1px"></line><line x1="193.2764983177185" y1="0" x2="193.2764983177185" y2="5" style="visibility: inherit;" fill="rgb(0, 0, 0)" stroke="rgb(204, 204, 204)" stroke-width="1px"></line><line x1="214.75166479746503" y1="0" x2="214.75166479746503" y2="5" style="visibility: inherit;" fill="rgb(0, 0, 0)" stroke="rgb(204, 204, 204)" stroke-width="1px"></line><line x1="236.2268312772115" y1="0" x2="236.2268312772115" y2="5" style="visibility: inherit;" fill="rgb(0, 0, 0)" stroke="rgb(204, 204, 204)" stroke-width="1px"></line><line x1="257.701997756958" y1="0" x2="257.701997756958" y2="5" style="visibility: inherit;" fill="rgb(0, 0, 0)" stroke="rgb(204, 204, 204)" stroke-width="1px"></line></g><g transform="translate(0, 8)"><text style="text-anchor: middle; visibility: hidden; font-family: Roboto, sans-serif; font-size: 12px; font-weight: 200;" x="0" y="0" dx="0em" dy="0.95em" fill="rgb(50, 49, 63)" stroke="none" stroke-width="1px">-5</text><text style="text-anchor: middle; visibility: inherit; font-family: Roboto, sans-serif; font-size: 12px; font-weight: 200;" x="21.4751664797465" y="0" dx="0em" dy="0.95em" fill="rgb(50, 49, 63)" stroke="none" stroke-width="1px">0</text><text style="text-anchor: middle; visibility: inherit; font-family: Roboto, sans-serif; font-size: 12px; font-weight: 200;" x="42.950332959493" y="0" dx="0em" dy="0.95em" fill="rgb(50, 49, 63)" stroke="none" stroke-width="1px">5</text><text style="text-anchor: middle; visibility: inherit; font-family: Roboto, sans-serif; font-size: 12px; font-weight: 200;" x="64.4254994392395" y="0" dx="0em" dy="0.95em" fill="rgb(50, 49, 63)" stroke="none" stroke-width="1px">10</text><text style="text-anchor: middle; visibility: inherit; font-family: Roboto, sans-serif; font-size: 12px; font-weight: 200;" x="85.900665918986" y="0" dx="0em" dy="0.95em" fill="rgb(50, 49, 63)" stroke="none" stroke-width="1px">15</text><text style="text-anchor: middle; visibility: inherit; font-family: Roboto, sans-serif; font-size: 12px; font-weight: 200;" x="107.37583239873251" y="0" dx="0em" dy="0.95em" fill="rgb(50, 49, 63)" stroke="none" stroke-width="1px">20</text><text style="text-anchor: middle; visibility: inherit; font-family: Roboto, sans-serif; font-size: 12px; font-weight: 200;" x="128.850998878479" y="0" dx="0em" dy="0.95em" fill="rgb(50, 49, 63)" stroke="none" stroke-width="1px">25</text><text style="text-anchor: middle; visibility: inherit; font-family: Roboto, sans-serif; font-size: 12px; font-weight: 200;" x="150.32616535822552" y="0" dx="0em" dy="0.95em" fill="rgb(50, 49, 63)" stroke="none" stroke-width="1px">30</text><text style="text-anchor: middle; visibility: inherit; font-family: Roboto, sans-serif; font-size: 12px; font-weight: 200;" x="171.801331837972" y="0" dx="0em" dy="0.95em" fill="rgb(50, 49, 63)" stroke="none" stroke-width="1px">35</text><text style="text-anchor: middle; visibility: inherit; font-family: Roboto, sans-serif; font-size: 12px; font-weight: 200;" x="193.2764983177185" y="0" dx="0em" dy="0.95em" fill="rgb(50, 49, 63)" stroke="none" stroke-width="1px">40</text><text style="text-anchor: middle; visibility: inherit; font-family: Roboto, sans-serif; font-size: 12px; font-weight: 200;" x="214.75166479746503" y="0" dx="0em" dy="0.95em" fill="rgb(50, 49, 63)" stroke="none" stroke-width="1px">45</text><text style="text-anchor: middle; visibility: inherit; font-family: Roboto, sans-serif; font-size: 12px; font-weight: 200;" x="236.2268312772115" y="0" dx="0em" dy="0.95em" fill="rgb(50, 49, 63)" stroke="none" stroke-width="1px">50</text><text style="text-anchor: middle; visibility: hidden; font-family: Roboto, sans-serif; font-size: 12px; font-weight: 200;" x="257.701997756958" y="0" dx="0em" dy="0.95em" fill="rgb(50, 49, 63)" stroke="none" stroke-width="1px">55</text></g><line x1="0" y1="0" x2="257.701997756958" y2="0" fill="rgb(0, 0, 0)" stroke="rgb(204, 204, 204)" stroke-width="1px"></line></g></g></g></g></svg>