<svg viewBox="0 0 330 200" xmlns="http://www.w3.org/2000/svg"><g><g><g><g><g><line x1="41.149001121520996" y1="173.05850342362427" x2="36.149001121520996" y2="173.05850342362427" style="visibility: inherit;" fill="rgb(0, 0, 0)" stroke="rgb(204, 204, 204)" stroke-width="1px"></line><line x1="41.149001121520996" y1="148.9688674419815" x2="36.149001121520996" y2="148.9688674419815" style="visibility: inherit;" fill="rgb(0, 0, 0)" stroke="rgb(204, 204, 204)" stroke-width="1px"></line><line x1="41.149001121520996" y1="124.87923146033872" x2="36.149001121520996" y2="124.87923146033872" style="visibility: inherit;" fill="rgb(0, 0, 0)" stroke="rgb(204, 204, 204)" stroke-width="1px"></line><line x1="41.149001121520996" y1="100.78959547869593" x2="36.149001121520996" y2="100.78959547869593" style="visibility: inherit;" fill="rgb(0, 0, 0)" stroke="rgb(204, 204, 204)" stroke-width="1px"></line><line x1="41.149001121520996" y1="76.69995949705316" x2="36.149001121520996" y2="76.69995949705316" style="visibility: inherit;" fill="rgb(0, 0, 0)" stroke="rgb(204, 204, 204)" stroke-width="1px"></line><line x1="41.149001121520996" y1="52.61032351541037" x2="36.149001121520996" y2="52.61032351541037" style="visibility: inherit;" fill="rgb(0, 0, 0)" stroke="rgb(204, 204, 204)" stroke-width="1px"></line><line x1="41.149001121520996" y1="28.520687533767607" x2="36.149001121520996" y2="28.520687533767607" style="visibility: inherit;" fill="rgb(0, 0, 0)" stroke="rgb(204, 204, 204)" stroke-width="1px"></line><line x1="41.149001121520996" y1="4.431051552124803" x2="36.149001121520996" y2="4.431051552124803" style="visibility: inherit;" fill="rgb(0, 0, 0)" stroke="rgb(204, 204, 204)" stroke-width="1px"></line></g><g transform="translate(31.149001121520996, 0)"><text style="text-anchor: end; visibility: hidden; font-family: Roboto, sans-serif; font-size: 12px; font-weight: 200;" x="0" y="173.05850342362427" dx="0em" dy="0.3em" fill="rgb(50, 49, 63)" stroke="none" stroke-width="1px">0</text><text style="text-anchor: end; visibility: inherit; font-family: Roboto, sans-serif; font-size: 12px; font-weight: 200;" x="0" y="148.9688674419815" dx="0em" dy="0.3em" fill="rgb(50, 49, 63)" stroke="none" stroke-width="1px">0.1</text><text style="text-anchor: end; visibility: hidden; font-family: Roboto, sans-serif; font-size: 12px; font-weight: 200;" x="0" y="124.87923146033872" dx="0em" dy="0.3em" fill="rgb(50, 49, 63)" stroke="none" stroke-width="1px">0.2</text><text style="text-anchor: end; visibility: inherit; font-family: Roboto, sans-serif; font-size: 12px; font-weight: 200;" x="0" y="100.78959547869593" dx="0em" dy="0.3em" fill="rgb(50, 49, 63)" stroke="none" stroke-width="1px">0.3</text><text style="text-anchor: end; visibility: hidden; font-family: Roboto, sans-serif; font-size: 12px; font-weight: 200;" x="0" y="76.69995949705316" dx="0em" dy="0.3em" fill="rgb(50, 49, 63)" stroke="none" stroke-width="1px">0.4</text><text style="text-anchor: end; visibility: inherit; font-family: Roboto, sans-serif; font-size: 12px; font-weight: 200;" x="0" y="52.61032351541037" dx="0em" dy="0.3em" fill="rgb(50, 49, 63)" stroke="none" stroke-width="1px">0.5</text><text style="text-anchor: end; visibility: hidden; font-family: Roboto, sans-serif; font-size: 12px; font-weight: 200;" x="0" y="28.520687533767607" dx="0em" dy="0.3em" fill="rgb(50, 49, 63)" stroke="none" stroke-width="1px">0.6</text><text style="text-anchor: end; visibility: hidden; font-family: Roboto, sans-serif; font-size: 12px; font-weight: 200;" x="0" y="4.431051552124803" dx="0em" dy="0.3em" fill="rgb(50, 49, 63)" stroke="none" stroke-width="1px">0.7</text></g><line x1="41.149001121520996" y1="0" x2="41.149001121520996" y2="177.5999994277954" fill="rgb(0, 0, 0)" stroke="rgb(204, 204, 204)" stroke-width="1px"></line></g></g><g transform="translate(41, 0)" clip-path="url(#clip_0)"><clipPath id="clip_0"><rect width="288" height="177"></rect></clipPath><g><g><g><line x1="15.904359648435559" y1="0" x2="15.904359648435559" y2="177.5999994277954" fill="rgb(0, 0, 0)" stroke="rgb(60, 60, 60)" stroke-width="1px" opacity="0.25"></line><line x1="41.70573012726837" y1="0" x2="41.70573012726837" y2="177.5999994277954" fill="rgb(0, 0, 0)" stroke="rgb(60, 60, 60)" stroke-width="1px" opacity="0.25"></line><line x1="67.50710060610118" y1="0" x2="67.50710060610118" y2="177.5999994277954" fill="rgb(0, 0, 0)" stroke="rgb(60, 60, 60)" stroke-width="1px" opacity="0.25"></line><line x1="93.30847108493398" y1="0" x2="93.30847108493398" y2="177.5999994277954" fill="rgb(0, 0, 0)" stroke="rgb(60, 60, 60)" stroke-width="1px" opacity="0.25"></line><line x1="119.10984156376682" y1="0" x2="119.10984156376682" y2="177.5999994277954" fill="rgb(0, 0, 0)" stroke="rgb(60, 60, 60)" stroke-width="1px" opacity="0.25"></line><line x1="144.91121204259963" y1="0" x2="144.91121204259963" y2="177.5999994277954" fill="rgb(0, 0, 0)" stroke="rgb(60, 60, 60)" stroke-width="1px" opacity="0.25"></line><line x1="170.71258252143247" y1="0" x2="170.71258252143247" y2="177.5999994277954" fill="rgb(0, 0, 0)" stroke="rgb(60, 60, 60)" stroke-width="1px" opacity="0.25"></line><line x1="196.51395300026525" y1="0" x2="196.51395300026525" y2="177.5999994277954" fill="rgb(0, 0, 0)" stroke="rgb(60, 60, 60)" stroke-width="1px" opacity="0.25"></line><line x1="222.31532347909808" y1="0" x2="222.31532347909808" y2="177.5999994277954" fill="rgb(0, 0, 0)" stroke="rgb(60, 60, 60)" stroke-width="1px" opacity="0.25"></line><line x1="248.11669395793092" y1="0" x2="248.11669395793092" y2="177.5999994277954" fill="rgb(0, 0, 0)" stroke="rgb(60, 60, 60)" stroke-width="1px" opacity="0.25"></line><line x1="273.9180644367637" y1="0" x2="273.9180644367637" y2="177.5999994277954" fill="rgb(0, 0, 0)" stroke="rgb(60, 60, 60)" stroke-width="1px" opacity="0.25"></line></g><g><line x1="0" y1="173.05850342362427" x2="288.850998878479" y2="173.05850342362427" fill="rgb(0, 0, 0)" stroke="rgb(60, 60, 60)" stroke-width="1px" opacity="0.25"></line><line x1="0" y1="148.9688674419815" x2="288.850998878479" y2="148.9688674419815" fill="rgb(0, 0, 0)" stroke="rgb(60, 60, 60)" stroke-width="1px" opacity="0.25"></line><line x1="0" y1="124.87923146033872" x2="288.850998878479" y2="124.87923146033872" fill="rgb(0, 0, 0)" stroke="rgb(60, 60, 60)" stroke-width="1px" opacity="0.25"></line><line x1="0" y1="100.78959547869593" x2="288.850998878479" y2="100.78959547869593" fill="rgb(0, 0, 0)" stroke="rgb(60, 60, 60)" stroke-width="1px" opacity="0.25"></line><line x1="0" y1="76.69995949705316" x2="288.850998878479" y2="76.69995949705316" fill="rgb(0, 0, 0)" stroke="rgb(60, 60, 60)" stroke-width="1px" opacity="0.25"></line><line x1="0" y1="52.61032351541037" x2="288.850998878479" y2="52.61032351541037" fill="rgb(0, 0, 0)" stroke="rgb(60, 60, 60)" stroke-width="1px" opacity="0.25"></line><line x1="0" y1="28.520687533767607" x2="288.850998878479" y2="28.520687533767607" fill="rgb(0, 0, 0)" stroke="rgb(60, 60, 60)" stroke-width="1px" opacity="0.25"></line><line x1="0" y1="4.431051552124803" x2="288.850998878479" y2="4.431051552124803" fill="rgb(0, 0, 0)" stroke="rgb(60, 60, 60)" stroke-width="1px" opacity="0.25"></line></g></g></g><g><g><line x1="0" y1="173.05850342362427" x2="288.850998878479" y2="173.05850342362427" fill="rgb(0, 0, 0)" stroke="rgb(153, 153, 153)" stroke-width="1.5px"></line></g></g><g><g><line x1="15.904359648435559" y1="0" x2="15.904359648435559" y2="177.5999994277954" fill="rgb(0, 0, 0)" stroke="rgb(153, 153, 153)" stroke-width="1.5px"></line></g></g><g><g><g><g><g><path style="fill: none;" stroke="rgb(204, 51, 17)" stroke-width="2px" d="M15.904359648435559,20.471742643976608L21.06463374420212,19.382963124647542L26.224907839968683,19.382963124647542L31.385181935735247,19.382963124647542L36.54545603150181,19.382963124647542L41.70573012726837,19.382963124647542L46.866004223034935,19.382963124647542L52.026278318801495,19.382963124647542L57.186552414568055,19.382963124647542L62.34682651033462,19.382963124647542L67.50710060610118,19.382963124647542L72.66737470186774,19.382963124647542L77.8276487976343,19.382963124647542L82.98792289340086,19.382963124647542L88.14819698916743,19.382963124647542L93.30847108493398,19.382963124647542L98.46874518070057,19.382963124647542L103.62901927646713,19.382963124647542L108.78929337223369,19.382963124647542L113.94956746800025,19.382963124647542L119.10984156376682,19.382963124647542L124.27011565953337,19.382963124647542L129.43038975529993,19.382963124647542L134.5906638510665,19.382963124647542L139.75093794683306,19.382963124647542L144.91121204259963,19.382963124647542L150.07148613836617,19.382963124647542L155.23176023413276,19.382963124647542L160.3920343298993,19.382963124647542L165.55230842566587,19.382963124647542L170.71258252143247,19.382963124647542L175.872856617199,19.382963124647542L181.03313071296557,19.382963124647542L186.19340480873214,19.382963124647542L191.3536789044987,19.382963124647542L196.51395300026525,19.382963124647542L201.67422709603184,19.382963124647542L206.83450119179838,19.382963124647542L211.99477528756495,19.382963124647542L217.15504938333152,19.382963124647542L222.31532347909808,19.382963124647542L227.47559757486465,19.382963124647542L232.63587167063122,19.382963124647542L237.79614576639779,19.382963124647542L242.95641986216432,19.382963124647542L248.11669395793092,19.382963124647542L253.27696805369746,19.382963124647542L258.43724214946405,19.382963124647542L263.59751624523057,19.382963124647542L268.75779034099713,19.382963124647542" fill="none"></path></g><g><path style="fill: none;" stroke="rgb(255, 112, 67)" stroke-width="2px" d="M15.904359648435559,22.76847758085747L21.06463374420212,22.824116930931332L26.224907839968683,22.776432213100286L31.385181935735247,22.66516787149453L36.54545603150181,22.57775306807527L41.70573012726837,22.609542879962635L46.866004223034935,22.553903529888775L52.026278318801495,22.49827853835688L57.186552414568055,22.458548452768667L62.34682651033462,22.41880400863849L67.50710060610118,22.379073923050278L72.66737470186774,22.307539667032735L77.8276487976343,22.33138920521923L82.98792289340086,22.291644761089053L88.14819698916743,22.31549429927555L93.30847108493398,22.27574985514537L98.46874518070057,22.243974401799974L103.62901927646713,22.243974401799974L108.78929337223369,22.180394778025263L113.94956746800025,22.17244014578245L119.10984156376682,22.116815154250535L124.27011565953337,22.045280898233013L129.43038975529993,22.077070710120378L134.5906638510665,22.045280898233013L139.75093794683306,22.06913043641951L144.91121204259963,22.06913043641951L150.07148613836617,22.053235530475828L155.23176023413276,22.045280898233013L160.3920343298993,22.0055508126448L165.55230842566587,21.98171563300025L170.71258252143247,22.01349108634565L175.872856617199,21.989655906701117L181.03313071296557,21.957866094813753L186.19340480873214,21.949925821112885L191.3536789044987,21.941971188870074L196.51395300026525,21.92607628292639L201.67422709603184,21.910181376982727L206.83450119179838,21.854556385450813L211.99477528756495,21.878391565095363L217.15504938333152,21.854556385450813L222.31532347909808,21.83866147950713L227.47559757486465,21.846601753208L232.63587167063122,21.82276657356347L237.79614576639779,21.806871667619788L242.95641986216432,21.775081855732424L248.11669395793092,21.711502231957713L253.27696805369746,21.663817514126666L258.43724214946405,21.647922608182984L263.59751624523057,21.632027702239302L268.75779034099713,21.60023789035196" fill="none"></path></g><g><path style="fill: none;" stroke="rgb(0, 119, 187)" stroke-width="2px" d="M15.904359648435559,97.00353944368466L21.06463374420212,78.70901961002055L26.224907839968683,67.94052236255912L31.385181935735247,61.04233420258981L36.54545603150181,55.566689869682925L41.70573012726837,51.386444474830995L46.866004223034935,47.865830497370766L52.026278318801495,45.08429374993672L57.186552414568055,43.04980322331363L62.34682651033462,41.46831033681441L67.50710060610118,39.823237826540485L72.66737470186774,38.53577916218641L77.8276487976343,37.30395984790617L82.98792289340086,36.09599007181242L88.14819698916743,35.24563414163855L93.30847108493398,34.22838887832699L98.46874518070057,33.38597322185396L103.62901927646713,32.48794693239098L108.78929337223369,31.677321087805325L113.94956746800025,31.168698456149542L119.10984156376682,30.53293093548631L124.27011565953337,29.944833774112137L129.43038975529993,29.50773103993193L134.5906638510665,29.007063040518982L139.75093794683306,28.514335314806885L144.91121204259963,28.029547862795653L150.07148613836617,27.695769196520352L155.23176023413276,27.322246086114877L160.3920343298993,26.964617881653083L165.55230842566587,26.575199865303922L170.71258252143247,26.138111489665683L175.872856617199,25.7010087554855L181.03313071296557,25.438749986685757L186.19340480873214,25.06522687628028L191.3536789044987,24.81092273972337L196.51395300026525,24.532769064979966L201.67422709603184,24.11951586898628L206.83450119179838,23.936731629904948L211.99477528756495,23.62678814327418L217.15504938333152,23.348634468530776L222.31532347909808,23.205580315037675L227.47559757486465,22.98306599036811L232.63587167063122,22.75258267491379L237.79614576639779,22.4823836324132L242.95641986216432,22.220124863613478L248.11669395793092,22.0055508126448L253.27696805369746,21.624087428538456L258.43724214946405,21.377723565682395L263.59751624523057,21.202879600301934L268.75779034099713,21.0200953612206" fill="none"></path></g><g><path style="fill: none;" stroke="rgb(238, 51, 119)" stroke-width="2px" d="M15.904359648435559,33.433657939685006L21.06463374420212,32.51973674427835L26.224907839968683,32.37668259078523L31.385181935735247,32.185943719461086L36.54545603150181,32.00315948037976L41.70573012726837,31.82037524129842L46.866004223034935,31.732960437879182L52.026278318801495,31.589906284386064L57.186552414568055,31.510431754667675L62.34682651033462,31.4150623190056L67.50710060610118,31.327647515586342L72.66737470186774,31.21638317398059L77.8276487976343,31.08128365273028L82.98792289340086,31.02565866119839L88.14819698916743,30.922334593293503L93.30847108493398,30.842874422117056L98.46874518070057,30.787235072043217L103.62901927646713,30.675970730437463L108.78929337223369,30.604450832961884L113.94956746800025,30.57266102107452L119.10984156376682,30.524976303243474L124.27011565953337,30.381922149750377L129.43038975529993,30.318356884517613L134.5906638510665,30.215032816612727L139.75093794683306,30.111723107249787L144.91121204259963,30.008413397886844L150.07148613836617,29.928938868168455L155.23176023413276,29.857404612150912L160.3920343298993,29.817674526562698L165.55230842566587,29.73819999684431L170.71258252143247,29.6746203730696L175.872856617199,29.603100475594005L181.03313071296557,29.52362594587561L186.19340480873214,29.444151416157222L191.3536789044987,29.34878198049515L196.51395300026525,29.253426903375022L201.67422709603184,29.197787553301183L206.83450119179838,29.134207929526454L211.99477528756495,29.08652321169543L217.15504938333152,29.046793126107197L222.31532347909808,28.95142369044512L227.47559757486465,28.91963387855778L232.63587167063122,28.848113981082204L237.79614576639779,28.824278801437654L242.95641986216432,28.760699177662943L248.11669395793092,28.681224647944532L253.27696805369746,28.59379548598333L258.43724214946405,28.54612512669425L263.59751624523057,28.458695964733042L268.75779034099713,28.403070973201128" fill="none"></path></g><g><path style="fill: none;" stroke="rgb(51, 187, 238)" stroke-width="2px" d="M15.904359648435559,149.37576482937905L21.06463374420212,148.93866747965208L26.224907839968683,148.47772956582733L31.385181935735247,147.90552910521458L36.54545603150181,147.34922175572777L41.70573012726837,146.7372858250736L46.866004223034935,146.25250555233333L52.026278318801495,145.69619999766428L57.186552414568055,145.20347047713443L62.34682651033462,144.6074294524239L67.50710060610118,144.05112389775485L72.66737470186774,143.39945070224144L77.8276487976343,142.90672118171162L82.98792289340086,142.29478525105742L88.14819698916743,141.6749018674314L93.30847108493398,141.19806904766298L98.46874518070057,140.54639585214957L103.62901927646713,139.9583022804109L108.78929337223369,139.4417321957833L113.94956746800025,138.91721465818384L119.10984156376682,138.27348891564228L124.27011565953337,137.74102392507098L129.43038975529993,137.04166960136206L134.5906638510665,136.52509951673446L139.75093794683306,135.99263452616316L144.91121204259963,135.51580170639474L150.07148613836617,134.9118132287124L155.23176023413276,134.26808748617083L160.3920343298993,133.74356994857138L165.55230842566587,133.1554727871972L170.71258252143247,132.6389027025696L175.872856617199,132.25743572882777L181.03313071296557,131.68523706303276L186.19340480873214,131.1607195254333L191.3536789044987,130.66004434674937L196.51395300026525,130.1673166210373L201.67422709603184,129.58717050227045L206.83450119179838,129.07854787061467L211.99477528756495,128.59376400823894L217.15504938333152,127.87851477858632L222.31532347909808,127.36194469395872L227.47559757486465,126.79769348113555L232.63587167063122,126.20164886678954L237.79614576639779,125.6612400128819L242.95641986216432,125.15261738122614L248.11669395793092,124.67578097182223L253.27696805369746,124.08768740008355L258.43724214946405,123.60290712734329L263.59751624523057,123.05454723082832L268.75779034099713,122.53002969322888" fill="none"></path></g></g></g></g></g></g><g transform="translate(41, 177)" clip-path="url(#clip_1)"><clipPath id="clip_1"><rect width="288" height="22"></rect></clipPath><g><g><line x1="15.904359648435559" y1="0" x2="15.904359648435559" y2="5" style="visibility: inherit;" fill="rgb(0, 0, 0)" stroke="rgb(204, 204, 204)" stroke-width="1px"></line><line x1="41.70573012726837" y1="0" x2="41.70573012726837" y2="5" style="visibility: inherit;" fill="rgb(0, 0, 0)" stroke="rgb(204, 204, 204)" stroke-width="1px"></line><line x1="67.50710060610118" y1="0" x2="67.50710060610118" y2="5" style="visibility: inherit;" fill="rgb(0, 0, 0)" stroke="rgb(204, 204, 204)" stroke-width="1px"></line><line x1="93.30847108493398" y1="0" x2="93.30847108493398" y2="5" style="visibility: inherit;" fill="rgb(0, 0, 0)" stroke="rgb(204, 204, 204)" stroke-width="1px"></line><line x1="119.10984156376682" y1="0" x2="119.10984156376682" y2="5" style="visibility: inherit;" fill="rgb(0, 0, 0)" stroke="rgb(204, 204, 204)" stroke-width="1px"></line><line x1="144.91121204259963" y1="0" x2="144.91121204259963" y2="5" style="visibility: inherit;" fill="rgb(0, 0, 0)" stroke="rgb(204, 204, 204)" stroke-width="1px"></line><line x1="170.71258252143247" y1="0" x2="170.71258252143247" y2="5" style="visibility: inherit;" fill="rgb(0, 0, 0)" stroke="rgb(204, 204, 204)" stroke-width="1px"></line><line x1="196.51395300026525" y1="0" x2="196.51395300026525" y2="5" style="visibility: inherit;" fill="rgb(0, 0, 0)" stroke="rgb(204, 204, 204)" stroke-width="1px"></line><line x1="222.31532347909808" y1="0" x2="222.31532347909808" y2="5" style="visibility: inherit;" fill="rgb(0, 0, 0)" stroke="rgb(204, 204, 204)" stroke-width="1px"></line><line x1="248.11669395793092" y1="0" x2="248.11669395793092" y2="5" style="visibility: inherit;" fill="rgb(0, 0, 0)" stroke="rgb(204, 204, 204)" stroke-width="1px"></line><line x1="273.9180644367637" y1="0" x2="273.9180644367637" y2="5" style="visibility: inherit;" fill="rgb(0, 0, 0)" stroke="rgb(204, 204, 204)" stroke-width="1px"></line></g><g transform="translate(0, 8)"><text style="text-anchor: middle; visibility: inherit; font-family: Roboto, sans-serif; font-size: 12px; font-weight: 200;" x="15.904359648435559" y="0" dx="0em" dy="0.95em" fill="rgb(50, 49, 63)" stroke="none" stroke-width="1px">0</text><text style="text-anchor: middle; visibility: inherit; font-family: Roboto, sans-serif; font-size: 12px; font-weight: 200;" x="41.70573012726837" y="0" dx="0em" dy="0.95em" fill="rgb(50, 49, 63)" stroke="none" stroke-width="1px">5</text><text style="text-anchor: middle; visibility: inherit; font-family: Roboto, sans-serif; font-size: 12px; font-weight: 200;" x="67.50710060610118" y="0" dx="0em" dy="0.95em" fill="rgb(50, 49, 63)" stroke="none" stroke-width="1px">10</text><text style="text-anchor: middle; visibility: inherit; font-family: Roboto, sans-serif; font-size: 12px; font-weight: 200;" x="93.30847108493398" y="0" dx="0em" dy="0.95em" fill="rgb(50, 49, 63)" stroke="none" stroke-width="1px">15</text><text style="text-anchor: middle; visibility: inherit; font-family: Roboto, sans-serif; font-size: 12px; font-weight: 200;" x="119.10984156376682" y="0" dx="0em" dy="0.95em" fill="rgb(50, 49, 63)" stroke="none" stroke-width="1px">20</text><text style="text-anchor: middle; visibility: inherit; font-family: Roboto, sans-serif; font-size: 12px; font-weight: 200;" x="144.91121204259963" y="0" dx="0em" dy="0.95em" fill="rgb(50, 49, 63)" stroke="none" stroke-width="1px">25</text><text style="text-anchor: middle; visibility: inherit; font-family: Roboto, sans-serif; font-size: 12px; font-weight: 200;" x="170.71258252143247" y="0" dx="0em" dy="0.95em" fill="rgb(50, 49, 63)" stroke="none" stroke-width="1px">30</text><text style="text-anchor: middle; visibility: inherit; font-family: Roboto, sans-serif; font-size: 12px; font-weight: 200;" x="196.51395300026525" y="0" dx="0em" dy="0.95em" fill="rgb(50, 49, 63)" stroke="none" stroke-width="1px">35</text><text style="text-anchor: middle; visibility: inherit; font-family: Roboto, sans-serif; font-size: 12px; font-weight: 200;" x="222.31532347909808" y="0" dx="0em" dy="0.95em" fill="rgb(50, 49, 63)" stroke="none" stroke-width="1px">40</text><text style="text-anchor: middle; visibility: inherit; font-family: Roboto, sans-serif; font-size: 12px; font-weight: 200;" x="248.11669395793092" y="0" dx="0em" dy="0.95em" fill="rgb(50, 49, 63)" stroke="none" stroke-width="1px">45</text><text style="text-anchor: middle; visibility: inherit; font-family: Roboto, sans-serif; font-size: 12px; font-weight: 200;" x="273.9180644367637" y="0" dx="0em" dy="0.95em" fill="rgb(50, 49, 63)" stroke="none" stroke-width="1px">50</text></g><line x1="0" y1="0" x2="288.850998878479" y2="0" fill="rgb(0, 0, 0)" stroke="rgb(204, 204, 204)" stroke-width="1px"></line></g></g></g></g></svg>