<svg viewBox="0 0 330 200" xmlns="http://www.w3.org/2000/svg"><g><g><g><g><g><line x1="41.149001121520996" y1="175.88401266500068" x2="36.149001121520996" y2="175.88401266500068" style="visibility: inherit;" fill="rgb(0, 0, 0)" stroke="rgb(204, 204, 204)" stroke-width="1px"></line><line x1="41.149001121520996" y1="167.58146563719257" x2="36.149001121520996" y2="167.58146563719257" style="visibility: inherit;" fill="rgb(0, 0, 0)" stroke="rgb(204, 204, 204)" stroke-width="1px"></line><line x1="41.149001121520996" y1="112.96055734094445" x2="36.149001121520996" y2="112.96055734094445" style="visibility: inherit;" fill="rgb(0, 0, 0)" stroke="rgb(204, 204, 204)" stroke-width="1px"></line><line x1="41.149001121520996" y1="81.00937423231022" x2="36.149001121520996" y2="81.00937423231022" style="visibility: inherit;" fill="rgb(0, 0, 0)" stroke="rgb(204, 204, 204)" stroke-width="1px"></line><line x1="41.149001121520996" y1="58.33964904469633" x2="36.149001121520996" y2="58.33964904469633" style="visibility: inherit;" fill="rgb(0, 0, 0)" stroke="rgb(204, 204, 204)" stroke-width="1px"></line><line x1="41.149001121520996" y1="40.755644095867844" x2="36.149001121520996" y2="40.755644095867844" style="visibility: inherit;" fill="rgb(0, 0, 0)" stroke="rgb(204, 204, 204)" stroke-width="1px"></line><line x1="41.149001121520996" y1="26.38846593606208" x2="36.149001121520996" y2="26.38846593606208" style="visibility: inherit;" fill="rgb(0, 0, 0)" stroke="rgb(204, 204, 204)" stroke-width="1px"></line><line x1="41.149001121520996" y1="14.241189884463369" x2="36.149001121520996" y2="14.241189884463369" style="visibility: inherit;" fill="rgb(0, 0, 0)" stroke="rgb(204, 204, 204)" stroke-width="1px"></line><line x1="41.149001121520996" y1="3.7187407484482096" x2="36.149001121520996" y2="3.7187407484482096" style="visibility: inherit;" fill="rgb(0, 0, 0)" stroke="rgb(204, 204, 204)" stroke-width="1px"></line></g><g transform="translate(31.149001121520996, 0)"><text style="text-anchor: end; visibility: hidden; font-family: Roboto, sans-serif; font-size: 12px; font-weight: 200;" x="0" y="175.88401266500068" dx="0em" dy="0.3em" fill="rgb(50, 49, 63)" stroke="none" stroke-width="1px">0.9</text><text style="text-anchor: end; visibility: inherit; font-family: Roboto, sans-serif; font-size: 12px; font-weight: 200;" x="0" y="167.58146563719257" dx="0em" dy="0.3em" fill="rgb(50, 49, 63)" stroke="none" stroke-width="1px">1</text><text style="text-anchor: end; visibility: hidden; font-family: Roboto, sans-serif; font-size: 12px; font-weight: 200;" x="0" y="112.96055734094445" dx="0em" dy="0.3em" fill="rgb(50, 49, 63)" stroke="none" stroke-width="1px">2</text><text style="text-anchor: end; visibility: inherit; font-family: Roboto, sans-serif; font-size: 12px; font-weight: 200;" x="0" y="81.00937423231022" dx="0em" dy="0.3em" fill="rgb(50, 49, 63)" stroke="none" stroke-width="1px">3</text><text style="text-anchor: end; visibility: hidden; font-family: Roboto, sans-serif; font-size: 12px; font-weight: 200;" x="0" y="58.33964904469633" dx="0em" dy="0.3em" fill="rgb(50, 49, 63)" stroke="none" stroke-width="1px">4</text><text style="text-anchor: end; visibility: inherit; font-family: Roboto, sans-serif; font-size: 12px; font-weight: 200;" x="0" y="40.755644095867844" dx="0em" dy="0.3em" fill="rgb(50, 49, 63)" stroke="none" stroke-width="1px">5</text><text style="text-anchor: end; visibility: hidden; font-family: Roboto, sans-serif; font-size: 12px; font-weight: 200;" x="0" y="26.38846593606208" dx="0em" dy="0.3em" fill="rgb(50, 49, 63)" stroke="none" stroke-width="1px">6</text><text style="text-anchor: end; visibility: inherit; font-family: Roboto, sans-serif; font-size: 12px; font-weight: 200;" x="0" y="14.241189884463369" dx="0em" dy="0.3em" fill="rgb(50, 49, 63)" stroke="none" stroke-width="1px">7</text><text style="text-anchor: end; visibility: hidden; font-family: Roboto, sans-serif; font-size: 12px; font-weight: 200;" x="0" y="3.7187407484482096" dx="0em" dy="0.3em" fill="rgb(50, 49, 63)" stroke="none" stroke-width="1px">8</text></g><line x1="41.149001121520996" y1="0" x2="41.149001121520996" y2="177.5999994277954" fill="rgb(0, 0, 0)" stroke="rgb(204, 204, 204)" stroke-width="1px"></line></g></g><g transform="translate(41, 0)" clip-path="url(#clip_0)"><clipPath id="clip_0"><rect width="288" height="177"></rect></clipPath><g><g><g><line x1="0" y1="0" x2="0" y2="177.5999994277954" fill="rgb(0, 0, 0)" stroke="rgb(60, 60, 60)" stroke-width="1px" opacity="0.25"></line><line x1="24.07091657320658" y1="0" x2="24.07091657320658" y2="177.5999994277954" fill="rgb(0, 0, 0)" stroke="rgb(60, 60, 60)" stroke-width="1px" opacity="0.25"></line><line x1="48.14183314641316" y1="0" x2="48.14183314641316" y2="177.5999994277954" fill="rgb(0, 0, 0)" stroke="rgb(60, 60, 60)" stroke-width="1px" opacity="0.25"></line><line x1="72.21274971961975" y1="0" x2="72.21274971961975" y2="177.5999994277954" fill="rgb(0, 0, 0)" stroke="rgb(60, 60, 60)" stroke-width="1px" opacity="0.25"></line><line x1="96.28366629282633" y1="0" x2="96.28366629282633" y2="177.5999994277954" fill="rgb(0, 0, 0)" stroke="rgb(60, 60, 60)" stroke-width="1px" opacity="0.25"></line><line x1="120.35458286603293" y1="0" x2="120.35458286603293" y2="177.5999994277954" fill="rgb(0, 0, 0)" stroke="rgb(60, 60, 60)" stroke-width="1px" opacity="0.25"></line><line x1="144.4254994392395" y1="0" x2="144.4254994392395" y2="177.5999994277954" fill="rgb(0, 0, 0)" stroke="rgb(60, 60, 60)" stroke-width="1px" opacity="0.25"></line><line x1="168.4964160124461" y1="0" x2="168.4964160124461" y2="177.5999994277954" fill="rgb(0, 0, 0)" stroke="rgb(60, 60, 60)" stroke-width="1px" opacity="0.25"></line><line x1="192.56733258565265" y1="0" x2="192.56733258565265" y2="177.5999994277954" fill="rgb(0, 0, 0)" stroke="rgb(60, 60, 60)" stroke-width="1px" opacity="0.25"></line><line x1="216.63824915885925" y1="0" x2="216.63824915885925" y2="177.5999994277954" fill="rgb(0, 0, 0)" stroke="rgb(60, 60, 60)" stroke-width="1px" opacity="0.25"></line><line x1="240.70916573206586" y1="0" x2="240.70916573206586" y2="177.5999994277954" fill="rgb(0, 0, 0)" stroke="rgb(60, 60, 60)" stroke-width="1px" opacity="0.25"></line><line x1="264.7800823052724" y1="0" x2="264.7800823052724" y2="177.5999994277954" fill="rgb(0, 0, 0)" stroke="rgb(60, 60, 60)" stroke-width="1px" opacity="0.25"></line><line x1="288.850998878479" y1="0" x2="288.850998878479" y2="177.5999994277954" fill="rgb(0, 0, 0)" stroke="rgb(60, 60, 60)" stroke-width="1px" opacity="0.25"></line></g><g><line x1="0" y1="175.88401266500068" x2="288.850998878479" y2="175.88401266500068" fill="rgb(0, 0, 0)" stroke="rgb(60, 60, 60)" stroke-width="1px" opacity="0.25"></line><line x1="0" y1="167.58146563719257" x2="288.850998878479" y2="167.58146563719257" fill="rgb(0, 0, 0)" stroke="rgb(60, 60, 60)" stroke-width="1px" opacity="0.25"></line><line x1="0" y1="112.96055734094445" x2="288.850998878479" y2="112.96055734094445" fill="rgb(0, 0, 0)" stroke="rgb(60, 60, 60)" stroke-width="1px" opacity="0.25"></line><line x1="0" y1="81.00937423231022" x2="288.850998878479" y2="81.00937423231022" fill="rgb(0, 0, 0)" stroke="rgb(60, 60, 60)" stroke-width="1px" opacity="0.25"></line><line x1="0" y1="58.33964904469633" x2="288.850998878479" y2="58.33964904469633" fill="rgb(0, 0, 0)" stroke="rgb(60, 60, 60)" stroke-width="1px" opacity="0.25"></line><line x1="0" y1="40.755644095867844" x2="288.850998878479" y2="40.755644095867844" fill="rgb(0, 0, 0)" stroke="rgb(60, 60, 60)" stroke-width="1px" opacity="0.25"></line><line x1="0" y1="26.38846593606208" x2="288.850998878479" y2="26.38846593606208" fill="rgb(0, 0, 0)" stroke="rgb(60, 60, 60)" stroke-width="1px" opacity="0.25"></line><line x1="0" y1="14.241189884463369" x2="288.850998878479" y2="14.241189884463369" fill="rgb(0, 0, 0)" stroke="rgb(60, 60, 60)" stroke-width="1px" opacity="0.25"></line><line x1="0" y1="3.7187407484482096" x2="288.850998878479" y2="3.7187407484482096" fill="rgb(0, 0, 0)" stroke="rgb(60, 60, 60)" stroke-width="1px" opacity="0.25"></line></g></g></g><g><g><line x1="24.07091657320658" y1="0" x2="24.07091657320658" y2="177.5999994277954" fill="rgb(0, 0, 0)" stroke="rgb(153, 153, 153)" stroke-width="1.5px"></line></g></g><g><g><g><g><g><path style="fill: none;" stroke="rgb(255, 112, 67)" stroke-width="2px" d="M24.07091657320658,102.09726025416552L28.8850998878479,82.96847137903941L33.69928320248922,87.75223422155031L38.51346651713053,78.76354362745509L43.32764983177185,75.99494326904382L48.14183314641316,71.16811553041624L52.95601646105448,63.0579831513856L57.7701997756958,67.61451745644392L62.58438309033712,59.19960610214207L67.39856640497844,60.79429791522786L72.21274971961975,57.01691460712483L77.02693303426106,52.91222561704378L81.84111634890239,55.79330620970448L86.6552996635437,49.65123591274889L91.46948297818501,51.37995185180756L96.28366629282633,47.33920695562286L101.09784960746765,50.11946239790302L105.91203292210896,45.61625784624212L110.72621623675029,43.05210750030673L115.5403995513916,44.68084620633222L120.35458286603293,40.18939319714826L125.16876618067424,41.06865926815802L129.98294949531555,38.50428096353117L134.79713280995688,36.88873081929671L139.61131612459818,39.00010315997469L144.4254994392395,33.87046301589015L149.23968275388083,37.66750352099664L154.05386606852213,32.770340566018064L158.86804938316345,35.26786126860949L163.68223269780478,33.902718277055136L168.4964160124461,30.83943080424659L173.3105993270874,32.18271052225241L178.12478264172873,28.91113024260092L182.93896595637003,31.44196142637463L187.75314927101135,28.70909150266854L192.56733258565265,29.43394695018139L197.38151590029398,28.649795605341353L202.1956992149353,24.53920592276254L207.00988252957663,27.499169947809513L211.82406584421793,25.371428489685048L216.63824915885925,26.728032627280857L221.45243247350058,23.618403109055187L226.26661578814188,21.853801835799832L231.0807991027832,24.845807854687816L235.89498241742453,21.836385959271496L240.70916573206586,23.565286611159213L245.52334904670715,21.856072213266664L250.33753236134848,21.92092974949283L255.15171567598978,21.63924508387078L259.9658989906311,18.393694259409354" fill="none"></path></g><g><path style="fill: none;" stroke="rgb(0, 119, 187)" stroke-width="2px" d="M24.07091657320658,118.87778888441315L28.8850998878479,125.19971023717129L33.69928320248922,128.91641730666748L38.51346651713053,130.12895377910272L43.32764983177185,132.71488115097551L48.14183314641316,134.4055971989656L52.95601646105448,135.37879134878517L57.7701997756958,135.79416882439668L62.58438309033712,135.87422970497096L67.39856640497844,136.65349928010286L72.21274971961975,137.5565471301043L77.02693303426106,138.3544676512443L81.84111634890239,139.03968034296415L86.6552996635437,139.61451148778764L91.46948297818501,140.07003619458055L96.28366629282633,140.45651562490812L101.09784960746765,140.74427789624664L105.91203292210896,140.95519797633358L110.72621623675029,141.1008982968868L115.5403995513916,141.1921777953296L120.35458286603293,141.24045963238052L125.16876618067424,141.25821478016212L129.98294949531555,141.26091875593633L134.79713280995688,141.58144480636065L139.61131612459818,141.90532118151702L144.4254994392395,142.2148462086299L149.23968275388083,142.51371305851322L154.05386606852213,142.78128897893276L158.86804938316345,143.04599906600973L163.68223269780478,143.29651808335967L168.4964160124461,143.5241855529253L173.3105993270874,143.73929527509742L178.12478264172873,143.94016962524728L182.93896595637003,144.13094624516418L187.75314927101135,144.30646045122737L192.56733258565265,144.46929228562882L197.38151590029398,144.61531918448108L202.1956992149353,144.75488084240095L207.00988252957663,144.87892752363962L211.82406584421793,144.99096805958752L216.63824915885925,145.0968050471789L221.45243247350058,145.18476836414388L226.26661578814188,145.26072089107922L231.0807991027832,145.3346004278549L235.89498241742453,145.3950299295816L240.70916573206586,145.44576611295003L245.52334904670715,145.48994134251396L250.33753236134848,145.5297528975322L255.15171567598978,145.55997994708449L259.9658989906311,145.58408608969302" fill="none"></path></g><g><path style="fill: none;" stroke="rgb(238, 51, 119)" stroke-width="2px" d="M24.07091657320658,57.2822641477154L28.8850998878479,60.791308276620725L33.69928320248922,62.38207397946985L38.51346651713053,64.74760657215688L43.32764983177185,66.39402291026241L48.14183314641316,67.23382535911237L52.95601646105448,67.46138388266625L57.7701997756958,68.18335303270692L62.58438309033712,69.39176023785623L67.39856640497844,70.53460155536013L72.21274971961975,71.59065471794203L77.02693303426106,72.54364101911924L81.84111634890239,73.38172811590702L86.6552996635437,74.09838972625788L91.46948297818501,74.69149892242241L96.28366629282633,75.16297626706233L101.09784960746765,75.51969184509922L105.91203292210896,75.77222865551785L110.72621623675029,75.93488513984846L115.5403995513916,76.02521877730867L120.35458286603293,76.06320451037975L125.16876618067424,76.07081561904475L129.98294949531555,76.45580468509844L134.79713280995688,76.98011336477026L139.61131612459818,77.49617568508734L144.4254994392395,78.00288338014973L149.23968275388083,78.4989775752154L154.05386606852213,78.98412621533939L158.86804938316345,79.45647950458923L163.68223269780478,79.91615256331738L168.4964160124461,80.36166350684437L173.3105993270874,80.79254340695132L178.12478264172873,81.20814177738504L182.93896595637003,81.6083358024925L187.75314927101135,81.99239034429175L192.56733258565265,82.36040255482409L197.38151590029398,82.71141491064355L202.1956992149353,83.04560302482945L207.00988252957663,83.3629390289053L211.82406584421793,83.66305101512295L216.63824915885925,83.9459382192291L221.45243247350058,84.21197140836207L226.26661578814188,84.46091055978492L231.0807991027832,84.69301696775094L235.89498241742453,84.90861958277178L240.70916573206586,85.10795020307738L245.52334904670715,85.29143904050632L250.33753236134848,85.45931200319517L255.15171567598978,85.6121254997505L259.9658989906311,85.74984430286881" fill="none"></path></g><g><path style="fill: none;" stroke="rgb(51, 187, 238)" stroke-width="2px" d="M24.07091657320658,99.46853436672795L28.8850998878479,115.5402474956355L33.69928320248922,123.19721159184937L38.51346651713053,128.54084712691235L43.32764983177185,133.33959425987797L48.14183314641316,135.17812862259922L52.95601646105448,135.46668012023002L57.7701997756958,138.39603368188543L62.58438309033712,140.61503142382477L67.39856640497844,142.13952745592312L72.21274971961975,143.13075778505404L77.02693303426106,143.69156027440863L81.84111634890239,143.92974565100806L86.6552996635437,143.97786191871504L91.46948297818501,144.59942991970092L96.28366629282633,145.7432664691842L101.09784960746765,146.61336117476094L105.91203292210896,147.35728993008146L110.72621623675029,147.98161165398756L115.5403995513916,148.49500182838844L120.35458286603293,148.8872548331111L125.16876618067424,149.20679617149085L129.98294949531555,149.45091000619604L134.79713280995688,149.63485200679077L139.61131612459818,149.74897600733877L144.4254994392395,149.8095599204422L149.23968275388083,149.84634217448814L154.05386606852213,149.85708388163454L158.86804938316345,149.59092334247848L163.68223269780478,150.01310863613494L168.4964160124461,150.4060080445866L173.3105993270874,150.67172680087137L178.12478264172873,150.98823624794332L182.93896595637003,151.21265960263426L187.75314927101135,151.46696647686957L192.56733258565265,151.64640248460987L197.38151590029398,151.81820308851667L202.1956992149353,151.9952272719378L207.00988252957663,152.09441501720218L211.82406584421793,152.22857093811035L216.63824915885925,152.32234061497627L221.45243247350058,152.41187475377654L226.26661578814188,152.48644668784087L231.0807991027832,152.55851178992367L235.89498241742453,152.63353351430763L240.70916573206586,152.66233709030206L245.52334904670715,152.73233027253323L250.33753236134848,152.76193275949058L255.15171567598978,152.7984219951833L259.9658989906311,152.81521256334653" fill="none"></path></g></g></g></g></g></g><g transform="translate(41, 177)" clip-path="url(#clip_1)"><clipPath id="clip_1"><rect width="288" height="22"></rect></clipPath><g><g><line x1="0" y1="0" x2="0" y2="5" style="visibility: inherit;" fill="rgb(0, 0, 0)" stroke="rgb(204, 204, 204)" stroke-width="1px"></line><line x1="24.07091657320658" y1="0" x2="24.07091657320658" y2="5" style="visibility: inherit;" fill="rgb(0, 0, 0)" stroke="rgb(204, 204, 204)" stroke-width="1px"></line><line x1="48.14183314641316" y1="0" x2="48.14183314641316" y2="5" style="visibility: inherit;" fill="rgb(0, 0, 0)" stroke="rgb(204, 204, 204)" stroke-width="1px"></line><line x1="72.21274971961975" y1="0" x2="72.21274971961975" y2="5" style="visibility: inherit;" fill="rgb(0, 0, 0)" stroke="rgb(204, 204, 204)" stroke-width="1px"></line><line x1="96.28366629282633" y1="0" x2="96.28366629282633" y2="5" style="visibility: inherit;" fill="rgb(0, 0, 0)" stroke="rgb(204, 204, 204)" stroke-width="1px"></line><line x1="120.35458286603293" y1="0" x2="120.35458286603293" y2="5" style="visibility: inherit;" fill="rgb(0, 0, 0)" stroke="rgb(204, 204, 204)" stroke-width="1px"></line><line x1="144.4254994392395" y1="0" x2="144.4254994392395" y2="5" style="visibility: inherit;" fill="rgb(0, 0, 0)" stroke="rgb(204, 204, 204)" stroke-width="1px"></line><line x1="168.4964160124461" y1="0" x2="168.4964160124461" y2="5" style="visibility: inherit;" fill="rgb(0, 0, 0)" stroke="rgb(204, 204, 204)" stroke-width="1px"></line><line x1="192.56733258565265" y1="0" x2="192.56733258565265" y2="5" style="visibility: inherit;" fill="rgb(0, 0, 0)" stroke="rgb(204, 204, 204)" stroke-width="1px"></line><line x1="216.63824915885925" y1="0" x2="216.63824915885925" y2="5" style="visibility: inherit;" fill="rgb(0, 0, 0)" stroke="rgb(204, 204, 204)" stroke-width="1px"></line><line x1="240.70916573206586" y1="0" x2="240.70916573206586" y2="5" style="visibility: inherit;" fill="rgb(0, 0, 0)" stroke="rgb(204, 204, 204)" stroke-width="1px"></line><line x1="264.7800823052724" y1="0" x2="264.7800823052724" y2="5" style="visibility: inherit;" fill="rgb(0, 0, 0)" stroke="rgb(204, 204, 204)" stroke-width="1px"></line><line x1="288.850998878479" y1="0" x2="288.850998878479" y2="5" style="visibility: inherit;" fill="rgb(0, 0, 0)" stroke="rgb(204, 204, 204)" stroke-width="1px"></line></g><g transform="translate(0, 8)"><text style="text-anchor: middle; visibility: hidden; font-family: Roboto, sans-serif; font-size: 12px; font-weight: 200;" x="0" y="0" dx="0em" dy="0.95em" fill="rgb(50, 49, 63)" stroke="none" stroke-width="1px">-5</text><text style="text-anchor: middle; visibility: inherit; font-family: Roboto, sans-serif; font-size: 12px; font-weight: 200;" x="24.07091657320658" y="0" dx="0em" dy="0.95em" fill="rgb(50, 49, 63)" stroke="none" stroke-width="1px">0</text><text style="text-anchor: middle; visibility: inherit; font-family: Roboto, sans-serif; font-size: 12px; font-weight: 200;" x="48.14183314641316" y="0" dx="0em" dy="0.95em" fill="rgb(50, 49, 63)" stroke="none" stroke-width="1px">5</text><text style="text-anchor: middle; visibility: inherit; font-family: Roboto, sans-serif; font-size: 12px; font-weight: 200;" x="72.21274971961975" y="0" dx="0em" dy="0.95em" fill="rgb(50, 49, 63)" stroke="none" stroke-width="1px">10</text><text style="text-anchor: middle; visibility: inherit; font-family: Roboto, sans-serif; font-size: 12px; font-weight: 200;" x="96.28366629282633" y="0" dx="0em" dy="0.95em" fill="rgb(50, 49, 63)" stroke="none" stroke-width="1px">15</text><text style="text-anchor: middle; visibility: inherit; font-family: Roboto, sans-serif; font-size: 12px; font-weight: 200;" x="120.35458286603293" y="0" dx="0em" dy="0.95em" fill="rgb(50, 49, 63)" stroke="none" stroke-width="1px">20</text><text style="text-anchor: middle; visibility: inherit; font-family: Roboto, sans-serif; font-size: 12px; font-weight: 200;" x="144.4254994392395" y="0" dx="0em" dy="0.95em" fill="rgb(50, 49, 63)" stroke="none" stroke-width="1px">25</text><text style="text-anchor: middle; visibility: inherit; font-family: Roboto, sans-serif; font-size: 12px; font-weight: 200;" x="168.4964160124461" y="0" dx="0em" dy="0.95em" fill="rgb(50, 49, 63)" stroke="none" stroke-width="1px">30</text><text style="text-anchor: middle; visibility: inherit; font-family: Roboto, sans-serif; font-size: 12px; font-weight: 200;" x="192.56733258565265" y="0" dx="0em" dy="0.95em" fill="rgb(50, 49, 63)" stroke="none" stroke-width="1px">35</text><text style="text-anchor: middle; visibility: inherit; font-family: Roboto, sans-serif; font-size: 12px; font-weight: 200;" x="216.63824915885925" y="0" dx="0em" dy="0.95em" fill="rgb(50, 49, 63)" stroke="none" stroke-width="1px">40</text><text style="text-anchor: middle; visibility: inherit; font-family: Roboto, sans-serif; font-size: 12px; font-weight: 200;" x="240.70916573206586" y="0" dx="0em" dy="0.95em" fill="rgb(50, 49, 63)" stroke="none" stroke-width="1px">45</text><text style="text-anchor: middle; visibility: inherit; font-family: Roboto, sans-serif; font-size: 12px; font-weight: 200;" x="264.7800823052724" y="0" dx="0em" dy="0.95em" fill="rgb(50, 49, 63)" stroke="none" stroke-width="1px">50</text><text style="text-anchor: middle; visibility: hidden; font-family: Roboto, sans-serif; font-size: 12px; font-weight: 200;" x="288.850998878479" y="0" dx="0em" dy="0.95em" fill="rgb(50, 49, 63)" stroke="none" stroke-width="1px">55</text></g><line x1="0" y1="0" x2="288.850998878479" y2="0" fill="rgb(0, 0, 0)" stroke="rgb(204, 204, 204)" stroke-width="1px"></line></g></g></g></g></svg>