<svg viewBox="0 0 330 200" xmlns="http://www.w3.org/2000/svg"><g><g><g><g><g><line x1="51.53200149536133" y1="163.93846101027273" x2="46.53200149536133" y2="163.93846101027273" style="visibility: inherit;" fill="rgb(0, 0, 0)" stroke="rgb(204, 204, 204)" stroke-width="1px"></line><line x1="51.53200149536133" y1="150.27692259275" x2="46.53200149536133" y2="150.27692259275" style="visibility: inherit;" fill="rgb(0, 0, 0)" stroke="rgb(204, 204, 204)" stroke-width="1px"></line><line x1="51.53200149536133" y1="136.61538417522726" x2="46.53200149536133" y2="136.61538417522726" style="visibility: inherit;" fill="rgb(0, 0, 0)" stroke="rgb(204, 204, 204)" stroke-width="1px"></line><line x1="51.53200149536133" y1="122.95384575770451" x2="46.53200149536133" y2="122.95384575770451" style="visibility: inherit;" fill="rgb(0, 0, 0)" stroke="rgb(204, 204, 204)" stroke-width="1px"></line><line x1="51.53200149536133" y1="109.29230734018178" x2="46.53200149536133" y2="109.29230734018178" style="visibility: inherit;" fill="rgb(0, 0, 0)" stroke="rgb(204, 204, 204)" stroke-width="1px"></line><line x1="51.53200149536133" y1="95.63076892265904" x2="46.53200149536133" y2="95.63076892265904" style="visibility: inherit;" fill="rgb(0, 0, 0)" stroke="rgb(204, 204, 204)" stroke-width="1px"></line><line x1="51.53200149536133" y1="81.96923050513637" x2="46.53200149536133" y2="81.96923050513637" style="visibility: inherit;" fill="rgb(0, 0, 0)" stroke="rgb(204, 204, 204)" stroke-width="1px"></line><line x1="51.53200149536133" y1="68.30769208761363" x2="46.53200149536133" y2="68.30769208761363" style="visibility: inherit;" fill="rgb(0, 0, 0)" stroke="rgb(204, 204, 204)" stroke-width="1px"></line><line x1="51.53200149536133" y1="54.6461536700909" x2="46.53200149536133" y2="54.6461536700909" style="visibility: inherit;" fill="rgb(0, 0, 0)" stroke="rgb(204, 204, 204)" stroke-width="1px"></line><line x1="51.53200149536133" y1="40.98461525256815" x2="46.53200149536133" y2="40.98461525256815" style="visibility: inherit;" fill="rgb(0, 0, 0)" stroke="rgb(204, 204, 204)" stroke-width="1px"></line><line x1="51.53200149536133" y1="27.32307683504541" x2="46.53200149536133" y2="27.32307683504541" style="visibility: inherit;" fill="rgb(0, 0, 0)" stroke="rgb(204, 204, 204)" stroke-width="1px"></line><line x1="51.53200149536133" y1="13.661538417522676" x2="46.53200149536133" y2="13.661538417522676" style="visibility: inherit;" fill="rgb(0, 0, 0)" stroke="rgb(204, 204, 204)" stroke-width="1px"></line><line x1="51.53200149536133" y1="0" x2="46.53200149536133" y2="0" style="visibility: inherit;" fill="rgb(0, 0, 0)" stroke="rgb(204, 204, 204)" stroke-width="1px"></line></g><g transform="translate(41.53200149536133, 0)"><text style="text-anchor: end; visibility: inherit; font-family: Roboto, sans-serif; font-size: 12px; font-weight: 200;" x="0" y="163.93846101027273" dx="0em" dy="0.3em" fill="rgb(50, 49, 63)" stroke="none" stroke-width="1px">0.58</text><text style="text-anchor: end; visibility: hidden; font-family: Roboto, sans-serif; font-size: 12px; font-weight: 200;" x="0" y="150.27692259275" dx="0em" dy="0.3em" fill="rgb(50, 49, 63)" stroke="none" stroke-width="1px">0.6</text><text style="text-anchor: end; visibility: inherit; font-family: Roboto, sans-serif; font-size: 12px; font-weight: 200;" x="0" y="136.61538417522726" dx="0em" dy="0.3em" fill="rgb(50, 49, 63)" stroke="none" stroke-width="1px">0.62</text><text style="text-anchor: end; visibility: hidden; font-family: Roboto, sans-serif; font-size: 12px; font-weight: 200;" x="0" y="122.95384575770451" dx="0em" dy="0.3em" fill="rgb(50, 49, 63)" stroke="none" stroke-width="1px">0.64</text><text style="text-anchor: end; visibility: inherit; font-family: Roboto, sans-serif; font-size: 12px; font-weight: 200;" x="0" y="109.29230734018178" dx="0em" dy="0.3em" fill="rgb(50, 49, 63)" stroke="none" stroke-width="1px">0.66</text><text style="text-anchor: end; visibility: hidden; font-family: Roboto, sans-serif; font-size: 12px; font-weight: 200;" x="0" y="95.63076892265904" dx="0em" dy="0.3em" fill="rgb(50, 49, 63)" stroke="none" stroke-width="1px">0.68</text><text style="text-anchor: end; visibility: inherit; font-family: Roboto, sans-serif; font-size: 12px; font-weight: 200;" x="0" y="81.96923050513637" dx="0em" dy="0.3em" fill="rgb(50, 49, 63)" stroke="none" stroke-width="1px">0.7</text><text style="text-anchor: end; visibility: hidden; font-family: Roboto, sans-serif; font-size: 12px; font-weight: 200;" x="0" y="68.30769208761363" dx="0em" dy="0.3em" fill="rgb(50, 49, 63)" stroke="none" stroke-width="1px">0.72</text><text style="text-anchor: end; visibility: inherit; font-family: Roboto, sans-serif; font-size: 12px; font-weight: 200;" x="0" y="54.6461536700909" dx="0em" dy="0.3em" fill="rgb(50, 49, 63)" stroke="none" stroke-width="1px">0.74</text><text style="text-anchor: end; visibility: hidden; font-family: Roboto, sans-serif; font-size: 12px; font-weight: 200;" x="0" y="40.98461525256815" dx="0em" dy="0.3em" fill="rgb(50, 49, 63)" stroke="none" stroke-width="1px">0.76</text><text style="text-anchor: end; visibility: inherit; font-family: Roboto, sans-serif; font-size: 12px; font-weight: 200;" x="0" y="27.32307683504541" dx="0em" dy="0.3em" fill="rgb(50, 49, 63)" stroke="none" stroke-width="1px">0.78</text><text style="text-anchor: end; visibility: hidden; font-family: Roboto, sans-serif; font-size: 12px; font-weight: 200;" x="0" y="13.661538417522676" dx="0em" dy="0.3em" fill="rgb(50, 49, 63)" stroke="none" stroke-width="1px">0.8</text><text style="text-anchor: end; visibility: hidden; font-family: Roboto, sans-serif; font-size: 12px; font-weight: 200;" x="0" y="0" dx="0em" dy="0.3em" fill="rgb(50, 49, 63)" stroke="none" stroke-width="1px">0.82</text></g><line x1="51.53200149536133" y1="0" x2="51.53200149536133" y2="177.5999994277954" fill="rgb(0, 0, 0)" stroke="rgb(204, 204, 204)" stroke-width="1px"></line></g></g><g transform="translate(51, 0)" clip-path="url(#clip_0)"><clipPath id="clip_0"><rect width="278" height="177"></rect></clipPath><g><g><g><line x1="0" y1="0" x2="0" y2="177.5999994277954" fill="rgb(0, 0, 0)" stroke="rgb(60, 60, 60)" stroke-width="1px" opacity="0.25"></line><line x1="23.205666542053223" y1="0" x2="23.205666542053223" y2="177.5999994277954" fill="rgb(0, 0, 0)" stroke="rgb(60, 60, 60)" stroke-width="1px" opacity="0.25"></line><line x1="46.411333084106445" y1="0" x2="46.411333084106445" y2="177.5999994277954" fill="rgb(0, 0, 0)" stroke="rgb(60, 60, 60)" stroke-width="1px" opacity="0.25"></line><line x1="69.61699962615967" y1="0" x2="69.61699962615967" y2="177.5999994277954" fill="rgb(0, 0, 0)" stroke="rgb(60, 60, 60)" stroke-width="1px" opacity="0.25"></line><line x1="92.82266616821289" y1="0" x2="92.82266616821289" y2="177.5999994277954" fill="rgb(0, 0, 0)" stroke="rgb(60, 60, 60)" stroke-width="1px" opacity="0.25"></line><line x1="116.02833271026611" y1="0" x2="116.02833271026611" y2="177.5999994277954" fill="rgb(0, 0, 0)" stroke="rgb(60, 60, 60)" stroke-width="1px" opacity="0.25"></line><line x1="139.23399925231934" y1="0" x2="139.23399925231934" y2="177.5999994277954" fill="rgb(0, 0, 0)" stroke="rgb(60, 60, 60)" stroke-width="1px" opacity="0.25"></line><line x1="162.43966579437256" y1="0" x2="162.43966579437256" y2="177.5999994277954" fill="rgb(0, 0, 0)" stroke="rgb(60, 60, 60)" stroke-width="1px" opacity="0.25"></line><line x1="185.64533233642578" y1="0" x2="185.64533233642578" y2="177.5999994277954" fill="rgb(0, 0, 0)" stroke="rgb(60, 60, 60)" stroke-width="1px" opacity="0.25"></line><line x1="208.850998878479" y1="0" x2="208.850998878479" y2="177.5999994277954" fill="rgb(0, 0, 0)" stroke="rgb(60, 60, 60)" stroke-width="1px" opacity="0.25"></line><line x1="232.05666542053223" y1="0" x2="232.05666542053223" y2="177.5999994277954" fill="rgb(0, 0, 0)" stroke="rgb(60, 60, 60)" stroke-width="1px" opacity="0.25"></line><line x1="255.26233196258545" y1="0" x2="255.26233196258545" y2="177.5999994277954" fill="rgb(0, 0, 0)" stroke="rgb(60, 60, 60)" stroke-width="1px" opacity="0.25"></line><line x1="278.4679985046387" y1="0" x2="278.4679985046387" y2="177.5999994277954" fill="rgb(0, 0, 0)" stroke="rgb(60, 60, 60)" stroke-width="1px" opacity="0.25"></line></g><g><line x1="0" y1="163.93846101027273" x2="278.4679985046387" y2="163.93846101027273" fill="rgb(0, 0, 0)" stroke="rgb(60, 60, 60)" stroke-width="1px" opacity="0.25"></line><line x1="0" y1="150.27692259275" x2="278.4679985046387" y2="150.27692259275" fill="rgb(0, 0, 0)" stroke="rgb(60, 60, 60)" stroke-width="1px" opacity="0.25"></line><line x1="0" y1="136.61538417522726" x2="278.4679985046387" y2="136.61538417522726" fill="rgb(0, 0, 0)" stroke="rgb(60, 60, 60)" stroke-width="1px" opacity="0.25"></line><line x1="0" y1="122.95384575770451" x2="278.4679985046387" y2="122.95384575770451" fill="rgb(0, 0, 0)" stroke="rgb(60, 60, 60)" stroke-width="1px" opacity="0.25"></line><line x1="0" y1="109.29230734018178" x2="278.4679985046387" y2="109.29230734018178" fill="rgb(0, 0, 0)" stroke="rgb(60, 60, 60)" stroke-width="1px" opacity="0.25"></line><line x1="0" y1="95.63076892265904" x2="278.4679985046387" y2="95.63076892265904" fill="rgb(0, 0, 0)" stroke="rgb(60, 60, 60)" stroke-width="1px" opacity="0.25"></line><line x1="0" y1="81.96923050513637" x2="278.4679985046387" y2="81.96923050513637" fill="rgb(0, 0, 0)" stroke="rgb(60, 60, 60)" stroke-width="1px" opacity="0.25"></line><line x1="0" y1="68.30769208761363" x2="278.4679985046387" y2="68.30769208761363" fill="rgb(0, 0, 0)" stroke="rgb(60, 60, 60)" stroke-width="1px" opacity="0.25"></line><line x1="0" y1="54.6461536700909" x2="278.4679985046387" y2="54.6461536700909" fill="rgb(0, 0, 0)" stroke="rgb(60, 60, 60)" stroke-width="1px" opacity="0.25"></line><line x1="0" y1="40.98461525256815" x2="278.4679985046387" y2="40.98461525256815" fill="rgb(0, 0, 0)" stroke="rgb(60, 60, 60)" stroke-width="1px" opacity="0.25"></line><line x1="0" y1="27.32307683504541" x2="278.4679985046387" y2="27.32307683504541" fill="rgb(0, 0, 0)" stroke="rgb(60, 60, 60)" stroke-width="1px" opacity="0.25"></line><line x1="0" y1="13.661538417522676" x2="278.4679985046387" y2="13.661538417522676" fill="rgb(0, 0, 0)" stroke="rgb(60, 60, 60)" stroke-width="1px" opacity="0.25"></line><line x1="0" y1="0" x2="278.4679985046387" y2="0" fill="rgb(0, 0, 0)" stroke="rgb(60, 60, 60)" stroke-width="1px" opacity="0.25"></line></g></g></g><g><g><line x1="0" y1="560.1230751184319" x2="278.4679985046387" y2="560.1230751184319" fill="rgb(0, 0, 0)" stroke="rgb(153, 153, 153)" stroke-width="1.5px"></line></g></g><g><g><line x1="23.205666542053223" y1="0" x2="23.205666542053223" y2="177.5999994277954" fill="rgb(0, 0, 0)" stroke="rgb(153, 153, 153)" stroke-width="1.5px"></line></g></g><g><g><g><g><g><path style="fill: none;" stroke="rgb(0, 119, 187)" stroke-width="2px" d="M23.205666542053223,197.22156436173677L27.846799850463867,163.644163373299L32.48793315887451,149.31861241484566L37.129066467285156,139.68680919643856L41.7701997756958,131.50374065620744L46.411333084106445,125.59504271270846L51.05246639251708,122.2547626278019L55.693599700927734,118.9195787454845L60.33473300933838,116.16915640218375L64.97586631774902,113.80222068433513L69.61699962615967,111.99829253337683L74.25813293457031,110.6228290058709L78.89926624298096,109.69799050264642L83.5403995513916,108.66162138399389L88.18153285980225,106.83784361326184L92.82266616821289,105.86716824186273L97.46379947662354,105.37043729014103L102.10493278503417,104.0200582768776L106.74606609344484,103.63504041647683L111.38719940185547,103.07198915398865L116.02833271026611,101.99136273700134L120.66946601867676,102.2366166012209L125.3105993270874,101.44996215122868L129.95173263549805,100.25641602926167L134.5928659439087,100.61387591954787L139.23399925231934,99.71497338300303L143.87513256073,99.55576283963707L148.51626586914062,99.37552092728527L153.15739917755127,98.94786246827003L157.7985324859619,99.39681587951473L162.43966579437256,98.63303894846067L167.0807991027832,98.40660703051722L171.72193241119385,98.15877968275592L176.3630657196045,98.428169264958L181.00419902801514,98.24878455285732L185.64533233642578,97.88857880090296L190.28646564483643,97.91036914237127L194.92759895324707,98.47265331669352L199.56873226165771,98.22636276798862L204.20986557006833,97.6411594734078L208.850998878479,98.08975716185323L213.49213218688968,98.27057784849521L218.1332654953003,97.84364151467794L222.77439880371094,97.9327493876429L227.41553211212158,98.27026383294677L232.05666542053223,98.00109425806785L236.69779872894287,98.67522837803399L241.33893203735352,98.56414478079733L245.98006534576416,98.47396086797035L250.6211986541748,98.78860597673045" fill="none"></path></g><g><path style="fill: none;" stroke="rgb(255, 112, 67)" stroke-width="2px" d="M27.846799850463867,179.5890735229162L32.48793315887451,151.99238685234363L37.129066467285156,136.26576821745465L41.7701997756958,123.83223098598783L46.411333084106445,115.83181226010437L51.05246639251708,108.13923832785527L55.693599700927734,102.16390784839925L60.33473300933838,96.52955125104732L64.97586631774902,91.74449948200869L69.61699962615967,87.30839703544312L74.25813293457031,83.5576606961531L78.89926624298096,80.39658151783458L83.5403995513916,76.73522821984925L88.18153285980225,74.45192210850387L92.82266616821289,72.20030287874505L97.46379947662354,70.39237951543959L102.10493278503417,67.18699507313619L106.74606609344484,64.75031691207361L111.38719940185547,62.04512839416345L116.02833271026611,60.1205747434283L120.66946601867676,58.81479957839777L125.3105993270874,57.56812354476544L129.95173263549805,55.16429358773348L134.5928659439087,53.24034265412011L139.23399925231934,51.59702929932529L143.87513256073,50.233914407331866L148.51626586914062,49.556150020279006L153.15739917755127,46.28549363701155L157.7985324859619,45.39168733886473L162.43966579437256,44.955937918068024L167.0807991027832,43.56634799985738L171.72193241119385,43.4285449353159L176.3630657196045,41.01726203973233L181.00419902801514,39.51762795708041L185.64533233642578,39.35071465012485L190.28646564483643,38.25097027627536L194.92759895324707,36.705727747601955L199.56873226165771,36.16258235685254L204.20986557006833,35.38995422954416L208.850998878479,34.1829459616904L213.49213218688968,33.05219061070582L218.1332654953003,31.815494668063256L222.77439880371094,31.523713404044464L227.41553211212158,30.722657217776057L232.05666542053223,29.70843691980801L236.69779872894287,28.14410533656284L241.33893203735352,27.813107962687752L245.98006534576416,27.841376755153387L250.6211986541748,26.97346904320955" fill="none"></path></g></g></g></g><g opacity="0.2"><g><g><g><path style="fill: none;" stroke="rgb(0, 119, 187)" stroke-width="2px" d="M23.205666542053223,197.22156436173677L27.846799850463867,163.57700857132215L32.48793315887451,149.28990401072494L37.129066467285156,139.66750698573438L41.7701997756958,131.4873417212573L46.411333084106445,125.5832016346654L51.05246639251708,122.24806867973601L55.693599700927734,118.91289501024937L60.33473300933838,116.16364453376026L64.97586631774902,113.79747732618317L69.61699962615967,111.99467744690199L74.25813293457031,110.62007256593601L78.89926624298096,109.69613711887244L83.5403995513916,108.6595444919726L88.18153285980225,106.83418874798981L92.82266616821289,105.86522300063749L97.46379947662354,105.36944183733192L102.10493278503417,104.01735210651034L106.74606609344484,103.63426883759828L111.38719940185547,103.07086079474519L116.02833271026611,101.98919715299935L120.66946601867676,102.23710809193074L125.3105993270874,101.44838568940504L129.95173263549805,100.2540241532657L134.5928659439087,100.61459227203339L139.23399925231934,99.7131719751142L143.87513256073,99.55544378043194L148.51626586914062,99.37515972104809L153.15739917755127,98.94700543729009L157.7985324859619,99.39771558574968L162.43966579437256,98.63150833336836L167.0807991027832,98.40615325913858L171.72193241119385,98.1582830347644L176.3630657196045,98.42870912384015L181.00419902801514,98.24842506445633L185.64533233642578,97.88785694568863L190.28646564483643,97.91041281039021L194.92759895324707,98.47378013868611L199.56873226165771,98.22586919975471L204.20986557006833,97.63998672131446L208.850998878479,98.09065615521683L213.49213218688968,98.27094021460069L218.1332654953003,97.84278593084267L222.77439880371094,97.93292796053458L227.41553211212158,98.27094021460069L232.05666542053223,98.00055484008215L236.69779872894287,98.67657934821432L241.33893203735352,98.56392216837803L245.98006534576416,98.47378013868611L250.6211986541748,98.78923652805061" fill="none"></path></g><g><path style="fill: none;" stroke="rgb(255, 112, 67)" stroke-width="2px" d="M27.846799850463867,179.37108103841757L32.48793315887451,151.93708309225582L37.129066467285156,136.23425194789735L41.7701997756958,123.80731407770867L46.411333084106445,115.81577935684616L51.05246639251708,108.12382234803118L55.693599700927734,102.15193323822005L60.33473300933838,96.51825995526113L64.97586631774902,91.73491019990642L69.61699962615967,87.29950705058025L74.25813293457031,83.55014419046313L78.89926624298096,80.39024668982192L83.5403995513916,76.72789083849057L88.18153285980225,74.44734634475363L92.82266616821289,72.19579061575955L97.46379947662354,70.38875642252715L102.10493278503417,67.18057145701934L106.74606609344484,64.74543378950636L111.38719940185547,62.039707174688715L116.02833271026611,60.116717922484945L120.66946601867676,58.81218279449995L125.3105993270874,57.56562519600059L129.95173263549805,55.15947629323043L134.5928659439087,53.236487041026685L139.23399925231934,51.59373608618946L143.87513256073,50.23118271416154L148.51626586914062,49.55479177501435L153.15739917755127,46.278939215401785L157.7985324859619,45.38989614387839L162.43966579437256,44.9550646727358L167.0807991027832,43.563563250522265L171.72193241119385,43.42826877686993L176.3630657196045,41.012429809480686L181.00419902801514,39.51462267835766L185.64533233642578,39.35038015451972L190.28646564483643,38.24876637973457L194.92759895324707,36.70263106918774L199.56873226165771,36.16149388913566L204.20986557006833,35.388405876583626L208.850998878479,34.180527107446224L213.49213218688968,33.04992456791825L218.1332654953003,31.813016319480784L222.77439880371094,31.52312867205238L227.41553211212158,30.72105189475752L232.05666542053223,29.7064044142009L236.69779872894287,28.140970403530318L241.33893203735352,27.8124446412972L245.98006534576416,27.841433406040043L250.6211986541748,26.971729749197628" fill="none"></path></g></g></g></g></g></g><g transform="translate(51, 177)" clip-path="url(#clip_1)"><clipPath id="clip_1"><rect width="278" height="22"></rect></clipPath><g><g><line x1="0" y1="0" x2="0" y2="5" style="visibility: inherit;" fill="rgb(0, 0, 0)" stroke="rgb(204, 204, 204)" stroke-width="1px"></line><line x1="23.205666542053223" y1="0" x2="23.205666542053223" y2="5" style="visibility: inherit;" fill="rgb(0, 0, 0)" stroke="rgb(204, 204, 204)" stroke-width="1px"></line><line x1="46.411333084106445" y1="0" x2="46.411333084106445" y2="5" style="visibility: inherit;" fill="rgb(0, 0, 0)" stroke="rgb(204, 204, 204)" stroke-width="1px"></line><line x1="69.61699962615967" y1="0" x2="69.61699962615967" y2="5" style="visibility: inherit;" fill="rgb(0, 0, 0)" stroke="rgb(204, 204, 204)" stroke-width="1px"></line><line x1="92.82266616821289" y1="0" x2="92.82266616821289" y2="5" style="visibility: inherit;" fill="rgb(0, 0, 0)" stroke="rgb(204, 204, 204)" stroke-width="1px"></line><line x1="116.02833271026611" y1="0" x2="116.02833271026611" y2="5" style="visibility: inherit;" fill="rgb(0, 0, 0)" stroke="rgb(204, 204, 204)" stroke-width="1px"></line><line x1="139.23399925231934" y1="0" x2="139.23399925231934" y2="5" style="visibility: inherit;" fill="rgb(0, 0, 0)" stroke="rgb(204, 204, 204)" stroke-width="1px"></line><line x1="162.43966579437256" y1="0" x2="162.43966579437256" y2="5" style="visibility: inherit;" fill="rgb(0, 0, 0)" stroke="rgb(204, 204, 204)" stroke-width="1px"></line><line x1="185.64533233642578" y1="0" x2="185.64533233642578" y2="5" style="visibility: inherit;" fill="rgb(0, 0, 0)" stroke="rgb(204, 204, 204)" stroke-width="1px"></line><line x1="208.850998878479" y1="0" x2="208.850998878479" y2="5" style="visibility: inherit;" fill="rgb(0, 0, 0)" stroke="rgb(204, 204, 204)" stroke-width="1px"></line><line x1="232.05666542053223" y1="0" x2="232.05666542053223" y2="5" style="visibility: inherit;" fill="rgb(0, 0, 0)" stroke="rgb(204, 204, 204)" stroke-width="1px"></line><line x1="255.26233196258545" y1="0" x2="255.26233196258545" y2="5" style="visibility: inherit;" fill="rgb(0, 0, 0)" stroke="rgb(204, 204, 204)" stroke-width="1px"></line><line x1="278.4679985046387" y1="0" x2="278.4679985046387" y2="5" style="visibility: inherit;" fill="rgb(0, 0, 0)" stroke="rgb(204, 204, 204)" stroke-width="1px"></line></g><g transform="translate(0, 8)"><text style="text-anchor: middle; visibility: hidden; font-family: Roboto, sans-serif; font-size: 12px; font-weight: 200;" x="0" y="0" dx="0em" dy="0.95em" fill="rgb(50, 49, 63)" stroke="none" stroke-width="1px">-5</text><text style="text-anchor: middle; visibility: inherit; font-family: Roboto, sans-serif; font-size: 12px; font-weight: 200;" x="23.205666542053223" y="0" dx="0em" dy="0.95em" fill="rgb(50, 49, 63)" stroke="none" stroke-width="1px">0</text><text style="text-anchor: middle; visibility: inherit; font-family: Roboto, sans-serif; font-size: 12px; font-weight: 200;" x="46.411333084106445" y="0" dx="0em" dy="0.95em" fill="rgb(50, 49, 63)" stroke="none" stroke-width="1px">5</text><text style="text-anchor: middle; visibility: inherit; font-family: Roboto, sans-serif; font-size: 12px; font-weight: 200;" x="69.61699962615967" y="0" dx="0em" dy="0.95em" fill="rgb(50, 49, 63)" stroke="none" stroke-width="1px">10</text><text style="text-anchor: middle; visibility: inherit; font-family: Roboto, sans-serif; font-size: 12px; font-weight: 200;" x="92.82266616821289" y="0" dx="0em" dy="0.95em" fill="rgb(50, 49, 63)" stroke="none" stroke-width="1px">15</text><text style="text-anchor: middle; visibility: inherit; font-family: Roboto, sans-serif; font-size: 12px; font-weight: 200;" x="116.02833271026611" y="0" dx="0em" dy="0.95em" fill="rgb(50, 49, 63)" stroke="none" stroke-width="1px">20</text><text style="text-anchor: middle; visibility: inherit; font-family: Roboto, sans-serif; font-size: 12px; font-weight: 200;" x="139.23399925231934" y="0" dx="0em" dy="0.95em" fill="rgb(50, 49, 63)" stroke="none" stroke-width="1px">25</text><text style="text-anchor: middle; visibility: inherit; font-family: Roboto, sans-serif; font-size: 12px; font-weight: 200;" x="162.43966579437256" y="0" dx="0em" dy="0.95em" fill="rgb(50, 49, 63)" stroke="none" stroke-width="1px">30</text><text style="text-anchor: middle; visibility: inherit; font-family: Roboto, sans-serif; font-size: 12px; font-weight: 200;" x="185.64533233642578" y="0" dx="0em" dy="0.95em" fill="rgb(50, 49, 63)" stroke="none" stroke-width="1px">35</text><text style="text-anchor: middle; visibility: inherit; font-family: Roboto, sans-serif; font-size: 12px; font-weight: 200;" x="208.850998878479" y="0" dx="0em" dy="0.95em" fill="rgb(50, 49, 63)" stroke="none" stroke-width="1px">40</text><text style="text-anchor: middle; visibility: inherit; font-family: Roboto, sans-serif; font-size: 12px; font-weight: 200;" x="232.05666542053223" y="0" dx="0em" dy="0.95em" fill="rgb(50, 49, 63)" stroke="none" stroke-width="1px">45</text><text style="text-anchor: middle; visibility: inherit; font-family: Roboto, sans-serif; font-size: 12px; font-weight: 200;" x="255.26233196258545" y="0" dx="0em" dy="0.95em" fill="rgb(50, 49, 63)" stroke="none" stroke-width="1px">50</text><text style="text-anchor: middle; visibility: hidden; font-family: Roboto, sans-serif; font-size: 12px; font-weight: 200;" x="278.4679985046387" y="0" dx="0em" dy="0.95em" fill="rgb(50, 49, 63)" stroke="none" stroke-width="1px">55</text></g><line x1="0" y1="0" x2="278.4679985046387" y2="0" fill="rgb(0, 0, 0)" stroke="rgb(204, 204, 204)" stroke-width="1px"></line></g></g></g></g></svg>