<svg viewBox="0 0 330 200" xmlns="http://www.w3.org/2000/svg"><g><g><g><g><g><line x1="51.53200149536133" y1="163.93846101027282" x2="46.53200149536133" y2="163.93846101027282" style="visibility: inherit;" fill="rgb(0, 0, 0)" stroke="rgb(204, 204, 204)" stroke-width="1px"></line><line x1="51.53200149536133" y1="150.27692259275005" x2="46.53200149536133" y2="150.27692259275005" style="visibility: inherit;" fill="rgb(0, 0, 0)" stroke="rgb(204, 204, 204)" stroke-width="1px"></line><line x1="51.53200149536133" y1="136.61538417522732" x2="46.53200149536133" y2="136.61538417522732" style="visibility: inherit;" fill="rgb(0, 0, 0)" stroke="rgb(204, 204, 204)" stroke-width="1px"></line><line x1="51.53200149536133" y1="122.95384575770457" x2="46.53200149536133" y2="122.95384575770457" style="visibility: inherit;" fill="rgb(0, 0, 0)" stroke="rgb(204, 204, 204)" stroke-width="1px"></line><line x1="51.53200149536133" y1="109.29230734018184" x2="46.53200149536133" y2="109.29230734018184" style="visibility: inherit;" fill="rgb(0, 0, 0)" stroke="rgb(204, 204, 204)" stroke-width="1px"></line><line x1="51.53200149536133" y1="95.63076892265909" x2="46.53200149536133" y2="95.63076892265909" style="visibility: inherit;" fill="rgb(0, 0, 0)" stroke="rgb(204, 204, 204)" stroke-width="1px"></line><line x1="51.53200149536133" y1="81.96923050513632" x2="46.53200149536133" y2="81.96923050513632" style="visibility: inherit;" fill="rgb(0, 0, 0)" stroke="rgb(204, 204, 204)" stroke-width="1px"></line><line x1="51.53200149536133" y1="68.30769208761359" x2="46.53200149536133" y2="68.30769208761359" style="visibility: inherit;" fill="rgb(0, 0, 0)" stroke="rgb(204, 204, 204)" stroke-width="1px"></line><line x1="51.53200149536133" y1="54.64615367009084" x2="46.53200149536133" y2="54.64615367009084" style="visibility: inherit;" fill="rgb(0, 0, 0)" stroke="rgb(204, 204, 204)" stroke-width="1px"></line><line x1="51.53200149536133" y1="40.984615252568084" x2="46.53200149536133" y2="40.984615252568084" style="visibility: inherit;" fill="rgb(0, 0, 0)" stroke="rgb(204, 204, 204)" stroke-width="1px"></line><line x1="51.53200149536133" y1="27.323076835045352" x2="46.53200149536133" y2="27.323076835045352" style="visibility: inherit;" fill="rgb(0, 0, 0)" stroke="rgb(204, 204, 204)" stroke-width="1px"></line><line x1="51.53200149536133" y1="13.661538417522596" x2="46.53200149536133" y2="13.661538417522596" style="visibility: inherit;" fill="rgb(0, 0, 0)" stroke="rgb(204, 204, 204)" stroke-width="1px"></line><line x1="51.53200149536133" y1="0" x2="46.53200149536133" y2="0" style="visibility: inherit;" fill="rgb(0, 0, 0)" stroke="rgb(204, 204, 204)" stroke-width="1px"></line></g><g transform="translate(41.53200149536133, 0)"><text style="text-anchor: end; visibility: inherit; font-family: Roboto, sans-serif; font-size: 12px; font-weight: 200;" x="0" y="163.93846101027282" dx="0em" dy="0.3em" fill="rgb(50, 49, 63)" stroke="none" stroke-width="1px">0.57</text><text style="text-anchor: end; visibility: hidden; font-family: Roboto, sans-serif; font-size: 12px; font-weight: 200;" x="0" y="150.27692259275005" dx="0em" dy="0.3em" fill="rgb(50, 49, 63)" stroke="none" stroke-width="1px">0.58</text><text style="text-anchor: end; visibility: inherit; font-family: Roboto, sans-serif; font-size: 12px; font-weight: 200;" x="0" y="136.61538417522732" dx="0em" dy="0.3em" fill="rgb(50, 49, 63)" stroke="none" stroke-width="1px">0.59</text><text style="text-anchor: end; visibility: hidden; font-family: Roboto, sans-serif; font-size: 12px; font-weight: 200;" x="0" y="122.95384575770457" dx="0em" dy="0.3em" fill="rgb(50, 49, 63)" stroke="none" stroke-width="1px">0.6</text><text style="text-anchor: end; visibility: inherit; font-family: Roboto, sans-serif; font-size: 12px; font-weight: 200;" x="0" y="109.29230734018184" dx="0em" dy="0.3em" fill="rgb(50, 49, 63)" stroke="none" stroke-width="1px">0.61</text><text style="text-anchor: end; visibility: hidden; font-family: Roboto, sans-serif; font-size: 12px; font-weight: 200;" x="0" y="95.63076892265909" dx="0em" dy="0.3em" fill="rgb(50, 49, 63)" stroke="none" stroke-width="1px">0.62</text><text style="text-anchor: end; visibility: inherit; font-family: Roboto, sans-serif; font-size: 12px; font-weight: 200;" x="0" y="81.96923050513632" dx="0em" dy="0.3em" fill="rgb(50, 49, 63)" stroke="none" stroke-width="1px">0.63</text><text style="text-anchor: end; visibility: hidden; font-family: Roboto, sans-serif; font-size: 12px; font-weight: 200;" x="0" y="68.30769208761359" dx="0em" dy="0.3em" fill="rgb(50, 49, 63)" stroke="none" stroke-width="1px">0.64</text><text style="text-anchor: end; visibility: inherit; font-family: Roboto, sans-serif; font-size: 12px; font-weight: 200;" x="0" y="54.64615367009084" dx="0em" dy="0.3em" fill="rgb(50, 49, 63)" stroke="none" stroke-width="1px">0.65</text><text style="text-anchor: end; visibility: hidden; font-family: Roboto, sans-serif; font-size: 12px; font-weight: 200;" x="0" y="40.984615252568084" dx="0em" dy="0.3em" fill="rgb(50, 49, 63)" stroke="none" stroke-width="1px">0.66</text><text style="text-anchor: end; visibility: inherit; font-family: Roboto, sans-serif; font-size: 12px; font-weight: 200;" x="0" y="27.323076835045352" dx="0em" dy="0.3em" fill="rgb(50, 49, 63)" stroke="none" stroke-width="1px">0.67</text><text style="text-anchor: end; visibility: hidden; font-family: Roboto, sans-serif; font-size: 12px; font-weight: 200;" x="0" y="13.661538417522596" dx="0em" dy="0.3em" fill="rgb(50, 49, 63)" stroke="none" stroke-width="1px">0.68</text><text style="text-anchor: end; visibility: hidden; font-family: Roboto, sans-serif; font-size: 12px; font-weight: 200;" x="0" y="0" dx="0em" dy="0.3em" fill="rgb(50, 49, 63)" stroke="none" stroke-width="1px">0.69</text></g><line x1="51.53200149536133" y1="0" x2="51.53200149536133" y2="177.5999994277954" fill="rgb(0, 0, 0)" stroke="rgb(204, 204, 204)" stroke-width="1px"></line></g></g><g transform="translate(51, 0)" clip-path="url(#clip_0)"><clipPath id="clip_0"><rect width="278" height="177"></rect></clipPath><g><g><g><line x1="0" y1="0" x2="0" y2="177.5999994277954" fill="rgb(0, 0, 0)" stroke="rgb(60, 60, 60)" stroke-width="1px" opacity="0.25"></line><line x1="23.205666542053223" y1="0" x2="23.205666542053223" y2="177.5999994277954" fill="rgb(0, 0, 0)" stroke="rgb(60, 60, 60)" stroke-width="1px" opacity="0.25"></line><line x1="46.411333084106445" y1="0" x2="46.411333084106445" y2="177.5999994277954" fill="rgb(0, 0, 0)" stroke="rgb(60, 60, 60)" stroke-width="1px" opacity="0.25"></line><line x1="69.61699962615967" y1="0" x2="69.61699962615967" y2="177.5999994277954" fill="rgb(0, 0, 0)" stroke="rgb(60, 60, 60)" stroke-width="1px" opacity="0.25"></line><line x1="92.82266616821289" y1="0" x2="92.82266616821289" y2="177.5999994277954" fill="rgb(0, 0, 0)" stroke="rgb(60, 60, 60)" stroke-width="1px" opacity="0.25"></line><line x1="116.02833271026611" y1="0" x2="116.02833271026611" y2="177.5999994277954" fill="rgb(0, 0, 0)" stroke="rgb(60, 60, 60)" stroke-width="1px" opacity="0.25"></line><line x1="139.23399925231934" y1="0" x2="139.23399925231934" y2="177.5999994277954" fill="rgb(0, 0, 0)" stroke="rgb(60, 60, 60)" stroke-width="1px" opacity="0.25"></line><line x1="162.43966579437256" y1="0" x2="162.43966579437256" y2="177.5999994277954" fill="rgb(0, 0, 0)" stroke="rgb(60, 60, 60)" stroke-width="1px" opacity="0.25"></line><line x1="185.64533233642578" y1="0" x2="185.64533233642578" y2="177.5999994277954" fill="rgb(0, 0, 0)" stroke="rgb(60, 60, 60)" stroke-width="1px" opacity="0.25"></line><line x1="208.850998878479" y1="0" x2="208.850998878479" y2="177.5999994277954" fill="rgb(0, 0, 0)" stroke="rgb(60, 60, 60)" stroke-width="1px" opacity="0.25"></line><line x1="232.05666542053223" y1="0" x2="232.05666542053223" y2="177.5999994277954" fill="rgb(0, 0, 0)" stroke="rgb(60, 60, 60)" stroke-width="1px" opacity="0.25"></line><line x1="255.26233196258545" y1="0" x2="255.26233196258545" y2="177.5999994277954" fill="rgb(0, 0, 0)" stroke="rgb(60, 60, 60)" stroke-width="1px" opacity="0.25"></line><line x1="278.4679985046387" y1="0" x2="278.4679985046387" y2="177.5999994277954" fill="rgb(0, 0, 0)" stroke="rgb(60, 60, 60)" stroke-width="1px" opacity="0.25"></line></g><g><line x1="0" y1="163.93846101027282" x2="278.4679985046387" y2="163.93846101027282" fill="rgb(0, 0, 0)" stroke="rgb(60, 60, 60)" stroke-width="1px" opacity="0.25"></line><line x1="0" y1="150.27692259275005" x2="278.4679985046387" y2="150.27692259275005" fill="rgb(0, 0, 0)" stroke="rgb(60, 60, 60)" stroke-width="1px" opacity="0.25"></line><line x1="0" y1="136.61538417522732" x2="278.4679985046387" y2="136.61538417522732" fill="rgb(0, 0, 0)" stroke="rgb(60, 60, 60)" stroke-width="1px" opacity="0.25"></line><line x1="0" y1="122.95384575770457" x2="278.4679985046387" y2="122.95384575770457" fill="rgb(0, 0, 0)" stroke="rgb(60, 60, 60)" stroke-width="1px" opacity="0.25"></line><line x1="0" y1="109.29230734018184" x2="278.4679985046387" y2="109.29230734018184" fill="rgb(0, 0, 0)" stroke="rgb(60, 60, 60)" stroke-width="1px" opacity="0.25"></line><line x1="0" y1="95.63076892265909" x2="278.4679985046387" y2="95.63076892265909" fill="rgb(0, 0, 0)" stroke="rgb(60, 60, 60)" stroke-width="1px" opacity="0.25"></line><line x1="0" y1="81.96923050513632" x2="278.4679985046387" y2="81.96923050513632" fill="rgb(0, 0, 0)" stroke="rgb(60, 60, 60)" stroke-width="1px" opacity="0.25"></line><line x1="0" y1="68.30769208761359" x2="278.4679985046387" y2="68.30769208761359" fill="rgb(0, 0, 0)" stroke="rgb(60, 60, 60)" stroke-width="1px" opacity="0.25"></line><line x1="0" y1="54.64615367009084" x2="278.4679985046387" y2="54.64615367009084" fill="rgb(0, 0, 0)" stroke="rgb(60, 60, 60)" stroke-width="1px" opacity="0.25"></line><line x1="0" y1="40.984615252568084" x2="278.4679985046387" y2="40.984615252568084" fill="rgb(0, 0, 0)" stroke="rgb(60, 60, 60)" stroke-width="1px" opacity="0.25"></line><line x1="0" y1="27.323076835045352" x2="278.4679985046387" y2="27.323076835045352" fill="rgb(0, 0, 0)" stroke="rgb(60, 60, 60)" stroke-width="1px" opacity="0.25"></line><line x1="0" y1="13.661538417522596" x2="278.4679985046387" y2="13.661538417522596" fill="rgb(0, 0, 0)" stroke="rgb(60, 60, 60)" stroke-width="1px" opacity="0.25"></line><line x1="0" y1="0" x2="278.4679985046387" y2="0" fill="rgb(0, 0, 0)" stroke="rgb(60, 60, 60)" stroke-width="1px" opacity="0.25"></line></g></g></g><g><g><line x1="0" y1="942.6461508090687" x2="278.4679985046387" y2="942.6461508090687" fill="rgb(0, 0, 0)" stroke="rgb(153, 153, 153)" stroke-width="1.5px"></line></g></g><g><g><line x1="23.205666542053223" y1="0" x2="23.205666542053223" y2="177.5999994277954" fill="rgb(0, 0, 0)" stroke="rgb(153, 153, 153)" stroke-width="1.5px"></line></g></g><g><g><g><g><g><path style="fill: none;" stroke="rgb(238, 51, 119)" stroke-width="2px" d="M23.205666542053223,229.8682861551457L27.846799850463867,163.48051344212118L32.48793315887451,131.93169877020784L37.129066467285156,114.08414689500866L41.7701997756958,100.24771176831385L46.411333084106445,90.87318496769744L51.05246639251708,82.08462207463573L55.693599700927734,74.3326518084739L60.33473300933838,67.61719274009747L64.97586631774902,64.19195847003337L69.61699962615967,59.73005014395497L74.25813293457031,55.718851966336175L78.89926624298096,53.14984483467366L83.5403995513916,50.89637552149008L88.18153285980225,49.27381898703552L92.82266616821289,47.921769970771145L97.46379947662354,47.24566403352453L102.10493278503417,45.75836125816506L106.74606609344484,44.58659630128453L111.38719940185547,42.73872540715737L116.02833271026611,42.24298495840904L120.66946601867676,41.026108272125335L125.3105993270874,39.40355173767075L129.95173263549805,39.628947526457786L134.5928659439087,39.358521437382024L139.23399925231934,37.60079257294679L143.87513256073,38.14164475109832L148.51626586914062,36.29377385697115L153.15739917755127,37.28525475446785L157.7985324859619,36.74448400543076L162.43966579437256,36.11348979758732L167.0807991027832,35.61774934883898L171.72193241119385,35.30221153036003L176.3630657196045,35.572637619435795L181.00419902801514,33.634624695616715L185.64533233642578,33.814908755000566L190.28646564483643,33.138884246868386L194.92759895324707,34.26561890346018L199.56873226165771,34.490933263132746L204.20986557006833,32.868458157792624L208.850998878479,33.00363048777328L213.49213218688968,32.05717989056534L218.1332654953003,32.19243364966043L222.77439880371094,33.00363048777328L227.41553211212158,32.733285827811955L232.05666542053223,32.868458157792624L236.69779872894287,31.741723501200838L241.33893203735352,31.651581471508923L245.98006534576416,31.51632771241381L250.6211986541748,32.14732192025725" fill="none"></path></g><g><path style="fill: none;" stroke="rgb(0, 119, 187)" stroke-width="2px" d="M23.205666542053223,239.0174171669751L27.846799850463867,174.02688662873254L32.48793315887451,144.1456587915625L37.129066467285156,125.03603707156202L41.7701997756958,110.7940035258108L46.411333084106445,102.05047093303781L51.05246639251708,92.54077180244074L55.693599700927734,85.96056649315942L60.33473300933838,80.7776033586601L64.97586631774902,75.23399067627865L69.61699962615967,72.39463888465481L74.25813293457031,69.23974927455203L78.89926624298096,66.49045808350569L83.5403995513916,64.5524451596866L88.18153285980225,61.62295133837087L92.82266616821289,60.18067886330014L97.46379947662354,58.1074936095004L102.10493278503417,56.575160533852184L106.74606609344484,56.980758952908616L111.38719940185547,54.00615340218968L116.02833271026611,53.194875134962395L120.66946601867676,52.65410438592531L125.3105993270874,51.16680161056584L129.95173263549805,49.90481319487896L134.5928659439087,48.91325086826782L139.23399925231934,48.102054030154996L143.87513256073,47.42594809290836L148.51626586914062,46.88517734387127L153.15739917755127,46.073899076644L157.7985324859619,45.75836125816506L162.43966579437256,46.659781555084265L167.0807991027832,45.75836125816506L171.72193241119385,43.95560209344107L176.3630657196045,43.820429763460425L181.00419902801514,44.406312241900686L185.64533233642578,45.578158627895654L190.28646564483643,44.135886152824924L194.92759895324707,44.8570223903603L199.56873226165771,43.95560209344107L204.20986557006833,43.730287733768506L208.850998878479,41.65702105085433L213.49213218688968,43.00915149623313L218.1332654953003,41.97255886933328L222.77439880371094,42.15284292871711L227.41553211212158,42.87397916625248L232.05666542053223,43.09929352592506L236.69779872894287,42.55844134777354L241.33893203735352,42.64858337746546L245.98006534576416,41.206392331509164L250.6211986541748,42.24298495840904" fill="none"></path></g><g><path style="fill: none;" stroke="rgb(204, 51, 17)" stroke-width="2px" d="M23.205666542053223,233.38374388401618L27.846799850463867,169.97057672171056L32.48793315887451,139.72878076577285L37.129066467285156,120.66427077517555L41.7701997756958,108.76593000141423L46.411333084106445,97.94913072572709L51.05246639251708,89.65630828141373L55.693599700927734,82.98604237155493L60.33473300933838,78.56916434576526L64.97586631774902,73.38611978215151L69.61699962615967,70.5917982908164L74.25813293457031,67.07642199106039L78.89926624298096,61.98351945713854L83.5403995513916,60.31593262239523L88.18153285980225,58.603315487363176L92.82266616821289,57.161043012292446L97.46379947662354,56.12445038539259L102.10493278503417,53.285017164654306L106.74606609344484,53.14984483467366L111.38719940185547,50.580837703011134L116.02833271026611,50.44566537303049L120.66946601867676,48.46262214892267L125.3105993270874,48.14708433044373L129.95173263549805,48.327368389827555L134.5928659439087,46.29921343631656L139.23399925231934,46.43446719541168L143.87513256073,46.52460922510359L148.51626586914062,44.27113991192003L153.15739917755127,44.4964542715926L157.7985324859619,43.05418179652187L162.43966579437256,43.41474991528956L167.0807991027832,42.55844134777354L171.72193241119385,42.15284292871711L176.3630657196045,43.00915149623313L181.00419902801514,41.386676390893015L185.64533233642578,41.97255886933328L190.28646564483643,42.964039766829956L194.92759895324707,41.29653436120108L199.56873226165771,42.01758916962201L204.20986557006833,41.702132780257514L208.850998878479,40.84582421274149L213.49213218688968,42.15284292871711L218.1332654953003,41.11625030181725L222.77439880371094,40.89085451303022L227.41553211212158,41.29653436120108L232.05666542053223,40.57539812366572L236.69779872894287,41.386676390893015L241.33893203735352,40.124687975206115L245.98006534576416,40.30497203458996L250.6211986541748,40.80071248333831" fill="none"></path></g><g><path style="fill: none;" stroke="rgb(51, 187, 238)" stroke-width="2px" d="M23.205666542053223,234.46536681120477L27.846799850463867,168.6185277054462L32.48793315887451,138.78233016856493L37.129066467285156,121.02483889394321L41.7701997756958,106.69266331850007L46.411333084106445,96.59708170946274L51.05246639251708,87.35780866794141L55.693599700927734,81.9043380152519L60.33473300933838,76.27058330317851L64.97586631774902,70.81719407960342L69.61699962615967,67.84258852888449L74.25813293457031,64.95812500785748L78.89926624298096,62.20883381681113L83.5403995513916,58.828629847035764L88.18153285980225,56.84558662292795L92.82266616821289,54.00615340218968L97.46379947662354,53.059702804981725L102.10493278503417,51.84282611869802L106.74606609344484,50.80623349179817L111.38719940185547,48.86822056797909L116.02833271026611,48.282338089538825L120.66946601867676,47.65134388169538L125.3105993270874,46.25418313602783L129.95173263549805,45.62318892818439L134.5928659439087,44.90205269064903L139.23399925231934,44.67673833097645L143.87513256073,42.87397916625248L148.51626586914062,42.15284292871711L153.15739917755127,42.87397916625248L157.7985324859619,41.16128060210599L162.43966579437256,40.530286394262546L167.0807991027832,40.530286394262546L171.72193241119385,41.16128060210599L176.3630657196045,40.21483000489805L181.00419902801514,41.61199075056558L185.64533233642578,41.927447139930095L190.28646564483643,41.702132780257514L194.92759895324707,39.809231585841616L199.56873226165771,40.62042842395446L204.20986557006833,40.84582421274149L208.850998878479,39.809231585841616L213.49213218688968,39.7190895561497L218.1332654953003,39.358521437382024L222.77439880371094,40.530286394262546L227.41553211212158,40.9359662424334L232.05666542053223,41.026108272125335L236.69779872894287,39.67397782674652L241.33893203735352,40.48525609397381L245.98006534576416,39.98951564522546L250.6211986541748,40.034545945514196" fill="none"></path></g><g><path style="fill: none;" stroke="rgb(255, 112, 67)" stroke-width="2px" d="M23.205666542053223,235.72735522689166L27.846799850463867,167.94242176819958L32.48793315887451,139.86403452486798L37.129066467285156,120.84455483455937L41.7701997756958,106.37720692913557L46.411333084106445,97.49842057726748L51.05246639251708,90.60275887862167L55.693599700927734,83.84235093907095L60.33473300933838,78.20859622699759L64.97586631774902,73.16080542247893L69.61699962615967,70.05102754177932L74.25813293457031,66.67074214288952L78.89926624298096,63.83139035126569L83.5403995513916,60.18067886330014L88.18153285980225,58.06246330921165L92.82266616821289,55.403314147857216L97.46379947662354,53.82586934280583L102.10493278503417,53.104733105270476L106.74606609344484,50.941405821778815L111.38719940185547,48.732966808883994L116.02833271026611,48.642824779192054L120.66946601867676,47.02034967385194L125.3105993270874,45.93864531754889L129.95173263549805,45.26262080941671L134.5928659439087,44.045744123133005L139.23399925231934,43.550003674384655L143.87513256073,43.23446585590572L148.51626586914062,42.8288674368493L153.15739917755127,42.69369510686863L157.7985324859619,40.75568218304957L162.43966579437256,41.29653436120108L167.0807991027832,41.52184872087366L171.72193241119385,41.52184872087366L176.3630657196045,40.440144364570614L181.00419902801514,40.57539812366572L185.64533233642578,41.341564661489834L190.28646564483643,40.169718275494866L194.92759895324707,40.84582421274149L199.56873226165771,40.30497203458996L204.20986557006833,38.72752722953858L208.850998878479,39.04298361890308L213.49213218688968,39.04298361890308L218.1332654953003,39.448663467073935L222.77439880371094,39.13312564859499L227.41553211212158,38.99795331861434L232.05666542053223,39.268379407690105L236.69779872894287,40.034545945514196L241.33893203735352,40.530286394262546L245.98006534576416,40.124687975206115L250.6211986541748,40.9359662424334" fill="none"></path></g></g></g></g></g></g><g transform="translate(51, 177)" clip-path="url(#clip_1)"><clipPath id="clip_1"><rect width="278" height="22"></rect></clipPath><g><g><line x1="0" y1="0" x2="0" y2="5" style="visibility: inherit;" fill="rgb(0, 0, 0)" stroke="rgb(204, 204, 204)" stroke-width="1px"></line><line x1="23.205666542053223" y1="0" x2="23.205666542053223" y2="5" style="visibility: inherit;" fill="rgb(0, 0, 0)" stroke="rgb(204, 204, 204)" stroke-width="1px"></line><line x1="46.411333084106445" y1="0" x2="46.411333084106445" y2="5" style="visibility: inherit;" fill="rgb(0, 0, 0)" stroke="rgb(204, 204, 204)" stroke-width="1px"></line><line x1="69.61699962615967" y1="0" x2="69.61699962615967" y2="5" style="visibility: inherit;" fill="rgb(0, 0, 0)" stroke="rgb(204, 204, 204)" stroke-width="1px"></line><line x1="92.82266616821289" y1="0" x2="92.82266616821289" y2="5" style="visibility: inherit;" fill="rgb(0, 0, 0)" stroke="rgb(204, 204, 204)" stroke-width="1px"></line><line x1="116.02833271026611" y1="0" x2="116.02833271026611" y2="5" style="visibility: inherit;" fill="rgb(0, 0, 0)" stroke="rgb(204, 204, 204)" stroke-width="1px"></line><line x1="139.23399925231934" y1="0" x2="139.23399925231934" y2="5" style="visibility: inherit;" fill="rgb(0, 0, 0)" stroke="rgb(204, 204, 204)" stroke-width="1px"></line><line x1="162.43966579437256" y1="0" x2="162.43966579437256" y2="5" style="visibility: inherit;" fill="rgb(0, 0, 0)" stroke="rgb(204, 204, 204)" stroke-width="1px"></line><line x1="185.64533233642578" y1="0" x2="185.64533233642578" y2="5" style="visibility: inherit;" fill="rgb(0, 0, 0)" stroke="rgb(204, 204, 204)" stroke-width="1px"></line><line x1="208.850998878479" y1="0" x2="208.850998878479" y2="5" style="visibility: inherit;" fill="rgb(0, 0, 0)" stroke="rgb(204, 204, 204)" stroke-width="1px"></line><line x1="232.05666542053223" y1="0" x2="232.05666542053223" y2="5" style="visibility: inherit;" fill="rgb(0, 0, 0)" stroke="rgb(204, 204, 204)" stroke-width="1px"></line><line x1="255.26233196258545" y1="0" x2="255.26233196258545" y2="5" style="visibility: inherit;" fill="rgb(0, 0, 0)" stroke="rgb(204, 204, 204)" stroke-width="1px"></line><line x1="278.4679985046387" y1="0" x2="278.4679985046387" y2="5" style="visibility: inherit;" fill="rgb(0, 0, 0)" stroke="rgb(204, 204, 204)" stroke-width="1px"></line></g><g transform="translate(0, 8)"><text style="text-anchor: middle; visibility: hidden; font-family: Roboto, sans-serif; font-size: 12px; font-weight: 200;" x="0" y="0" dx="0em" dy="0.95em" fill="rgb(50, 49, 63)" stroke="none" stroke-width="1px">-5</text><text style="text-anchor: middle; visibility: inherit; font-family: Roboto, sans-serif; font-size: 12px; font-weight: 200;" x="23.205666542053223" y="0" dx="0em" dy="0.95em" fill="rgb(50, 49, 63)" stroke="none" stroke-width="1px">0</text><text style="text-anchor: middle; visibility: inherit; font-family: Roboto, sans-serif; font-size: 12px; font-weight: 200;" x="46.411333084106445" y="0" dx="0em" dy="0.95em" fill="rgb(50, 49, 63)" stroke="none" stroke-width="1px">5</text><text style="text-anchor: middle; visibility: inherit; font-family: Roboto, sans-serif; font-size: 12px; font-weight: 200;" x="69.61699962615967" y="0" dx="0em" dy="0.95em" fill="rgb(50, 49, 63)" stroke="none" stroke-width="1px">10</text><text style="text-anchor: middle; visibility: inherit; font-family: Roboto, sans-serif; font-size: 12px; font-weight: 200;" x="92.82266616821289" y="0" dx="0em" dy="0.95em" fill="rgb(50, 49, 63)" stroke="none" stroke-width="1px">15</text><text style="text-anchor: middle; visibility: inherit; font-family: Roboto, sans-serif; font-size: 12px; font-weight: 200;" x="116.02833271026611" y="0" dx="0em" dy="0.95em" fill="rgb(50, 49, 63)" stroke="none" stroke-width="1px">20</text><text style="text-anchor: middle; visibility: inherit; font-family: Roboto, sans-serif; font-size: 12px; font-weight: 200;" x="139.23399925231934" y="0" dx="0em" dy="0.95em" fill="rgb(50, 49, 63)" stroke="none" stroke-width="1px">25</text><text style="text-anchor: middle; visibility: inherit; font-family: Roboto, sans-serif; font-size: 12px; font-weight: 200;" x="162.43966579437256" y="0" dx="0em" dy="0.95em" fill="rgb(50, 49, 63)" stroke="none" stroke-width="1px">30</text><text style="text-anchor: middle; visibility: inherit; font-family: Roboto, sans-serif; font-size: 12px; font-weight: 200;" x="185.64533233642578" y="0" dx="0em" dy="0.95em" fill="rgb(50, 49, 63)" stroke="none" stroke-width="1px">35</text><text style="text-anchor: middle; visibility: inherit; font-family: Roboto, sans-serif; font-size: 12px; font-weight: 200;" x="208.850998878479" y="0" dx="0em" dy="0.95em" fill="rgb(50, 49, 63)" stroke="none" stroke-width="1px">40</text><text style="text-anchor: middle; visibility: inherit; font-family: Roboto, sans-serif; font-size: 12px; font-weight: 200;" x="232.05666542053223" y="0" dx="0em" dy="0.95em" fill="rgb(50, 49, 63)" stroke="none" stroke-width="1px">45</text><text style="text-anchor: middle; visibility: inherit; font-family: Roboto, sans-serif; font-size: 12px; font-weight: 200;" x="255.26233196258545" y="0" dx="0em" dy="0.95em" fill="rgb(50, 49, 63)" stroke="none" stroke-width="1px">50</text><text style="text-anchor: middle; visibility: hidden; font-family: Roboto, sans-serif; font-size: 12px; font-weight: 200;" x="278.4679985046387" y="0" dx="0em" dy="0.95em" fill="rgb(50, 49, 63)" stroke="none" stroke-width="1px">55</text></g><line x1="0" y1="0" x2="278.4679985046387" y2="0" fill="rgb(0, 0, 0)" stroke="rgb(204, 204, 204)" stroke-width="1px"></line></g></g></g></g></svg>