<svg viewBox="0 0 330 200" xmlns="http://www.w3.org/2000/svg"><g><g><g><g><g><line x1="41.149001121520996" y1="138.5028891590368" x2="36.149001121520996" y2="138.5028891590368" style="visibility: inherit;" fill="rgb(0, 0, 0)" stroke="rgb(204, 204, 204)" stroke-width="1px"></line><line x1="41.149001121520996" y1="94.19204328232105" x2="36.149001121520996" y2="94.19204328232105" style="visibility: inherit;" fill="rgb(0, 0, 0)" stroke="rgb(204, 204, 204)" stroke-width="1px"></line><line x1="41.149001121520996" y1="62.75299780345716" x2="36.149001121520996" y2="62.75299780345716" style="visibility: inherit;" fill="rgb(0, 0, 0)" stroke="rgb(204, 204, 204)" stroke-width="1px"></line><line x1="41.149001121520996" y1="38.36697959143074" x2="36.149001121520996" y2="38.36697959143074" style="visibility: inherit;" fill="rgb(0, 0, 0)" stroke="rgb(204, 204, 204)" stroke-width="1px"></line><line x1="41.149001121520996" y1="18.442151926741406" x2="36.149001121520996" y2="18.442151926741406" style="visibility: inherit;" fill="rgb(0, 0, 0)" stroke="rgb(204, 204, 204)" stroke-width="1px"></line><line x1="41.149001121520996" y1="1.5959501722012042" x2="36.149001121520996" y2="1.5959501722012042" style="visibility: inherit;" fill="rgb(0, 0, 0)" stroke="rgb(204, 204, 204)" stroke-width="1px"></line></g><g transform="translate(31.149001121520996, 0)"><text style="text-anchor: end; visibility: inherit; font-family: Roboto, sans-serif; font-size: 12px; font-weight: 200;" x="0" y="138.5028891590368" dx="0em" dy="0.3em" fill="rgb(50, 49, 63)" stroke="none" stroke-width="1px">0.2</text><text style="text-anchor: end; visibility: hidden; font-family: Roboto, sans-serif; font-size: 12px; font-weight: 200;" x="0" y="94.19204328232105" dx="0em" dy="0.3em" fill="rgb(50, 49, 63)" stroke="none" stroke-width="1px">0.3</text><text style="text-anchor: end; visibility: inherit; font-family: Roboto, sans-serif; font-size: 12px; font-weight: 200;" x="0" y="62.75299780345716" dx="0em" dy="0.3em" fill="rgb(50, 49, 63)" stroke="none" stroke-width="1px">0.4</text><text style="text-anchor: end; visibility: hidden; font-family: Roboto, sans-serif; font-size: 12px; font-weight: 200;" x="0" y="38.36697959143074" dx="0em" dy="0.3em" fill="rgb(50, 49, 63)" stroke="none" stroke-width="1px">0.5</text><text style="text-anchor: end; visibility: inherit; font-family: Roboto, sans-serif; font-size: 12px; font-weight: 200;" x="0" y="18.442151926741406" dx="0em" dy="0.3em" fill="rgb(50, 49, 63)" stroke="none" stroke-width="1px">0.6</text><text style="text-anchor: end; visibility: hidden; font-family: Roboto, sans-serif; font-size: 12px; font-weight: 200;" x="0" y="1.5959501722012042" dx="0em" dy="0.3em" fill="rgb(50, 49, 63)" stroke="none" stroke-width="1px">0.7</text></g><line x1="41.149001121520996" y1="0" x2="41.149001121520996" y2="177.5999994277954" fill="rgb(0, 0, 0)" stroke="rgb(204, 204, 204)" stroke-width="1px"></line></g></g><g transform="translate(41, 0)" clip-path="url(#clip_0)"><clipPath id="clip_0"><rect width="288" height="177"></rect></clipPath><g><g><g><line x1="5.3990667363149365" y1="0" x2="5.3990667363149365" y2="177.5999994277954" fill="rgb(0, 0, 0)" stroke="rgb(60, 60, 60)" stroke-width="1px" opacity="0.25"></line><line x1="32.966778919479694" y1="0" x2="32.966778919479694" y2="177.5999994277954" fill="rgb(0, 0, 0)" stroke="rgb(60, 60, 60)" stroke-width="1px" opacity="0.25"></line><line x1="60.53449110264446" y1="0" x2="60.53449110264446" y2="177.5999994277954" fill="rgb(0, 0, 0)" stroke="rgb(60, 60, 60)" stroke-width="1px" opacity="0.25"></line><line x1="88.10220328580921" y1="0" x2="88.10220328580921" y2="177.5999994277954" fill="rgb(0, 0, 0)" stroke="rgb(60, 60, 60)" stroke-width="1px" opacity="0.25"></line><line x1="115.66991546897397" y1="0" x2="115.66991546897397" y2="177.5999994277954" fill="rgb(0, 0, 0)" stroke="rgb(60, 60, 60)" stroke-width="1px" opacity="0.25"></line><line x1="143.23762765213874" y1="0" x2="143.23762765213874" y2="177.5999994277954" fill="rgb(0, 0, 0)" stroke="rgb(60, 60, 60)" stroke-width="1px" opacity="0.25"></line><line x1="170.8053398353035" y1="0" x2="170.8053398353035" y2="177.5999994277954" fill="rgb(0, 0, 0)" stroke="rgb(60, 60, 60)" stroke-width="1px" opacity="0.25"></line><line x1="198.3730520184683" y1="0" x2="198.3730520184683" y2="177.5999994277954" fill="rgb(0, 0, 0)" stroke="rgb(60, 60, 60)" stroke-width="1px" opacity="0.25"></line><line x1="225.94076420163302" y1="0" x2="225.94076420163302" y2="177.5999994277954" fill="rgb(0, 0, 0)" stroke="rgb(60, 60, 60)" stroke-width="1px" opacity="0.25"></line><line x1="253.5084763847978" y1="0" x2="253.5084763847978" y2="177.5999994277954" fill="rgb(0, 0, 0)" stroke="rgb(60, 60, 60)" stroke-width="1px" opacity="0.25"></line><line x1="281.07618856796256" y1="0" x2="281.07618856796256" y2="177.5999994277954" fill="rgb(0, 0, 0)" stroke="rgb(60, 60, 60)" stroke-width="1px" opacity="0.25"></line></g><g><line x1="0" y1="138.5028891590368" x2="288.850998878479" y2="138.5028891590368" fill="rgb(0, 0, 0)" stroke="rgb(60, 60, 60)" stroke-width="1px" opacity="0.25"></line><line x1="0" y1="94.19204328232105" x2="288.850998878479" y2="94.19204328232105" fill="rgb(0, 0, 0)" stroke="rgb(60, 60, 60)" stroke-width="1px" opacity="0.25"></line><line x1="0" y1="62.75299780345716" x2="288.850998878479" y2="62.75299780345716" fill="rgb(0, 0, 0)" stroke="rgb(60, 60, 60)" stroke-width="1px" opacity="0.25"></line><line x1="0" y1="38.36697959143074" x2="288.850998878479" y2="38.36697959143074" fill="rgb(0, 0, 0)" stroke="rgb(60, 60, 60)" stroke-width="1px" opacity="0.25"></line><line x1="0" y1="18.442151926741406" x2="288.850998878479" y2="18.442151926741406" fill="rgb(0, 0, 0)" stroke="rgb(60, 60, 60)" stroke-width="1px" opacity="0.25"></line><line x1="0" y1="1.5959501722012042" x2="288.850998878479" y2="1.5959501722012042" fill="rgb(0, 0, 0)" stroke="rgb(60, 60, 60)" stroke-width="1px" opacity="0.25"></line></g></g></g><g><g><line x1="5.3990667363149365" y1="0" x2="5.3990667363149365" y2="177.5999994277954" fill="rgb(0, 0, 0)" stroke="rgb(153, 153, 153)" stroke-width="1.5px"></line></g></g><g><g><g><g><g><path style="fill: none;" stroke="rgb(204, 51, 17)" stroke-width="2px" d="M5.3990667363149365,52.626585402638746L10.912609172947889,23.16474441277429L16.42615160958084,23.939202130139883L21.93969404621379,31.391040600696417L27.453236482846744,16.177615134675655L32.966778919479694,29.806119803187983L38.48032135611265,20.935203687208375L43.9938637927456,13.572168321519174L49.50740622937855,28.500481707973687L55.020948666011506,23.787651278990694L60.53449110264446,19.415094519956266L66.04803353927741,14.43183454159317L71.56157597591036,36.2107905250735L77.0751184125433,25.255085562766652L82.58866084917626,23.73719239132237L88.10220328580921,20.843022000100994L93.61574572244217,17.808261111257988L99.12928815907512,14.902021359455954L104.64283059570808,13.618144510598196L110.15637303234102,25.70368167977302L115.66991546897397,23.334278356256558L121.18345790560693,23.44743969643248L126.69700034223987,21.2861670654865L132.21054277887282,19.191008227900813L137.7240852155058,19.106336432576583L143.23762765213874,17.7007773469205L148.7511700887717,15.842645081171366L154.26471252540466,14.426036962871398L159.7782549620376,14.240854249596898L165.29179739867055,24.674652354766245L170.8053398353035,23.80027249254592L176.31888227193647,23.221222729455597L181.8324247085694,20.328289587056595L187.34596714520237,20.9782402838243L192.8595095818353,21.929459635373625L198.3730520184683,20.9782402838243L203.8865944551012,19.33024899485438L209.40013689173418,19.070068593092735L214.91367932836712,17.24219142160553L220.4272217650001,17.040302683876423L225.94076420163302,16.4250870999435L231.454306638266,15.842645081171366L236.96784907489894,15.485301682755491L242.48139151153188,31.330179488683935L247.99493394816483,24.585625278743635L253.5084763847978,24.097285685275352L259.0220188214307,23.196115132033125L264.5355612580637,21.656830391341494L270.04910369469667,22.215198953430892L275.5626461313296,21.91705263108495" fill="none"></path></g><g><path style="fill: none;" stroke="rgb(255, 112, 67)" stroke-width="2px" d="M5.3990667363149365,21.76208940408239L10.912609172947889,25.671582931525496L16.42615160958084,18.949273555637955L21.93969404621379,21.236838655911765L27.453236482846744,19.95599905305842L32.966778919479694,20.929050638815074L38.48032135611265,22.882767210874203L43.9938637927456,19.584983442454295L49.50740622937855,22.863988545352633L55.020948666011506,19.75512589174493L60.53449110264446,21.36637882554441L66.04803353927741,21.15057860871993L71.56157597591036,19.293906782187058L77.0751184125433,21.92325035327232L82.58866084917626,19.82812996403029L88.10220328580921,20.775481092018996L93.61574572244217,18.91305779419936L99.12928815907512,20.481231570232875L104.64283059570808,21.409585590185458L110.15637303234102,19.8342103408583L115.66991546897397,21.267671872897786L121.18345790560693,20.426140277960958L126.69700034223987,20.843022000100994L132.21054277887282,21.43428602968647L137.7240852155058,19.80378985416634L143.23762765213874,21.88603567946393L148.7511700887717,19.657862928614783L154.26471252540466,21.60733442632022L159.7782549620376,19.8342103408583L165.29179739867055,19.742963286319252L170.8053398353035,20.910615780780248L176.31888227193647,19.5667629359288L181.8324247085694,21.644454298306943L187.34596714520237,19.45753651846228L192.8595095818353,20.029137481316546L198.3730520184683,19.840302052181794L203.8865944551012,19.676098631497634L209.40013689173418,21.687782348950755L214.91367932836712,19.475738821662226L220.4272217650001,21.16905399341541L225.94076420163302,19.74904991332815L231.454306638266,20.303837837091514L236.96784907489894,21.613525784167546L242.48139151153188,19.572839757004846L247.99493394816483,20.76320440224236L253.5084763847978,19.530341998885167L259.0220188214307,20.035229052466935L264.5355612580637,19.69432639629626L270.04910369469667,19.724727408117218L275.5626461313296,21.2121827982755" fill="none"></path></g><g><path style="fill: none;" stroke="rgb(0, 119, 187)" stroke-width="2px" d="M5.3990667363149365,26.54170424250534L10.912609172947889,22.507929574303702L16.42615160958084,19.901182837217792L21.93969404621379,19.27574567668544L27.453236482846744,17.79631324904023L32.966778919479694,16.661296325967292L38.48032135611265,16.107008630664964L43.9938637927456,15.907204243352933L49.50740622937855,15.807444170530635L55.020948666011506,15.385925827192905L60.53449110264446,14.762491061307472L66.04803353927741,14.136820834911875L71.56157597591036,13.727445436965978L77.0751184125433,13.331055761764304L82.58866084917626,12.99326152636078L88.10220328580921,12.821893478732902L93.61574572244217,12.616616198216553L99.12928815907512,12.45153076175189L104.64283059570808,12.428779206340145L110.15637303234102,12.337820321013249L115.66991546897397,12.28100943845559L121.18345790560693,12.269650805035992L126.69700034223987,12.258293352074192L132.21054277887282,12.014398290674032L137.7240852155058,11.793671567780214L143.23762765213874,11.629813482096914L148.7511700887717,11.421130996389124L154.26471252540466,11.353530728169126L159.7782549620376,11.156606864964573L165.29179739867055,11.03300434002693L170.8053398353035,10.931978879508307L176.31888227193647,10.769416880721627L181.8324247085694,10.719019221805892L187.34596714520237,10.60150825277771L192.8595095818353,10.489705590150695L198.3730520184683,10.355703283020047L203.8865944551012,10.216276526767004L209.40013689173418,10.182851831758967L214.91367932836712,10.110439885490523L220.4272217650001,10.088170483353684L225.94076420163302,10.038085940669236L231.454306638266,9.96021443395783L236.96784907489894,9.937975619947041L242.48139151153188,9.837956922017813L247.99493394816483,9.849065591308007L253.5084763847978,9.837956922017813L259.0220188214307,9.821301051475325L264.5355612580637,9.793543563671605L270.04910369469667,9.754682889201865L275.5626461313296,9.7269423147144" fill="none"></path></g><g><path style="fill: none;" stroke="rgb(238, 51, 119)" stroke-width="2px" d="M5.3990667363149365,177.39628998905704L10.912609172947889,139.36070568168554L16.42615160958084,126.97244740403205L21.93969404621379,110.83533147972146L27.453236482846744,101.29956873451243L32.966778919479694,97.48100775226443L38.48032135611265,96.31073477008887L43.9938637927456,93.2181546152437L49.50740622937855,88.48620662805227L55.020948666011506,84.11493208866104L60.53449110264446,80.39798247567389L66.04803353927741,77.30670225874624L71.56157597591036,75.04430861288658L77.0751184125433,73.26355609361414L82.58866084917626,72.00071337316643L88.10220328580921,70.99500831618195L93.61574572244217,69.97921307271237L99.12928815907512,69.48921759701688L104.64283059570808,69.17332587476405L110.15637303234102,68.96324040792912L115.66991546897397,68.87740909795582L121.18345790560693,68.87740909795582L126.69700034223987,67.8621274224913L132.21054277887282,66.65050918016256L137.7240852155058,65.56310005371601L143.23762765213874,64.45893504308178L148.7511700887717,63.54724099517264L154.26471252540466,62.706139189958364L159.7782549620376,61.862520757812334L165.29179739867055,61.051984467748916L170.8053398353035,60.25622509080067L176.31888227193647,59.58872950446741L181.8324247085694,58.94269412239855L187.34596714520237,58.36970659088549L192.8595095818353,57.82555298764528L198.3730520184683,57.36986463520458L203.8865944551012,56.80504343500733L209.40013689173418,56.21765258482384L214.91367932836712,55.69253321311853L220.4272217650001,55.22880589264492L225.94076420163302,54.90955514234802L231.454306638266,54.515983897632836L236.96784907489894,54.307205526026046L242.48139151153188,54.09883277085409L247.99493394816483,53.90748070549523L253.5084763847978,53.683275404610136L259.0220188214307,53.426419361131565L264.5355612580637,53.16190910996299L270.04910369469667,52.972181687309785L275.5626461313296,52.80747607207539" fill="none"></path></g><g><path style="fill: none;" stroke="rgb(51, 187, 238)" stroke-width="2px" d="M5.3990667363149365,40.33139742611134L10.912609172947889,28.289870377788013L16.42615160958084,23.045590562985243L21.93969404621379,20.340517513954254L27.453236482846744,17.32543060512612L32.966778919479694,16.059962958399026L38.48032135611265,15.9483158945837L43.9938637927456,14.148375213794758L49.50740622937855,12.776240680504575L55.020948666011506,11.725840533934885L60.53449110264446,11.03300434002693L66.04803353927741,10.78622801437518L71.56157597591036,10.674236311824197L77.0751184125433,10.679838228095743L82.58866084917626,10.47295009805448L88.10220328580921,9.73248585641173L93.61574572244217,9.140397398781003L99.12928815907512,8.655846337298458L104.64283059570808,8.244563715954838L110.15637303234102,8.031304131678331L115.66991546897397,7.796652634805809L121.18345790560693,7.6441235203153886L126.69700034223987,7.638684904552072L132.21054277887282,7.513563329492063L137.7240852155058,7.437469461623323L143.23762765213874,7.437469461623323L148.7511700887717,7.399437480881243L154.26471252540466,7.410301008600019L159.7782549620376,7.475504862672925L165.29179739867055,7.231195646680639L170.8053398353035,7.0523833400321125L176.31888227193647,6.954979638914823L181.8324247085694,6.8252299204879465L187.34596714520237,6.7550179680945694L192.8595095818353,6.539248713933828L198.3730520184683,6.453069883078558L203.8865944551012,6.270144562251667L209.40013689173418,6.109003449109945L214.91367932836712,6.146579208300634L220.4272217650001,5.95345471913749L225.94076420163302,5.867726738968295L231.454306638266,5.905219615860719L236.96784907489894,5.755315557863885L242.48139151153188,5.733916087413713L247.99493394816483,5.680435736859261L253.5084763847978,5.6323306157475255L259.0220188214307,5.541509185238739L264.5355612580637,5.541509185238739L270.04910369469667,5.466785309027554L275.5626461313296,5.466785309027554" fill="none"></path></g></g></g></g></g></g><g transform="translate(41, 177)" clip-path="url(#clip_1)"><clipPath id="clip_1"><rect width="288" height="22"></rect></clipPath><g><g><line x1="5.3990667363149365" y1="0" x2="5.3990667363149365" y2="5" style="visibility: inherit;" fill="rgb(0, 0, 0)" stroke="rgb(204, 204, 204)" stroke-width="1px"></line><line x1="32.966778919479694" y1="0" x2="32.966778919479694" y2="5" style="visibility: inherit;" fill="rgb(0, 0, 0)" stroke="rgb(204, 204, 204)" stroke-width="1px"></line><line x1="60.53449110264446" y1="0" x2="60.53449110264446" y2="5" style="visibility: inherit;" fill="rgb(0, 0, 0)" stroke="rgb(204, 204, 204)" stroke-width="1px"></line><line x1="88.10220328580921" y1="0" x2="88.10220328580921" y2="5" style="visibility: inherit;" fill="rgb(0, 0, 0)" stroke="rgb(204, 204, 204)" stroke-width="1px"></line><line x1="115.66991546897397" y1="0" x2="115.66991546897397" y2="5" style="visibility: inherit;" fill="rgb(0, 0, 0)" stroke="rgb(204, 204, 204)" stroke-width="1px"></line><line x1="143.23762765213874" y1="0" x2="143.23762765213874" y2="5" style="visibility: inherit;" fill="rgb(0, 0, 0)" stroke="rgb(204, 204, 204)" stroke-width="1px"></line><line x1="170.8053398353035" y1="0" x2="170.8053398353035" y2="5" style="visibility: inherit;" fill="rgb(0, 0, 0)" stroke="rgb(204, 204, 204)" stroke-width="1px"></line><line x1="198.3730520184683" y1="0" x2="198.3730520184683" y2="5" style="visibility: inherit;" fill="rgb(0, 0, 0)" stroke="rgb(204, 204, 204)" stroke-width="1px"></line><line x1="225.94076420163302" y1="0" x2="225.94076420163302" y2="5" style="visibility: inherit;" fill="rgb(0, 0, 0)" stroke="rgb(204, 204, 204)" stroke-width="1px"></line><line x1="253.5084763847978" y1="0" x2="253.5084763847978" y2="5" style="visibility: inherit;" fill="rgb(0, 0, 0)" stroke="rgb(204, 204, 204)" stroke-width="1px"></line><line x1="281.07618856796256" y1="0" x2="281.07618856796256" y2="5" style="visibility: inherit;" fill="rgb(0, 0, 0)" stroke="rgb(204, 204, 204)" stroke-width="1px"></line></g><g transform="translate(0, 8)"><text style="text-anchor: middle; visibility: inherit; font-family: Roboto, sans-serif; font-size: 12px; font-weight: 200;" x="5.3990667363149365" y="0" dx="0em" dy="0.95em" fill="rgb(50, 49, 63)" stroke="none" stroke-width="1px">0</text><text style="text-anchor: middle; visibility: inherit; font-family: Roboto, sans-serif; font-size: 12px; font-weight: 200;" x="32.966778919479694" y="0" dx="0em" dy="0.95em" fill="rgb(50, 49, 63)" stroke="none" stroke-width="1px">5</text><text style="text-anchor: middle; visibility: inherit; font-family: Roboto, sans-serif; font-size: 12px; font-weight: 200;" x="60.53449110264446" y="0" dx="0em" dy="0.95em" fill="rgb(50, 49, 63)" stroke="none" stroke-width="1px">10</text><text style="text-anchor: middle; visibility: inherit; font-family: Roboto, sans-serif; font-size: 12px; font-weight: 200;" x="88.10220328580921" y="0" dx="0em" dy="0.95em" fill="rgb(50, 49, 63)" stroke="none" stroke-width="1px">15</text><text style="text-anchor: middle; visibility: inherit; font-family: Roboto, sans-serif; font-size: 12px; font-weight: 200;" x="115.66991546897397" y="0" dx="0em" dy="0.95em" fill="rgb(50, 49, 63)" stroke="none" stroke-width="1px">20</text><text style="text-anchor: middle; visibility: inherit; font-family: Roboto, sans-serif; font-size: 12px; font-weight: 200;" x="143.23762765213874" y="0" dx="0em" dy="0.95em" fill="rgb(50, 49, 63)" stroke="none" stroke-width="1px">25</text><text style="text-anchor: middle; visibility: inherit; font-family: Roboto, sans-serif; font-size: 12px; font-weight: 200;" x="170.8053398353035" y="0" dx="0em" dy="0.95em" fill="rgb(50, 49, 63)" stroke="none" stroke-width="1px">30</text><text style="text-anchor: middle; visibility: inherit; font-family: Roboto, sans-serif; font-size: 12px; font-weight: 200;" x="198.3730520184683" y="0" dx="0em" dy="0.95em" fill="rgb(50, 49, 63)" stroke="none" stroke-width="1px">35</text><text style="text-anchor: middle; visibility: inherit; font-family: Roboto, sans-serif; font-size: 12px; font-weight: 200;" x="225.94076420163302" y="0" dx="0em" dy="0.95em" fill="rgb(50, 49, 63)" stroke="none" stroke-width="1px">40</text><text style="text-anchor: middle; visibility: inherit; font-family: Roboto, sans-serif; font-size: 12px; font-weight: 200;" x="253.5084763847978" y="0" dx="0em" dy="0.95em" fill="rgb(50, 49, 63)" stroke="none" stroke-width="1px">45</text><text style="text-anchor: middle; visibility: inherit; font-family: Roboto, sans-serif; font-size: 12px; font-weight: 200;" x="281.07618856796256" y="0" dx="0em" dy="0.95em" fill="rgb(50, 49, 63)" stroke="none" stroke-width="1px">50</text></g><line x1="0" y1="0" x2="288.850998878479" y2="0" fill="rgb(0, 0, 0)" stroke="rgb(204, 204, 204)" stroke-width="1px"></line></g></g></g></g></svg>