<svg viewBox="0 0 330 200" xmlns="http://www.w3.org/2000/svg"><g><g><g><g><g><line x1="51.53200149536133" y1="177.5999994277954" x2="46.53200149536133" y2="177.5999994277954" style="visibility: inherit;" fill="rgb(0, 0, 0)" stroke="rgb(204, 204, 204)" stroke-width="1px"></line><line x1="51.53200149536133" y1="163.93846101027268" x2="46.53200149536133" y2="163.93846101027268" style="visibility: inherit;" fill="rgb(0, 0, 0)" stroke="rgb(204, 204, 204)" stroke-width="1px"></line><line x1="51.53200149536133" y1="150.27692259275003" x2="46.53200149536133" y2="150.27692259275003" style="visibility: inherit;" fill="rgb(0, 0, 0)" stroke="rgb(204, 204, 204)" stroke-width="1px"></line><line x1="51.53200149536133" y1="136.6153841752273" x2="46.53200149536133" y2="136.6153841752273" style="visibility: inherit;" fill="rgb(0, 0, 0)" stroke="rgb(204, 204, 204)" stroke-width="1px"></line><line x1="51.53200149536133" y1="122.95384575770456" x2="46.53200149536133" y2="122.95384575770456" style="visibility: inherit;" fill="rgb(0, 0, 0)" stroke="rgb(204, 204, 204)" stroke-width="1px"></line><line x1="51.53200149536133" y1="109.2923073401818" x2="46.53200149536133" y2="109.2923073401818" style="visibility: inherit;" fill="rgb(0, 0, 0)" stroke="rgb(204, 204, 204)" stroke-width="1px"></line><line x1="51.53200149536133" y1="95.63076892265909" x2="46.53200149536133" y2="95.63076892265909" style="visibility: inherit;" fill="rgb(0, 0, 0)" stroke="rgb(204, 204, 204)" stroke-width="1px"></line><line x1="51.53200149536133" y1="81.96923050513632" x2="46.53200149536133" y2="81.96923050513632" style="visibility: inherit;" fill="rgb(0, 0, 0)" stroke="rgb(204, 204, 204)" stroke-width="1px"></line><line x1="51.53200149536133" y1="68.30769208761367" x2="46.53200149536133" y2="68.30769208761367" style="visibility: inherit;" fill="rgb(0, 0, 0)" stroke="rgb(204, 204, 204)" stroke-width="1px"></line><line x1="51.53200149536133" y1="54.64615367009094" x2="46.53200149536133" y2="54.64615367009094" style="visibility: inherit;" fill="rgb(0, 0, 0)" stroke="rgb(204, 204, 204)" stroke-width="1px"></line><line x1="51.53200149536133" y1="40.984615252568204" x2="46.53200149536133" y2="40.984615252568204" style="visibility: inherit;" fill="rgb(0, 0, 0)" stroke="rgb(204, 204, 204)" stroke-width="1px"></line><line x1="51.53200149536133" y1="27.32307683504547" x2="46.53200149536133" y2="27.32307683504547" style="visibility: inherit;" fill="rgb(0, 0, 0)" stroke="rgb(204, 204, 204)" stroke-width="1px"></line><line x1="51.53200149536133" y1="13.661538417522735" x2="46.53200149536133" y2="13.661538417522735" style="visibility: inherit;" fill="rgb(0, 0, 0)" stroke="rgb(204, 204, 204)" stroke-width="1px"></line><line x1="51.53200149536133" y1="0" x2="46.53200149536133" y2="0" style="visibility: inherit;" fill="rgb(0, 0, 0)" stroke="rgb(204, 204, 204)" stroke-width="1px"></line></g><g transform="translate(41.53200149536133, 0)"><text style="text-anchor: end; visibility: hidden; font-family: Roboto, sans-serif; font-size: 12px; font-weight: 200;" x="0" y="177.5999994277954" dx="0em" dy="0.3em" fill="rgb(50, 49, 63)" stroke="none" stroke-width="1px">0.54</text><text style="text-anchor: end; visibility: inherit; font-family: Roboto, sans-serif; font-size: 12px; font-weight: 200;" x="0" y="163.93846101027268" dx="0em" dy="0.3em" fill="rgb(50, 49, 63)" stroke="none" stroke-width="1px">0.56</text><text style="text-anchor: end; visibility: hidden; font-family: Roboto, sans-serif; font-size: 12px; font-weight: 200;" x="0" y="150.27692259275003" dx="0em" dy="0.3em" fill="rgb(50, 49, 63)" stroke="none" stroke-width="1px">0.58</text><text style="text-anchor: end; visibility: inherit; font-family: Roboto, sans-serif; font-size: 12px; font-weight: 200;" x="0" y="136.6153841752273" dx="0em" dy="0.3em" fill="rgb(50, 49, 63)" stroke="none" stroke-width="1px">0.6</text><text style="text-anchor: end; visibility: hidden; font-family: Roboto, sans-serif; font-size: 12px; font-weight: 200;" x="0" y="122.95384575770456" dx="0em" dy="0.3em" fill="rgb(50, 49, 63)" stroke="none" stroke-width="1px">0.62</text><text style="text-anchor: end; visibility: inherit; font-family: Roboto, sans-serif; font-size: 12px; font-weight: 200;" x="0" y="109.2923073401818" dx="0em" dy="0.3em" fill="rgb(50, 49, 63)" stroke="none" stroke-width="1px">0.64</text><text style="text-anchor: end; visibility: hidden; font-family: Roboto, sans-serif; font-size: 12px; font-weight: 200;" x="0" y="95.63076892265909" dx="0em" dy="0.3em" fill="rgb(50, 49, 63)" stroke="none" stroke-width="1px">0.66</text><text style="text-anchor: end; visibility: inherit; font-family: Roboto, sans-serif; font-size: 12px; font-weight: 200;" x="0" y="81.96923050513632" dx="0em" dy="0.3em" fill="rgb(50, 49, 63)" stroke="none" stroke-width="1px">0.68</text><text style="text-anchor: end; visibility: hidden; font-family: Roboto, sans-serif; font-size: 12px; font-weight: 200;" x="0" y="68.30769208761367" dx="0em" dy="0.3em" fill="rgb(50, 49, 63)" stroke="none" stroke-width="1px">0.7</text><text style="text-anchor: end; visibility: inherit; font-family: Roboto, sans-serif; font-size: 12px; font-weight: 200;" x="0" y="54.64615367009094" dx="0em" dy="0.3em" fill="rgb(50, 49, 63)" stroke="none" stroke-width="1px">0.72</text><text style="text-anchor: end; visibility: hidden; font-family: Roboto, sans-serif; font-size: 12px; font-weight: 200;" x="0" y="40.984615252568204" dx="0em" dy="0.3em" fill="rgb(50, 49, 63)" stroke="none" stroke-width="1px">0.74</text><text style="text-anchor: end; visibility: inherit; font-family: Roboto, sans-serif; font-size: 12px; font-weight: 200;" x="0" y="27.32307683504547" dx="0em" dy="0.3em" fill="rgb(50, 49, 63)" stroke="none" stroke-width="1px">0.76</text><text style="text-anchor: end; visibility: hidden; font-family: Roboto, sans-serif; font-size: 12px; font-weight: 200;" x="0" y="13.661538417522735" dx="0em" dy="0.3em" fill="rgb(50, 49, 63)" stroke="none" stroke-width="1px">0.78</text><text style="text-anchor: end; visibility: hidden; font-family: Roboto, sans-serif; font-size: 12px; font-weight: 200;" x="0" y="0" dx="0em" dy="0.3em" fill="rgb(50, 49, 63)" stroke="none" stroke-width="1px">0.8</text></g><line x1="51.53200149536133" y1="0" x2="51.53200149536133" y2="177.5999994277954" fill="rgb(0, 0, 0)" stroke="rgb(204, 204, 204)" stroke-width="1px"></line></g></g><g transform="translate(51, 0)" clip-path="url(#clip_0)"><clipPath id="clip_0"><rect width="278" height="177"></rect></clipPath><g><g><g><line x1="0" y1="0" x2="0" y2="177.5999994277954" fill="rgb(0, 0, 0)" stroke="rgb(60, 60, 60)" stroke-width="1px" opacity="0.25"></line><line x1="23.205666542053223" y1="0" x2="23.205666542053223" y2="177.5999994277954" fill="rgb(0, 0, 0)" stroke="rgb(60, 60, 60)" stroke-width="1px" opacity="0.25"></line><line x1="46.411333084106445" y1="0" x2="46.411333084106445" y2="177.5999994277954" fill="rgb(0, 0, 0)" stroke="rgb(60, 60, 60)" stroke-width="1px" opacity="0.25"></line><line x1="69.61699962615967" y1="0" x2="69.61699962615967" y2="177.5999994277954" fill="rgb(0, 0, 0)" stroke="rgb(60, 60, 60)" stroke-width="1px" opacity="0.25"></line><line x1="92.82266616821289" y1="0" x2="92.82266616821289" y2="177.5999994277954" fill="rgb(0, 0, 0)" stroke="rgb(60, 60, 60)" stroke-width="1px" opacity="0.25"></line><line x1="116.02833271026611" y1="0" x2="116.02833271026611" y2="177.5999994277954" fill="rgb(0, 0, 0)" stroke="rgb(60, 60, 60)" stroke-width="1px" opacity="0.25"></line><line x1="139.23399925231934" y1="0" x2="139.23399925231934" y2="177.5999994277954" fill="rgb(0, 0, 0)" stroke="rgb(60, 60, 60)" stroke-width="1px" opacity="0.25"></line><line x1="162.43966579437256" y1="0" x2="162.43966579437256" y2="177.5999994277954" fill="rgb(0, 0, 0)" stroke="rgb(60, 60, 60)" stroke-width="1px" opacity="0.25"></line><line x1="185.64533233642578" y1="0" x2="185.64533233642578" y2="177.5999994277954" fill="rgb(0, 0, 0)" stroke="rgb(60, 60, 60)" stroke-width="1px" opacity="0.25"></line><line x1="208.850998878479" y1="0" x2="208.850998878479" y2="177.5999994277954" fill="rgb(0, 0, 0)" stroke="rgb(60, 60, 60)" stroke-width="1px" opacity="0.25"></line><line x1="232.05666542053223" y1="0" x2="232.05666542053223" y2="177.5999994277954" fill="rgb(0, 0, 0)" stroke="rgb(60, 60, 60)" stroke-width="1px" opacity="0.25"></line><line x1="255.26233196258545" y1="0" x2="255.26233196258545" y2="177.5999994277954" fill="rgb(0, 0, 0)" stroke="rgb(60, 60, 60)" stroke-width="1px" opacity="0.25"></line><line x1="278.4679985046387" y1="0" x2="278.4679985046387" y2="177.5999994277954" fill="rgb(0, 0, 0)" stroke="rgb(60, 60, 60)" stroke-width="1px" opacity="0.25"></line></g><g><line x1="0" y1="177.5999994277954" x2="278.4679985046387" y2="177.5999994277954" fill="rgb(0, 0, 0)" stroke="rgb(60, 60, 60)" stroke-width="1px" opacity="0.25"></line><line x1="0" y1="163.93846101027268" x2="278.4679985046387" y2="163.93846101027268" fill="rgb(0, 0, 0)" stroke="rgb(60, 60, 60)" stroke-width="1px" opacity="0.25"></line><line x1="0" y1="150.27692259275003" x2="278.4679985046387" y2="150.27692259275003" fill="rgb(0, 0, 0)" stroke="rgb(60, 60, 60)" stroke-width="1px" opacity="0.25"></line><line x1="0" y1="136.6153841752273" x2="278.4679985046387" y2="136.6153841752273" fill="rgb(0, 0, 0)" stroke="rgb(60, 60, 60)" stroke-width="1px" opacity="0.25"></line><line x1="0" y1="122.95384575770456" x2="278.4679985046387" y2="122.95384575770456" fill="rgb(0, 0, 0)" stroke="rgb(60, 60, 60)" stroke-width="1px" opacity="0.25"></line><line x1="0" y1="109.2923073401818" x2="278.4679985046387" y2="109.2923073401818" fill="rgb(0, 0, 0)" stroke="rgb(60, 60, 60)" stroke-width="1px" opacity="0.25"></line><line x1="0" y1="95.63076892265909" x2="278.4679985046387" y2="95.63076892265909" fill="rgb(0, 0, 0)" stroke="rgb(60, 60, 60)" stroke-width="1px" opacity="0.25"></line><line x1="0" y1="81.96923050513632" x2="278.4679985046387" y2="81.96923050513632" fill="rgb(0, 0, 0)" stroke="rgb(60, 60, 60)" stroke-width="1px" opacity="0.25"></line><line x1="0" y1="68.30769208761367" x2="278.4679985046387" y2="68.30769208761367" fill="rgb(0, 0, 0)" stroke="rgb(60, 60, 60)" stroke-width="1px" opacity="0.25"></line><line x1="0" y1="54.64615367009094" x2="278.4679985046387" y2="54.64615367009094" fill="rgb(0, 0, 0)" stroke="rgb(60, 60, 60)" stroke-width="1px" opacity="0.25"></line><line x1="0" y1="40.984615252568204" x2="278.4679985046387" y2="40.984615252568204" fill="rgb(0, 0, 0)" stroke="rgb(60, 60, 60)" stroke-width="1px" opacity="0.25"></line><line x1="0" y1="27.32307683504547" x2="278.4679985046387" y2="27.32307683504547" fill="rgb(0, 0, 0)" stroke="rgb(60, 60, 60)" stroke-width="1px" opacity="0.25"></line><line x1="0" y1="13.661538417522735" x2="278.4679985046387" y2="13.661538417522735" fill="rgb(0, 0, 0)" stroke="rgb(60, 60, 60)" stroke-width="1px" opacity="0.25"></line><line x1="0" y1="0" x2="278.4679985046387" y2="0" fill="rgb(0, 0, 0)" stroke="rgb(60, 60, 60)" stroke-width="1px" opacity="0.25"></line></g></g></g><g><g><line x1="0" y1="546.4615367009089" x2="278.4679985046387" y2="546.4615367009089" fill="rgb(0, 0, 0)" stroke="rgb(153, 153, 153)" stroke-width="1.5px"></line></g></g><g><g><line x1="23.205666542053223" y1="0" x2="23.205666542053223" y2="177.5999994277954" fill="rgb(0, 0, 0)" stroke="rgb(153, 153, 153)" stroke-width="1.5px"></line></g></g><g><g><g><g><g><path style="fill: none;" stroke="rgb(0, 119, 187)" stroke-width="2px" d="M23.205666542053223,205.14843133707066L27.846799850463867,165.50959343037223L32.48793315887451,147.3915747515401L37.129066467285156,136.41708799572794L41.7701997756958,128.8453610743927L46.411333084106445,123.59473034578863L51.05246639251708,117.82580330373459L55.693599700927734,113.07095373843607L60.33473300933838,109.7808510837954L64.97586631774902,107.61752380030377L69.61699962615967,104.98093050365091L74.25813293457031,103.0879885946778L78.89926624298096,101.28522942995383L83.5403995513916,99.93313969913225L88.18153285980225,98.35569489408087L92.82266616821289,97.09374719295121L97.46379947662354,95.60644441759175L102.10493278503417,94.81772201506605L106.74606609344484,93.91630171814683L111.38719940185547,93.48814743438884L116.02833271026611,92.87970909124697L120.66946601867676,91.97832950888498L125.3105993270874,91.00932304697545L129.95173263549805,90.78396797274564L134.5928659439087,90.78396797274564L139.23399925231934,90.26567165929572L143.87513256073,89.47694925677003L148.51626586914062,89.09386598785797L153.15739917755127,88.77836888393625L157.7985324859619,88.35021460017823L162.43966579437256,88.28258772063067L167.0807991027832,87.9445754665646L171.72193241119385,87.56149219765254L176.3630657196045,87.74177625703639L181.00419902801514,87.493865318105L185.64533233642578,87.06571103434698L190.28646564483643,86.99812486935666L194.92759895324707,86.34461551136884L199.56873226165771,86.4798285559067L204.20986557006833,86.5248995707527L208.850998878479,86.23191761697532L213.49213218688968,86.4798285559067L218.1332654953003,86.25447348167692L222.77439880371094,86.09670457243746L227.41553211212158,86.05163355759147L232.05666542053223,86.14177558728342L236.69779872894287,85.93897637775521L241.33893203735352,85.75869231837136L245.98006534576416,85.82627848336169L250.6211986541748,85.53333724414155" fill="none"></path></g><g><path style="fill: none;" stroke="rgb(255, 112, 67)" stroke-width="2px" d="M27.846799850463867,183.5479337207188L32.48793315887451,154.15226769299136L37.129066467285156,137.11595337046228L41.7701997756958,125.39439520416364L46.411333084106445,115.95338153160193L51.05246639251708,108.15511881387744L55.693599700927734,101.95131958612359L60.33473300933838,96.05670670592188L64.97586631774902,90.13314577553457L69.61699962615967,86.34514480061274L74.25813293457031,82.96298653209068L78.89926624298096,79.2039743219117L83.5403995513916,75.20340264372814L88.18153285980225,72.52666479365331L92.82266616821289,69.51175183128352L97.46379947662354,66.603103863266L102.10493278503417,64.54482013740991L106.74606609344484,62.12898117002067L111.38719940185547,60.090036858845565L116.02833271026611,57.616261076527856L120.66946601867676,55.16178399433388L125.3105993270874,53.76059250750125L129.95173263549805,52.108192202602154L134.5928659439087,50.07889724148892L139.23399925231934,48.938645351899076L143.87513256073,46.4455301549004L148.51626586914062,45.77874785125786L153.15739917755127,43.372598948487706L157.7985324859619,41.31431522263162L162.43966579437256,42.1550301147312L167.0807991027832,40.106436453494226L171.72193241119385,38.78256191082824L176.3630657196045,38.10613025712383L181.00419902801514,35.30378799801578L185.64533233642578,35.699981354353675L190.28646564483643,34.34711804694485L194.92759895324707,32.201868026860254L199.56873226165771,32.588412033136265L204.20986557006833,30.182263130366106L208.850998878479,28.713444763985922L213.49213218688968,27.698797283429304L218.1332654953003,27.341242041896123L222.77439880371094,26.442549620310864L227.41553211212158,24.790149315411785L232.05666542053223,24.993070668611654L236.69779872894287,23.099070181150754L241.33893203735352,21.784885703103864L245.98006534576416,22.161739644760782L250.6211986541748,20.760548157928135" fill="none"></path></g><g><path style="fill: none;" stroke="rgb(0, 153, 136)" stroke-width="2px" d="M23.205666542053223,202.96254818887746L27.846799850463867,164.2025747143966L32.48793315887451,147.95494207983597L37.129066467285156,137.1156683685617L41.7701997756958,129.34114223769828L46.411333084106445,122.87363482281047L51.05246639251708,118.09622939281036L55.693599700927734,113.7019479462795L60.33473300933838,110.41184529163884L64.97586631774902,107.0090854571619L69.61699962615967,105.11614354818879L74.25813293457031,102.79504735545767L78.89926624298096,101.60068581931833L83.5403995513916,99.91058383443065L88.18153285980225,98.49090793861875L92.82266616821289,97.29654640247942L97.46379947662354,96.21488276073359L102.10493278503417,95.02052122459426L106.74606609344484,93.89378656800247L111.38719940185547,92.78956706155506L116.02833271026611,92.58676785202685L120.66946601867676,91.82056059964552L125.3105993270874,91.64027654026167L129.95173263549805,90.8290389875916L134.5928659439087,90.40088470383361L139.23399925231934,90.22060064444976L143.87513256073,89.76989049599017L148.51626586914062,89.02623910831043L153.15739917755127,88.86851091362819L157.7985324859619,88.80088403408061L162.43966579437256,87.96713133126617L167.0807991027832,88.32765873547666L171.72193241119385,87.31358125872116L176.3630657196045,87.08826689904858L181.00419902801514,86.88542697496315L185.64533233642578,86.8403559601172L190.28646564483643,86.25447348167692L194.92759895324707,86.3671306615132L199.56873226165771,85.64603513853507L204.20986557006833,85.84883434806328L208.850998878479,85.57840825898751L213.49213218688968,85.42068006430526L218.1332654953003,85.33053803461334L222.77439880371094,85.12769811052792L227.41553211212158,85.17276912537388L232.05666542053223,85.28546701976738L236.69779872894287,85.15025397522949L241.33893203735352,85.10518296038354L245.98006534576416,84.4741887525401L250.6211986541748,84.65447281192395" fill="none"></path></g><g><path style="fill: none;" stroke="rgb(238, 51, 119)" stroke-width="2px" d="M27.846799850463867,183.80883260340434L32.48793315887451,154.21024522247703L37.129066467285156,137.1835802500098L41.7701997756958,125.74226038107771L46.411333084106445,116.00170971102573L51.05246639251708,108.28076393746788L55.693599700927734,101.61310375927138L60.33473300933838,96.07604612060285L64.97586631774902,91.46666966826241L69.61699962615967,87.23414715757892L74.25813293457031,83.17559794990966L78.89926624298096,78.50824396808353L83.5403995513916,75.8508455326897L88.18153285980225,72.86488062050552L92.82266616821289,70.03354959665464L97.46379947662354,67.46311745548932L102.10493278503417,63.69445589524846L106.74606609344484,62.45754764681101L111.38719940185547,59.51991091405063L116.02833271026611,57.74186548556108L120.66946601867676,56.25374841905716L125.3105993270874,54.24379287262488L129.95173263549805,52.66866879733521L134.5928659439087,50.37847495353641L139.23399925231934,48.996622881384745L143.87513256073,46.977017984890615L148.51626586914062,46.281246916505225L153.15739917755127,43.59485971636855L157.7985324859619,41.98109752627417L162.43966579437256,41.5172365758315L167.0807991027832,39.671564267794395L171.72193241119385,38.19309655135234L176.3630657196045,37.593981841814575L181.00419902801514,36.550345596515115L185.64533233642578,35.323086698139534L190.28646564483643,33.86395839637844L194.92759895324707,32.57872196851717L199.56873226165771,31.409481314184486L204.20986557006833,29.728051529985322L208.850998878479,30.25953935997553L213.49213218688968,28.491183996105075L218.1332654953003,26.606832858706042L222.77439880371094,27.08999250927245L227.41553211212158,25.882073025577828L232.05666542053223,24.345627779650087L236.69779872894287,24.355277129711954L241.33893203735352,22.992764472241262L245.98006534576416,21.176080928946988L250.6211986541748,20.441671745756906" fill="none"></path></g><g><path style="fill: none;" stroke="rgb(51, 187, 238)" stroke-width="2px" d="M23.205666542053223,202.82733514433954L27.846799850463867,164.49551595361672L32.48793315887451,147.0535217829168L37.129066467285156,136.84524227948594L41.7701997756958,129.83688268644661L46.411333084106445,123.6172862104902L51.05246639251708,119.06523585471989L55.693599700927734,114.37797245441169L60.33473300933838,111.2456387090105L64.97586631774902,108.65411642720362L69.61699962615967,105.85979493586852L74.25813293457031,103.67391178767528L78.89926624298096,101.69082784901026L83.5403995513916,100.65423522211039L88.18153285980225,99.12186143190496L92.82266616821289,97.72470068623741L97.46379947662354,96.93597828371172L102.10493278503417,95.9669718218022L106.74606609344484,95.24587629882404L111.38719940185547,94.32194085176049L116.02833271026611,93.28534822486061L120.66946601867676,92.67690988171877L125.3105993270874,91.84311646434712L129.95173263549805,91.1896071063593L134.5928659439087,91.1670512416577L139.23399925231934,90.55861289851586L143.87513256073,90.26567165929572L148.51626586914062,89.34173621223214L153.15739917755127,89.02623910831043L157.7985324859619,89.18400801754989L162.43966579437256,88.57556967440804L167.0807991027832,88.41780076516856L171.72193241119385,87.96713133126617L176.3630657196045,87.85443343687267L181.00419902801514,87.76429140718075L185.64533233642578,86.99812486935666L190.28646564483643,87.29106610857679L194.92759895324707,86.5248995707527L199.56873226165771,86.23191761697532L204.20986557006833,85.7136213035254L208.850998878479,85.82627848336169L213.49213218688968,85.62347927383347L218.1332654953003,85.84883434806328L222.77439880371094,85.17276912537388L227.41553211212158,85.21784014021983L232.05666542053223,85.39812419960369L236.69779872894287,85.19532499007548L241.33893203735352,84.6995438267699L245.98006534576416,85.39812419960369L250.6211986541748,85.12769811052792" fill="none"></path></g><g><path style="fill: none;" stroke="rgb(204, 51, 17)" stroke-width="2px" d="M27.846799850463867,183.9441270770567L32.48793315887451,154.03631263402L37.129066467285156,136.58446554047205L41.7701997756958,125.896894269411L46.411333084106445,116.17564229948276L51.05246639251708,108.97649429129605L55.693599700927734,101.4585105854953L60.33473300933838,95.52525959048889L64.97586631774902,91.30238642986725L69.61699962615967,87.17616962809322L74.25813293457031,82.0836335251864L78.89926624298096,78.82712038025478L83.5403995513916,75.45465217635181L88.18153285980225,73.16445833255301L92.82266616821289,69.424785537055L97.46379947662354,68.37145922713646L102.10493278503417,64.08099990152449L106.74606609344484,61.549205875163864L111.38719940185547,59.887115505645674L116.02833271026611,57.664589255951654L120.66946601867676,56.68857989019975L125.3105993270874,54.30177040211057L129.95173263549805,52.195158496830686L134.5928659439087,50.156214185655564L139.23399925231934,48.61976893972783L143.87513256073,46.37786256079563L148.51626586914062,45.4695207891485L153.15739917755127,43.46921459277809L157.7985324859619,40.98578946039851L162.43966579437256,40.99543881046039L167.0807991027832,39.574948623504014L171.72193241119385,37.796903195014465L176.3630657196045,37.03350524708152L181.00419902801514,35.45838117179185L185.64533233642578,34.58867751494943L190.28646564483643,34.05723039951644L194.92759895324707,32.81063208645989L199.56873226165771,32.68502767742666L204.20986557006833,31.293526255213127L208.850998878479,27.82440169246253L213.49213218688968,29.254581944038L218.1332654953003,28.539471460971654L222.77439880371094,27.341242041896123L227.41553211212158,25.398913375011418L232.05666542053223,24.45193348855958L236.69779872894287,23.273002769607782L241.33893203735352,21.968467641622777L245.98006534576416,22.123060815398848L250.6211986541748,20.973159575747115" fill="none"></path></g></g></g></g></g></g><g transform="translate(51, 177)" clip-path="url(#clip_1)"><clipPath id="clip_1"><rect width="278" height="22"></rect></clipPath><g><g><line x1="0" y1="0" x2="0" y2="5" style="visibility: inherit;" fill="rgb(0, 0, 0)" stroke="rgb(204, 204, 204)" stroke-width="1px"></line><line x1="23.205666542053223" y1="0" x2="23.205666542053223" y2="5" style="visibility: inherit;" fill="rgb(0, 0, 0)" stroke="rgb(204, 204, 204)" stroke-width="1px"></line><line x1="46.411333084106445" y1="0" x2="46.411333084106445" y2="5" style="visibility: inherit;" fill="rgb(0, 0, 0)" stroke="rgb(204, 204, 204)" stroke-width="1px"></line><line x1="69.61699962615967" y1="0" x2="69.61699962615967" y2="5" style="visibility: inherit;" fill="rgb(0, 0, 0)" stroke="rgb(204, 204, 204)" stroke-width="1px"></line><line x1="92.82266616821289" y1="0" x2="92.82266616821289" y2="5" style="visibility: inherit;" fill="rgb(0, 0, 0)" stroke="rgb(204, 204, 204)" stroke-width="1px"></line><line x1="116.02833271026611" y1="0" x2="116.02833271026611" y2="5" style="visibility: inherit;" fill="rgb(0, 0, 0)" stroke="rgb(204, 204, 204)" stroke-width="1px"></line><line x1="139.23399925231934" y1="0" x2="139.23399925231934" y2="5" style="visibility: inherit;" fill="rgb(0, 0, 0)" stroke="rgb(204, 204, 204)" stroke-width="1px"></line><line x1="162.43966579437256" y1="0" x2="162.43966579437256" y2="5" style="visibility: inherit;" fill="rgb(0, 0, 0)" stroke="rgb(204, 204, 204)" stroke-width="1px"></line><line x1="185.64533233642578" y1="0" x2="185.64533233642578" y2="5" style="visibility: inherit;" fill="rgb(0, 0, 0)" stroke="rgb(204, 204, 204)" stroke-width="1px"></line><line x1="208.850998878479" y1="0" x2="208.850998878479" y2="5" style="visibility: inherit;" fill="rgb(0, 0, 0)" stroke="rgb(204, 204, 204)" stroke-width="1px"></line><line x1="232.05666542053223" y1="0" x2="232.05666542053223" y2="5" style="visibility: inherit;" fill="rgb(0, 0, 0)" stroke="rgb(204, 204, 204)" stroke-width="1px"></line><line x1="255.26233196258545" y1="0" x2="255.26233196258545" y2="5" style="visibility: inherit;" fill="rgb(0, 0, 0)" stroke="rgb(204, 204, 204)" stroke-width="1px"></line><line x1="278.4679985046387" y1="0" x2="278.4679985046387" y2="5" style="visibility: inherit;" fill="rgb(0, 0, 0)" stroke="rgb(204, 204, 204)" stroke-width="1px"></line></g><g transform="translate(0, 8)"><text style="text-anchor: middle; visibility: hidden; font-family: Roboto, sans-serif; font-size: 12px; font-weight: 200;" x="0" y="0" dx="0em" dy="0.95em" fill="rgb(50, 49, 63)" stroke="none" stroke-width="1px">-5</text><text style="text-anchor: middle; visibility: inherit; font-family: Roboto, sans-serif; font-size: 12px; font-weight: 200;" x="23.205666542053223" y="0" dx="0em" dy="0.95em" fill="rgb(50, 49, 63)" stroke="none" stroke-width="1px">0</text><text style="text-anchor: middle; visibility: inherit; font-family: Roboto, sans-serif; font-size: 12px; font-weight: 200;" x="46.411333084106445" y="0" dx="0em" dy="0.95em" fill="rgb(50, 49, 63)" stroke="none" stroke-width="1px">5</text><text style="text-anchor: middle; visibility: inherit; font-family: Roboto, sans-serif; font-size: 12px; font-weight: 200;" x="69.61699962615967" y="0" dx="0em" dy="0.95em" fill="rgb(50, 49, 63)" stroke="none" stroke-width="1px">10</text><text style="text-anchor: middle; visibility: inherit; font-family: Roboto, sans-serif; font-size: 12px; font-weight: 200;" x="92.82266616821289" y="0" dx="0em" dy="0.95em" fill="rgb(50, 49, 63)" stroke="none" stroke-width="1px">15</text><text style="text-anchor: middle; visibility: inherit; font-family: Roboto, sans-serif; font-size: 12px; font-weight: 200;" x="116.02833271026611" y="0" dx="0em" dy="0.95em" fill="rgb(50, 49, 63)" stroke="none" stroke-width="1px">20</text><text style="text-anchor: middle; visibility: inherit; font-family: Roboto, sans-serif; font-size: 12px; font-weight: 200;" x="139.23399925231934" y="0" dx="0em" dy="0.95em" fill="rgb(50, 49, 63)" stroke="none" stroke-width="1px">25</text><text style="text-anchor: middle; visibility: inherit; font-family: Roboto, sans-serif; font-size: 12px; font-weight: 200;" x="162.43966579437256" y="0" dx="0em" dy="0.95em" fill="rgb(50, 49, 63)" stroke="none" stroke-width="1px">30</text><text style="text-anchor: middle; visibility: inherit; font-family: Roboto, sans-serif; font-size: 12px; font-weight: 200;" x="185.64533233642578" y="0" dx="0em" dy="0.95em" fill="rgb(50, 49, 63)" stroke="none" stroke-width="1px">35</text><text style="text-anchor: middle; visibility: inherit; font-family: Roboto, sans-serif; font-size: 12px; font-weight: 200;" x="208.850998878479" y="0" dx="0em" dy="0.95em" fill="rgb(50, 49, 63)" stroke="none" stroke-width="1px">40</text><text style="text-anchor: middle; visibility: inherit; font-family: Roboto, sans-serif; font-size: 12px; font-weight: 200;" x="232.05666542053223" y="0" dx="0em" dy="0.95em" fill="rgb(50, 49, 63)" stroke="none" stroke-width="1px">45</text><text style="text-anchor: middle; visibility: inherit; font-family: Roboto, sans-serif; font-size: 12px; font-weight: 200;" x="255.26233196258545" y="0" dx="0em" dy="0.95em" fill="rgb(50, 49, 63)" stroke="none" stroke-width="1px">50</text><text style="text-anchor: middle; visibility: hidden; font-family: Roboto, sans-serif; font-size: 12px; font-weight: 200;" x="278.4679985046387" y="0" dx="0em" dy="0.95em" fill="rgb(50, 49, 63)" stroke="none" stroke-width="1px">55</text></g><line x1="0" y1="0" x2="278.4679985046387" y2="0" fill="rgb(0, 0, 0)" stroke="rgb(204, 204, 204)" stroke-width="1px"></line></g></g></g></g></svg>