<svg viewBox="0 0 330 200" xmlns="http://www.w3.org/2000/svg"><g><g><g><g><g><line x1="51.53200149536133" y1="177.5999994277954" x2="46.53200149536133" y2="177.5999994277954" style="visibility: inherit;" fill="rgb(0, 0, 0)" stroke="rgb(204, 204, 204)" stroke-width="1px"></line><line x1="51.53200149536133" y1="162.79999947547913" x2="46.53200149536133" y2="162.79999947547913" style="visibility: inherit;" fill="rgb(0, 0, 0)" stroke="rgb(204, 204, 204)" stroke-width="1px"></line><line x1="51.53200149536133" y1="147.99999952316284" x2="46.53200149536133" y2="147.99999952316284" style="visibility: inherit;" fill="rgb(0, 0, 0)" stroke="rgb(204, 204, 204)" stroke-width="1px"></line><line x1="51.53200149536133" y1="133.19999957084653" x2="46.53200149536133" y2="133.19999957084653" style="visibility: inherit;" fill="rgb(0, 0, 0)" stroke="rgb(204, 204, 204)" stroke-width="1px"></line><line x1="51.53200149536133" y1="118.39999961853023" x2="46.53200149536133" y2="118.39999961853023" style="visibility: inherit;" fill="rgb(0, 0, 0)" stroke="rgb(204, 204, 204)" stroke-width="1px"></line><line x1="51.53200149536133" y1="103.59999966621399" x2="46.53200149536133" y2="103.59999966621399" style="visibility: inherit;" fill="rgb(0, 0, 0)" stroke="rgb(204, 204, 204)" stroke-width="1px"></line><line x1="51.53200149536133" y1="88.7999997138977" x2="46.53200149536133" y2="88.7999997138977" style="visibility: inherit;" fill="rgb(0, 0, 0)" stroke="rgb(204, 204, 204)" stroke-width="1px"></line><line x1="51.53200149536133" y1="73.99999976158142" x2="46.53200149536133" y2="73.99999976158142" style="visibility: inherit;" fill="rgb(0, 0, 0)" stroke="rgb(204, 204, 204)" stroke-width="1px"></line><line x1="51.53200149536133" y1="59.19999980926512" x2="46.53200149536133" y2="59.19999980926512" style="visibility: inherit;" fill="rgb(0, 0, 0)" stroke="rgb(204, 204, 204)" stroke-width="1px"></line><line x1="51.53200149536133" y1="44.39999985694881" x2="46.53200149536133" y2="44.39999985694881" style="visibility: inherit;" fill="rgb(0, 0, 0)" stroke="rgb(204, 204, 204)" stroke-width="1px"></line><line x1="51.53200149536133" y1="29.599999904632583" x2="46.53200149536133" y2="29.599999904632583" style="visibility: inherit;" fill="rgb(0, 0, 0)" stroke="rgb(204, 204, 204)" stroke-width="1px"></line><line x1="51.53200149536133" y1="14.799999952316291" x2="46.53200149536133" y2="14.799999952316291" style="visibility: inherit;" fill="rgb(0, 0, 0)" stroke="rgb(204, 204, 204)" stroke-width="1px"></line><line x1="51.53200149536133" y1="0" x2="46.53200149536133" y2="0" style="visibility: inherit;" fill="rgb(0, 0, 0)" stroke="rgb(204, 204, 204)" stroke-width="1px"></line></g><g transform="translate(41.53200149536133, 0)"><text style="text-anchor: end; visibility: hidden; font-family: Roboto, sans-serif; font-size: 12px; font-weight: 200;" x="0" y="177.5999994277954" dx="0em" dy="0.3em" fill="rgb(50, 49, 63)" stroke="none" stroke-width="1px">1.15</text><text style="text-anchor: end; visibility: inherit; font-family: Roboto, sans-serif; font-size: 12px; font-weight: 200;" x="0" y="162.79999947547913" dx="0em" dy="0.3em" fill="rgb(50, 49, 63)" stroke="none" stroke-width="1px">1.2</text><text style="text-anchor: end; visibility: hidden; font-family: Roboto, sans-serif; font-size: 12px; font-weight: 200;" x="0" y="147.99999952316284" dx="0em" dy="0.3em" fill="rgb(50, 49, 63)" stroke="none" stroke-width="1px">1.25</text><text style="text-anchor: end; visibility: inherit; font-family: Roboto, sans-serif; font-size: 12px; font-weight: 200;" x="0" y="133.19999957084653" dx="0em" dy="0.3em" fill="rgb(50, 49, 63)" stroke="none" stroke-width="1px">1.3</text><text style="text-anchor: end; visibility: hidden; font-family: Roboto, sans-serif; font-size: 12px; font-weight: 200;" x="0" y="118.39999961853023" dx="0em" dy="0.3em" fill="rgb(50, 49, 63)" stroke="none" stroke-width="1px">1.35</text><text style="text-anchor: end; visibility: inherit; font-family: Roboto, sans-serif; font-size: 12px; font-weight: 200;" x="0" y="103.59999966621399" dx="0em" dy="0.3em" fill="rgb(50, 49, 63)" stroke="none" stroke-width="1px">1.4</text><text style="text-anchor: end; visibility: hidden; font-family: Roboto, sans-serif; font-size: 12px; font-weight: 200;" x="0" y="88.7999997138977" dx="0em" dy="0.3em" fill="rgb(50, 49, 63)" stroke="none" stroke-width="1px">1.45</text><text style="text-anchor: end; visibility: inherit; font-family: Roboto, sans-serif; font-size: 12px; font-weight: 200;" x="0" y="73.99999976158142" dx="0em" dy="0.3em" fill="rgb(50, 49, 63)" stroke="none" stroke-width="1px">1.5</text><text style="text-anchor: end; visibility: hidden; font-family: Roboto, sans-serif; font-size: 12px; font-weight: 200;" x="0" y="59.19999980926512" dx="0em" dy="0.3em" fill="rgb(50, 49, 63)" stroke="none" stroke-width="1px">1.55</text><text style="text-anchor: end; visibility: inherit; font-family: Roboto, sans-serif; font-size: 12px; font-weight: 200;" x="0" y="44.39999985694881" dx="0em" dy="0.3em" fill="rgb(50, 49, 63)" stroke="none" stroke-width="1px">1.6</text><text style="text-anchor: end; visibility: hidden; font-family: Roboto, sans-serif; font-size: 12px; font-weight: 200;" x="0" y="29.599999904632583" dx="0em" dy="0.3em" fill="rgb(50, 49, 63)" stroke="none" stroke-width="1px">1.65</text><text style="text-anchor: end; visibility: inherit; font-family: Roboto, sans-serif; font-size: 12px; font-weight: 200;" x="0" y="14.799999952316291" dx="0em" dy="0.3em" fill="rgb(50, 49, 63)" stroke="none" stroke-width="1px">1.7</text><text style="text-anchor: end; visibility: hidden; font-family: Roboto, sans-serif; font-size: 12px; font-weight: 200;" x="0" y="0" dx="0em" dy="0.3em" fill="rgb(50, 49, 63)" stroke="none" stroke-width="1px">1.75</text></g><line x1="51.53200149536133" y1="0" x2="51.53200149536133" y2="177.5999994277954" fill="rgb(0, 0, 0)" stroke="rgb(204, 204, 204)" stroke-width="1px"></line></g></g><g transform="translate(51, 0)" clip-path="url(#clip_0)"><clipPath id="clip_0"><rect width="278" height="177"></rect></clipPath><g><g><g><line x1="0" y1="0" x2="0" y2="177.5999994277954" fill="rgb(0, 0, 0)" stroke="rgb(60, 60, 60)" stroke-width="1px" opacity="0.25"></line><line x1="23.205666542053223" y1="0" x2="23.205666542053223" y2="177.5999994277954" fill="rgb(0, 0, 0)" stroke="rgb(60, 60, 60)" stroke-width="1px" opacity="0.25"></line><line x1="46.411333084106445" y1="0" x2="46.411333084106445" y2="177.5999994277954" fill="rgb(0, 0, 0)" stroke="rgb(60, 60, 60)" stroke-width="1px" opacity="0.25"></line><line x1="69.61699962615967" y1="0" x2="69.61699962615967" y2="177.5999994277954" fill="rgb(0, 0, 0)" stroke="rgb(60, 60, 60)" stroke-width="1px" opacity="0.25"></line><line x1="92.82266616821289" y1="0" x2="92.82266616821289" y2="177.5999994277954" fill="rgb(0, 0, 0)" stroke="rgb(60, 60, 60)" stroke-width="1px" opacity="0.25"></line><line x1="116.02833271026611" y1="0" x2="116.02833271026611" y2="177.5999994277954" fill="rgb(0, 0, 0)" stroke="rgb(60, 60, 60)" stroke-width="1px" opacity="0.25"></line><line x1="139.23399925231934" y1="0" x2="139.23399925231934" y2="177.5999994277954" fill="rgb(0, 0, 0)" stroke="rgb(60, 60, 60)" stroke-width="1px" opacity="0.25"></line><line x1="162.43966579437256" y1="0" x2="162.43966579437256" y2="177.5999994277954" fill="rgb(0, 0, 0)" stroke="rgb(60, 60, 60)" stroke-width="1px" opacity="0.25"></line><line x1="185.64533233642578" y1="0" x2="185.64533233642578" y2="177.5999994277954" fill="rgb(0, 0, 0)" stroke="rgb(60, 60, 60)" stroke-width="1px" opacity="0.25"></line><line x1="208.850998878479" y1="0" x2="208.850998878479" y2="177.5999994277954" fill="rgb(0, 0, 0)" stroke="rgb(60, 60, 60)" stroke-width="1px" opacity="0.25"></line><line x1="232.05666542053223" y1="0" x2="232.05666542053223" y2="177.5999994277954" fill="rgb(0, 0, 0)" stroke="rgb(60, 60, 60)" stroke-width="1px" opacity="0.25"></line><line x1="255.26233196258545" y1="0" x2="255.26233196258545" y2="177.5999994277954" fill="rgb(0, 0, 0)" stroke="rgb(60, 60, 60)" stroke-width="1px" opacity="0.25"></line><line x1="278.4679985046387" y1="0" x2="278.4679985046387" y2="177.5999994277954" fill="rgb(0, 0, 0)" stroke="rgb(60, 60, 60)" stroke-width="1px" opacity="0.25"></line></g><g><line x1="0" y1="177.5999994277954" x2="278.4679985046387" y2="177.5999994277954" fill="rgb(0, 0, 0)" stroke="rgb(60, 60, 60)" stroke-width="1px" opacity="0.25"></line><line x1="0" y1="162.79999947547913" x2="278.4679985046387" y2="162.79999947547913" fill="rgb(0, 0, 0)" stroke="rgb(60, 60, 60)" stroke-width="1px" opacity="0.25"></line><line x1="0" y1="147.99999952316284" x2="278.4679985046387" y2="147.99999952316284" fill="rgb(0, 0, 0)" stroke="rgb(60, 60, 60)" stroke-width="1px" opacity="0.25"></line><line x1="0" y1="133.19999957084653" x2="278.4679985046387" y2="133.19999957084653" fill="rgb(0, 0, 0)" stroke="rgb(60, 60, 60)" stroke-width="1px" opacity="0.25"></line><line x1="0" y1="118.39999961853023" x2="278.4679985046387" y2="118.39999961853023" fill="rgb(0, 0, 0)" stroke="rgb(60, 60, 60)" stroke-width="1px" opacity="0.25"></line><line x1="0" y1="103.59999966621399" x2="278.4679985046387" y2="103.59999966621399" fill="rgb(0, 0, 0)" stroke="rgb(60, 60, 60)" stroke-width="1px" opacity="0.25"></line><line x1="0" y1="88.7999997138977" x2="278.4679985046387" y2="88.7999997138977" fill="rgb(0, 0, 0)" stroke="rgb(60, 60, 60)" stroke-width="1px" opacity="0.25"></line><line x1="0" y1="73.99999976158142" x2="278.4679985046387" y2="73.99999976158142" fill="rgb(0, 0, 0)" stroke="rgb(60, 60, 60)" stroke-width="1px" opacity="0.25"></line><line x1="0" y1="59.19999980926512" x2="278.4679985046387" y2="59.19999980926512" fill="rgb(0, 0, 0)" stroke="rgb(60, 60, 60)" stroke-width="1px" opacity="0.25"></line><line x1="0" y1="44.39999985694881" x2="278.4679985046387" y2="44.39999985694881" fill="rgb(0, 0, 0)" stroke="rgb(60, 60, 60)" stroke-width="1px" opacity="0.25"></line><line x1="0" y1="29.599999904632583" x2="278.4679985046387" y2="29.599999904632583" fill="rgb(0, 0, 0)" stroke="rgb(60, 60, 60)" stroke-width="1px" opacity="0.25"></line><line x1="0" y1="14.799999952316291" x2="278.4679985046387" y2="14.799999952316291" fill="rgb(0, 0, 0)" stroke="rgb(60, 60, 60)" stroke-width="1px" opacity="0.25"></line><line x1="0" y1="0" x2="278.4679985046387" y2="0" fill="rgb(0, 0, 0)" stroke="rgb(60, 60, 60)" stroke-width="1px" opacity="0.25"></line></g></g></g><g><g><line x1="0" y1="517.9999983310698" x2="278.4679985046387" y2="517.9999983310698" fill="rgb(0, 0, 0)" stroke="rgb(153, 153, 153)" stroke-width="1.5px"></line></g></g><g><g><line x1="23.205666542053223" y1="0" x2="23.205666542053223" y2="177.5999994277954" fill="rgb(0, 0, 0)" stroke="rgb(153, 153, 153)" stroke-width="1.5px"></line></g></g><g><g><g><g><g><path style="fill: none;" stroke="rgb(238, 51, 119)" stroke-width="2px" d="M27.846799850463867,-3.4444732555039215L32.48793315887451,38.70459353374599L37.129066467285156,62.84318236130899L41.7701997756958,79.0408799485874L46.411333084106445,90.59678143876054L51.05246639251708,99.51516405467999L55.693599700927734,106.50404037493614L60.33473300933838,112.60671007115546L64.97586631774902,117.11131439624181L69.61699962615967,121.31023654000101L74.25813293457031,125.15576989858288L78.89926624298096,127.7815032656724L83.5403995513916,130.60339122655134L88.18153285980225,132.9808173663525L92.82266616821289,135.12846140240183L97.46379947662354,136.65891889411398L102.10493278503417,138.40239766352113L106.74606609344484,139.5072007452887L111.38719940185547,140.89616157913153L116.02833271026611,142.20138885458934L120.66946601867676,143.3143782766626L125.3105993270874,143.97475482330208L129.95173263549805,144.83417941159755L134.5928659439087,145.82606745466646L139.23399925231934,146.4249053052151L143.87513256073,146.74928903982675L148.51626586914062,147.56555891176959L153.15739917755127,147.86580705685932L157.7985324859619,148.43941545344876L162.43966579437256,148.6480612733942L167.0807991027832,149.26845883914436L171.72193241119385,149.56651925535934L176.3630657196045,149.473011488937L181.00419902801514,149.7268938962611L185.64533233642578,149.99277352644697L190.28646564483643,149.98846864059655L194.92759895324707,149.98956250503394L199.56873226165771,150.47933148538957L204.20986557006833,150.58818863988503L208.850998878479,150.53240155357796L213.49213218688968,150.94161271101197L218.1332654953003,150.714618197278L222.77439880371094,150.6774268064066L227.41553211212158,150.75713776653797L232.05666542053223,150.72650956229094L236.69779872894287,150.74348210404534L241.33893203735352,151.08116864165365L245.98006534576416,150.68981217471386L250.6211986541748,150.89143609069023" fill="none"></path></g><g><path style="fill: none;" stroke="rgb(0, 119, 187)" stroke-width="2px" d="M27.846799850463867,-12.119523963027644L32.48793315887451,30.35043325182413L37.129066467285156,54.37300187712423L41.7701997756958,70.26533485662185L46.411333084106445,81.65877983486722L51.05246639251708,90.39579266987684L55.693599700927734,97.42344824873611L60.33473300933838,103.15822663449521L64.97586631774902,108.4123045289442L69.61699962615967,112.03715955876928L74.25813293457031,115.30576764149997L78.89926624298096,118.57494029942413L83.5403995513916,121.14082869600335L88.18153285980225,123.42555864622281L92.82266616821289,125.10171182380586L97.46379947662354,127.29102856632493L102.10493278503417,128.48641068069864L106.74606609344484,129.87935882684553L111.38719940185547,131.31200366628488L116.02833271026611,132.6405196684743L120.66946601867676,133.1750312329143L125.3105993270874,134.39550165744888L129.95173263549805,135.44448236695982L134.5928659439087,136.09737829228547L139.23399925231934,136.50831846124956L143.87513256073,137.2296338428367L148.51626586914062,137.56672051930192L153.15739917755127,138.286483319107L157.7985324859619,138.75910332796022L162.43966579437256,138.95423462921144L167.0807991027832,139.3990845957347L171.72193241119385,139.88465454808872L176.3630657196045,140.31683685870803L181.00419902801514,140.19323017728252L185.64533233642578,140.28250362975368L190.28646564483643,140.5044875386454L194.92759895324707,140.70046570268687L199.56873226165771,140.80452396803764L204.20986557006833,141.17223884874986L208.850998878479,141.1587949019548L213.49213218688968,140.90491249463068L218.1332654953003,141.03635265686592L222.77439880371094,140.99266865126933L227.41553211212158,141.204419634779L232.05666542053223,141.17495586686854L236.69779872894287,141.2199101666505L241.33893203735352,141.17170955950596L245.98006534576416,141.0940804704006L250.6211986541748,140.94443275817522" fill="none"></path></g><g><path style="fill: none;" stroke="rgb(204, 51, 17)" stroke-width="2px" d="M27.846799850463867,-7.314495063103537L32.48793315887451,34.213927158749L37.129066467285156,58.02481537243864L41.7701997756958,73.581190825858L46.411333084106445,84.86542579011198L51.05246639251708,93.75748508763478L55.693599700927734,100.60154787075984L60.33473300933838,106.17224659090992L64.97586631774902,110.89954054387987L69.61699962615967,114.8538957710076L74.25813293457031,118.17984352182746L78.89926624298096,120.86725672880617L83.5403995513916,123.43864973352196L88.18153285980225,125.65351350354659L92.82266616821289,127.24099308980155L97.46379947662354,128.90334946109363L102.10493278503417,130.65145068989747L106.74606609344484,131.97460322774873L111.38719940185547,133.46663432035368L116.02833271026611,134.1228471249411L120.66946601867676,135.4016805101031L125.3105993270874,136.19854310976962L129.95173263549805,136.59162858823944L134.5928659439087,137.74847844565724L139.23399925231934,138.04604485857791L143.87513256073,138.87946370202312L148.51626586914062,139.30331852853837L153.15739917755127,139.7569194105608L157.7985324859619,140.26415493596514L162.43966579437256,140.4776349310049L167.0807991027832,140.64379646763993L171.72193241119385,141.34665729758976L176.3630657196045,141.29997398627776L181.00419902801514,141.20957138341961L185.64533233642578,141.51433613005733L190.28646564483643,141.28462459820466L194.92759895324707,141.68441440709728L199.56873226165771,141.78660251711958L204.20986557006833,141.6809916699867L208.850998878479,141.8887906271419L213.49213218688968,141.90336372432395L218.1332654953003,142.2370629496282L222.77439880371094,142.042108078125L227.41553211212158,142.05643417365988L232.05666542053223,142.1968016811422L236.69779872894287,141.9435544209108L241.33893203735352,142.12877037032624L245.98006534576416,141.62601616052027L250.6211986541748,141.9899907305756" fill="none"></path></g><g><path style="fill: none;" stroke="rgb(51, 187, 238)" stroke-width="2px" d="M27.846799850463867,-6.824302651352823L32.48793315887451,35.23235023591212L37.129066467285156,59.02573661860343L41.7701997756958,74.7067773319361L46.411333084106445,86.31049128380822L51.05246639251708,95.17082851264658L55.693599700927734,102.03147569208053L60.33473300933838,107.77786315525586L64.97586631774902,112.6212831683375L69.61699962615967,116.66702900491201L74.25813293457031,120.02872142266993L78.89926624298096,123.16846521748572L83.5403995513916,125.73707063218362L88.18153285980225,127.84131295023312L92.82266616821289,130.00857597425633L97.46379947662354,131.64838462375823L102.10493278503417,133.18604044918743L106.74606609344484,134.58346991093265L111.38719940185547,136.0708785441409L116.02833271026611,136.96082547883464L120.66946601867676,138.20719579037075L125.3105993270874,139.23564007721833L129.95173263549805,139.98218491276472L134.5928659439087,140.74030353977773L139.23399925231934,141.24506904871052L143.87513256073,141.8707595068997L148.51626586914062,142.40749408616406L153.15739917755127,142.83219577546956L157.7985324859619,143.40104056886386L162.43966579437256,143.6246829173865L167.0807991027832,143.85220672036436L171.72193241119385,144.06886245086753L176.3630657196045,144.5782857051466L181.00419902801514,144.6464228738114L185.64533233642578,144.58813048508316L190.28646564483643,145.19240237186918L194.92759895324707,145.45228339062416L199.56873226165771,145.4871106228728L204.20986557006833,145.8136820863592L208.850998878479,145.91491747574253L213.49213218688968,145.55595351052943L218.1332654953003,145.85902453158667L222.77439880371094,145.51720953787594L227.41553211212158,145.87716150967762L232.05666542053223,145.65965891638425L236.69779872894287,145.74180460703755L241.33893203735352,145.46230460030867L245.98006534576416,145.14854193652465L250.6211986541748,145.58164168183336" fill="none"></path></g><g><path style="fill: none;" stroke="rgb(255, 112, 67)" stroke-width="2px" d="M27.846799850463867,-5.801786404036862L32.48793315887451,35.83545768636155L37.129066467285156,59.42577342914318L41.7701997756958,75.10388540865961L46.411333084106445,86.44987078470193L51.05246639251708,95.05703132520804L55.693599700927734,101.95659890704347L60.33473300933838,107.33583606470005L64.97586631774902,112.23352586825624L69.61699962615967,116.02157841495055L74.25813293457031,119.28577575398205L78.89926624298096,122.2269655104361L83.5403995513916,124.69772298691167L88.18153285980225,127.01622159089196L92.82266616821289,128.9841189997128L97.46379947662354,130.56662326707507L102.10493278503417,132.2838140040352L106.74606609344484,133.43762926978795L111.38719940185547,134.67782454014522L116.02833271026611,135.6847796836905L120.66946601867676,136.60927156303615L125.3105993270874,137.27455285666903L129.95173263549805,138.01834538814717L134.5928659439087,138.68401482722558L139.23399925231934,139.29269745771077L143.87513256073,139.91514160853737L148.51626586914062,140.22347023608404L153.15739917755127,140.5028996709137L157.7985324859619,141.02135612828872L162.43966579437256,141.13674118345895L167.0807991027832,141.37538006055874L171.72193241119385,141.51782943906707L176.3630657196045,141.97457077060335L181.00419902801514,142.07323028566634L185.64533233642578,142.06687881473954L190.28646564483643,142.26338626802485L194.92759895324707,142.18155815091788L199.56873226165771,142.34306194220665L204.20986557006833,142.67002155113855L208.850998878479,142.47453739039145L213.49213218688968,142.41963245282417L218.1332654953003,142.3973670186308L222.77439880371094,142.24200298257128L227.41553211212158,142.0521292878095L232.05666542053223,141.95897438088306L236.69779872894287,141.61994697719024L241.33893203735352,141.57284023448312L245.98006534576416,141.74768211471812L250.6211986541748,141.57421638651726" fill="none"></path></g></g></g></g></g><g><g><span fill="rgb(0, 0, 0)" stroke="none" stroke-width="1px">Alt + Scroll to Zoom</span></g></g></g><g transform="translate(51, 177)" clip-path="url(#clip_1)"><clipPath id="clip_1"><rect width="278" height="22"></rect></clipPath><g><g><line x1="0" y1="0" x2="0" y2="5" style="visibility: inherit;" fill="rgb(0, 0, 0)" stroke="rgb(204, 204, 204)" stroke-width="1px"></line><line x1="23.205666542053223" y1="0" x2="23.205666542053223" y2="5" style="visibility: inherit;" fill="rgb(0, 0, 0)" stroke="rgb(204, 204, 204)" stroke-width="1px"></line><line x1="46.411333084106445" y1="0" x2="46.411333084106445" y2="5" style="visibility: inherit;" fill="rgb(0, 0, 0)" stroke="rgb(204, 204, 204)" stroke-width="1px"></line><line x1="69.61699962615967" y1="0" x2="69.61699962615967" y2="5" style="visibility: inherit;" fill="rgb(0, 0, 0)" stroke="rgb(204, 204, 204)" stroke-width="1px"></line><line x1="92.82266616821289" y1="0" x2="92.82266616821289" y2="5" style="visibility: inherit;" fill="rgb(0, 0, 0)" stroke="rgb(204, 204, 204)" stroke-width="1px"></line><line x1="116.02833271026611" y1="0" x2="116.02833271026611" y2="5" style="visibility: inherit;" fill="rgb(0, 0, 0)" stroke="rgb(204, 204, 204)" stroke-width="1px"></line><line x1="139.23399925231934" y1="0" x2="139.23399925231934" y2="5" style="visibility: inherit;" fill="rgb(0, 0, 0)" stroke="rgb(204, 204, 204)" stroke-width="1px"></line><line x1="162.43966579437256" y1="0" x2="162.43966579437256" y2="5" style="visibility: inherit;" fill="rgb(0, 0, 0)" stroke="rgb(204, 204, 204)" stroke-width="1px"></line><line x1="185.64533233642578" y1="0" x2="185.64533233642578" y2="5" style="visibility: inherit;" fill="rgb(0, 0, 0)" stroke="rgb(204, 204, 204)" stroke-width="1px"></line><line x1="208.850998878479" y1="0" x2="208.850998878479" y2="5" style="visibility: inherit;" fill="rgb(0, 0, 0)" stroke="rgb(204, 204, 204)" stroke-width="1px"></line><line x1="232.05666542053223" y1="0" x2="232.05666542053223" y2="5" style="visibility: inherit;" fill="rgb(0, 0, 0)" stroke="rgb(204, 204, 204)" stroke-width="1px"></line><line x1="255.26233196258545" y1="0" x2="255.26233196258545" y2="5" style="visibility: inherit;" fill="rgb(0, 0, 0)" stroke="rgb(204, 204, 204)" stroke-width="1px"></line><line x1="278.4679985046387" y1="0" x2="278.4679985046387" y2="5" style="visibility: inherit;" fill="rgb(0, 0, 0)" stroke="rgb(204, 204, 204)" stroke-width="1px"></line></g><g transform="translate(0, 8)"><text style="text-anchor: middle; visibility: hidden; font-family: Roboto, sans-serif; font-size: 12px; font-weight: 200;" x="0" y="0" dx="0em" dy="0.95em" fill="rgb(50, 49, 63)" stroke="none" stroke-width="1px">-5</text><text style="text-anchor: middle; visibility: inherit; font-family: Roboto, sans-serif; font-size: 12px; font-weight: 200;" x="23.205666542053223" y="0" dx="0em" dy="0.95em" fill="rgb(50, 49, 63)" stroke="none" stroke-width="1px">0</text><text style="text-anchor: middle; visibility: inherit; font-family: Roboto, sans-serif; font-size: 12px; font-weight: 200;" x="46.411333084106445" y="0" dx="0em" dy="0.95em" fill="rgb(50, 49, 63)" stroke="none" stroke-width="1px">5</text><text style="text-anchor: middle; visibility: inherit; font-family: Roboto, sans-serif; font-size: 12px; font-weight: 200;" x="69.61699962615967" y="0" dx="0em" dy="0.95em" fill="rgb(50, 49, 63)" stroke="none" stroke-width="1px">10</text><text style="text-anchor: middle; visibility: inherit; font-family: Roboto, sans-serif; font-size: 12px; font-weight: 200;" x="92.82266616821289" y="0" dx="0em" dy="0.95em" fill="rgb(50, 49, 63)" stroke="none" stroke-width="1px">15</text><text style="text-anchor: middle; visibility: inherit; font-family: Roboto, sans-serif; font-size: 12px; font-weight: 200;" x="116.02833271026611" y="0" dx="0em" dy="0.95em" fill="rgb(50, 49, 63)" stroke="none" stroke-width="1px">20</text><text style="text-anchor: middle; visibility: inherit; font-family: Roboto, sans-serif; font-size: 12px; font-weight: 200;" x="139.23399925231934" y="0" dx="0em" dy="0.95em" fill="rgb(50, 49, 63)" stroke="none" stroke-width="1px">25</text><text style="text-anchor: middle; visibility: inherit; font-family: Roboto, sans-serif; font-size: 12px; font-weight: 200;" x="162.43966579437256" y="0" dx="0em" dy="0.95em" fill="rgb(50, 49, 63)" stroke="none" stroke-width="1px">30</text><text style="text-anchor: middle; visibility: inherit; font-family: Roboto, sans-serif; font-size: 12px; font-weight: 200;" x="185.64533233642578" y="0" dx="0em" dy="0.95em" fill="rgb(50, 49, 63)" stroke="none" stroke-width="1px">35</text><text style="text-anchor: middle; visibility: inherit; font-family: Roboto, sans-serif; font-size: 12px; font-weight: 200;" x="208.850998878479" y="0" dx="0em" dy="0.95em" fill="rgb(50, 49, 63)" stroke="none" stroke-width="1px">40</text><text style="text-anchor: middle; visibility: inherit; font-family: Roboto, sans-serif; font-size: 12px; font-weight: 200;" x="232.05666542053223" y="0" dx="0em" dy="0.95em" fill="rgb(50, 49, 63)" stroke="none" stroke-width="1px">45</text><text style="text-anchor: middle; visibility: inherit; font-family: Roboto, sans-serif; font-size: 12px; font-weight: 200;" x="255.26233196258545" y="0" dx="0em" dy="0.95em" fill="rgb(50, 49, 63)" stroke="none" stroke-width="1px">50</text><text style="text-anchor: middle; visibility: hidden; font-family: Roboto, sans-serif; font-size: 12px; font-weight: 200;" x="278.4679985046387" y="0" dx="0em" dy="0.95em" fill="rgb(50, 49, 63)" stroke="none" stroke-width="1px">55</text></g><line x1="0" y1="0" x2="278.4679985046387" y2="0" fill="rgb(0, 0, 0)" stroke="rgb(204, 204, 204)" stroke-width="1px"></line></g></g></g></g></svg>